<?xml version="1.0" encoding="UTF-8"?>
<svg width="32px" height="32px" viewBox="0 0 32 32" version="1.1" xmlns="http://www.w3.org/2000/svg" xmlns:xlink="http://www.w3.org/1999/xlink">
    <!-- Generator: Sketch 51.2 (57519) - http://www.bohemiancoding.com/sketch -->
    <title>currency/$pac</title>
    <desc>Created with Sketch.</desc>
    <defs></defs>
    <g id="currency/$pac" stroke="none" stroke-width="1" fill="none" fill-rule="evenodd">
        <g id="$pac" fill-rule="nonzero">
            <circle id="Oval" fill="#F8E42C" cx="16" cy="16" r="16"></circle>
            <path d="M9.009,19.198 L9.009,13.043 C9.009,12.154 9.237,11.313 9.579,10.5 C9.99325165,9.5107353 10.6268681,8.62852783 11.432,7.92 C12.2124196,7.22397526 13.1296974,6.69874601 14.125,6.378 C14.941,6.114 15.778,5.974 16.631,6.004 C17.123,6.022 17.615,6.124 18.101,6.215 C18.7875016,6.34727674 19.4511144,6.57869906 20.071,6.902 C20.749,7.25 21.371,7.674 21.908,8.209 C22.6556507,8.95594695 23.2426737,9.84788155 23.633,10.83 C23.708,11.015 23.786,11.2 23.853,11.387 C23.933,11.603 23.867,11.697 23.64,11.697 C22.793,11.698 21.946,11.715 21.1,11.688 C20.691,11.675 20.276,11.593 19.919,11.375 C19.751,11.273 19.618,11.11 19.484,10.962 C19.0793749,10.5080152 18.5718797,10.1575692 18.004,9.94 C17.3420965,9.68309648 16.6211122,9.61827721 15.924,9.753 C15.069,9.913 14.349,10.296 13.773,10.933 C13.275,11.483 12.934,12.113 12.847,12.855 C12.814,13.128 12.787,13.405 12.786,13.68 C12.783,16.519 12.775,19.358 12.795,22.197 C12.802,23.304 12.39,24.215 11.6,24.971 C11.1353048,25.4148091 10.5599223,25.72564 9.934,25.871 C9.688,25.931 9.435,25.971 9.184,26 C9.131,26.006 9.046,25.931 9.016,25.873 C8.986,25.817 9.006,25.735 9.006,25.663 L9.006,19.198 L9.009,19.198 Z M13.515,15.696 C13.946,16.206 14.416,16.6 14.989,16.864 C15.632,17.159 16.313,17.298 17.013,17.207 C18.123,17.063 19.041,16.563 19.719,15.666 C19.92,15.399 20.217,15.264 20.537,15.214 C20.8660984,15.1650079 21.1982788,15.1396098 21.531,15.138 C22.279,15.128 23.027,15.134 23.775,15.136 C24.021,15.136 24.034,15.15 23.962,15.37 C23.6194868,16.4216096 23.087012,17.4014854 22.391,18.261 C21.641,19.19 20.748,19.945 19.627,20.396 C19.124,20.598 18.587,20.764 18.052,20.831 C17.348,20.919 16.628,20.929 15.918,20.901 C15.447,20.884 14.979,20.751 14.513,20.655 C14.251,20.601 13.996,20.521 13.738,20.451 C13.594,20.413 13.498,20.348 13.498,20.173 C13.503,18.728 13.501,17.283 13.501,15.838 C13.501,15.806 13.507,15.775 13.515,15.696 Z" id="Shape" fill="#FFFFFF"></path>
        </g>
    </g>
</svg>