<?xml version="1.0" encoding="UTF-8"?>
<svg width="32px" height="32px" viewBox="0 0 32 32" version="1.1" xmlns="http://www.w3.org/2000/svg" xmlns:xlink="http://www.w3.org/1999/xlink">
    <!-- Generator: Sketch 51.2 (57519) - http://www.bohemiancoding.com/sketch -->
    <title>currency/act</title>
    <desc>Created with Sketch.</desc>
    <defs></defs>
    <g id="currency/act" stroke="none" stroke-width="1" fill="none" fill-rule="evenodd">
        <g id="act" fill-rule="nonzero">
            <circle id="Oval" fill="#767DFF" cx="16" cy="16" r="16"></circle>
            <path d="M13.77,6.5 L18.23,6.5 C18.5446791,6.49984343 18.8349158,6.66962613 18.989,6.944 L25.895,19.263 C26.0428296,19.5270507 26.0428296,19.8489493 25.895,20.113 L23.685,24.055 C23.53135,24.3294476 23.2415308,24.4995921 22.927,24.5 L9.073,24.5 C8.75811123,24.4999537 8.46782497,24.3297596 8.314,24.055 L6.105,20.113 C5.95717039,19.8489493 5.95717039,19.5270507 6.105,19.263 L13.011,6.944 C13.1650842,6.66962613 13.4553209,6.49984343 13.77,6.5 Z M16,11.401 L11.347,19.688 L20.653,19.688 L16,11.401 Z" id="Shape" fill="#FFFFFF"></path>
        </g>
    </g>
</svg>