<?xml version="1.0" encoding="UTF-8"?>
<svg width="32px" height="32px" viewBox="0 0 32 32" version="1.1" xmlns="http://www.w3.org/2000/svg" xmlns:xlink="http://www.w3.org/1999/xlink">
    <!-- Generator: Sketch 51.2 (57519) - http://www.bohemiancoding.com/sketch -->
    <title>currency/adx</title>
    <desc>Created with Sketch.</desc>
    <defs></defs>
    <g id="currency/adx" stroke="none" stroke-width="1" fill="none" fill-rule="evenodd">
        <g id="adx" fill-rule="nonzero">
            <circle id="Oval" fill="#1B75BC" cx="16" cy="16" r="16"></circle>
            <path d="M11.587,8.602 L16,13.208 L20.305,8.602 L23,11.36 L18.604,16 L23,20.603 L20.305,23.396 L16,18.792 L11.587,23.396 L9,20.68 L13.36,15.974 L9,11.36 L11.587,8.603 L11.587,8.602 Z M11.942,8.226 L15.982,4 L20.022,8.226 L17.896,10.491 L15.982,8.377 L14.068,10.491 L11.942,8.226 Z M11.942,23.774 L14.068,21.509 L15.982,23.623 L17.896,21.509 L20.022,23.774 L15.982,28 L11.942,23.774 Z" id="Shape" fill="#FFFFFF"></path>
        </g>
    </g>
</svg>