<?xml version="1.0" encoding="UTF-8"?>
<svg width="32px" height="32px" viewBox="0 0 32 32" version="1.1" xmlns="http://www.w3.org/2000/svg" xmlns:xlink="http://www.w3.org/1999/xlink">
    <!-- Generator: Sketch 51.2 (57519) - http://www.bohemiancoding.com/sketch -->
    <title>currency/ae</title>
    <desc>Created with Sketch.</desc>
    <defs></defs>
    <g id="currency/ae" stroke="none" stroke-width="1" fill="none" fill-rule="evenodd">
        <g id="ae" fill-rule="nonzero">
            <circle id="Oval" fill="#DE3F6B" cx="16" cy="16" r="16"></circle>
            <path d="M9.752,11 L10.656,11 C12.069,11.134 13.376,11.821 14.343,12.81 C16.352,14.849 17.456,17.726 20.013,19.243 C21.861,20.34 24.446,19.443 25.354,17.589 C25.816,17.581 26.281,17.581 26.743,17.583 C26.107,19.466 24.254,20.819 22.228,21 L21.482,21 C20.235,20.9 19.022,20.436 18.079,19.634 C16.709,18.511 15.829,16.97 14.764,15.598 C13.848,14.385 12.914,13.021 11.398,12.47 C9.525,11.791 7.238,12.853 6.555,14.657 C5.955,16.143 6.443,17.985 7.785,18.937 C8.791,19.689 10.192,19.97 11.4,19.532 C12.742,19.064 13.738,18 14.502,16.872 C14.803,17.289 15.096,17.712 15.386,18.138 C14.198,19.585 12.55,20.828 10.59,21 L9.787,21 C7.317,20.834 5.17,18.804 5,16.406 L5,15.621 C5.16,13.228 7.28,11.174 9.752,11 Z M21.432,11 L22.182,11 C24.675,11.157 26.795,13.228 27,15.626 L27,16.856 C24.943,16.874 22.884,16.862 20.827,16.864 C20.829,16.504 20.829,16.147 20.827,15.787 C22.453,15.783 24.077,15.794 25.7,15.783 C25.585,15.147 25.436,14.496 25.046,13.957 C24.096,12.553 22.087,11.979 20.481,12.587 C19.201,13.047 18.237,14.053 17.494,15.127 C17.208,14.73 16.924,14.327 16.649,13.921 C17.822,12.453 19.459,11.183 21.432,11 Z" id="Shape" fill="#FFFFFF"></path>
        </g>
    </g>
</svg>