<?xml version="1.0" encoding="UTF-8"?>
<svg width="32px" height="32px" viewBox="0 0 32 32" version="1.1" xmlns="http://www.w3.org/2000/svg" xmlns:xlink="http://www.w3.org/1999/xlink">
    <!-- Generator: Sketch 51.2 (57519) - http://www.bohemiancoding.com/sketch -->
    <title>currency/agi</title>
    <desc>Created with Sketch.</desc>
    <defs></defs>
    <g id="currency/agi" stroke="none" stroke-width="1" fill="none" fill-rule="evenodd">
        <g id="agi" fill-rule="nonzero">
            <circle id="Oval" fill="#6916FF" cx="16" cy="16" r="16"></circle>
            <g id="Group" transform="translate(11.000000, 6.000000)" fill="#FFFFFF">
                <path d="M6.14375,0.42424242 C6.0274923,0.33929528 5.9929268,0.18459647 6.0625,0.06060606 C6.1570819,-0.00067415 6.2804181,-0.00067415 6.375,0.06060606 C7.0833423,0.35576405 7.7215511,0.78897246 8.25,1.33333333 C8.5533144,1.61435196 8.8067196,1.941987 9,2.3030303 C9.2040135,2.67059407 9.3714371,3.0561757 9.5,3.45454545 C9.62347,3.86821876 9.6865831,4.2966224 9.6875,4.7272727 C9.625,5.1515152 9.5625,7.2121212 8.375,8.1818182 C8.0618373,8.369818 7.652006,8.2903355 7.4375,8 C7.2629044,7.7936978 7.2380263,7.5042067 7.375,7.2727273 C8.4049324,5.6687072 8.4528318,3.6482196 7.5,2 C7.1004984,1.43421021 6.6463672,0.90657831 6.14375,0.42424242 Z M4.3,19.0060606 C4.425,19.1272727 4.425,19.2484848 4.3625,19.3090909 C4.3,19.369697 4.175,19.430303 4.1125,19.369697 C3.4041577,19.074539 2.7659489,18.6413306 2.2375,18.0969697 C1.9341856,17.8159511 1.6807804,17.488316 1.4875,17.1272727 C1.2834865,16.759709 1.1160629,16.3741273 0.9875,15.9757576 C0.86403,15.5620843 0.8009169,15.1336807 0.8,14.7030303 C0.8625,14.2787879 0.925,12.2181818 2.1125,11.2484848 C2.4256627,11.0604851 2.835494,11.1399675 3.05,11.430303 C3.2381847,11.6383869 3.2381847,11.9494919 3.05,12.1575758 C2.0200676,13.7615958 1.9721682,15.7820834 2.925,17.430303 C3.3304303,17.9968982 3.7908637,18.5245575 4.3,19.0060606 Z" id="Shape" fill-opacity="0.5"></path>
                <path d="M9.69375,14.0060606 C9.6059633,12.8485162 9.1470427,11.7465771 8.38125,10.8545455 C7.6134125,10.0820004 6.7281634,9.4279636 5.75625,8.9151515 C4.9095228,8.4466941 4.1138096,7.896421 3.38125,7.2727273 C2.7731672,6.69848 2.3590921,5.9588242 2.19375,5.1515152 C2.0447074,4.3139636 2.1511476,3.45243636 2.5,2.67272727 C2.914094,1.8125254 3.5128647,1.0479998 4.25625,0.43030303 C4.3414692,0.3524863 4.3665491,0.23088696 4.31875,0.12727273 C4.284356,0.06285596 4.2206745,0.01791701 4.1468868,0.00599172 C4.0730991,-0.00593356 3.9978297,0.01654867 3.94375,0.06666667 C2.9407699,0.50737723 2.0932414,1.22385817 1.50625,2.12727273 C0.8391934,3.09011392 0.52853,4.2438349 0.625,5.4 C0.6743146,5.9850245 0.822104,6.558268 1.0625,7.0969697 C1.3215918,7.6261326 1.6584283,8.1160766 2.0625,8.5515152 C2.8532221,9.3082343 3.7597443,9.9419693 4.75,10.430303 C5.5983661,10.8703039 6.3947373,11.3986777 7.125,12.0060606 C7.7709268,12.5769304 8.1909472,13.3486425 8.3125,14.1878788 C8.4885426,15.0670086 8.3793708,15.9774354 8,16.7939394 C7.578876,17.6479031 6.9582936,18.3949364 6.1875,18.9757576 C6.1362912,19.0067085 6.1005413,19.0567968 6.0887073,19.1141735 C6.0768734,19.1715503 6.0900065,19.231119 6.125,19.2787879 C6.159394,19.3432046 6.2230755,19.3881436 6.2968632,19.4000689 C6.3706509,19.4119942 6.4459203,19.3895119 6.5,19.3393939 C7.4340424,18.7987011 8.2426495,18.0765001 8.875,17.2181818 C9.4942161,16.2595523 9.7811022,15.1340403 9.69375,14.0060606 Z" id="Shape"></path>
            </g>
        </g>
    </g>
</svg>