<?xml version="1.0" encoding="UTF-8"?>
<svg width="32px" height="32px" viewBox="0 0 32 32" version="1.1" xmlns="http://www.w3.org/2000/svg" xmlns:xlink="http://www.w3.org/1999/xlink">
    <!-- Generator: Sketch 51.2 (57519) - http://www.bohemiancoding.com/sketch -->
    <title>currency/agrs</title>
    <desc>Created with Sketch.</desc>
    <defs></defs>
    <g id="currency/agrs" stroke="none" stroke-width="1" fill="none" fill-rule="evenodd">
        <g id="agrs" fill-rule="nonzero">
            <circle id="Oval" fill="#F49E00" cx="16" cy="16" r="16"></circle>
            <path d="M19.7554845,17.3340569 C22.0008428,13.8152965 23.7490147,8 23.7490147,8 L20.0040778,8.84855063 L18.6328054,13.6985235 C18.5044992,10.0629901 16.0105476,8.7317776 16.0105476,8.7317776 C14.0137826,7.75866909 12.2335342,8.18683684 10.9504723,8.85633549 C9.36268324,9.68153152 8.20792754,11.1217321 7.6546071,12.779909 C6.86873169,15.1387241 6.96496133,17.7855792 7.06921011,18.9844489 C7.11081674,19.5462651 7.23503623,20.0994088 7.43809041,20.6270561 C8.81738194,24.2003106 12.6344911,23.997904 12.6344911,23.997904 C16.1308347,23.8733461 18.255906,19.7551509 18.255906,19.7551509 L19.2582981,22.7834646 C20.1564414,24.3015139 22.1451873,23.7332185 22.5541633,23.6475849 C22.6263355,23.6320152 22.6904886,23.6242303 22.7626608,23.6086606 L25,23.2661264 L25,22.2930179 C20.132384,22.4253606 19.7554845,17.3340569 19.7554845,17.3340569 M15.0161747,20.9929449 C14.7177428,21.300168 14.337473,21.5211256 13.9175529,21.6313041 C13.0113905,21.8570653 12.3137256,21.4756067 11.8325774,21.0085146 C11.292743,20.4608576 10.9254661,19.7747741 10.7740513,19.0311581 C9.89194627,14.0410577 11.1108551,11.8535097 11.9207879,10.8492617 C12.3601536,10.2814347 13.0582066,9.95860086 13.7892468,9.98514137 C16.9327484,10.1486236 17.6384324,16.7268372 17.6384324,16.7268372 C16.7483082,19.0622976 15.6015717,20.4168647 15.0161747,20.9929449" id="Shape" fill="#FFFFFF"></path>
        </g>
    </g>
</svg>