<?xml version="1.0" encoding="UTF-8"?>
<svg width="32px" height="32px" viewBox="0 0 32 32" version="1.1" xmlns="http://www.w3.org/2000/svg" xmlns:xlink="http://www.w3.org/1999/xlink">
    <!-- Generator: Sketch 51.2 (57519) - http://www.bohemiancoding.com/sketch -->
    <title>currency/aion</title>
    <desc>Created with Sketch.</desc>
    <defs></defs>
    <g id="currency/aion" stroke="none" stroke-width="1" fill="none" fill-rule="evenodd">
        <g id="aion" fill-rule="nonzero">
            <circle id="Oval" fill="#00BFEC" cx="16" cy="16" r="16"></circle>
            <g id="Group" transform="translate(5.000000, 5.000000)" fill="#FFFFFF">
                <path d="M10.971,18.15 C7.014,18.15 3.795,14.951 3.795,11.02 C3.795,7.088 7.015,3.89 10.971,3.89 C14.928,3.89 18.147,7.088 18.147,11.02 C18.147,14.951 14.928,18.15 10.971,18.15 Z M10.971,5.286 C7.79,5.286 5.201,7.858 5.201,11.02 C5.201,14.181 7.79,16.753 10.971,16.753 C14.153,16.753 16.741,14.181 16.741,11.02 C16.741,7.858 14.153,5.286 10.971,5.286 Z M15.996,2.871 C14.4821447,1.94920253 12.7434173,1.46270487 10.971,1.465 C9.33950894,1.46432307 7.73436836,1.87644446 6.305,2.663 L5.621,1.443 C7.25960929,0.54012659 9.10011231,0.0667560935 10.971,0.067 C13.011,0.067 15.003,0.625 16.732,1.681 L15.996,2.871 Z M18.091,19.381 L17.182,18.314 C19.3397498,16.5057987 20.5864338,13.8352221 20.587,11.02 L21.993,11.02 C21.993,14.246 20.571,17.293 18.091,19.38 L18.091,19.381 Z M10.971,21.971 C8.414,21.971 5.922,21.081 3.955,19.466 L4.851,18.39 C6.57774668,19.8027199 8.7399842,20.5746952 10.971,20.575 C12.531,20.575 14.019,20.215 15.393,19.507 L16.04,20.747 C14.4714959,21.5518311 12.7339403,21.9717375 10.971,21.972 L10.971,21.971 Z" id="Shape"></path>
                <path d="M20.35,8.425 C19.9823766,7.10636604 19.335792,5.88208419 18.454,4.835 L19.354,4.089 C20.342534,5.26291887 21.06723,6.6355784 21.479,8.114 L20.351,8.425 L20.35,8.425 Z M1.86,16.976 C0.688041724,15.2109331 0.0642181883,13.1387117 0.067,11.02 C0.067,8.058 1.247,5.292 3.39,3.231 L4.204,4.068 C2.30275423,5.879808 1.23021737,8.39372448 1.238,11.02 C1.238,12.919 1.792,14.757 2.838,16.336 L1.86,16.976 Z" id="Shape" opacity="0.5"></path>
            </g>
        </g>
    </g>
</svg>