<?xml version="1.0" encoding="UTF-8"?>
<svg width="32px" height="32px" viewBox="0 0 32 32" version="1.1" xmlns="http://www.w3.org/2000/svg" xmlns:xlink="http://www.w3.org/1999/xlink">
    <!-- Generator: Sketch 51.2 (57519) - http://www.bohemiancoding.com/sketch -->
    <title>currency/amp</title>
    <desc>Created with Sketch.</desc>
    <defs></defs>
    <g id="currency/amp" stroke="none" stroke-width="1" fill="none" fill-rule="evenodd">
        <g id="amp" fill-rule="nonzero">
            <circle id="Oval" fill="#2DAEE4" cx="16" cy="16" r="16"></circle>
            <path d="M8.303,11.957 L8.413,11.957 C9.376,11.939 10.213,11.575 10.923,10.866 C11.613,10.12 11.959,9.265 11.959,8.301 C11.959,7.81 12.136,7.387 12.491,7.032 C12.831042,6.68337089 13.3000845,6.49083184 13.787,6.5 C14.277,6.5 14.701,6.677 15.055,7.032 C15.41,7.387 15.587,7.81 15.587,8.301 C15.587,8.791 15.419,9.215 15.083,9.57 C14.7709227,9.91330744 14.3327437,10.1150719 13.869,10.129 C12.832,10.092 11.941,10.447 11.195,11.193 C10.449,11.939 10.095,12.812 10.131,13.813 C10.167,14.849 10.541,15.713 11.25,16.404 C12.032,17.095 12.905,17.432 13.869,17.414 C14.3328938,17.4281863 14.7710957,17.6303223 15.083,17.974 C15.419,18.328 15.587,18.742 15.587,19.214 C15.587,19.724 15.41,20.156 15.055,20.511 C14.7238523,20.8557074 14.2649692,21.0482356 13.787,21.043 C13.277,21.043 12.846,20.865 12.491,20.511 C12.1423709,20.170958 11.9498318,19.7019155 11.959,19.215 C11.9745812,18.2710669 11.5992827,17.3626781 10.922,16.705 C10.2683374,16.0116458 9.36461104,15.6083894 8.412,15.585 C8.067,15.604 7.772,15.549 7.526,15.422 C7.2843322,15.2981087 7.07793033,15.115099 6.926,14.89 C6.76931534,14.6583785 6.65801267,14.3991247 6.598,14.126 C6.535102,13.8532788 6.52155481,13.5714973 6.558,13.294 C6.794,12.403 7.376,11.957 8.303,11.957 Z M8.328,17.414 C8.801,17.414 9.215,17.587 9.569,17.933 C9.924,18.278 10.11,18.688 10.129,19.161 C10.11,20.161 10.456,21.034 11.165,21.78 C11.875,22.507 12.729,22.871 13.73,22.871 L13.812,22.871 C14.794,22.871 15.639,22.507 16.349,21.78 C17.076,21.052 17.431,20.18 17.413,19.16 C17.4102265,18.1952644 17.0045654,17.2755483 16.294,16.623 C15.576,15.94 14.741,15.594 13.787,15.586 L13.675,15.586 C13.2112563,15.5720719 12.7730773,15.3703074 12.461,15.027 C12.1306237,14.6879782 11.9488969,14.2313221 11.956,13.758 C11.956,13.268 12.134,12.844 12.488,12.489 C12.789,12.189 13.146,12.015 13.558,11.969 L13.678,11.957 L13.724,11.958 C13.7716645,11.9567394 13.8193578,11.9570729 13.867,11.959 C14.807,11.947 15.625,11.592 16.324,10.893 C17.07,10.147 17.434,9.265 17.415,8.246 C17.415,7.846 17.552,7.482 17.825,7.155 L17.852,7.128 L17.879,7.1 C17.879,7.082 17.889,7.073 17.906,7.073 L17.934,7.046 L17.934,7.019 L17.961,7.019 L17.961,6.99 C17.979,6.99 17.988,6.981 17.988,6.963 L18.015,6.936 L18.07,6.936 C18.07,6.917 18.08,6.908 18.097,6.908 L18.125,6.881 L18.125,6.854 L18.179,6.854 C18.179,6.835 18.189,6.826 18.206,6.826 L18.234,6.799 L18.261,6.772 L18.288,6.772 C18.288,6.754 18.298,6.745 18.316,6.745 C18.334,6.745 18.343,6.735 18.343,6.717 L18.37,6.717 L18.397,6.69 L18.452,6.69 L18.452,6.663 L18.479,6.663 L18.507,6.635 L18.561,6.635 L18.561,6.61 L18.616,6.61 L18.643,6.583 L18.698,6.583 L18.725,6.556 L18.807,6.556 L18.834,6.528 L18.916,6.528 C18.934,6.528 18.943,6.519 18.943,6.501 L19.516,6.501 L19.53,6.515 C19.539,6.524 19.552,6.528 19.57,6.528 L19.625,6.528 L19.639,6.542 C19.648,6.551 19.661,6.556 19.679,6.556 L19.734,6.556 L19.761,6.583 L19.816,6.583 L19.843,6.61 L19.898,6.61 C19.916,6.628 19.934,6.637 19.952,6.637 L19.98,6.665 L20.034,6.665 L20.034,6.692 L20.062,6.692 L20.089,6.719 L20.102,6.733 C20.112,6.743 20.125,6.747 20.143,6.747 L20.171,6.774 L20.198,6.774 C20.198,6.792 20.216,6.801 20.252,6.801 L20.28,6.828 L20.28,6.856 L20.307,6.856 C20.307,6.874 20.325,6.883 20.362,6.883 C20.362,6.901 20.371,6.91 20.389,6.91 L20.389,6.938 L20.416,6.938 L20.444,6.965 C20.462,6.983 20.48,6.992 20.498,6.992 L20.525,7.02 C20.525,7.038 20.535,7.047 20.553,7.047 L20.553,7.074 L20.58,7.074 C20.58,7.092 20.585,7.106 20.594,7.114 L20.607,7.129 C20.607,7.147 20.617,7.156 20.635,7.156 L20.662,7.183 C20.662,7.201 20.666,7.215 20.675,7.224 L20.689,7.238 L20.716,7.265 L20.744,7.292 L20.744,7.347 L20.771,7.374 L20.771,7.4 L20.798,7.4 C20.798,7.419 20.803,7.432 20.812,7.441 L20.825,7.455 C20.825,7.473 20.835,7.482 20.853,7.482 L20.853,7.51 C20.853,7.528 20.857,7.541 20.866,7.55 L20.88,7.564 L20.907,7.591 C20.907,7.628 20.917,7.646 20.935,7.646 L20.935,7.673 C20.935,7.692 20.939,7.705 20.948,7.714 L20.962,7.728 L20.962,7.782 L20.989,7.81 L20.989,7.892 C21.007,7.91 21.016,7.928 21.016,7.946 L21.016,8.028 C21.035,8.046 21.044,8.064 21.044,8.083 L21.044,8.3 C21.044,9.264 21.389,10.119 22.08,10.865 C22.79,11.574 23.636,11.938 24.618,11.956 C25.108,11.938 25.545,12.106 25.928,12.461 C26.309,12.815 26.5,13.247 26.5,13.757 C26.5,14.266 26.323,14.697 25.968,15.053 C25.6366134,15.3979622 25.1773154,15.5905127 24.699,15.585 C24.2260227,15.5918361 23.7697759,15.410129 23.431,15.08 C23.0831796,14.7593962 22.8809743,14.3109337 22.871,13.838 C22.89,12.838 22.526,11.956 21.781,11.192 C21.053,10.464 20.171,10.11 19.134,10.128 C18.1815356,10.151128 17.2778308,10.5540148 16.624,11.247 C15.9466163,11.9046096 15.5712989,12.8130442 15.587,13.757 L15.586,13.841 C15.606,14.771 15.951,15.598 16.622,16.321 C17.331,17.031 18.177,17.395 19.159,17.413 C19.813,17.377 20.314,17.613 20.659,18.123 C21.005,18.613 21.114,19.133 20.987,19.678 C20.732,20.588 20.15,21.042 19.241,21.042 L19.159,21.042 C18.14,21.078 17.294,21.452 16.622,22.161 C15.93,22.852 15.585,23.698 15.585,24.698 C15.585,25.189 15.408,25.612 15.053,25.967 C14.7216134,26.3119622 14.2623154,26.5045127 13.784,26.499 L13.73,26.499 C13.239,26.499 12.82,26.322 12.475,25.967 C12.1370949,25.6318672 11.9497829,25.1738731 11.956,24.698 C11.956,23.698 11.611,22.852 10.92,22.161 C10.2661692,21.4680148 9.36246437,21.065128 8.41,21.042 C7.90917186,21.0699137 7.41955054,20.8867591 7.06,20.537 C6.69279286,20.1963285 6.48896101,19.7147757 6.5,19.214 C6.5,18.723 6.677,18.3 7.032,17.945 C7.37204196,17.5963709 7.84108447,17.4038318 8.328,17.413 L8.328,17.414 Z" id="Shape" fill="#FFFFFF"></path>
        </g>
    </g>
</svg>