<?xml version="1.0" encoding="UTF-8"?>
<svg width="32px" height="32px" viewBox="0 0 32 32" version="1.1" xmlns="http://www.w3.org/2000/svg" xmlns:xlink="http://www.w3.org/1999/xlink">
    <!-- Generator: Sketch 51.2 (57519) - http://www.bohemiancoding.com/sketch -->
    <title>currency/ant</title>
    <desc>Created with Sketch.</desc>
    <defs></defs>
    <g id="currency/ant" stroke="none" stroke-width="1" fill="none" fill-rule="evenodd">
        <g id="ant" fill-rule="nonzero">
            <circle id="Oval" fill="#2CD3E1" cx="16" cy="16" r="16"></circle>
            <path d="M7.965,17.598 C7.95849852,17.4924571 7.95516369,17.3867429 7.955,17.281 C7.955,13.764 10.697,10.905 14.127,10.783 C14.209,10.783 14.297,10.783 14.379,10.79 L13.561,9.977 C13.561,9.977 16.854,9.427 21.082,11.969 C21.082,11.969 21.144,12.098 21.082,12.477 C21.082,12.477 23.074,13.331 23.244,14.991 C23.414,16.651 22.358,17.6 21.505,17.735 C21.505,17.735 21.948,17.051 21.267,16.685 C21.1184822,16.6047057 20.9505551,16.5673117 20.782,16.577 C19.48,16.577 19.33,18.054 19.33,18.054 C19.316,18.128 19.316,18.203 19.316,18.277 C19.316,18.277 19.126,20.156 22.238,20.377 C22.9491951,19.4596825 23.5722876,18.4773326 24.099,17.443 C24.9303503,15.8123022 25.5529202,14.0833521 25.952,12.297 C24.139,10.811 22.001,9.537 19.702,8.47 C18.84,8.07 18.005,7.723 17.214,7.425 C16.8107763,7.27207925 16.4039961,7.12870591 15.994,6.995 C15.672,7.099 15.264,7.241 14.774,7.425 C13.984,7.722 13.148,8.07 12.287,8.47 C9.99,9.536 7.851,10.81 6.038,12.298 C6.136,12.77 6.285,13.359 6.499,14.043 C6.88064186,15.2693586 7.37126529,16.4591036 7.965,17.598 Z M27,11.902 L26.95,12.182 C26.924,12.399 26.747,13.177 26.529,13.922 C26.1308406,15.2848922 25.6055329,16.6073684 24.96,17.872 C24.054,19.638 22.954,21.178 21.692,22.446 C20.135,24.007 18.333,25.16 16.325,25.878 L16.213,25.918 L16,26 L15.789,25.926 L15.671,25.885 C13.6471744,25.1582538 11.8130947,23.9848667 10.305,22.452 C9.037,21.172 7.938,19.635 7.037,17.878 C6.19715456,16.2272409 5.56243882,14.4799256 5.147,12.675 C5.097,12.451 5.042,12.171 5.052,12.211 L5,11.923 L5.12,11.823 L5.208,11.748 C7.052,10.196 9.233,8.865 11.588,7.746 C12.9134728,7.10962544 14.2786449,6.55948147 15.675,6.099 L15.993,6 L16.21,6.065 L16.318,6.1 C17.398,6.447 18.833,7 20.402,7.746 C22.754,8.863 24.932,10.192 26.774,11.741 L27,11.901 L27,11.902 Z M19.398,12.626 C19.453,12.599 19.63,12.511 19.835,12.301 C20.244,12.355 20.646,12.484 20.646,12.484 C19.903,12.037 18.886,11.772 17.761,11.779 C17.761,11.779 18.191,12.389 19.384,12.639 L19.398,12.626 Z" id="Shape" fill="#FFFFFF"></path>
        </g>
    </g>
</svg>