<?xml version="1.0" encoding="UTF-8"?>
<svg width="32px" height="32px" viewBox="0 0 32 32" version="1.1" xmlns="http://www.w3.org/2000/svg" xmlns:xlink="http://www.w3.org/1999/xlink">
    <!-- Generator: Sketch 51.2 (57519) - http://www.bohemiancoding.com/sketch -->
    <title>currency/arn</title>
    <desc>Created with Sketch.</desc>
    <defs></defs>
    <g id="currency/arn" stroke="none" stroke-width="1" fill="none" fill-rule="evenodd">
        <g id="arn" fill-rule="nonzero">
            <circle id="Oval" fill="#0092B5" cx="16" cy="16" r="16"></circle>
            <path d="M11.7594513,14.1022526 L16.0421786,6.56400534 C16.0502947,6.54972689 16.0656825,6.54090293 16.1221878,6.5645641 L20.1961955,13.9654317 C19.9762162,14.1458226 19.8362011,14.4175467 19.8362011,14.7214725 C19.8362011,15.0367981 19.9869167,15.3174611 20.2212831,15.4974233 L16.4581746,22.2846474 C16.3265675,22.2217609 16.1788255,22.1864924 16.022718,22.1864924 C15.8710497,22.1864924 15.7272778,22.2197836 15.5985276,22.2793498 L11.725118,15.3801854 C11.8849433,15.2058342 11.9822522,14.9748432 11.9822522,14.7214725 C11.9822522,14.4867913 11.8987695,14.2713099 11.7594513,14.1022526 Z M11.3504241,15.6364104 L15.2382416,22.5612375 C15.1551607,22.6649198 15.0928252,22.7854686 15.0574015,22.9168121 C11.919195,22.1654502 9.96896831,21.7003568 9.20577885,21.5213094 C8.88276846,21.0668935 8.60030131,20.5855567 8.36167282,20.0828561 L10.8536271,15.69664 C10.8961529,15.7020799 10.9395185,15.7048858 10.9835496,15.7048858 C11.1130802,15.7048858 11.2368511,15.6806038 11.3504241,15.6364104 Z M10.8113527,13.7526227 L7.72399968,8.25355121 C9.82782204,7.13457033 12.4393343,6.55005326 15.5585363,6.5 L11.3965056,13.8258029 C11.2706479,13.7694483 11.1308214,13.7380593 10.9835496,13.7380593 C10.9248292,13.7380593 10.8672924,13.7430495 10.8113527,13.7526227 Z M10.3918997,13.9291244 C10.145024,14.1081665 9.98484709,14.3964002 9.98484709,14.7214725 C9.98484709,15.0606747 10.1592513,15.3597662 10.4245778,15.5365429 L8.13504207,19.5664717 C7.75863641,18.6346827 7.52853121,17.6394701 7.46407563,16.6134625 L7.00169135,9.23094374 C6.98371514,8.94049665 7.1100011,8.6629556 7.33425146,8.48296208 L10.3918997,13.9291244 Z M16.9907972,22.9272895 C16.9570897,22.7964783 16.8967567,22.6761239 16.8158116,22.5721476 L20.634299,15.6850408 C20.699105,15.6980533 20.766194,15.7048858 20.8349037,15.7048858 C20.9375365,15.7048858 21.0365535,15.6896413 21.1297466,15.6613264 L23.6036497,20.155434 C23.3941071,20.5874417 23.152039,21.0033426 22.8795627,21.3995661 L16.9907972,22.9272895 Z M16.2495389,24.1278456 C16.6206043,24.0429915 16.9123394,23.7544771 16.9966818,23.3884043 L22.4529906,21.9728733 C21.8031674,22.7815175 21.0174539,23.4909096 20.1169344,24.0654951 L16.4939528,26.3789327 C16.4171497,26.4279574 16.33472,26.4644567 16.2495389,26.4884304 L16.2495389,24.1278456 Z M15.7958972,24.1278456 L15.7958972,26.5 C15.6945725,26.4770046 15.5963549,26.4366488 15.5059356,26.3789327 L11.8830619,24.0651758 C11.0238503,23.5169471 10.2691537,22.8459958 9.63728595,22.0832043 C10.6267313,22.3176175 12.4296941,22.7480624 15.04564,23.3744131 C15.1256959,23.7471125 15.4201171,24.0419134 15.7958972,24.1278456 Z M21.1660559,13.7934106 C21.062426,13.757558 20.9509773,13.7380593 20.8349037,13.7380593 C20.7547173,13.7380593 20.6767381,13.7473648 20.6020191,13.764939 L16.60455,6.50311197 C19.6372282,6.57031164 22.1844872,7.14852991 24.2463271,8.23776677 L21.1660559,13.7934106 Z M21.5494618,14.0344333 L24.6389336,8.46219495 C24.8798973,8.64117575 25.0170071,8.92909602 24.998305,9.23094374 L24.5359207,16.6137819 C24.4698,17.6662958 24.2293601,18.686403 23.835489,19.6388803 L21.5216281,15.4355064 C21.7137624,15.2562745 21.8336062,15.0026548 21.8336062,14.7214725 C21.8336062,14.4541271 21.7252671,14.2116983 21.5494618,14.0344333 Z M16.0000521,11.2348159 C15.7114397,11.2348159 15.4588769,11.4835967 15.4588769,11.7678263 L15.4588769,13.7224107 L12.5725369,15.4992185 L12.8819804,16.1664662 L15.4588769,15.3215483 L15.4588769,17.2760263 L14.7372379,17.8091431 L14.7372379,18.3421535 L16.0000521,17.9868133 L17.2628664,18.3421535 L17.2628664,17.8091431 L16.5412274,17.2760263 L16.5412274,15.3215483 L19.0738715,16.2114958 L19.4274594,15.4996443 L16.5412274,13.7224107 L16.5412274,11.7678263 C16.5412274,11.4835967 16.2886645,11.2348159 16.0000521,11.2348159 Z" id="Shape" fill="#FFFFFF"></path>
        </g>
    </g>
</svg>