<?xml version="1.0" encoding="UTF-8"?>
<svg width="32px" height="32px" viewBox="0 0 32 32" version="1.1" xmlns="http://www.w3.org/2000/svg" xmlns:xlink="http://www.w3.org/1999/xlink">
    <!-- Generator: Sketch 51.2 (57519) - http://www.bohemiancoding.com/sketch -->
    <title>currency/ary</title>
    <desc>Created with Sketch.</desc>
    <defs></defs>
    <g id="currency/ary" stroke="none" stroke-width="1" fill="none" fill-rule="evenodd">
        <g id="ary" fill-rule="nonzero">
            <circle id="Oval" fill="#343434" cx="16" cy="16" r="16"></circle>
            <path d="M23.9167628,21.1103303 C24.2763444,20.983837 24.5119324,20.642305 24.4871337,20.2501757 L24.4871337,21.3506676 C24.4871337,21.7301476 24.2515457,22.0843289 23.8919641,22.2108222 L16.303551,24.943078 C16.1175605,25.018974 15.9067713,25.018974 15.7083814,24.943078 L8.11996838,22.2108222 C7.76038672,22.0843289 7.52479874,21.7427969 7.52479874,21.3506676 L7.52479874,20.2501757 C7.52479874,20.6296557 7.76038672,20.983837 8.11996838,21.1103303 L15.7331801,23.8425861 C15.9191706,23.9184821 16.1299599,23.9184821 16.3283498,23.8425861 L23.9167628,21.1103303 Z M23.9167628,19.1623331 C24.2763444,19.0231904 24.5119324,18.6816585 24.4871337,18.3021785 L24.4871337,19.4026704 C24.4871337,19.7821504 24.2515457,20.1363317 23.8919641,20.262825 L16.303551,22.9950808 C16.1175605,23.0709768 15.9067713,23.0709768 15.7083814,22.9950808 L8.11996838,20.262825 C7.76038672,20.1363317 7.52479874,19.7947997 7.52479874,19.4026704 L7.52479874,18.2895292 C7.52479874,18.6816585 7.76038672,19.0231904 8.11996838,19.1623331 L15.7331801,21.8945889 C15.9191706,21.9704849 16.1299599,21.9704849 16.3283498,21.8945889 L23.9167628,19.1623331 Z M23.9167628,17.2016866 C24.2763444,17.0751933 24.5119324,16.7210119 24.4995331,16.3541813 L24.4995331,17.4546732 C24.4995331,17.8341532 24.2639451,18.1883345 23.9043634,18.3148278 L16.3159504,21.0470836 C16.1299599,21.1229796 15.9191706,21.1229796 15.7207808,21.0470836 L8.11996838,18.3021785 C7.76038672,18.1756852 7.52479874,17.8341532 7.52479874,17.4420239 L7.52479874,16.341532 C7.52479874,16.7210119 7.76038672,17.0751933 8.11996838,17.2016866 L15.7331801,19.9339424 C15.9191706,20.0098384 16.1299599,20.0098384 16.3283498,19.9339424 L23.9167628,17.2016866 Z M7.5,10.6619817 C7.5,10.2698524 7.73558799,9.92832045 8.09516965,9.80182713 L15.695982,7.056922 C15.8819725,6.981026 16.0927618,6.981026 16.2911517,7.056922 L23.8919641,9.80182713 C24.2515457,9.92832045 24.4871337,10.2698524 24.4871337,10.6619817 L24.4871337,15.4940267 C24.4871337,15.8735067 24.2515457,16.227688 23.8919641,16.3541813 L16.2787523,19.0864371 C16.0927618,19.1623331 15.8819725,19.1623331 15.6835827,19.0864371 L8.09516965,16.3541813 C7.73558799,16.227688 7.5,15.886156 7.5,15.4940267 L7.5,10.6619817 Z" id="Shape" fill="#FFFFFF"></path>
        </g>
    </g>
</svg>