<?xml version="1.0" encoding="UTF-8"?>
<svg width="32px" height="32px" viewBox="0 0 32 32" version="1.1" xmlns="http://www.w3.org/2000/svg" xmlns:xlink="http://www.w3.org/1999/xlink">
    <!-- Generator: Sketch 51.2 (57519) - http://www.bohemiancoding.com/sketch -->
    <title>currency/ast</title>
    <desc>Created with Sketch.</desc>
    <defs></defs>
    <g id="currency/ast" stroke="none" stroke-width="1" fill="none" fill-rule="evenodd">
        <g id="ast" fill-rule="nonzero">
            <circle id="Oval" fill="#0061FF" cx="16" cy="16" r="16"></circle>
            <path d="M16.01,6 L26,16.14 L25.625,16.48 C25.458,16.64 25.28,16.79 25.093,16.94 C24.767,17.201 24.423,17.461 24.077,17.692 C22.6779201,18.6392982 21.1217747,19.3306927 19.481,19.734 C18.345,20.014 17.179,20.154 16.01,20.154 C14.53,20.154 13.06,19.934 11.65,19.484 C10.2075123,19.0308954 8.84620038,18.3514209 7.617,17.471 C7.292,17.231 6.967,16.981 6.661,16.721 C6.562,16.641 6.473,16.561 6.385,16.481 L6,16.14 L7.095,15.028 L16.01,6 Z M24.748,16.47 C24.896,16.35 25.043,16.23 25.172,16.1 L16,6.81 L6.829,16.1 L7.016,16.26 C7.322,16.51 7.627,16.76 7.943,16.98 C10.2931009,18.6686242 13.1161557,19.5725477 16.01,19.563 C17.1367952,19.5617316 18.2592936,19.4240635 19.353,19.153 C20.9294577,18.7635207 22.4249783,18.0993714 23.771,17.191 C24.109,16.969 24.435,16.728 24.748,16.471 L24.748,16.47 Z M9.718,15.99 C11.6491132,15.129601 13.7379118,14.6797636 15.852,14.669 C18.338,14.669 20.783,15.329 22.923,16.591 L23.062,16.671 L22.923,16.761 C21.5089573,17.6687475 19.9309911,18.2911014 18.278,18.593 L18.239,18.603 L18.209,18.583 C15.6906279,17.0139469 12.7831743,16.1815138 9.816,16.18 L9.274,16.18 L9.718,15.99 Z M18.357,17.992 C19.609,17.752 20.803,17.322 21.907,16.701 C20.0288236,15.7435935 17.9501187,15.2459382 15.842,15.249 C14.572,15.249 13.309,15.419 12.085,15.759 C14.305,16.059 16.439,16.819 18.357,17.992 Z M21.661,19.964 C21.2155223,20.5700371 20.7416607,21.1546888 20.241,21.716 L16.01,26 L13.032,22.987 L13.662,22.947 C15.766,22.817 17.813,22.205 19.649,21.155 C20.201,20.885 21.661,19.964 21.661,19.964 Z M14.314,23.468 L16.01,25.189 L19.008,22.146 C17.5309049,22.8530732 15.9429979,23.3002852 14.314,23.468 Z" id="Shape" fill="#FFFFFF"></path>
        </g>
    </g>
</svg>