<?xml version="1.0" encoding="UTF-8"?>
<svg width="32px" height="32px" viewBox="0 0 32 32" version="1.1" xmlns="http://www.w3.org/2000/svg" xmlns:xlink="http://www.w3.org/1999/xlink">
    <!-- Generator: Sketch 51.2 (57519) - http://www.bohemiancoding.com/sketch -->
    <title>currency/atm</title>
    <desc>Created with Sketch.</desc>
    <defs></defs>
    <g id="currency/atm" stroke="none" stroke-width="1" fill="none" fill-rule="evenodd">
        <g id="atm" fill-rule="nonzero">
            <circle id="Oval" fill="#346FCE" cx="16" cy="16" r="16"></circle>
            <path d="M20.16,18.706 L21.116,20.503 C22.248388,22.6331958 21.4398925,25.2780416 19.31,26.411 L19.186,26.477 C18.1629322,27.0211165 16.9656137,27.136523 15.8574541,26.7978301 C14.7492945,26.4591373 13.8210737,25.6940905 13.277,24.671 L10.054,18.609 C8.96604094,16.563049 9.66464591,14.0235849 11.646,12.822 L10.69,11.025 C9.55776513,8.89453994 10.366736,6.24960368 12.497,5.117 L12.621,5.051 C14.7511958,3.91861196 17.3960416,4.72710749 18.529,6.857 L21.752,12.919 C22.8401362,14.9646972 22.1419904,17.5040872 20.161,18.706 L20.16,18.706 Z M20.16,18.706 L17.893,14.441 C16.7600416,12.3111075 14.1151958,11.502612 11.985,12.635 L11.861,12.7 C11.788,12.74 11.716,12.78 11.646,12.822 L13.914,17.087 C15.0469584,19.2168925 17.6918042,20.025388 19.822,18.893 L19.946,18.828 C20.019,18.788 20.091,18.748 20.161,18.706 L20.16,18.706 Z" id="Shape" fill="#FFFFFF"></path>
        </g>
    </g>
</svg>