<?xml version="1.0" encoding="UTF-8"?>
<svg width="32px" height="32px" viewBox="0 0 32 32" version="1.1" xmlns="http://www.w3.org/2000/svg" xmlns:xlink="http://www.w3.org/1999/xlink">
    <!-- Generator: Sketch 51.2 (57519) - http://www.bohemiancoding.com/sketch -->
    <title>currency/bay</title>
    <desc>Created with Sketch.</desc>
    <defs></defs>
    <g id="currency/bay" stroke="none" stroke-width="1" fill="none" fill-rule="evenodd">
        <g id="bay" fill-rule="nonzero">
            <circle id="Oval" fill="#6356AB" cx="16" cy="16" r="16"></circle>
            <path d="M22.784,15.974 C22.842,15.909 22.907,15.844 22.972,15.778 C23.182,15.552 23.412,15.311 23.629,15.078 C24.498399,14.1717134 24.9845039,12.9648693 24.986,11.709 C24.986,11.622 25,11.264 25,11.213 C24.899,8.341 22.481,6 19.623,6 L10.623,6 L10.623,9.631 L7,9.631 L7,26 L19.767,26 C22.604,26 25,23.477 25,20.488 C25.007,18.351 23.686,16.842 22.784,15.974 Z M12.427,11.454 L19.594,11.461 L15.091,16.026 L19.544,20.546 L12.427,20.546 L12.427,11.454 Z M19.767,24.17 L8.804,24.17 L8.804,11.447 L10.624,11.447 L10.624,22.362 L19.544,22.362 C20.28,22.362 20.937,21.917 21.218,21.232 C21.5009,20.5503613 21.3471658,19.7655289 20.828,19.241 L17.646,16.018 L20.879,12.744 C21.399,12.219 21.55,11.439 21.269,10.754 C20.9928694,10.0713865 20.3303485,9.62443211 19.594,9.624 L12.434,9.624 L12.434,7.816 L19.63,7.816 C21.536,7.816 23.138,9.369 23.203,11.257 C23.203,11.337 23.188,11.651 23.188,11.658 L23.188,11.694 C23.1879013,12.485815 22.8802727,13.2466399 22.33,13.816 C22.106,14.05 21.875,14.297 21.666,14.516 C21.312,14.888 21.009,15.209 20.864,15.355 L20.214,15.996 L20.857,16.646 C20.944,16.733 21.052,16.835 21.182,16.959 C21.932,17.659 23.196,18.825 23.196,20.473 C23.203,22.442 21.601,24.17 19.767,24.17 Z" id="Shape" fill="#FFFFFF"></path>
        </g>
    </g>
</svg>