<?xml version="1.0" encoding="UTF-8"?>
<svg width="32px" height="32px" viewBox="0 0 32 32" version="1.1" xmlns="http://www.w3.org/2000/svg" xmlns:xlink="http://www.w3.org/1999/xlink">
    <!-- Generator: Sketch 51.2 (57519) - http://www.bohemiancoding.com/sketch -->
    <title>currency/bcbc</title>
    <desc>Created with Sketch.</desc>
    <defs></defs>
    <g id="currency/bcbc" stroke="none" stroke-width="1" fill="none" fill-rule="evenodd">
        <g id="bcbc" fill-rule="nonzero">
            <circle id="Oval" fill="#004AB5" cx="16" cy="16" r="16"></circle>
            <path d="M12.4830467,7.79271104 C10.2689721,8.6273716 8.48703971,10.3227138 7.54321117,12.4925032 C5.67880891,16.7785937 7.51015345,21.7733337 11.7032405,23.8384102 C15.8962988,25.9034832 20.9720463,24.3105099 23.2331945,20.219848 L15.5711708,15.9845996 L18.6794802,7.80029933 C16.6839962,7.04244637 14.4803809,7.03974777 12.4830467,7.79271104 Z M13.0293697,9.36585308 C14.6466704,8.75614764 16.4310064,8.75832651 18.0468132,9.37197992 L15.5299186,15.9990286 L21.7340191,19.4284457 C19.9030842,22.7407256 15.7931405,24.0305688 12.3979286,22.3584355 C9.00270332,20.6863059 7.51979811,16.6419898 9.02938637,13.1714357 C9.79364318,11.4144822 11.2365475,10.0417117 13.0293697,9.36587556 L13.0293697,9.36585308 Z M15.9653683,4.97999686 C17.1560406,5.02705623 18.3312152,5.26678597 19.4451824,5.68986153 L15.5298961,15.9990061 L25.1811417,21.3339267 C22.3329057,26.4866452 15.9393273,28.4931874 10.6576194,25.8919471 C5.37591058,23.290699 3.06910356,16.9992051 5.41752541,11.6003228 C6.60640292,8.86713051 8.85102079,6.73158075 11.6399935,5.68021035 C13.0204319,5.15983317 14.4912505,4.92172932 15.9653627,4.97999686 L15.9653683,4.97999686 Z M23.4937139,8.79175693 C23.7582022,8.79157706 24.0036142,8.82329048 24.2298902,8.88723446 C24.8958339,9.07042135 25.3459869,9.48408423 25.5804549,10.1282849 C25.7228106,10.5194134 25.7539838,10.9032852 25.6739139,11.2798329 C25.6015048,11.653587 25.4286773,11.9900292 25.1554427,12.2892326 C25.6686195,12.2674795 26.1183684,12.3816917 26.5047297,12.6318972 C26.8882991,12.8744358 27.1707796,13.2449803 27.3522122,13.743469 C27.6090178,14.449028 27.5311502,15.0940381 27.1185446,15.6784712 C26.7108107,16.252438 25.9816167,16.7306126 24.9309525,17.1130286 L20.7666018,18.6287076 L17.8357689,10.57623 L21.7700202,9.1442582 C22.4142276,8.90979135 22.9887729,8.79226844 23.4937139,8.79175693 Z M22.8836166,10.4575323 C22.6446974,10.4580944 22.3670785,10.5162207 22.050725,10.6313659 L20.1986437,11.3054869 L20.8894871,13.2036213 L22.741619,12.5294947 C23.2017621,12.3620127 23.5213296,12.154504 23.7004537,11.9069234 C23.8795766,11.6593429 23.9119308,11.3783907 23.7974871,11.0639602 C23.6830445,10.749524 23.4790319,10.5587994 23.1854608,10.4919494 C23.092851,10.4686786 22.9922185,10.4572119 22.8836166,10.4575492 L22.8836166,10.4575323 Z M24.4456742,13.580422 C24.193793,13.5826703 23.8978217,13.6458724 23.5577427,13.7696514 L21.3835234,14.5609637 L22.1078845,16.5511412 L24.2820589,15.7597783 C24.77288,15.5811387 25.1116886,15.3666769 25.2984735,15.1163027 C25.4929411,14.8631405 25.5288309,14.5678381 25.4060136,14.230401 C25.2466489,13.7925455 24.9265299,13.5758746 24.4456742,13.580422 Z" id="Shape" fill="#FFFFFF"></path>
        </g>
    </g>
</svg>