<?xml version="1.0" encoding="UTF-8"?>
<svg width="32px" height="32px" viewBox="0 0 32 32" version="1.1" xmlns="http://www.w3.org/2000/svg" xmlns:xlink="http://www.w3.org/1999/xlink">
    <!-- Generator: Sketch 51.2 (57519) - http://www.bohemiancoding.com/sketch -->
    <title>currency/bch</title>
    <desc>Created with Sketch.</desc>
    <defs></defs>
    <g id="currency/bch" stroke="none" stroke-width="1" fill="none" fill-rule="evenodd">
        <g id="bch" fill-rule="nonzero">
            <circle id="Oval" fill="#8DC351" cx="16" cy="16" r="16"></circle>
            <path d="M21.207,10.534 C20.431,8.562 18.485,8.384 16.219,8.824 L15.412,6.011 L13.7,6.502 L14.486,9.242 C14.036,9.37 13.578,9.512 13.123,9.652 L12.333,6.894 L10.622,7.384 L11.427,10.197 C11.059,10.311 10.697,10.423 10.342,10.525 L10.339,10.515 L7.977,11.192 L8.502,13.022 C8.502,13.022 9.76,12.634 9.745,12.664 C10.439,12.465 10.78,12.803 10.945,13.132 L11.865,16.336 C11.912,16.323 11.975,16.307 12.049,16.296 L11.868,16.348 L13.155,20.838 C13.187,21.065 13.159,21.45 12.675,21.59 C12.702,21.603 11.429,21.946 11.429,21.946 L11.676,24.089 L13.904,23.449 C14.319,23.332 14.729,23.222 15.13,23.109 L15.947,25.954 L17.657,25.464 L16.85,22.649 C17.3086915,22.5272891 17.7660516,22.4006151 18.222,22.269 L19.024,25.072 L20.737,24.581 L19.923,21.741 C22.754,20.75 24.561,19.447 24.036,16.671 C23.614,14.437 22.312,13.759 20.565,13.835 C21.413,13.045 21.778,11.977 21.207,10.535 L21.207,10.534 Z M20.557,17.304 C21.167,19.431 17.457,20.233 16.297,20.567 L15.216,16.797 C16.376,16.464 19.92,15.087 20.556,17.305 L20.557,17.304 Z M18.235,12.214 C18.789,14.149 15.688,14.794 14.721,15.071 L13.741,11.652 C14.707,11.375 17.656,10.197 18.235,12.215 L18.235,12.214 Z" id="Shape" fill="#FFFFFF"></path>
        </g>
    </g>
</svg>