<?xml version="1.0" encoding="UTF-8"?>
<svg width="32px" height="32px" viewBox="0 0 32 32" version="1.1" xmlns="http://www.w3.org/2000/svg" xmlns:xlink="http://www.w3.org/1999/xlink">
    <!-- Generator: Sketch 51.2 (57519) - http://www.bohemiancoding.com/sketch -->
    <title>currency/bcn</title>
    <desc>Created with Sketch.</desc>
    <defs></defs>
    <g id="currency/bcn" stroke="none" stroke-width="1" fill="none" fill-rule="evenodd">
        <g id="bcn" fill-rule="nonzero">
            <circle id="Oval" fill="#F04086" cx="15.999" cy="15.999" r="15.999"></circle>
            <path d="M23.437,16.754 C22.807,16.058 21.901,15.626 20.717,15.458 L20.717,15.433 C21.754,15.265 22.569,14.84 23.123,14.16 C23.6852449,13.4856257 23.9906147,12.6339911 23.985,11.756 C23.985,10.295 23.515,9.302 22.541,8.521 C21.567,7.741 20.105,7.484 18.124,7.484 L10.643,7.484 L10.643,14.447 L6.347,14.447 L6.347,17.114 L18.074,17.114 C18.997,17.114 19.69,17.179 20.148,17.548 C20.606,17.917 20.84,18.394 20.84,19.099 C20.84,19.804 20.609,20.406 20.148,20.784 C19.688,21.161 18.994,21.41 18.074,21.41 L14.05,21.41 L14.05,19.336 L10.643,19.336 L10.643,24.077 L18.37,24.077 C20.335,24.077 21.837,23.564 22.879,22.767 C23.92,21.97 24.409,20.793 24.409,19.348 C24.4219465,18.3920038 24.0749935,17.4660819 23.437,16.754 Z M17.644,14.44 L14.05,14.44 L14.05,10.144 L17.644,10.144 C19.492,10.144 20.414,10.865 20.414,12.292 C20.414,13.719 19.492,14.44 17.644,14.44 Z" id="Shape" fill="#FFFFFF"></path>
        </g>
    </g>
</svg>