<?xml version="1.0" encoding="UTF-8"?>
<svg width="32px" height="32px" viewBox="0 0 32 32" version="1.1" xmlns="http://www.w3.org/2000/svg" xmlns:xlink="http://www.w3.org/1999/xlink">
    <!-- Generator: Sketch 51.2 (57519) - http://www.bohemiancoding.com/sketch -->
    <title>currency/bco</title>
    <desc>Created with Sketch.</desc>
    <defs></defs>
    <g id="currency/bco" stroke="none" stroke-width="1" fill="none" fill-rule="evenodd">
        <g id="bco" fill-rule="nonzero">
            <circle id="Oval" fill="#2C76B7" cx="16" cy="16" r="16"></circle>
            <path d="M14.122,20.826 L12.616,19.978 C12.236,20.493 11.618,20.828 10.918,20.828 C10.218,20.828 9.598,20.492 9.219,19.975 L8.73,20.252 C8.77361947,20.3565491 8.79605294,20.4687164 8.796,20.582 C8.79310064,20.8172528 8.69685691,21.0417164 8.52844527,21.2060021 C8.36003363,21.3702879 8.13325235,21.4609355 7.898,21.458 C7.402,21.458 7,21.066 7,20.582 C7,20.098 7.402,19.705 7.898,19.705 C8.187,19.705 8.443,19.838 8.608,20.045 L9.088,19.773 C8.91793854,19.4729521 8.82869372,19.1338907 8.829,18.789 C8.829,17.689 9.721,16.793 10.837,16.751 L10.837,15.197 C9.75,15.155 8.883,14.282 8.883,13.211 C8.883,12.871 8.971,12.549 9.126,12.269 L8.616,11.985 C8.443984,12.20681 8.17869181,12.3361307 7.898,12.335 C7.402,12.335 7,11.942 7,11.458 C7,10.974 7.402,10.582 7.898,10.582 C8.394,10.582 8.796,10.974 8.796,11.458 C8.796,11.57 8.774,11.678 8.735,11.776 L9.255,12.066 C9.623,11.556 10.231,11.224 10.918,11.224 C11.62,11.224 12.238,11.57 12.604,12.097 L14.137,11.248 C13.997,10.976 13.917,10.668 13.917,10.343 C13.917,9.271 14.775,8.395 15.857,8.333 L15.857,7.745 C15.4174373,7.69040339 15.0861383,7.31892097 15.082,6.876 C15.082,6.392 15.484,6 15.98,6 C16.476,6 16.878,6.392 16.878,6.876 C16.878,7.32 16.54,7.686 16.102,7.745 L16.102,8.333 C17.184,8.395 18.042,9.271 18.042,10.343 C18.042,10.669 17.962,10.978 17.821,11.251 L19.351,12.112 C19.7327911,11.5418631 20.3748432,11.2009372 21.061,11.204 C21.77,11.204 22.393,11.557 22.758,12.093 L23.263,11.772 C23.2238015,11.6719636 23.2037863,11.5654419 23.204,11.458 C23.204,10.974 23.606,10.582 24.102,10.582 C24.598,10.582 25,10.974 25,11.458 C25,11.942 24.598,12.335 24.102,12.335 C23.820087,12.3360372 23.553829,12.2054968 23.382,11.982 L22.882,12.3 C23.019,12.568 23.097,12.87 23.097,13.191 C23.097,14.282 22.197,15.168 21.082,15.178 L21.082,16.796 C22.212,16.806 23.124,17.704 23.124,18.809 C23.124,19.144 23.04,19.46 22.891,19.739 L23.405,20.029 C23.5776518,19.8228024 23.8330665,19.704073 24.102,19.705 C24.598,19.705 25,20.098 25,20.582 C25,21.066 24.598,21.458 24.102,21.458 C23.8667477,21.4609355 23.6399664,21.3702879 23.4715547,21.2060021 C23.3031431,21.0417164 23.2068994,20.8172528 23.204,20.582 C23.204,20.458 23.23,20.34 23.278,20.233 L22.765,19.943 C22.394,20.473 21.769,20.822 21.061,20.822 C20.36,20.822 19.741,20.48 19.368,19.958 L17.834,20.821 C18.001,21.116 18.096,21.456 18.096,21.817 C18.096,22.904 17.236,23.795 16.143,23.877 L16.143,24.261 C16.5646843,24.332677 16.8743602,24.6962828 16.878,25.124 C16.8751006,25.3592528 16.7788569,25.5837164 16.6104453,25.7480021 C16.4420336,25.9122879 16.2152523,26.0029355 15.98,26 C15.7447477,26.0029355 15.5179664,25.9122879 15.3495547,25.7480021 C15.1811431,25.5837164 15.0848994,25.3592528 15.082,25.124 C15.082,24.666 15.44,24.291 15.898,24.251 L15.898,23.881 C14.768,23.839 13.864,22.931 13.864,21.817 C13.864,21.457 13.957,21.12 14.122,20.826 Z M14.252,20.623 C14.655049,20.0722968 15.2975676,19.7480628 15.98,19.751 C16.69,19.751 17.32,20.094 17.704,20.619 L19.24,19.754 C19.0815728,19.4642407 18.9986894,19.1392416 18.999,18.809 C18.999,17.771 19.803,16.917 20.837,16.807 L20.837,15.167 C19.818,15.057 19.026,14.215 19.026,13.191 C19.026,12.879 19.099,12.583 19.231,12.321 L17.697,11.457 C17.327,11.999 16.697,12.356 15.98,12.356 C15.262,12.356 14.63,11.998 14.26,11.456 L12.73,12.303 C12.873,12.575 12.954,12.883 12.954,13.211 C12.954,14.255 12.13,15.111 11.082,15.191 L11.082,16.756 C12.159,16.836 13.008,17.716 13.008,18.789 C13.008,19.147 12.913,19.483 12.747,19.776 L14.252,20.623 Z M10.918,19.857 C11.523,19.857 12.013,19.379 12.013,18.789 C12.013,18.199 11.523,17.721 10.918,17.721 C10.314,17.721 9.824,18.199 9.824,18.789 C9.824,19.379 10.314,19.857 10.918,19.857 Z M10.918,14.252 C11.508,14.252 11.985,13.786 11.985,13.212 C11.985,12.638 11.507,12.17 10.918,12.17 C10.329,12.17 9.852,12.636 9.852,13.211 C9.852,13.786 10.329,14.252 10.918,14.252 Z M15.98,11.397 C16.576,11.397 17.06,10.925 17.06,10.343 C17.06,9.76 16.576,9.288 15.98,9.288 C15.383,9.288 14.9,9.76 14.9,10.343 C14.9,10.925 15.383,11.397 15.98,11.397 Z M21.061,14.232 C21.651,14.232 22.128,13.766 22.128,13.192 C22.128,12.616 21.65,12.15 21.061,12.15 C20.472,12.15 19.995,12.616 19.995,13.191 C19.995,13.766 20.472,14.232 21.061,14.232 Z M21.061,19.863 C21.658,19.863 22.141,19.391 22.141,18.809 C22.141,18.226 21.658,17.754 21.061,17.754 C20.465,17.754 19.981,18.226 19.981,18.809 C19.981,19.391 20.465,19.863 21.061,19.863 Z M15.98,22.9 C16.592,22.9 17.088,22.415 17.088,21.818 C17.088,21.221 16.592,20.736 15.98,20.736 C15.367,20.736 14.871,21.22 14.871,21.818 C14.871,22.416 15.367,22.9 15.98,22.9 Z M15.98,18.92 C14.328,18.92 12.989,17.613 12.989,16.001 C12.989,14.389 14.328,13.081 15.979,13.081 C17.632,13.081 18.971,14.389 18.971,16.001 C18.971,17.613 17.631,18.921 15.98,18.921 L15.98,18.92 Z M15.98,17.145 C16.627,17.145 17.152,16.633 17.152,16.001 C17.152,15.369 16.627,14.857 15.98,14.857 C15.332,14.857 14.807,15.369 14.807,16.001 C14.807,16.633 15.332,17.145 15.98,17.145 Z" id="Shape" fill="#FFFFFF"></path>
        </g>
    </g>
</svg>