<?xml version="1.0" encoding="UTF-8"?>
<svg width="32px" height="32px" viewBox="0 0 32 32" version="1.1" xmlns="http://www.w3.org/2000/svg" xmlns:xlink="http://www.w3.org/1999/xlink">
    <!-- Generator: Sketch 51.2 (57519) - http://www.bohemiancoding.com/sketch -->
    <title>currency/bcpt</title>
    <desc>Created with Sketch.</desc>
    <defs></defs>
    <g id="currency/bcpt" stroke="none" stroke-width="1" fill="none" fill-rule="evenodd">
        <g id="bcpt" fill-rule="nonzero">
            <circle id="Oval" fill="#404040" cx="16" cy="16" r="16"></circle>
            <path d="M16,27 C9.92486775,27 5,22.0751322 5,16 C5,9.92486775 9.92486775,5 16,5 C22.0751322,5 27,9.92486775 27,16 C27,22.0751322 22.0751322,27 16,27 Z M16,25.897633 C21.4663117,25.897633 25.897633,21.4663117 25.897633,16 C25.897633,10.5336883 21.4663117,6.10236705 16,6.10236705 C10.5336883,6.10236705 6.10236705,10.5336883 6.10236705,16 C6.10236705,21.4663117 10.5336883,25.897633 16,25.897633 Z M22.0427298,12.1197356 C22.208423,15.0575776 19.4920689,15.8336305 19.4920689,15.8336305 C22.5962804,16.2772825 22.4299109,18.937842 22.4299109,18.937842 C22.4299109,23.2600676 17.6079004,23.4291423 17.6079004,23.4291423 L10.8449124,23.4291423 L10.8449124,8.57221027 L16.9430987,8.57221027 C22.0427298,8.79403627 22.0427298,12.1197356 22.0427298,12.1197356 Z M14.3369812,11.2327698 L14.3369812,14.8350753 L16.7760529,14.8350753 C16.7760529,14.8350753 18.4945281,14.7802951 18.6054411,13.3938826 L18.6054411,12.5069167 C18.6054411,12.5069167 18.6054411,11.3436828 16.9424224,11.2327698 L14.3369812,11.2327698 Z M18.937842,19.3821703 L18.937842,18.4945281 C18.937842,18.4945281 18.937842,17.3302797 17.2748232,17.2193667 L14.3359668,17.2193667 L14.3359668,20.8237012 L17.1087919,20.8237012 C17.1087919,20.8237012 18.826929,20.7685828 18.937842,19.3821703 Z" id="Shape" fill="#FFFFFF"></path>
        </g>
    </g>
</svg>