<?xml version="1.0" encoding="UTF-8"?>
<svg width="32px" height="32px" viewBox="0 0 32 32" version="1.1" xmlns="http://www.w3.org/2000/svg" xmlns:xlink="http://www.w3.org/1999/xlink">
    <!-- Generator: Sketch 51.2 (57519) - http://www.bohemiancoding.com/sketch -->
    <title>currency/blk</title>
    <desc>Created with Sketch.</desc>
    <defs></defs>
    <g id="currency/blk" stroke="none" stroke-width="1" fill="none" fill-rule="evenodd">
        <g id="blk" fill-rule="nonzero">
            <circle id="Oval" fill="#181818" cx="16" cy="16" r="16"></circle>
            <path d="M23.1,11.13 C23.147,14.043 20.664,14.862 20.664,14.862 C20.664,14.862 21.676,13.862 21.629,11.299 C21.581,8.736 19.699,7.469 19.699,7.469 C19.699,7.469 23.053,8.216 23.099,11.129 L23.1,11.13 Z M11.936,24.819 L8.5,24.988 L8.5,24.667 C8.5,24.667 10.603,24.45 10.603,20.677 L10.603,11.037 C10.603,7.843 8.5,7.29 8.5,7.29 L8.5,7 L11.936,7.168 L11.936,24.819 Z M17.428,24.999 C15.933,25.012 13.16,24.803 13.16,24.803 L13.16,7.193 C14.988,7.168 15.627,6.916 17.133,7.133 C18.64,7.349 19.934,8.854 20.287,10.359 C20.64,11.864 20.264,13.297 19.781,14.079 C19.298,14.861 18.24,15.404 18.24,15.404 C18.24,15.404 19.84,15.958 20.405,16.439 C20.97,16.921 22.065,18.233 21.641,21.087 C21.217,23.941 18.922,24.987 17.428,24.999 Z M21.399,24.349 C21.399,24.349 23.029,22.929 22.957,20.048 C22.885,17.167 21.399,15.813 21.399,15.813 C21.399,15.813 24.465,16.583 24.499,20.015 C24.535,23.446 21.399,24.35 21.399,24.35 L21.399,24.349 Z M18.299,14.015 C19.397,12.554 19.052,9.805 17.722,8.865 C16.392,7.925 14.992,8.395 14.722,8.66 C14.45,8.925 14.462,15.09 14.462,15.09 C14.462,15.09 17.2,15.476 18.298,14.015 L18.299,14.015 Z M18.502,16.64 C17.474,16.182 14.462,16.302 14.462,16.302 C14.462,16.302 14.415,17.859 14.525,20.773 C14.635,23.687 15.608,23.671 16.62,23.711 C17.632,23.751 19.562,23.679 20.197,21.166 C20.833,18.654 19.53,17.097 18.502,16.64 Z" id="Shape" fill="#FFFFFF"></path>
        </g>
    </g>
</svg>