<?xml version="1.0" encoding="UTF-8"?>
<svg width="32px" height="32px" viewBox="0 0 32 32" version="1.1" xmlns="http://www.w3.org/2000/svg" xmlns:xlink="http://www.w3.org/1999/xlink">
    <!-- Generator: Sketch 51.2 (57519) - http://www.bohemiancoding.com/sketch -->
    <title>currency/blz</title>
    <desc>Created with Sketch.</desc>
    <defs></defs>
    <g id="currency/blz" stroke="none" stroke-width="1" fill="none" fill-rule="evenodd">
        <g id="blz" fill-rule="nonzero">
            <circle id="Oval" fill="#18578C" cx="16" cy="16" r="16"></circle>
            <path d="M11.6328877,20.3355344 C12.2950444,21.0108637 12.2950444,22.1049744 11.6328877,22.7803037 C10.970731,23.455633 9.89674063,23.4568782 9.23307681,22.783086 C8.91299401,22.4587602 8.73302798,22.0178264 8.73302798,21.557919 C8.73302798,21.0980117 8.91299401,20.6570779 9.23307681,20.3327521 C9.89674063,19.6589599 10.970731,19.660205 11.6328877,20.3355344 Z M22.6959839,8.72662643 C23.3304559,8.99434396 23.7441458,9.62506175 23.7441458,10.3246696 C23.7441458,11.0242775 23.3304559,11.6549953 22.6959839,11.9227128 C22.0615119,12.1904303 21.3312102,12.0424235 20.845626,11.5477095 C20.5268246,11.2235534 20.3476727,10.7835325 20.3476727,10.3246696 C20.3476727,9.86580672 20.5268246,9.42578583 20.845626,9.1016297 C21.3312102,8.60691569 22.0615119,8.4589089 22.6959839,8.72662643 Z M11.4103515,19.0020847 L13.0472745,17.3259882 C13.3757695,18.1597627 14.0244367,18.8205817 14.8428789,19.1552305 L13.20178,20.8270729 L11.4103515,19.0020847 Z M21.1070326,12.864764 L19.4659337,14.5366064 C19.3058771,14.1249356 19.0642156,13.7513081 18.7560436,13.439061 C18.4474607,13.1246512 18.079547,12.8771924 17.6745052,12.7116181 L19.3156041,11.0397757 L21.1070326,12.864764 Z M20.4203099,20.8074531 C20.6831044,20.1610952 21.3022239,19.7396554 21.9889666,19.7396554 C22.6757094,19.7396554 23.2948289,20.1610952 23.5576234,20.8074531 C23.8204179,21.4538109 23.6751328,22.1977937 23.1895161,22.6924747 C22.8713209,23.0172484 22.4393915,23.1997564 21.9889666,23.1997564 C21.5385418,23.1997564 21.1066124,23.0172484 20.7884172,22.6924747 C20.3028005,22.1977937 20.1575154,21.4538109 20.4203099,20.8074531 Z M9.0353431,9.50869127 C9.29813757,8.86233341 9.91725709,8.44089362 10.6039999,8.44089362 C11.2907426,8.44089362 11.9098621,8.86233341 12.1726566,9.50869127 C12.4354511,10.1550491 12.290166,10.8990319 11.8045493,11.3937129 C11.4863541,11.7184866 11.0544247,11.9009946 10.6039999,11.9009946 C10.153575,11.9009946 9.72164565,11.7184866 9.40345043,11.3937129 C8.91783372,10.8990319 8.77254863,10.1550491 9.0353431,9.50869127 Z M19.1803074,20.7543286 L17.5350327,19.0867403 C18.3534748,18.7520915 19.0021421,18.0912724 19.330637,17.257498 L20.9717359,18.9293404 L19.1803074,20.7543286 Z M13.338747,10.9449104 L14.9798459,12.6167528 C14.5757454,12.7798078 14.2089884,13.0259965 13.9024833,13.3399416 C13.5938552,13.6543054 13.350947,14.0291113 13.1884174,14.441741 L11.5473185,12.7698986 L13.338747,10.9449104 Z M16.2806151,9.46279871 C15.3419738,9.46279871 14.5810547,8.68762492 14.5810547,7.73139959 C14.5810547,6.77517426 15.3419738,6.00000047 16.2806151,6.00000047 C16.7314685,5.99966155 17.1639516,6.18196745 17.4827532,6.50674127 C17.8015547,6.83151508 17.9805082,7.27210017 17.9801755,7.73139959 C17.9801755,8.68762492 17.2192564,9.46279871 16.2806151,9.46279871 Z M17.9801755,24.2686009 C17.9801755,25.2248262 17.2192564,26 16.2806151,26 C15.3419738,26 14.5810547,25.2248262 14.5810547,24.2686009 C14.5810547,23.3123756 15.3419738,22.5372018 16.2806151,22.5372018 C16.7314685,22.5368628 17.1639516,22.7191687 17.4827532,23.0439426 C17.8015547,23.3687164 17.9805082,23.8093015 17.9801755,24.2686009 Z M16.8978019,10.3689118 L16.8978019,12.5129539 C16.5440982,12.450542 16.1824947,12.450542 15.828791,12.5129539 L15.828791,10.3689118 L16.8978019,10.3689118 Z M16.8978019,19.5814865 L16.8978019,21.7255287 L15.828791,21.7255287 L15.828791,19.5814865 C16.1824947,19.6438985 16.5440982,19.6438985 16.8978019,19.5814865 Z M22.2302501,16.1886766 C21.9671904,15.5416971 22.1125976,14.7969915 22.5986684,14.3018148 C23.0847393,13.8066381 23.8157505,13.658507 24.4508327,13.9264946 C25.0859149,14.1944823 25.4999995,14.8258133 25.4999995,15.5260989 C25.5003322,15.9853983 25.3213788,16.4259834 25.0025772,16.7507572 C24.6837757,17.075531 24.2512925,17.2578369 23.8004391,17.257498 C23.1130311,17.257498 22.4933097,16.8356561 22.2302501,16.1886766 Z M6.5,15.8201956 C6.49992315,14.8640257 7.26069511,14.0888114 8.19928203,14.0886547 C9.13786894,14.0884981 9.89889014,14.8634585 9.89912075,15.8196284 C9.89945332,16.2789669 9.72051315,16.7195956 9.40172365,17.044437 C9.08293414,17.3692783 8.65045212,17.5516789 8.19956035,17.551453 C7.26097342,17.5514529 6.50007685,16.7763655 6.5,15.8201956 Z M21.5834941,16.3645725 L19.4788788,16.3628709 C19.540143,16.002541 19.540143,15.6341634 19.4788788,15.2738336 L21.5834941,15.2738336 L21.5834941,16.3645725 Z M12.9395383,16.3645725 L10.8349229,16.3645725 L10.8349229,15.2755352 L12.9395383,15.2755352 C12.878274,15.635865 12.878274,16.0042426 12.9395383,16.3645725 Z M16.2296701,18.4022633 C14.8989673,18.4022633 13.8202196,17.3033069 13.8202196,15.9476754 C13.8202196,14.5920439 14.8989673,13.4930875 16.2296701,13.4930875 C17.5601819,13.493557 18.6386596,14.5922385 18.6391206,15.9476754 C18.6391206,17.3033069 17.5603728,18.4022633 16.2296701,18.4022633 Z" id="Shape" fill="#FFFFFF"></path>
        </g>
    </g>
</svg>