<?xml version="1.0" encoding="UTF-8"?>
<svg width="32px" height="32px" viewBox="0 0 32 32" version="1.1" xmlns="http://www.w3.org/2000/svg" xmlns:xlink="http://www.w3.org/1999/xlink">
    <!-- Generator: Sketch 51.2 (57519) - http://www.bohemiancoding.com/sketch -->
    <title>currency/bq</title>
    <desc>Created with Sketch.</desc>
    <defs></defs>
    <g id="currency/bq" stroke="none" stroke-width="1" fill="none" fill-rule="evenodd">
        <g id="bq" fill-rule="nonzero">
            <circle id="Oval" fill="#1D1D1D" cx="16" cy="16" r="16"></circle>
            <path d="M9.962,16.954 C9.96225225,17.9781196 10.3706324,18.9599135 11.0967623,19.6821022 C11.8228922,20.4042909 12.8068942,20.8073215 13.831,20.802 C15.953,20.789 17.677,19.086 17.678,17.002 C17.6873967,15.9749355 17.2843045,14.9870464 16.5590645,14.2597386 C15.8338245,13.5324308 14.8470871,13.1265275 13.82,13.133 C11.688,13.136 9.962,14.845 9.962,16.954 Z M9.966,21.094 L9.966,22.367 L8,22.367 L8,8 C8.559,8.01 9.031,8.21 9.41,8.605 C9.773,8.985 9.954,9.44 9.952,9.968 C9.947,10.915 9.95,11.862 9.95,12.854 C11.323,11.707 12.852,11.142 14.633,11.414 C16.398,11.684 17.753,12.572 18.677,14.091 C20.072,16.386 19.62,19.317 17.599,21.141 C15.628,22.921 12.353,23.197 9.966,21.094 Z M16.325,22.341 C16.403,22.294 16.444,22.266 16.487,22.244 C17.1062847,21.9396545 17.6653112,21.5256361 18.137,21.022 C18.2334606,20.9123481 18.3710291,20.8475461 18.517,20.843 C20.187,20.747 21.692,19.403 21.975,17.759 C22.347,15.599 21.035,13.693 18.865,13.279 C18.5669355,13.2338863 18.2943025,13.0851774 18.095,12.859 C17.695,12.417 17.209,12.072 16.692,11.775 C16.648,11.75 16.606,11.723 16.534,11.679 C17.518,11.409 18.477,11.345 19.449,11.566 C20.416,11.785 21.249,12.259 22.029,12.906 L22.029,11.631 L24,11.631 L24,26 C23.4708622,25.9967815 22.9655309,25.7796441 22.599,25.398 C22.2364523,25.0328803 22.037303,24.5364504 22.047,24.022 L22.047,21.152 C20.349,22.575 18.471,23.001 16.325,22.341 Z" id="Shape" fill="#FFFFFF"></path>
        </g>
    </g>
</svg>