<?xml version="1.0" encoding="UTF-8"?>
<svg width="32px" height="32px" viewBox="0 0 32 32" version="1.1" xmlns="http://www.w3.org/2000/svg" xmlns:xlink="http://www.w3.org/1999/xlink">
    <!-- Generator: Sketch 51.2 (57519) - http://www.bohemiancoding.com/sketch -->
    <title>currency/btcd</title>
    <desc>Created with Sketch.</desc>
    <defs></defs>
    <g id="currency/btcd" stroke="none" stroke-width="1" fill="none" fill-rule="evenodd">
        <g id="btcd" fill-rule="nonzero">
            <circle id="Oval" fill="#FF6600" cx="16" cy="16" r="16"></circle>
            <path d="M17.078,19.356 C22.158,17.789 20.345,12.522 17.078,12.322 C17.908,12.322 18.586,9.945 18.586,7 C26.562,7.567 30.309,20.711 18.346,24.823 C18.423,23.756 17.986,20.778 17.079,19.356 L17.078,19.356 Z M6,17.8 L6,12.333 L6.01,12.333 C8.895,12.322 11.222,9.933 11.212,7.011 L16.7720002,7.011 C16.773,12.977 11.955,17.8 6,17.8 Z M13.287,16.81 C16.587,19.522 16.773,24.089 16.773,25 L11.212,25 C11.212,21.978 9.245,19.533 6.809,19.533 C10.939,18.867 11.78,18.167 13.287,16.811 L13.287,16.81 Z" id="Shape" fill="#FFFFFF"></path>
        </g>
    </g>
</svg>