<?xml version="1.0" encoding="UTF-8"?>
<svg width="32px" height="32px" viewBox="0 0 32 32" version="1.1" xmlns="http://www.w3.org/2000/svg" xmlns:xlink="http://www.w3.org/1999/xlink">
    <!-- Generator: Sketch 51.2 (57519) - http://www.bohemiancoding.com/sketch -->
    <title>currency/btcz</title>
    <desc>Created with Sketch.</desc>
    <defs></defs>
    <g id="currency/btcz" stroke="none" stroke-width="1" fill="none" fill-rule="evenodd">
        <g id="btcz" fill-rule="nonzero">
            <circle id="Oval" fill="#F8C24A" cx="16" cy="16" r="16"></circle>
            <path d="M16,27 C9.934,27 5,22.066 5,16 C5,9.934 9.937,5 16,5 C22.063,5 27,9.937 27,16 C27,17.002 26.864,18 26.595,18.966 C26.4546531,19.4277996 25.9711465,19.6929391 25.5063104,19.5630024 C25.0414743,19.4330658 24.7655392,18.9556379 24.885,18.488 C25.11,17.678 25.225,16.841 25.224,16 C25.224,10.914 21.086,6.776 16,6.776 C10.914,6.776 6.776,10.914 6.776,16 C6.776,21.086 10.914,25.224 16,25.224 C16.952,25.224 17.899,25.078 18.806,24.789 C19.1107787,24.6838574 19.4486021,24.7521673 19.688586,24.9674641 C19.92857,25.1827609 20.0330082,25.5112172 19.9614378,25.825578 C19.8898675,26.1399387 19.6535336,26.3908116 19.344,26.481 C18.263,26.826 17.134,27.001 16,27 Z M19.375,15.974 C19.755,16.292 20.011,16.752 20.143,17.353 C20.229,17.699 20.223,18.062 20.127,18.405 C20.031,18.723 19.862,19.014 19.633,19.255 C19.382499,19.5157237 19.0888499,19.7312242 18.765,19.892 C18.423,20.069 18.342,20.126 17.934,20.216 L17.68,20.277 C17.5233034,20.3150893 17.4259286,20.4716005 17.461,20.629 L17.611,21.301 C17.6279472,21.3777888 17.6136424,21.4581651 17.5712424,21.5243917 C17.5288423,21.5906183 17.4618323,21.6372514 17.385,21.654 L16.708,21.804 C16.6313524,21.8209743 16.5511011,21.806805 16.4849006,21.7646093 C16.4187001,21.7224135 16.3719734,21.6556478 16.355,21.579 L16.207,20.912 C16.1900266,20.8353522 16.1432999,20.7685865 16.0770994,20.7263907 C16.0108989,20.684195 15.9306476,20.6700257 15.854,20.687 L14.021,21.093 C13.6316562,21.1785088 13.2466836,20.9323053 13.161,20.543 L11.511,13.084 C11.4254912,12.6946562 11.6716947,12.3096836 12.061,12.224 L13.894,11.818 C13.9706478,11.8010266 14.0374135,11.7542999 14.0796093,11.6880994 C14.121805,11.6218989 14.1359743,11.5416476 14.119,11.465 L13.969,10.793 C13.952377,10.7162158 13.966961,10.635973 14.0095393,10.5699486 C14.0521175,10.5039242 14.1191968,10.4575349 14.196,10.441 L14.873,10.291 C14.9496476,10.2740257 15.0298989,10.288195 15.0960994,10.3303907 C15.1622999,10.3725865 15.2090266,10.4393522 15.226,10.516 L15.374,11.184 C15.4098067,11.3432045 15.5677046,11.4434004 15.727,11.408 L16.287,11.286 C16.577,11.218 16.88,11.223 17.167,11.301 C17.441,11.376 17.697,11.504 17.92,11.678 C18.3731151,12.0397929 18.6886271,12.5458825 18.814,13.112 C18.908,13.532 18.889,13.97 18.76,14.382 C18.6263163,14.8092947 18.3570633,15.1814045 17.993,15.442 C18.499,15.466 18.983,15.652 19.375,15.974 Z M13.945,14.377 L14.043,14.803 C14.1286836,15.1923053 14.5136562,15.4385088 14.903,15.353 L16.21,15.063 C16.431104,15.0159429 16.6269986,14.8887895 16.76,14.706 C16.901,14.518 16.937,14.266 16.867,13.949 C16.802,13.657 16.675,13.449 16.487,13.325 C16.3082858,13.2021993 16.0859431,13.1607825 15.875,13.211 L14.495,13.516 C14.3078305,13.5571363 14.1446935,13.6709959 14.0415295,13.8324945 C13.9383655,13.993993 13.9036388,14.1898801 13.945,14.377 Z M17.854,18.144 L17.856,18.144 C17.9936185,17.9213826 18.0334093,17.65189 17.966,17.399 C17.916586,17.143276 17.7771559,16.9137308 17.573,16.752 C17.3886873,16.5989163 17.1432353,16.5411629 16.91,16.596 L15.254,16.963 C14.8646947,17.0486836 14.6184912,17.4336562 14.704,17.823 L14.82,18.35 C14.8611363,18.5371695 14.9749959,18.7003065 15.1364945,18.8034705 C15.297993,18.9066345 15.4938801,18.9413612 15.681,18.9 L17.25,18.553 C17.4992755,18.5061689 17.7179748,18.3580761 17.854,18.144 Z M21.152,23.527 L22.685,21.695 C22.7542577,21.6124215 22.7693291,21.4971685 22.7236345,21.3995579 C22.6779399,21.3019473 22.5797763,21.2397032 22.472,21.24 L21.44,21.24 C21.3663619,21.2402658 21.2956487,21.2111994 21.2434847,21.159223 C21.1913206,21.1072466 21.1619995,21.0366386 21.162,20.963 L21.162,20.747 C21.162,20.594 21.286,20.47 21.44,20.47 L23.798,20.47 C23.871465,20.47 23.941921,20.4991838 23.9938686,20.5511314 C24.0458162,20.603079 24.075,20.673535 24.075,20.747 L24.075,21.031 C24.0749633,21.0934581 24.0538194,21.1540707 24.015,21.203 L22.548,23.045 C22.4814281,23.1282463 22.4685284,23.2423064 22.5148273,23.3383177 C22.5611261,23.4343291 22.6584087,23.4952569 22.765,23.495 L23.816,23.495 C23.969,23.495 24.094,23.619 24.094,23.772 L24.094,23.987 C24.0940005,24.0606386 24.0646794,24.1312466 24.0125153,24.183223 C23.9603513,24.2351994 23.8896381,24.2642658 23.816,24.264 L21.364,24.264 C21.2110171,24.264 21.087,24.1399829 21.087,23.987 L21.087,23.707 C21.087,23.641 21.11,23.577 21.152,23.527 Z" id="Shape" fill="#FFFFFF"></path>
        </g>
    </g>
</svg>