<?xml version="1.0" encoding="UTF-8"?>
<svg width="32px" height="32px" viewBox="0 0 32 32" version="1.1" xmlns="http://www.w3.org/2000/svg" xmlns:xlink="http://www.w3.org/1999/xlink">
    <!-- Generator: Sketch 51.2 (57519) - http://www.bohemiancoding.com/sketch -->
    <title>currency/btm</title>
    <desc>Created with Sketch.</desc>
    <defs></defs>
    <g id="currency/btm" stroke="none" stroke-width="1" fill="none" fill-rule="evenodd">
        <g id="btm" fill-rule="nonzero">
            <circle id="Oval" fill="#504C4C" cx="16" cy="16" r="16"></circle>
            <path d="M10.827,15.376 L9.082,19.074 L9.894,22.106 L11.96,22.658 L14.524,25.225 L13.752,26 L7.64,24.36 L6,18.248 L7.23,17.02 L12.572,11.677 L10.827,15.376 L9.082,19.074 L14.524,13.632 L12.572,11.677 L10.827,15.376 Z M13.632,17.476 L19.074,22.918 L22.106,22.106 L22.66,20.04 L25.225,17.476 L26,18.248 L24.362,24.362 L18.248,26 L11.679,19.428 L13.632,17.476 Z M18.368,14.524 L12.926,9.082 L9.892,9.894 L9.34,11.957 L6.775,14.524 L6,13.752 L7.64,7.638 L13.752,6 L14.98,7.23 L20.32,12.57 L18.368,14.524 Z M20.04,9.34 L17.476,6.775 L18.248,6 L24.362,7.638 L26,13.752 L19.428,20.321 L17.476,18.368 L22.92,12.924 L22.106,9.892 L20.04,9.34 Z" id="Shape" fill="#FFFFFF"></path>
        </g>
    </g>
</svg>