<?xml version="1.0" encoding="UTF-8"?>
<svg width="32px" height="32px" viewBox="0 0 32 32" version="1.1" xmlns="http://www.w3.org/2000/svg" xmlns:xlink="http://www.w3.org/1999/xlink">
    <!-- Generator: Sketch 51.2 (57519) - http://www.bohemiancoding.com/sketch -->
    <title>currency/bts</title>
    <desc>Created with Sketch.</desc>
    <defs></defs>
    <g id="currency/bts" stroke="none" stroke-width="1" fill="none" fill-rule="evenodd">
        <g id="bts" fill-rule="nonzero">
            <circle id="Oval" fill="#35BAEB" cx="16" cy="16" r="16"></circle>
            <path d="M11,13.202 L15.21,17.546 C15.0379256,17.805132 14.9208451,18.0968121 14.866,18.403 L11,18.403 L11,13.203 L11,13.202 Z M11,12.034 L11,5 L16.606,10.139 L16.606,16.607 C16.3071471,16.6646727 16.0241251,16.7857243 15.776,16.962 L11,12.034 Z M21.528,22.896 L18.803,20.086 C18.971,19.832 19.091,19.542 19.147,19.229 L23,19.229 C22.9169643,20.5779419 22.4006999,21.8640436 21.528,22.896 Z M20.961,23.481 C19.9810414,24.3728725 18.728856,24.9080638 17.407,25 L17.407,21.025 C17.7058529,20.9673273 17.9888749,20.8462757 18.237,20.67 L20.961,23.48 L20.961,23.481 Z M11.013,19.229 L14.866,19.229 C14.922,19.542 15.042,19.832 15.21,20.085 L12.486,22.896 C11.6129388,21.8641734 11.0963185,20.578059 11.013,19.229 Z M23,18.403 L19.147,18.403 C19.0921549,18.0968121 18.9750744,17.805132 18.803,17.546 L21.528,14.736 C22.4005009,15.7676868 22.9167527,17.0534062 23,18.402 L23,18.403 Z M13.052,23.481 L15.776,20.67 C16.021,20.843 16.303,20.966 16.606,21.025 L16.606,25 C15.2840204,24.9077861 14.0318204,24.3722363 13.052,23.48 L13.052,23.481 Z M20.962,14.151 L18.237,16.961 C17.9887894,16.785079 17.705773,16.6643708 17.407,16.607 L17.407,12.632 C18.728856,12.7239362 19.9810414,13.2591275 20.961,14.151 L20.962,14.151 Z" id="Shape" fill="#FFFFFF"></path>
        </g>
    </g>
</svg>