<?xml version="1.0" encoding="UTF-8"?>
<svg width="32px" height="32px" viewBox="0 0 32 32" version="1.1" xmlns="http://www.w3.org/2000/svg" xmlns:xlink="http://www.w3.org/1999/xlink">
    <!-- Generator: Sketch 51.2 (57519) - http://www.bohemiancoding.com/sketch -->
    <title>currency/btx</title>
    <desc>Created with Sketch.</desc>
    <defs></defs>
    <g id="currency/btx" stroke="none" stroke-width="1" fill="none" fill-rule="evenodd">
        <g id="btx" fill-rule="nonzero">
            <circle id="Oval" fill="#FB2EA3" cx="16" cy="16" r="16"></circle>
            <path d="M22.632,14.02 C22.405,15.555 21.554,16.298 20.425,16.558 C21.975,17.365 22.765,18.604 22.013,20.75 C21.08,23.416 18.864,23.64 15.917,23.083 L15.2,25.95 L13.472,25.519 L14.178,22.691 C13.7173879,22.5766442 13.2580276,22.4573039 12.8,22.333 L12.092,25.175 L10.365,24.745 L11.081,21.872 C10.677,21.769 10.267,21.659 9.848,21.554 L7.599,20.994 L8.457,19.014 C8.457,19.014 9.731,19.354 9.713,19.328 C10.203,19.449 10.42,19.13 10.506,18.918 L11.636,14.386 L11.819,14.431 C11.7603193,14.4080609 11.7001886,14.3890195 11.639,14.374 L12.445,11.139 C12.466,10.771 12.34,10.309 11.64,10.133 C11.667,10.115 10.384,9.821 10.384,9.821 L10.844,7.975 L13.228,8.57 L13.226,8.58 C13.584,8.668 13.954,8.753 14.33,8.839 L15.039,6 L16.767,6.43 L16.073,9.214 C16.536,9.32 17.003,9.426 17.457,9.54 L18.147,6.775 L19.875,7.205 L19.167,10.045 C21.35,10.797 22.946,11.924 22.632,14.02 Z M18.682,19.558 C19.242,17.32 15.484,16.741 14.312,16.448 L13.363,20.253 C14.535,20.544 18.149,21.705 18.683,19.558 L18.682,19.558 Z M19.217,13.989 C19.725,11.952 16.583,11.499 15.607,11.255 L14.747,14.706 C15.722,14.95 18.73,15.942 19.217,13.989 Z M24.247,21.618 C24.0777578,21.5953485 23.9064643,21.6410508 23.771,21.745 C23.6410395,21.8564423 23.552873,22.008794 23.521,22.177 C23.5004898,22.2705191 23.4937519,22.3665329 23.501,22.462 C23.5095739,22.5707843 23.5445885,22.6758282 23.603,22.768 C23.663,22.868 23.759,22.962 23.889,23.05 C24.019,23.137 24.199,23.207 24.429,23.26 C24.553,23.29 24.681,23.304 24.812,23.303 C24.944,23.303 25.066,23.282 25.178,23.24 C25.4189567,23.154945 25.5974573,22.9494794 25.648,22.699 C25.6956611,22.5216706 25.6704579,22.3326468 25.578,22.174 C25.486,22.02 25.335,21.902 25.124,21.82 L25.278,21.154 C25.658,21.307 25.924,21.526 26.078,21.809 C26.232,22.093 26.264,22.43 26.174,22.82 C26.1284401,23.0362804 26.0381767,23.2406503 25.909,23.42 C25.6741523,23.7401014 25.3117435,23.9422912 24.916,23.974 C24.7008689,23.9934579 24.4840036,23.9775815 24.274,23.927 C24.0579733,23.8787887 23.8505804,23.797855 23.659,23.687 C23.482394,23.5858258 23.328258,23.4497234 23.206,23.287 C23.0870831,23.1253168 23.0057712,22.9391194 22.968,22.742 C22.9276468,22.5158165 22.9361711,22.2836159 22.993,22.061 C23.0312764,21.8919659 23.0928659,21.7290735 23.176,21.577 C23.257,21.429 23.356,21.304 23.475,21.202 C23.593,21.1 23.729,21.026 23.883,20.98 C24.038,20.933 24.21,20.924 24.401,20.951 L24.247,21.618 Z M26.939,19.505 C26.8918655,19.7273214 26.8003746,19.9378524 26.67,20.124 C26.547,20.294 26.4,20.428 26.23,20.527 C26.054115,20.6268997 25.8592741,20.6888946 25.658,20.709 C25.447,20.732 25.225,20.717 24.991,20.663 C24.7736632,20.615005 24.5660484,20.5304713 24.377,20.413 C24.2050606,20.306756 24.0572317,20.1657395 23.943,19.999 C23.8308708,19.8314683 23.7558606,19.641897 23.723,19.443 C23.6877337,19.2189266 23.6979363,18.9900468 23.753,18.77 C23.8001345,18.5476786 23.8916254,18.3371476 24.022,18.151 C24.146,17.981 24.292,17.846 24.463,17.748 C24.638885,17.6481003 24.8337259,17.5861054 25.035,17.566 C25.245,17.543 25.465,17.558 25.695,17.611 C25.929,17.665 26.135,17.748 26.315,17.861 C26.495,17.975 26.639,18.113 26.749,18.276 C26.859,18.439 26.932,18.624 26.969,18.831 C27.0044022,19.0553995 26.9941989,19.2846332 26.939,19.505 Z M24.315,16.707 L24.46,16.082 L25.044,16.217 L25.047,16.205 C24.9654334,16.1630124 24.8930296,16.1052253 24.834,16.035 C24.6982963,15.8772019 24.60838,15.6852651 24.574,15.48 C24.5572495,15.3763239 24.5606448,15.2703906 24.584,15.168 C24.6021026,15.0836133 24.6275323,15.0009667 24.66,14.921 L25.303,15.069 C25.2842748,15.1149228 25.2666035,15.1612682 25.25,15.208 C25.2332059,15.2541221 25.219181,15.3012059 25.208,15.349 C25.1520151,15.5712986 25.2006273,15.806994 25.34,15.989 C25.4178955,16.0896463 25.5142872,16.1744981 25.624,16.239 C25.743,16.312 25.886,16.368 26.054,16.407 L27.492,16.739 L27.338,17.405 L24.315,16.707 Z M26.595,14.517 C26.711,14.545 26.828,14.554 26.945,14.547 C27.056106,14.540025 27.1647929,14.5114947 27.265,14.463 C27.364387,14.4143475 27.4515427,14.3439393 27.52,14.257 C27.597248,14.155174 27.6505675,14.0372557 27.676,13.912 C27.7224216,13.7476153 27.7164796,13.572852 27.659,13.412 C27.5940543,13.2639297 27.4837498,13.1403187 27.344,13.059 L27.489,12.428 C27.9313151,12.6290548 28.2231453,13.0615819 28.244,13.547 C28.254,13.707 28.24,13.869 28.203,14.033 C28.148,14.271 28.06,14.473 27.94,14.638 C27.7064723,14.966036 27.3378076,15.1716657 26.936,15.198 C26.4979561,15.2330183 26.0599854,15.1294725 25.684,14.902 C25.5120911,14.7944798 25.3621124,14.6553593 25.242,14.492 C25.1250482,14.3306835 25.0429725,14.1467794 25.001,13.952 C24.956,13.754 24.961,13.542 25.012,13.315 C25.0597152,13.0916692 25.1617215,12.883535 25.309,12.709 C25.452,12.543 25.62,12.417 25.812,12.329 C26.0097263,12.2414534 26.2228141,12.193874 26.439,12.189 C26.665,12.181 26.887,12.217 27.107,12.296 L26.594,14.518 L26.595,14.517 Z M26.413,19.384 C26.4800079,19.1235939 26.4090695,18.8470097 26.225,18.651 C26.137558,18.5556081 26.03397,18.4763937 25.919,18.417 C25.6804072,18.2914517 25.4135034,18.2294611 25.144,18.237 C25.0146906,18.2394745 24.8869233,18.2655702 24.767,18.314 C24.516755,18.4105077 24.3331025,18.6281 24.28,18.891 C24.2123111,19.1504116 24.2816925,19.4264291 24.464,19.623 C24.547,19.717 24.649,19.794 24.77,19.857 C25.0087809,19.9820423 25.2755508,20.0440017 25.545,20.037 C25.674552,20.0337999 25.8025194,20.0077325 25.923,19.96 C26.1741453,19.86451 26.3590054,19.647205 26.413,19.384 Z M26.515,12.861 C26.4090463,12.8444494 26.3012453,12.8434388 26.195,12.858 C25.9907222,12.8808565 25.8039601,12.9841335 25.676,13.145 C25.5435133,13.3240823 25.4893822,13.5492676 25.526,13.769 C25.546,13.874 25.583,13.969 25.639,14.054 C25.7624588,14.2328529 25.9458497,14.3616167 26.156,14.417 L26.515,12.861 Z" id="Shape" fill="#FFFFFF"></path>
        </g>
    </g>
</svg>