<?xml version="1.0" encoding="UTF-8"?>
<svg width="32px" height="32px" viewBox="0 0 32 32" version="1.1" xmlns="http://www.w3.org/2000/svg" xmlns:xlink="http://www.w3.org/1999/xlink">
    <!-- Generator: Sketch 51.2 (57519) - http://www.bohemiancoding.com/sketch -->
    <title>currency/cdt</title>
    <desc>Created with Sketch.</desc>
    <defs></defs>
    <g id="currency/cdt" stroke="none" stroke-width="1" fill="none" fill-rule="evenodd">
        <g id="cdt" fill-rule="nonzero">
            <circle id="Oval" fill="#272731" cx="16" cy="16" r="16"></circle>
            <path d="M26.9999996,16.0294902 C27.0007757,18.9392899 25.854706,21.7301365 23.8140771,23.7876757 C21.7734481,25.8452149 19.0055386,27.0007817 16.1196536,27 L16.1196536,24.1983907 C20.0678635,24.2095743 23.44521,21.3406118 24.1044236,17.4155491 L20.2144075,17.4155491 C20.3677913,16.9595576 20.4468125,16.4815014 20.4483934,15.9999996 C20.4420244,15.5189177 20.3631269,15.0416103 20.2144075,14.5844501 L24.1044236,14.5844501 C23.4362906,10.6645345 20.0643467,7.80016134 16.1196536,7.80160848 L16.1196536,5 C22.1275024,5.05800927 26.9746814,9.97163171 26.9999996,16.0294902 Z M19.7464356,18.3887395 L22.817501,18.3887395 C21.6822162,21.6935403 18.3460256,23.6885769 14.9254333,23.1081831 C11.5048411,22.5277893 9,19.5416674 9,16.0442355 C9,12.5468036 11.5048411,9.56068179 14.9254333,8.98028798 C18.3460256,8.39989418 21.6822162,10.3949307 22.817501,13.6997316 L19.7464356,13.6997316 C19.3998378,13.1733291 18.9523408,12.7221239 18.4302647,12.3726539 C16.4193716,11.0782897 13.7485642,11.6725453 12.4646779,13.6999992 C11.1807916,15.727453 11.7699506,18.4204401 13.7806393,19.7151271 C15.791328,21.009814 18.4622291,20.4159872 19.7464356,18.3887395 Z" id="Shape" fill="#FFFFFF"></path>
        </g>
    </g>
</svg>