<?xml version="1.0" encoding="UTF-8"?>
<svg width="32px" height="32px" viewBox="0 0 32 32" version="1.1" xmlns="http://www.w3.org/2000/svg" xmlns:xlink="http://www.w3.org/1999/xlink">
    <!-- Generator: Sketch 51.2 (57519) - http://www.bohemiancoding.com/sketch -->
    <title>currency/clam</title>
    <desc>Created with Sketch.</desc>
    <defs></defs>
    <g id="currency/clam" stroke="none" stroke-width="1" fill="none" fill-rule="evenodd">
        <g id="clam" fill-rule="nonzero">
            <circle id="Oval" fill="#20C5D3" cx="16" cy="16" r="16"></circle>
            <path d="M17.81,7.87 L17.81,7.781 C17.987,7.706 18.338,7.635 18.942,7.797 C19.633,7.983 20.167,8.677 20.412,9.051 L20.41,9.291 C20.398,10.63 19.972,13.938 19.234,16.418 C18.589,18.585 17.182,21.468 16.896,22.044 C16.7554853,22.013074 16.6132241,21.9906995 16.47,21.977 C16.589,21.246 17.108,17.99 17.435,15.023 C17.782,11.875 17.809,8.753 17.809,7.871 L17.81,7.87 Z M20.709,9.294 L20.709,9.283 C20.969,9.277 21.545,9.324 22.202,9.747 C22.838,10.156 23.166,10.934 23.302,11.352 L23.239,11.599 C23.084,12.201 21.936,15.304 20.701,17.643 C19.653,19.625 17.98,21.818 17.615,22.288 C17.4773979,22.2224979 17.3353851,22.1666952 17.19,22.121 C17.53,21.434 18.887,18.63 19.52,16.501 C20.266,13.995 20.696,10.649 20.709,9.294 Z M20.966,17.778 C22.142,15.551 23.33,12.426 23.526,11.681 C23.785,11.775 24.341,12.024 24.703,12.518 C25.013,12.94 25.114,13.511 25.147,13.87 L25.026,14.152 C24.792,14.695 23.366,17.197 21.929,18.98 C20.685,20.524 18.816,22.356 18.368,22.79 C18.2172231,22.6546666 18.0538075,22.5341141 17.88,22.43 C18.301,21.886 19.933,19.733 20.966,17.778 Z M11.005,9.526 L10.97,9.252 C11.133,8.897 11.493,8.305 12.182,7.99 C12.932,7.648 13.515,7.741 13.776,7.817 L13.778,7.876 C13.798,8.471 13.955,11.4 14.338,14.857 C14.69,18.02 15.257,21.384 15.366,22.023 C15.216,22.05 15.069,22.087 14.925,22.133 C14.647,21.543 13.409,18.863 12.577,16.178 C11.649,13.183 11.117,10.403 11.005,9.526 Z M14.076,7.866 L14.072,7.729 C14.346,7.483 14.984,7 15.782,7 C16.578,7 17.23,7.483 17.511,7.73 L17.511,7.87 C17.511,8.749 17.484,11.858 17.138,14.99 C16.807,17.994 16.278,21.297 16.17,21.961 L16.092,21.959 C15.948,21.959 15.805,21.967 15.662,21.981 C15.556,21.366 14.987,17.994 14.635,14.825 C14.253,11.377 14.097,8.458 14.076,7.865 L14.076,7.866 Z M16.092,22.253 C17.709,22.253 18.454,23.234 18.679,23.608 C17.454,24.468 16.457,25 16.105,25 C15.753,25 14.878,24.56 13.502,23.565 C13.722,23.21 14.464,22.253 16.092,22.253 Z M25.293,14.285 C25.539,14.445 26.044,14.876 25.997,15.705 C25.935,16.797 24.062,18.961 21.71,21.15 C20.8280761,21.9691665 19.8962946,22.7329601 18.92,23.437 C18.8197578,23.2807158 18.7056291,23.1337878 18.579,22.998 C19.035,22.557 20.911,20.718 22.163,19.163 C23.603,17.377 25.036,14.868 25.293,14.285 Z M6.82,14.073 C6.74717073,13.8921388 6.67815545,13.7097651 6.613,13.526 C6.61172379,13.2020854 6.69074612,12.8829039 6.843,12.597 C7.185,11.977 8.053,11.693 8.397,11.602 L8.399,11.608 L8.436,11.738 C8.686,12.609 9.27,14.65 10.808,17.6 C12.181,20.233 13.673,22.053 14.091,22.54 C13.9789712,22.6165952 13.872076,22.7004411 13.771,22.791 C12.3599343,21.5691814 11.0524669,20.2326146 9.862,18.795 C8.38,17.003 7.357,15.415 6.82,14.073 Z M13.56,23.001 C13.45,23.121 13.35,23.251 13.26,23.389 C12.3929811,22.7423939 11.5491195,22.0653034 10.73,21.359 C7.718,18.784 6.07,16.993 6.004,15.862 C5.954,14.999 6.392,14.512 6.604,14.329 C7.166,15.666 8.182,17.229 9.63,18.981 C10.8275132,20.4262238 12.1419508,21.7704285 13.56,23 L13.56,23.001 Z M8.687,11.527 C8.65445148,11.4158587 8.62378045,11.3041761 8.595,11.192 C8.672,10.826 8.862,10.278 9.327,9.94 C9.72623546,9.65029339 10.212295,9.50532208 10.705,9.529 L10.71,9.563 C10.823,10.448 11.358,13.251 12.292,16.263 C13.12,18.934 14.345,21.6 14.645,22.238 C14.5432322,22.2807898 14.4437639,22.328855 14.347,22.382 C13.982,21.96 12.468,20.139 11.075,17.466 C9.55,14.542 8.972,12.521 8.725,11.658 L8.687,11.527 Z" id="Shape" fill="#FFFFFF"></path>
        </g>
    </g>
</svg>