<?xml version="1.0" encoding="UTF-8"?>
<svg width="32px" height="32px" viewBox="0 0 32 32" version="1.1" xmlns="http://www.w3.org/2000/svg" xmlns:xlink="http://www.w3.org/1999/xlink">
    <!-- Generator: Sketch 51.2 (57519) - http://www.bohemiancoding.com/sketch -->
    <title>currency/cloak</title>
    <desc>Created with Sketch.</desc>
    <defs></defs>
    <g id="currency/cloak" stroke="none" stroke-width="1" fill="none" fill-rule="evenodd">
        <g id="cloak" fill-rule="nonzero">
            <circle id="Oval" fill="#FF3A00" cx="16" cy="16" r="16"></circle>
            <path d="M16.003,5 C22.07,5.01 27.002,9.946 27,16.003 C26.998,22.067 22.062,27 15.996,27 L15.986,27 C9.926,26.994 4.997,22.053 5,15.986 C5.003,9.93 9.94,5 16.003,5 Z M16,6.418 C10.723,6.418 6.428,10.716 6.426,15.998 C6.425,21.274 10.714,25.57 15.988,25.574 C21.271,25.574 25.573,21.278 25.577,15.998 C25.5845767,13.4571038 24.5743921,11.0189756 22.772,9.228 C20.9813428,7.42452965 18.5434425,6.41263899 16.002,6.418 L16,6.418 Z M20.728,15.017 C21.067,16.736 20.631,18.18 19.396,19.434 L19.226,19.605 L19.01,19.499 C18.8904223,19.4405173 18.7690286,19.3858234 18.646,19.335 L18.157,19.131 L18.551,18.777 C19.32,18.087 19.729,17.186 19.768,16.1 C19.808,15.014 19.423,14.067 18.625,13.286 C17.9255467,12.5997661 16.983868,12.2167713 16.004,12.22 C14.9205549,12.2191643 13.8892924,12.6852367 13.174,13.499 C12.376,14.409 12.071,15.517 12.294,16.702 C12.4318517,17.4859533 12.8232165,18.202987 13.408,18.743 L13.795,19.102 L13.306,19.299 C13.184,19.348 13.056,19.401 12.919,19.459 L12.709,19.547 L12.549,19.384 C11.726,18.536 11.28,17.56 11.187,16.4 C10.99,13.955 12.575,11.801 14.957,11.279 C15.3083757,11.2012439 15.6671244,11.1616809 16.027,11.161 C18.3119822,11.1632 20.2783862,12.776488 20.727,15.017 L20.728,15.017 Z M9.973,21.307 C8.497,19.661 7.3,16.741 8.37,13.483 C9.45450843,10.1907402 12.5287152,7.96561928 15.995,7.964 C19.4305091,7.96000191 22.4877833,10.1425057 23.6,13.393 C24.546,16.165 23.888,19.317 21.925,21.423 L21.675,21.69 L20.778,20.688 L20.976,20.465 C22.204,19.082 22.774,17.442 22.671,15.592 C22.575,13.902 21.903,12.43 20.673,11.218 C19.4309949,9.98953249 17.7529043,9.30312257 16.006,9.309 C14.401405,9.3096982 12.8503627,9.88632681 11.635,10.934 C10.6933057,11.7374821 9.99703982,12.7900253 9.626,13.971 C9.24901767,15.1448915 9.20745581,16.4007524 9.506,17.597 C9.75435053,18.6213822 10.2447279,19.5712741 10.936,20.367 L11.132,20.594 L10.216,21.58 L9.973,21.307 Z" id="Shape" fill="#FFFFFF"></path>
        </g>
    </g>
</svg>