<?xml version="1.0" encoding="UTF-8"?>
<svg width="32px" height="32px" viewBox="0 0 32 32" version="1.1" xmlns="http://www.w3.org/2000/svg" xmlns:xlink="http://www.w3.org/1999/xlink">
    <!-- Generator: Sketch 51.2 (57519) - http://www.bohemiancoding.com/sketch -->
    <title>currency/cnx</title>
    <desc>Created with Sketch.</desc>
    <defs></defs>
    <g id="currency/cnx" stroke="none" stroke-width="1" fill="none" fill-rule="evenodd">
        <g id="cnx" fill-rule="nonzero">
            <circle id="Oval" fill="#4C6BAE" cx="16" cy="16" r="16"></circle>
            <g id="Group" transform="translate(5.000000, 5.000000)" fill="#FFFFFF">
                <path d="M1.383,12.01 L0,12.153 C0.74,10.083 2.203,8.427 4.391,7.185 C4.598,8.901 5.411,10.32 6.831,11.444 L5.531,11.579 C5.79128155,14.0318967 7.65199322,16.0119424 10.084,16.424 C9.21252859,17.0795611 8.18087446,17.488838 7.097,17.609 C7.778,18.809 8.584,19.792 9.514,20.556 C5.17950387,19.880399 1.84217416,16.3727345 1.383,12.01 Z M20.617,9.99 L22,9.847 C21.26,11.917 19.797,13.573 17.609,14.815 C17.402,13.099 16.589,11.68 15.169,10.556 L16.469,10.421 C16.2058774,7.94073416 14.3075127,5.94757429 11.843,5.564 C12.7114951,4.9152478 13.7375336,4.51028712 14.815,4.391 C14.128,3.182 13.316,2.195 12.377,1.428 C16.759405,2.05999525 20.1533793,5.5865982 20.617,9.99 Z" id="Shape" opacity="0.5"></path>
                <path d="M11.922,20.626 L12.065,22 C9.995,21.26 8.339,19.797 7.097,17.609 C8.812,17.402 10.231,16.589 11.355,15.169 L11.491,16.479 C14.0084017,16.2526759 16.0479359,14.3405869 16.436,11.843 C17.0847522,12.7114951 17.4897129,13.7375336 17.609,14.815 C18.818,14.128 19.805,13.316 20.572,12.377 C19.9353566,16.7921042 16.362332,20.1994891 11.922,20.626 Z M9.99,1.383 L9.847,0 C11.917,0.74 13.573,2.203 14.815,4.391 C13.099,4.598 11.68,5.411 10.556,6.831 L10.421,5.531 C7.94073416,5.79412255 5.94757429,7.69248729 5.564,10.157 C4.9152478,9.28850485 4.51028712,8.26246639 4.391,7.185 C3.182,7.872 2.195,8.684 1.428,9.623 C2.05999525,5.24059501 5.5865982,1.84662067 9.99,1.383 Z" id="Shape"></path>
            </g>
        </g>
    </g>
</svg>