<?xml version="1.0" encoding="UTF-8"?>
<svg width="32px" height="32px" viewBox="0 0 32 32" version="1.1" xmlns="http://www.w3.org/2000/svg" xmlns:xlink="http://www.w3.org/1999/xlink">
    <!-- Generator: Sketch 51.2 (57519) - http://www.bohemiancoding.com/sketch -->
    <title>currency/cob</title>
    <desc>Created with Sketch.</desc>
    <defs></defs>
    <g id="currency/cob" stroke="none" stroke-width="1" fill="none" fill-rule="evenodd">
        <g id="cob" fill-rule="nonzero">
            <circle id="Oval" fill="#13BF99" cx="16" cy="16" r="16"></circle>
            <path d="M15.999888,24.9991995 L16,25 L11.4636678,25 L13.7359862,21.0429291 L13.7367902,21.0437296 L13.7363322,21.0429291 L18.2643599,21.0429291 L20.5363322,25 L16,25 L16.000173,24.9996976 L15.999888,24.9991995 Z M13.7366194,10.9562202 L13.7359862,10.9567222 L11.4636678,7 L16,7 L16,7.00060473 L16.000173,7.00030236 L16,7 L20.5363322,7 L18.2641872,10.9564204 L13.7363322,10.9567222 L13.7366194,10.9562202 Z M23.7355608,20.4947261 L23.7356401,20.4954669 L23.7344482,20.4954669 L23.7356401,20.4958156 L21.4633218,24.4525378 L19.199308,20.4958156 L19.2004998,20.4954669 L19.199308,20.4954669 L21.4633218,16.538396 L21.4639318,16.5388558 L21.4636678,16.538396 L26,16.538396 L23.7359862,20.4954669 L23.7355608,20.4947261 Z M8.26384115,11.4961174 L8.26366782,11.4958156 L10.5359862,7.53874467 L12.8,11.4958156 L10.5361589,15.452236 L10.5363322,15.4525378 L6,15.4525378 L8.26384115,11.4961174 Z M12.799178,20.4958156 L12.8,20.4958156 L10.5359862,24.4525378 L8.26366782,20.4958156 L8.26448981,20.4958156 L8.26366782,20.4954669 L6,16.538396 L10.5363322,16.538396 L12.8,20.4954669 L12.799178,20.4958156 Z M23.7356402,11.4964179 L23.7359862,11.4958156 L26,15.4525378 L21.4636678,15.4525378 L21.4638591,15.4522047 L21.4633218,15.4525378 L19.199308,11.4958156 L21.4633218,7.53874467 L23.7356401,11.4958156 L23.7356402,11.4964179 Z" id="Shape" fill="#FFFFFF"></path>
        </g>
    </g>
</svg>