<?xml version="1.0" encoding="UTF-8"?>
<svg width="32px" height="32px" viewBox="0 0 32 32" version="1.1" xmlns="http://www.w3.org/2000/svg" xmlns:xlink="http://www.w3.org/1999/xlink">
    <!-- Generator: Sketch 51.2 (57519) - http://www.bohemiancoding.com/sketch -->
    <title>currency/crpt</title>
    <desc>Created with Sketch.</desc>
    <defs></defs>
    <g id="currency/crpt" stroke="none" stroke-width="1" fill="none" fill-rule="evenodd">
        <g id="crpt" fill-rule="nonzero">
            <circle id="Oval" fill="#00BDCD" cx="16" cy="16" r="16"></circle>
            <path d="M21.833,9.744 C20.4213155,8.54466818 18.6273484,7.88957581 16.775,7.897 C12.58,7.897 9.125,11.214 8.837,15.454 L8.015,15.454 C8.303,10.71 12.128,7.057 16.775,7.057 C18.832,7.057 20.805,7.813 22.409,9.157 L21.833,9.744 Z M21.545,12.515 C20.449387,10.9662367 18.672105,10.0433169 16.775,10.038 C13.526,10.038 10.894,12.725 10.894,16 C10.894,19.316 13.526,22.004 16.774,22.004 C18.66,22.004 20.433,21.084 21.545,19.526 L22.122,20.114 C20.846,21.835 18.872,22.844 16.775,22.844 C13.073,22.844 10.071,19.778 10.071,16 C10.071,12.264 13.073,9.198 16.775,9.198 C18.8898665,9.20669755 20.8746969,10.2200858 22.122,11.928 L21.545,12.515 Z M22.491,10.374 L23.068,9.786 C23.273,9.996 23.438,10.206 23.602,10.416 L23.026,11.003 C22.859613,10.7831407 22.6809979,10.5728088 22.491,10.373 L22.491,10.374 Z M16.734,24.984 C12.087,24.984 8.262,21.332 7.974,16.588 L8.796,16.588 C9.084,20.828 12.539,24.145 16.734,24.145 C18.584,24.145 20.354,23.515 21.792,22.298 L22.368,22.885 C20.7998004,24.2332493 18.8020849,24.9778717 16.734,24.985 L16.734,24.984 Z M22.491,21.668 C22.697,21.458 22.861,21.248 23.026,21.038 L23.602,21.625 C23.437,21.835 23.273,22.045 23.068,22.255 L22.491,21.668 Z M6.823,16 C6.823,21.584 11.305,26.16 16.775,26.16 C19.736,26.16 22.532,24.859 24.425,22.466 L25,23.053 C22.944,25.573 19.983,27 16.775,27 C10.812,27 6,22.045 6,16 C6,9.912 10.853,5 16.775,5 C19.94,5 22.945,6.427 25,8.947 L24.424,9.535 C22.532,7.184 19.736,5.84 16.774,5.84 C11.304,5.84 6.823,10.416 6.823,16 Z" id="Shape" fill="#FFFFFF"></path>
        </g>
    </g>
</svg>