<?xml version="1.0" encoding="UTF-8"?>
<svg width="32px" height="32px" viewBox="0 0 32 32" version="1.1" xmlns="http://www.w3.org/2000/svg" xmlns:xlink="http://www.w3.org/1999/xlink">
    <!-- Generator: Sketch 51.2 (57519) - http://www.bohemiancoding.com/sketch -->
    <title>currency/ctr</title>
    <desc>Created with Sketch.</desc>
    <defs></defs>
    <g id="currency/ctr" stroke="none" stroke-width="1" fill="none" fill-rule="evenodd">
        <g id="ctr" fill-rule="nonzero">
            <circle id="Oval" fill="#FDDE6C" cx="16" cy="16" r="16"></circle>
            <path d="M16,27 C9.92486775,27 5,22.0751322 5,16 C5,9.92486775 9.92486775,5 16,5 C22.0751322,5 27,9.92486775 27,16 C27,22.0751322 22.0751322,27 16,27 Z M16,25.4540541 C21.2213299,25.4540541 25.4540541,21.2213299 25.4540541,16 C25.4540541,10.7786701 21.2213299,6.54594595 16,6.54594595 C10.7786701,6.54594595 6.54594595,10.7786701 6.54594595,16 C6.54594595,21.2213299 10.7786701,25.4540541 16,25.4540541 Z M16.0722198,22.5405405 C12.4745237,22.5405405 9.57837838,19.7913573 9.57837838,16.035937 L9.57837838,16 C9.57837838,12.3344223 12.4025698,9.45945946 16.2161276,9.45945946 C18.7884803,9.45945946 20.4434205,10.5375705 21.5587062,12.0828631 L18.9323881,14.1133056 C18.2128489,13.2148797 17.3853788,12.6398871 16.1801506,12.6398871 C14.4172796,12.6398871 13.1760744,14.1312741 13.1760744,15.964063 L13.1760744,16 C13.1760744,17.8866944 14.4172796,19.3601129 16.1801506,19.3601129 C17.4933097,19.3601129 18.2668144,18.7491832 19.0223305,17.8327888 L21.6486486,19.7015147 C20.4614089,21.3366498 18.8604342,22.5405405 16.0722198,22.5405405 Z" id="Shape" fill="#FFFFFF"></path>
        </g>
    </g>
</svg>