<?xml version="1.0" encoding="UTF-8"?>
<svg width="32px" height="32px" viewBox="0 0 32 32" version="1.1" xmlns="http://www.w3.org/2000/svg" xmlns:xlink="http://www.w3.org/1999/xlink">
    <!-- Generator: Sketch 51.2 (57519) - http://www.bohemiancoding.com/sketch -->
    <title>currency/cvc</title>
    <desc>Created with Sketch.</desc>
    <defs></defs>
    <g id="currency/cvc" stroke="none" stroke-width="1" fill="none" fill-rule="evenodd">
        <g id="cvc" fill-rule="nonzero">
            <circle id="Oval" fill="#3AB03E" cx="16" cy="16" r="16"></circle>
            <path d="M17.161,16.779 C17.9721547,16.3903363 18.4890536,15.5714596 18.491,14.672 C18.491,13.378 17.429,12.329 16.121,12.329 C14.811,12.329 13.748,13.378 13.748,14.672 C13.7502165,15.5716933 14.2680571,16.3904414 15.08,16.778 L15.08,19.672 L17.161,19.672 L17.161,16.779 M16.121,23.5 C11.935,23.5 8.531,20.136 8.531,16 C8.531,11.864 11.935,8.5 16.121,8.5 C19.536,8.5 22.431,10.74 23.381,13.812 L25.997,13.812 C24.987,9.342 20.949,6 16.12,6 C10.531,6 6,10.477 6,16 C6,21.523 10.531,26 16.12,26 C20.949,26 24.987,22.658 25.997,18.188 L23.38,18.188 C22.43,21.26 19.535,23.5 16.12,23.5" id="Shape" fill="#FFFFFF"></path>
        </g>
    </g>
</svg>