<?xml version="1.0" encoding="UTF-8"?>
<svg width="32px" height="32px" viewBox="0 0 32 32" version="1.1" xmlns="http://www.w3.org/2000/svg" xmlns:xlink="http://www.w3.org/1999/xlink">
    <!-- Generator: Sketch 51.2 (57519) - http://www.bohemiancoding.com/sketch -->
    <title>currency/dat</title>
    <desc>Created with Sketch.</desc>
    <defs></defs>
    <g id="currency/dat" stroke="none" stroke-width="1" fill="none" fill-rule="evenodd">
        <g id="dat" fill-rule="nonzero">
            <circle id="Oval" fill="#2D9CDB" cx="16" cy="16" r="16"></circle>
            <path d="M20.054,5.606 C20.446,5.606 20.762,5.726 21.001,5.965 C21.24,6.204 21.359,6.519 21.359,6.912 L21.359,18.586 C21.359,19.916 21.044,21.129 20.412,22.221 C19.8095915,23.28417 18.9349653,24.1677702 17.878,24.781 C16.82,25.395 15.634,25.702 14.319,25.702 C13.005,25.702 11.802,25.395 10.709,24.781 C9.65203468,24.1677702 8.77740854,23.28417 8.175,22.221 C7.561,21.129 7.254,19.917 7.254,18.586 C7.254,17.255 7.535,16.051 8.099,14.976 C8.679,13.884 9.464,13.03 10.454,12.416 C11.461,11.802 12.579,11.494 13.807,11.494 C15.7223914,11.4799464 17.5403444,12.3372284 18.748,13.824 L18.748,6.912 C18.748,6.519 18.868,6.204 19.107,5.965 C19.363,5.725 19.678,5.606 20.054,5.606 Z M14.319,23.398 C15.173,23.398 15.941,23.194 16.623,22.784 C17.3172233,22.3636209 17.8838357,21.7620922 18.262,21.044 C18.654,20.309 18.851,19.49 18.851,18.586 C18.851,17.682 18.654,16.87 18.261,16.154 C17.8872829,15.4393111 17.3195435,14.8445365 16.623,14.438 C15.941,14.012 15.173,13.798 14.319,13.798 C13.466,13.798 12.689,14.012 11.989,14.438 C11.3002009,14.8542654 10.7347956,15.4465948 10.351,16.154 C9.959,16.87 9.763,17.681 9.763,18.586 C9.763,19.491 9.959,20.309 10.351,21.043 C10.7392111,21.754126 11.3035772,22.3536143 11.99,22.784 C12.69,23.194 13.466,23.398 14.32,23.398 L14.319,23.398 Z" id="Shape" fill="#FFFFFF"></path>
        </g>
    </g>
</svg>