<?xml version="1.0" encoding="UTF-8"?>
<svg width="32px" height="32px" viewBox="0 0 32 32" version="1.1" xmlns="http://www.w3.org/2000/svg" xmlns:xlink="http://www.w3.org/1999/xlink">
    <!-- Generator: Sketch 51.2 (57519) - http://www.bohemiancoding.com/sketch -->
    <title>currency/data</title>
    <desc>Created with Sketch.</desc>
    <defs></defs>
    <g id="currency/data" stroke="none" stroke-width="1" fill="none" fill-rule="evenodd">
        <g id="data" fill-rule="nonzero">
            <circle id="Oval" fill="#E9570F" cx="16" cy="16" r="16"></circle>
            <path d="M24.14,9.914 L25.747,8.32 C26.127,7.944 26.048,7.256 25.573,6.785 C25.098,6.313 24.403,6.236 24.024,6.613 L21.008,9.603 L20.905,9.706 L18.277,12.311 C16.509,11.028 14.007,11.179 12.41,12.761 C10.8370804,14.319122 10.6438681,16.7947081 11.956,18.578 L9.95,20.568 C9.42968198,19.8746202 9.02790274,19.0997844 8.761,18.275 C8.088,16.237 8.269,14.005 9.361,12.165 C11.064,9.295 14.111,8.047 16.999,8.413 C17.2929807,8.4542093 17.5908687,8.37143665 17.8214474,8.18447066 C18.0520262,7.99750468 18.1945697,7.72315104 18.215,7.427 C18.2543748,6.72864044 17.7369503,6.12306863 17.041,6.053 C14.14,5.756 11.141,6.703 8.926,8.899 C5.256,12.537 5.041,18.308 8.266,22.237 L6.426,24.062 C6.063,24.422 6.153,25.097 6.629,25.568 C7.104,26.039 7.784,26.13 8.147,25.77 L10.128,23.806 L10.129,23.806 L11.561,22.386 L11.564,22.382 L13.886,20.08 C15.5736503,20.7674218 17.5085532,20.3835874 18.806,19.104 C20.0949474,17.8287504 20.4842483,15.9004264 19.791,14.225 L22.425,11.614 C24.356,14.522 23.973,18.548 21.315,21.182 C19.697819,22.7930738 17.4618728,23.6243497 15.185,23.461 C14.6583731,23.4307943 14.2026767,23.8236665 14.155,24.349 L14.127,24.669 C14.1015869,24.9518568 14.1931783,25.2327736 14.3804318,25.4462917 C14.5676852,25.6598097 14.8342458,25.7872801 15.118,25.799 C18.0353072,25.9555676 20.8819875,24.8666179 22.95,22.803 C26.547,19.236 26.963,13.742 24.14,9.913 M17.139,17.449 C16.2903524,18.2851327 14.9276476,18.2851327 14.079,17.449 C13.6744168,17.0480678 13.4468149,16.5020912 13.4468149,15.9325 C13.4468149,15.3629088 13.6744168,14.8169322 14.079,14.416 C14.9274267,13.5793285 16.2905733,13.5793285 17.139,14.416 C17.5435832,14.8169322 17.7711851,15.3629088 17.7711851,15.9325 C17.7711851,16.5020912 17.5435832,17.0480678 17.139,17.449" id="Shape" fill="#FFFFFF"></path>
        </g>
    </g>
</svg>