<?xml version="1.0" encoding="UTF-8"?>
<svg width="32px" height="32px" viewBox="0 0 32 32" version="1.1" xmlns="http://www.w3.org/2000/svg" xmlns:xlink="http://www.w3.org/1999/xlink">
    <!-- Generator: Sketch 51.2 (57519) - http://www.bohemiancoding.com/sketch -->
    <title>currency/dcr</title>
    <desc>Created with Sketch.</desc>
    <defs></defs>
    <g id="currency/dcr" stroke="none" stroke-width="1" fill="none" fill-rule="evenodd">
        <g id="dcr" fill-rule="nonzero">
            <circle id="Oval" fill="#2ED6A1" cx="16" cy="16" r="16"></circle>
            <path d="M14.856,17.62 L19.276,17.62 C20.0682028,17.6176166 20.8270118,17.3006277 21.3854959,16.738768 C21.94398,16.1769082 22.2563905,15.4162027 22.254,14.624 C22.2584247,12.9747124 20.925286,11.6339635 19.276,11.629 L17.87,11.629 L14.856,9 L19.276,9 C21.9572935,9.00640441 24.2580927,10.9118586 24.764,13.545 C25.2804333,16.1789823 23.8662925,18.8114018 21.385,19.835 L24.87,22.877 L20.879,22.877 L14.856,17.619 L14.856,17.62 Z M17.013,14.26 L12.593,14.26 C10.9441054,14.2649637 9.61112835,15.6051025 9.615,17.254 C9.61057527,18.9032876 10.943714,20.2440365 12.593,20.249 L14,20.249 L17.012,22.879 L12.593,22.879 C9.91170654,22.8725956 7.61090725,20.9671414 7.105,18.334 C6.58856669,15.7000177 8.00270745,13.0675982 10.484,12.044 L7.002,9 L10.993,9 L17.013,14.26 Z" id="Shape" fill="#FFFFFF"></path>
        </g>
    </g>
</svg>