<?xml version="1.0" encoding="UTF-8"?>
<svg width="32px" height="32px" viewBox="0 0 32 32" version="1.1" xmlns="http://www.w3.org/2000/svg" xmlns:xlink="http://www.w3.org/1999/xlink">
    <!-- Generator: Sketch 51.2 (57519) - http://www.bohemiancoding.com/sketch -->
    <title>currency/dent</title>
    <desc>Created with Sketch.</desc>
    <defs></defs>
    <g id="currency/dent" stroke="none" stroke-width="1" fill="none" fill-rule="evenodd">
        <g id="dent" fill-rule="nonzero">
            <circle id="Oval" fill="#666666" cx="16" cy="16" r="16"></circle>
            <path d="M25.082,21.15 C24.653967,21.864241 23.7340601,22.1062049 23.01,21.695 L18.231,18.985 L18.231,17.265 L19.749,16.405 L24.527,19.114 C25.253,19.525 25.501,20.437 25.082,21.149 L25.082,21.15 Z M17.517,24.809 C17.517,25.632 16.838,26.299 16,26.299 C15.162,26.299 14.483,25.632 14.483,24.809 L14.483,19.39 L16,18.53 L17.517,19.39 L17.517,24.809 Z M8.99,21.695 C8.26568178,22.1060304 7.34569873,21.8636025 6.918,21.149 C6.71746728,20.8065222 6.66330111,20.397718 6.76772407,20.0148338 C6.87214702,19.6319497 7.12635999,19.3072489 7.473,19.114 L12.251,16.404 L13.769,17.265 L13.769,18.985 L8.99,21.695 Z M7.473,12.886 C7.12635999,12.6927511 6.87214702,12.3680503 6.76772407,11.9851662 C6.66330111,11.602282 6.71746728,11.1934778 6.918,10.851 C7.34569873,10.1363975 8.26568178,9.89396956 8.99,10.305 L13.769,13.015 L13.769,14.735 L12.251,15.595 L7.473,12.886 Z M14.483,7.191 C14.483,6.368 15.163,5.701 16,5.701 C16.838,5.701 17.517,6.368 17.517,7.191 L17.517,12.609 L16,13.47 L14.483,12.61 L14.483,7.191 Z M18.231,15.545 L19.035,16 L18.231,16.455 L18.231,15.545 Z M16.714,13.875 L17.517,13.419 L17.517,14.33 L16.714,13.875 Z M14.483,14.33 L14.483,13.42 L15.286,13.875 L14.483,14.33 Z M13.769,16.455 L12.965,16 L13.769,15.545 L13.769,16.455 Z M15.286,18.125 L14.483,18.581 L14.483,17.67 L15.286,18.125 Z M17.517,17.67 L17.517,18.58 L16.714,18.125 L17.517,17.67 Z M16,17.72 L14.483,16.86 L14.483,15.14 L16,14.28 L17.517,15.14 L17.517,16.86 L16,17.72 Z M23.01,10.305 C23.7343182,9.89396956 24.6543013,10.1363975 25.082,10.851 C25.502,11.563 25.252,12.475 24.527,12.886 L19.749,15.596 L18.231,14.735 L18.231,13.015 L23.01,10.305 Z M24.884,18.507 L20.463,16 L24.884,13.493 C25.3941244,13.2090689 25.7683218,12.7315637 25.922062,12.1683517 C26.0758021,11.6051397 25.9961144,11.0037374 25.701,10.5 C25.085,9.452 23.72,9.093 22.653,9.698 L18.231,12.205 L18.231,7.19 C18.231,5.981 17.232,5 16,5 C14.768,5 13.769,5.981 13.769,7.191 L13.769,12.205 L9.347,9.698 C8.28,9.093 6.915,9.452 6.3,10.5 C6.00488563,11.0037374 5.92519789,11.6051397 6.07893803,12.1683517 C6.23267817,12.7315637 6.60687555,13.2090689 7.117,13.493 L11.537,16 L7.117,18.507 C6.60670554,18.79076 6.23229404,19.2681898 6.07836156,19.8314171 C5.92442909,20.3946443 6.00396549,20.9961401 6.299,21.5 C6.915,22.548 8.28,22.907 9.347,22.302 L13.769,19.795 L13.769,24.809 C13.769,26.019 14.768,27 16,27 C17.232,27 18.231,26.019 18.231,24.809 L18.231,19.795 L22.653,22.302 C23.72,22.907 25.085,22.548 25.701,21.5 C25.9961144,20.9962626 26.0758021,20.3948603 25.922062,19.8316483 C25.7683218,19.2684363 25.3941244,18.7909311 24.884,18.507 Z" id="Shape" fill="#FFFFFF"></path>
        </g>
    </g>
</svg>