<?xml version="1.0" encoding="UTF-8"?>
<svg width="32px" height="32px" viewBox="0 0 32 32" version="1.1" xmlns="http://www.w3.org/2000/svg" xmlns:xlink="http://www.w3.org/1999/xlink">
    <!-- Generator: Sketch 51.2 (57519) - http://www.bohemiancoding.com/sketch -->
    <title>currency/dta</title>
    <desc>Created with Sketch.</desc>
    <defs></defs>
    <g id="currency/dta" stroke="none" stroke-width="1" fill="none" fill-rule="evenodd">
        <g id="dta" fill-rule="nonzero">
            <circle id="Oval" fill="#74D269" cx="16" cy="16" r="16"></circle>
            <path d="M24.9630289,14.5121335 L24.9825047,14.5114363 L25,19.478849 L13.8229178,26 L10.8306185,24.3181551 L10.8306185,24.3196016 L10.8121947,24.3077998 L10.8113134,24.3073045 L8,22.5063945 L8,9.48376783 L11.0731396,7.67056075 L11.0794349,7.67429216 L13.7915469,6 L24.9420845,12.5629611 L24.9630289,14.5121335 Z M21.687569,17.6244407 L19.3492251,16.2853808 L11.5418929,20.8794884 L13.8337769,22.2420069 L21.687569,17.6244407 Z M18.82224,15.9836012 L14.0059904,13.225561 L13.9848009,18.9074694 L18.82224,15.9836012 Z M14.0082572,12.6177414 L21.7500976,17.1491638 L21.7500976,14.4438023 L14.0182826,9.92946552 L14.0082572,12.6177414 Z M10.8193015,23.5707109 L10.8487173,20.8582437 L10.8306185,20.8690359 L10.8306185,11.2969749 L8.48504205,9.89572061 L8.48504205,22.1762174 L10.8193015,23.5707109 Z M11.2348203,20.5696259 L13.5797935,19.1522659 L13.5797935,9.89572061 L11.2348203,11.2969749 L11.2348203,20.5696259 Z M14.1161148,22.6010821 L14.0690585,25.4367929 L24.5059087,19.3005411 L24.5366762,16.4814314 L14.1161148,22.6010821 Z M21.9093651,14.017093 L24.3375918,12.6305952 L13.8832464,6.52631579 L11.4773413,7.91773242 L21.9093651,14.017093 Z" id="Shape" fill="#FFFFFF"></path>
        </g>
    </g>
</svg>