<?xml version="1.0" encoding="UTF-8"?>
<svg width="32px" height="32px" viewBox="0 0 32 32" version="1.1" xmlns="http://www.w3.org/2000/svg" xmlns:xlink="http://www.w3.org/1999/xlink">
    <!-- Generator: Sketch 51.2 (57519) - http://www.bohemiancoding.com/sketch -->
    <title>currency/dtr</title>
    <desc>Created with Sketch.</desc>
    <defs></defs>
    <g id="currency/dtr" stroke="none" stroke-width="1" fill="none" fill-rule="evenodd">
        <g id="dtr" fill-rule="nonzero">
            <circle id="Oval" fill="#121747" cx="16" cy="16" r="16"></circle>
            <g id="Group" transform="translate(7.000000, 7.000000)" fill="#FFFFFF">
                <path d="M11.0316667,15.8691589 C11.0316667,17.0150207 10.1113631,17.9439252 8.9761111,17.9439252 C7.8408591,17.9439252 6.9205556,17.0150207 6.9205556,15.8691589 L6.9205556,2.07981308 C6.9205556,0.93395127 7.8408591,0.00504673 8.9761111,0.00504673 C10.1113631,0.00504673 11.0316667,0.93395127 11.0316667,2.07981308 L11.0316667,15.8691589 Z M4.1111111,15.8753271 C4.123295,16.6219799 3.7356245,17.3172388 3.0969449,17.6941604 C2.4582654,18.071082 1.66784571,18.071082 1.02916618,17.6941604 C0.39048664,17.3172388 0.0028161,16.6219799 0.015,15.8753271 L0.015,12.7743925 C0.0028161,12.0277398 0.39048664,11.3324808 1.02916618,10.9555593 C1.66784571,10.5786377 2.4582654,10.5786377 3.0969449,10.9555593 C3.7356245,11.3324808 4.123295,12.0277398 4.1111111,12.7743925 L4.1111111,15.8753271 Z" id="Shape"></path>
                <path d="M17.9555556,10.3990654 C17.9555556,11.5449272 17.035252,12.4738318 15.9,12.4738318 C14.764748,12.4738318 13.8444444,11.5449272 13.8444444,10.3990654 L13.8444444,5.1656075 C13.8444444,4.0197457 14.764748,3.0908411 15.9,3.0908411 C17.035252,3.0908411 17.9555556,4.0197457 17.9555556,5.1656075 L17.9555556,10.3990654 Z" id="Shape" opacity="0.5"></path>
            </g>
        </g>
    </g>
</svg>