<?xml version="1.0" encoding="UTF-8"?>
<svg width="32px" height="32px" viewBox="0 0 32 32" version="1.1" xmlns="http://www.w3.org/2000/svg" xmlns:xlink="http://www.w3.org/1999/xlink">
    <!-- Generator: Sketch 51.2 (57519) - http://www.bohemiancoding.com/sketch -->
    <title>currency/edo</title>
    <desc>Created with Sketch.</desc>
    <defs></defs>
    <g id="currency/edo" stroke="none" stroke-width="1" fill="none" fill-rule="evenodd">
        <g id="edo" fill-rule="nonzero">
            <circle id="Oval" fill="#242424" cx="16" cy="16" r="16"></circle>
            <path d="M13.059232,23.8742361 L15.7433477,21.1765337 L18.4365633,23.8742361 L16.7179533,25.5956376 C16.4596624,25.8545148 16.1089919,26 15.7432977,26 C15.3776034,26 15.0269329,25.8545148 14.768642,25.5956376 L13.059232,23.8742361 Z M20.0106725,14.631628 L17.3183568,11.9348256 L20.0106725,9.23802328 L22.7029882,11.9348256 L20.0106725,14.631628 Z M19.3414686,22.9952353 L16.6477529,20.297533 L23.877795,13.0559266 L25.596305,14.7774281 C26.134565,15.3170127 26.134565,16.1904453 25.596305,16.7300299 L19.3414686,22.9952353 Z M11.9382255,22.7169351 L9.24590985,20.0200327 L16.4641519,12.7898264 L19.1564675,15.4866288 L11.9382255,22.7169351 Z M8.11600327,18.9167318 L6.39749327,17.1953303 C5.86269969,16.6523113 5.86824624,15.7789116 6.40989334,15.2427285 L8.12820334,13.521227 L10.821419,16.2190294 L8.11600327,18.9167318 Z M18.8829659,8.12882231 L11.6534239,15.3674287 L8.95990818,12.6700263 L15.2150446,6.4043208 C15.4733486,6.14546819 15.8240142,6 16.1897003,6 C16.5553863,6 16.9060519,6.14546819 17.1643559,6.4043208 L18.8829659,8.12882231 Z" id="Shape" fill="#FFFFFF"></path>
        </g>
    </g>
</svg>