<?xml version="1.0" encoding="UTF-8"?>
<svg width="32px" height="32px" viewBox="0 0 32 32" version="1.1" xmlns="http://www.w3.org/2000/svg" xmlns:xlink="http://www.w3.org/1999/xlink">
    <!-- Generator: Sketch 51.2 (57519) - http://www.bohemiancoding.com/sketch -->
    <title>currency/elix</title>
    <desc>Created with Sketch.</desc>
    <defs></defs>
    <g id="currency/elix" stroke="none" stroke-width="1" fill="none" fill-rule="evenodd">
        <g id="elix" fill-rule="nonzero">
            <circle id="Oval" fill="#00ADED" cx="16" cy="16" r="16"></circle>
            <g id="Group" transform="translate(10.000000, 6.000000)" fill="#FFFFFF">
                <path d="M0.09684034,17.6030476 L0.09868769,17.5987619 L3.2865433,9.98285713 L0.09684034,2.36752381 L5.98241885,9.98285713 L0.10082674,17.5978095 L0.09684034,17.6030476 Z M11.8731506,17.6030476 L11.8691642,17.5978095 L5.98766927,9.98285713 L11.8731506,2.36752381 L8.68344757,9.98285713 L11.8714004,17.5987619 L11.8731506,17.6030476 Z" id="Shape"></path>
                <polygon id="Shape" fill-opacity="0.8" points="5.98494683 9.98409523 5.98494683 15.29 0.0953819 17.6 5.98494683 9.97961903 5.98494683 4.67371429 11.8745118 2.36371429"></polygon>
                <polygon id="Shape" fill-opacity="0.5" points="5.98494683 15.29 5.98494683 19.9409524 0.0953819 17.5972381 5.98494683 15.2824762 5.98494683 9.98409523 0.0953819 2.36371429 5.98494683 4.67371429 5.98494683 0.02285714 11.8745118 2.36647619 5.98494683 4.68133333 5.98494683 9.97961903 11.8745118 17.6"></polygon>
                <path d="M0.0953819,2.36647619 L5.98494683,0.02285714 L5.98494683,4.68133333 L0.0953819,2.36647619 Z M11.8745118,17.5972381 L5.98494683,19.9409524 L5.98494683,15.2824762 L11.8745118,17.5972381 Z" id="Shape" fill-opacity="0.145"></path>
            </g>
        </g>
    </g>
</svg>