<?xml version="1.0" encoding="UTF-8"?>
<svg width="32px" height="32px" viewBox="0 0 32 32" version="1.1" xmlns="http://www.w3.org/2000/svg" xmlns:xlink="http://www.w3.org/1999/xlink">
    <!-- Generator: Sketch 51.2 (57519) - http://www.bohemiancoding.com/sketch -->
    <title>currency/ella</title>
    <desc>Created with Sketch.</desc>
    <defs></defs>
    <g id="currency/ella" stroke="none" stroke-width="1" fill="none" fill-rule="evenodd">
        <g id="ella" fill-rule="nonzero">
            <circle id="Oval" fill="#396A28" cx="16" cy="16" r="16"></circle>
            <path d="M18.073,13.212 L16,11.14 L13.913,13.226 L11.749,11.062 L16,5 L20.28,11.005 L18.073,13.212 Z M13.19,13.95 L11.14,16 L13.212,18.073 L11.056,20.229 L5,16 L10.99,11.75 L13.19,13.95 Z M18.774,18.087 L20.86,16 L18.796,13.936 L21.022,11.71 L27,16 L20.956,20.269 L18.774,18.087 Z M13.936,18.797 L16,20.86 L18.05,18.81 L20.232,20.993 L16,27 L11.796,20.936 L13.936,18.797 Z M16,12.527 L19.472,16 L16,19.472 L12.528,16 L16,12.527 Z" id="Shape" fill="#FFFFFF"></path>
        </g>
    </g>
</svg>