<?xml version="1.0" encoding="UTF-8"?>
<svg width="32px" height="32px" viewBox="0 0 32 32" version="1.1" xmlns="http://www.w3.org/2000/svg" xmlns:xlink="http://www.w3.org/1999/xlink">
    <!-- Generator: Sketch 51.2 (57519) - http://www.bohemiancoding.com/sketch -->
    <title>currency/emc2</title>
    <desc>Created with Sketch.</desc>
    <defs></defs>
    <g id="currency/emc2" stroke="none" stroke-width="1" fill="none" fill-rule="evenodd">
        <g id="emc2" fill-rule="nonzero">
            <circle id="Oval" fill="#00CCFF" cx="16" cy="16" r="16"></circle>
            <g id="Group" transform="translate(6.000000, 9.000000)" fill="#FFFFFF">
                <path d="M1.894,10.161 L6.291,10.161 L4.398,14 L0,14 L1.894,10.161 Z M4.399,5.081 L8.797,5.081 L6.91,8.91 L2.51,8.91 L4.4,5.08 L4.399,5.081 Z M6.905,0.001 L11.303,0.001 L9.414,3.831 L5.017,3.831 L6.905,0 L6.905,0.001 Z" id="Shape" fill-opacity="0.4"></path>
                <path d="M6.277,10.16 L10.675,10.16 L8.781,13.998 L4.383,13.998 L6.277,10.159 L6.277,10.16 Z M8.783,5.08 L13.18,5.08 L11.292,8.908 L6.894,8.908 L8.783,5.08 Z M11.288,0 L15.686,0 L13.797,3.829 L9.4,3.829 L11.288,0 Z" id="Shape" fill-opacity="0.6"></path>
                <path d="M10.59,10.16 L14.988,10.16 L13.095,13.998 L8.697,13.998 L10.591,10.159 L10.59,10.16 Z M13.096,5.08 L17.494,5.08 L15.606,8.908 L11.208,8.908 L13.096,5.08 Z M15.602,0 L20,0 L18.111,3.829 L13.714,3.829 L15.602,0 Z" id="Shape"></path>
            </g>
        </g>
    </g>
</svg>