<?xml version="1.0" encoding="UTF-8"?>
<svg width="32px" height="32px" viewBox="0 0 32 32" version="1.1" xmlns="http://www.w3.org/2000/svg" xmlns:xlink="http://www.w3.org/1999/xlink">
    <!-- Generator: Sketch 51.2 (57519) - http://www.bohemiancoding.com/sketch -->
    <title>currency/eng</title>
    <desc>Created with Sketch.</desc>
    <defs></defs>
    <g id="currency/eng" stroke="none" stroke-width="1" fill="none" fill-rule="evenodd">
        <g id="eng" fill-rule="nonzero">
            <circle id="Oval" fill="#2F2F2F" cx="16" cy="16" r="16"></circle>
            <path d="M25.149,10.295 C25.263,10.355 25.524,10.497 25.499,10.806 L25.483,21.223 C25.4980891,21.4243763 25.384735,21.6134334 25.2,21.695 L22.9,23.038 L21.08,24.1 L16.236,26.928 C16.1745792,26.9749816 16.0993285,27.0002996 16.022,27 C15.9245588,26.9967875 15.8299739,26.9662986 15.749,26.912 L12.407,24.984 C10.551,23.913 8.631,22.805 6.739,21.717 C6.58,21.64 6.487,21.461 6.501,21.257 L6.508,18.505 C6.514,16.029 6.518,13.514 6.52,11.082 L6.52,11.072 C6.52138645,11.055371 6.52172045,11.0386711 6.521,11.022 L6.521,10.991 C6.517,10.856 6.511,10.579 6.771,10.454 C7.831,9.821 8.915,9.178 9.964,8.556 L11.701,7.526 C13.023,6.743 14.369,5.944 15.671,5.171 L15.681,5.165 C15.7661719,5.11626907 15.8551254,5.07446762 15.947,5.04 L16.05,5 L16.146,5.057 C17.092,5.605 18.054,6.165 18.983,6.707 L20.719,7.717 L22.414,8.703 L25.081,10.255 L25.083,10.255 L25.085,10.257 L25.149,10.295 Z M16.38,25.965 L19.342,24.235 C21.1380575,23.1880034 22.9337243,22.1403366 24.729,21.092 L24.739,15.243 L24.744,11.378 L20.894,13.63 L20.894,15.406 C20.89,16.726 20.892,17.782 20.9,18.731 L20.9,18.807 L20.855,18.869 C20.8058793,18.9349382 20.7431202,18.9895113 20.671,19.029 L20.645,19.045 L20.644,19.045 L19.4,19.77 C18.95,20.03 18.485,20.3 18.03,20.567 L16.386,21.522 L16.38,25.965 Z M12.184,13.41 C13.0247944,13.8932727 13.8661283,14.3756063 14.708,14.857 L16.012,15.606 L19.789,13.398 L16.006,11.166 L12.184,13.41 Z M11.794,14.06 L11.865,18.449 L15.633,20.644 L15.639,16.265 L11.794,14.06 Z M7.274,11.466 L7.255,21.141 L15.629,25.971 L15.632,21.52 L13.992,20.565 L12.964,19.966 C12.437,19.66 11.892,19.343 11.357,19.03 C11.202,18.957 11.105,18.779 11.116,18.584 L11.035,13.625 L7.274,11.466 Z M24.368,10.72 L22.899,9.864 L21.277,8.919 C19.733,8.023 17.902,6.959 16.013,5.853 C13.914,7.093 12.038,8.205 10.277,9.25 L7.651,10.807 L11.429,12.972 L15.763,10.427 C15.9161919,10.3283426 16.1138753,10.3322963 16.263,10.437 L20.539,12.958 L24.368,10.72 Z M16.386,20.647 C17.511,19.991 18.723,19.287 20.178,18.443 L20.178,14.05 L16.389,16.264 L16.386,20.647 Z M21.513,19.854 C21.4754008,19.8654347 21.4362992,19.8711651 21.397,19.871 C21.2897123,19.8725706 21.1864247,19.8303166 21.111,19.754 C20.9881972,19.6433346 20.9330505,19.4759929 20.966,19.314 C21.0008474,19.0993236 21.1845416,18.940487 21.402,18.937 C21.525,18.937 21.645,18.993 21.732,19.09 L21.733,19.092 C21.8558132,19.2300606 21.8863343,19.4272737 21.811,19.596 C21.759677,19.7254458 21.6484593,19.8217349 21.513,19.854 Z M23.577,21.262 C23.458447,21.169523 23.393913,21.0239463 23.405,20.874 C23.413,20.715 23.495,20.574 23.627,20.494 C23.6924519,20.4512827 23.7688426,20.4283655 23.847,20.428 C23.933,20.428 24.017,20.455 24.091,20.505 C24.2424078,20.6043011 24.3214777,20.7831871 24.293,20.962 C24.2657854,21.1897237 24.0733398,21.3615961 23.844,21.363 C23.745725,21.3626728 23.6508872,21.3267979 23.577,21.262 Z M10.388,18.942 C10.513,18.942 10.632,18.999 10.715,19.098 C10.8365568,19.233529 10.8667464,19.4279966 10.792,19.594 C10.7229031,19.7622147 10.5578293,19.8709412 10.376,19.868 C10.240477,19.8629947 10.1142137,19.7979277 10.0314902,19.6904644 C9.94876664,19.5830011 9.91816738,19.4442934 9.948,19.312 C9.98935862,19.1005128 10.1725529,18.9464631 10.388,18.942 Z M22.344,20.518 C22.2148152,20.409861 22.1533912,20.2408495 22.183,20.075 C22.2164595,19.8567177 22.4003136,19.693012 22.621,19.685 C22.731,19.685 22.837,19.729 22.921,19.807 C23.048,19.925 23.101,20.096 23.059,20.256 C23.0305954,20.4088775 22.9232676,20.535235 22.777,20.588 C22.6306744,20.6451242 22.4648727,20.6183202 22.344,20.518 Z M9.439,19.795 C9.572,19.905 9.634,20.08 9.6,20.242 C9.57799692,20.3894337 9.48219623,20.5154078 9.346,20.576 L9.345,20.576 C9.2855809,20.6041972 9.22076534,20.6192071 9.155,20.62 C9.07632489,20.6189239 8.99948487,20.5960796 8.933,20.554 C8.78117256,20.4592039 8.69688501,20.2859677 8.716,20.108 C8.72707763,19.9321811 8.84016905,19.7791751 9.005,19.717 C9.05397038,19.6959591 9.10670074,19.6850729 9.16,19.685 C9.26,19.685 9.357,19.723 9.439,19.795 Z M15.949,6.167 C16.079,6.167 16.202,6.223 16.289,6.321 C16.396,6.434 16.436,6.591 16.396,6.741 C16.3561944,6.91883558 16.2104352,7.05344385 16.03,7.079 L16.025,7.079 C15.8399518,7.11536715 15.6514131,7.03535705 15.549,6.877 C15.4631153,6.74459483 15.4528699,6.5768744 15.522,6.435 L15.523,6.433 C15.5886279,6.29240294 15.721244,6.1948246 15.875,6.174 C15.8997428,6.1694462 15.9248418,6.16710362 15.95,6.167 L15.949,6.167 Z M8.15,20.49 C8.295,20.572 8.383,20.72 8.382,20.88 C8.39072788,21.0441723 8.3100186,21.2002358 8.171,21.288 C8.09842932,21.3355196 8.01374086,21.3612038 7.927,21.362 C7.85538605,21.3626342 7.78492146,21.3439818 7.723,21.308 C7.57501955,21.2260224 7.48427865,21.0691483 7.487,20.9 C7.487,20.727 7.576,20.57 7.718,20.49 C7.85083917,20.4098212 8.01716083,20.4098212 8.15,20.49 Z M16.19,9.205 C16.3338151,9.29447431 16.4165084,9.45601484 16.405,9.625 C16.3935814,9.7927065 16.2882288,9.93950294 16.133,10.004 C16.0701956,10.0326469 16.0020283,10.0476437 15.933,10.048 C15.830498,10.0490914 15.7306822,10.0152316 15.65,9.952 C15.5248072,9.85941321 15.4572644,9.70801099 15.472,9.553 C15.4806211,9.39925429 15.5689894,9.26120247 15.705,9.189 C15.7737303,9.14943512 15.8516958,9.12873631 15.931,9.129 C16.0231658,9.12884635 16.1134272,9.15523044 16.191,9.205 L16.19,9.205 Z M15.62,8.447 C15.5135154,8.35330156 15.4584668,8.21419211 15.472,8.073 L15.472,8.07 C15.4853039,7.92466196 15.5664994,7.794156 15.691,7.718 C15.7632551,7.66992443 15.8482139,7.64450643 15.935,7.645 C16.015,7.645 16.095,7.666 16.168,7.705 L16.169,7.706 C16.3187929,7.78661975 16.4101627,7.94496826 16.405,8.115 C16.4034338,8.29432048 16.2953172,8.45551251 16.13,8.525 C16.067186,8.55361803 15.9990249,8.56861347 15.93,8.569 C15.8147096,8.57032241 15.703466,8.52654266 15.62,8.447 Z" id="Shape" fill="#FFFFFF"></path>
        </g>
    </g>
</svg>