<?xml version="1.0" encoding="UTF-8"?>
<svg width="32px" height="32px" viewBox="0 0 32 32" version="1.1" xmlns="http://www.w3.org/2000/svg" xmlns:xlink="http://www.w3.org/1999/xlink">
    <!-- Generator: Sketch 51.2 (57519) - http://www.bohemiancoding.com/sketch -->
    <title>currency/etc</title>
    <desc>Created with Sketch.</desc>
    <defs></defs>
    <g id="currency/etc" stroke="none" stroke-width="1" fill="none" fill-rule="evenodd">
        <g id="etc" fill-rule="nonzero">
            <circle id="Oval" fill="#328332" cx="16" cy="16" r="16"></circle>
            <g id="Group" transform="translate(9.000000, 4.000000)" fill="#FFFFFF">
                <path d="M6.98852447,12.5527163 L0.267759563,11.9756754 L6.98852447,8.17433816 L6.98852447,12.5527163 Z M6.98852447,17.0137714 L6.98852448,23.9523831 C4.65180592,20.3163567 2.07563468,16.3115204 0,13.0702703 C2.45074991,14.4496436 5.0075075,15.8932179 6.98852448,17.0137714 Z M6.98852447,6.94545187 L0,10.8445946 L6.98852447,1.81144371e-07 L6.98852447,6.94545187 Z" id="Shape"></path>
                <path d="M13.7092894,11.9756755 L6.98852448,12.5527164 L6.98852448,8.17433798 L13.7092894,11.9756755 Z M6.98852447,17.0137713 C8.96954145,15.8932177 11.526299,14.4496434 13.977049,13.0702701 C11.9014143,16.3115202 9.32524303,20.3163565 6.98852447,23.9523829 L6.98852448,17.0137712 Z M6.98852448,6.94545168 L6.98852448,0 L13.977049,10.8445944 L6.98852448,6.94545168 Z" id="Shape" fill-opacity="0.601"></path>
                <polygon id="Shape" opacity="0.2" points="6.989 12.553 13.709 11.976 6.989 15.751"></polygon>
                <polygon id="Shape" opacity="0.603" transform="translate(3.627500, 13.863500) scale(-1, 1) translate(-3.627500, -13.863500) " points="0.267 12.553 6.988 11.976 0.267 15.751"></polygon>
            </g>
        </g>
    </g>
</svg>