<?xml version="1.0" encoding="UTF-8"?>
<svg width="32px" height="32px" viewBox="0 0 32 32" version="1.1" xmlns="http://www.w3.org/2000/svg" xmlns:xlink="http://www.w3.org/1999/xlink">
    <!-- Generator: Sketch 51.2 (57519) - http://www.bohemiancoding.com/sketch -->
    <title>currency/ethos</title>
    <desc>Created with Sketch.</desc>
    <defs></defs>
    <g id="currency/ethos" stroke="none" stroke-width="1" fill="none" fill-rule="evenodd">
        <g id="ethos" fill-rule="nonzero">
            <circle id="Oval" fill="#00FFBA" cx="16" cy="16" r="16"></circle>
            <g id="Group" transform="translate(6.000000, 6.000000)" fill="#FFFFFF">
                <path d="M4.871,4.904 C4.30491712,5.48329744 4.22387124,6.38065086 4.677,7.052 C4.9927281,7.52715119 5.52652501,7.81134166 6.097,7.808 C7.30567518,7.80827614 8.28527614,8.78832482 8.285,9.997 C8.28472386,11.2056752 7.30467518,12.1852761 6.096,12.185 C3.62665182,12.1859281 1.40150643,10.6946808 0.46369618,8.4103443 C-0.47411407,6.12600781 0.0613236748,3.50143224 1.819,1.767 C4.04980589,-0.439564216 7.5928122,-0.587676691 10,1.425 C8.61589244,2.58218134 7.81663207,4.29388789 7.818,6.098 C7.8174286,7.30173039 8.78929072,8.27984817 9.993,8.287 C9.41253302,8.28700006 8.85585506,8.05634203 8.4454967,7.64579612 C8.03513835,7.23525022 7.8047347,6.67846692 7.805,6.098 C7.80668001,5.75773079 7.70560464,5.42487911 7.515,5.143 C7.32880809,4.86738396 7.06698664,4.65139863 6.761,4.521 C6.33553411,4.34299738 5.85646589,4.34299738 5.431,4.521 C5.22067865,4.6100786 5.03028276,4.74029579 4.871,4.904 Z M19.511,11.532 C20.4617614,13.7858204 19.9727176,16.3897223 18.269,18.145 C16.5429427,19.9235653 13.9105409,20.477335 11.61419,19.5449506 C9.31783901,18.6125662 7.81659936,16.3804194 7.819,13.902 C7.80205108,13.1093322 8.21523962,12.3695147 8.89902455,11.9682072 C9.58280948,11.5668997 10.4301905,11.5668997 11.1139755,11.9682072 C11.7977604,12.3695147 12.2109489,13.1093322 12.194,13.902 C12.193,14.242 12.294,14.575 12.484,14.857 C12.671,15.133 12.933,15.349 13.239,15.479 C13.669,15.659 14.152,15.657 14.58,15.474 C14.9892046,15.2968018 15.3136557,14.9676901 15.485,14.556 C15.8405888,13.6872476 15.4325844,12.6939619 14.569,12.326 C14.3586356,12.2369528 14.1324342,12.1913723 13.904,12.192 C12.6953248,12.192 11.7155,11.2121752 11.7155,10.0035 C11.7155,8.79482482 12.6953248,7.815 13.904,7.815 C16.3501887,7.81366613 18.5590398,9.27822186 19.51,11.532 L19.511,11.532 Z" id="Shape"></path>
                <path d="M9.994,11.714 C11.202,11.714 12.182,12.694 12.182,13.902 C12.1836316,16.3844883 10.677067,18.6190635 8.37511874,19.5484639 C6.07317046,20.4778642 3.43744364,19.9157189 1.715,18.128 C0.0195665625,16.3704125 -0.461337638,13.7697117 0.493473538,11.5220587 C1.44828471,9.27440575 3.65394999,7.81496941 6.096,7.815 C7.30467518,7.815 8.2845,8.79482482 8.2845,10.0035 C8.2845,11.2121752 7.30467518,12.192 6.096,12.192 C5.756,12.191 5.424,12.292 5.142,12.482 C4.86619622,12.6684178 4.65018617,12.9306165 4.52,13.237 C4.25418621,13.8679339 4.39031853,14.596596 4.866,15.089 L4.866,15.091 C5.44132214,15.688327 6.36286845,15.7853763 7.05,15.321 C7.52380216,15.0041648 7.8072957,14.4709717 7.805,13.901 C7.805,12.694 8.785,11.714 9.994,11.714 Z M19.32,3.318 C20.2875478,5.20554848 20.2033015,7.46054291 19.0976101,9.27063538 C17.9919188,11.0807278 16.0240816,12.1851346 13.903,12.186 C12.6940487,12.186 11.714,11.2059513 11.714,9.997 C11.714,8.78804868 12.6940487,7.808 13.903,7.808 C14.5910288,7.80864494 15.2124334,7.39687077 15.48,6.763 C15.6747305,6.29705636 15.6549869,5.76909825 15.426,5.319 C15.2044984,4.88241679 14.8060182,4.56211054 14.3320254,4.43964165 C13.8580325,4.31717277 13.3542656,4.40435904 12.949,4.679 C12.4745415,4.99535595 12.1905659,5.52874911 12.193,6.099 C12.2097668,6.89167106 11.7964089,7.63139304 11.1125326,8.03254363 C10.4286564,8.43369422 9.58127614,8.43350054 8.89758334,8.03203736 C8.21389054,7.63057418 7.80087088,6.89066331 7.818,6.098 C7.81655963,3.79675733 9.11344085,1.69156946 11.1694026,0.657770035 C13.2253643,-0.376029391 15.6886386,-0.161560847 17.535,1.212 L17.539,1.215 C18.2848773,1.77115584 18.8937239,2.49048414 19.319,3.318 L19.32,3.318 Z" id="Shape" opacity="0.7"></path>
            </g>
        </g>
    </g>
</svg>