<?xml version="1.0" encoding="UTF-8"?>
<svg width="32px" height="32px" viewBox="0 0 32 32" version="1.1" xmlns="http://www.w3.org/2000/svg" xmlns:xlink="http://www.w3.org/1999/xlink">
    <!-- Generator: Sketch 51.2 (57519) - http://www.bohemiancoding.com/sketch -->
    <title>currency/etn</title>
    <desc>Created with Sketch.</desc>
    <defs></defs>
    <g id="currency/etn" stroke="none" stroke-width="1" fill="none" fill-rule="evenodd">
        <g id="etn" fill-rule="nonzero">
            <circle id="Oval" fill="#23BEE2" cx="16" cy="16" r="16"></circle>
            <path d="M19.879,13.469 L23.118,10.057 C24.5120342,11.7213249 25.2744174,13.8239871 25.271,15.995 C25.271,21.112 21.121,25.261 16,25.261 C14.4376033,25.2629022 12.9002816,24.8682496 11.532,24.114 L19.77,19.868 L21.112,19.176 L19.869,18.317 L18.981,17.703 L21.571,16.381 L22.859,15.723 L21.705,14.851 L19.879,13.469 Z M12.121,19.003 L9.101,22.183 C7.57141155,20.4851862 6.72619607,18.2802143 6.729,15.995 C6.729,10.877 10.879,6.728 16,6.728 C17.7347796,6.72565856 19.4351026,7.21225733 20.906,8.132 L12.23,12.604 L10.888,13.297 L12.131,14.155 L13.019,14.769 L10.429,16.092 L9.141,16.749 L10.295,17.622 L12.121,19.003 Z M8.536,22.78 L7.911,23.438 C6.03759005,21.4123596 4.99794695,18.7541447 5,15.995 C5,9.932 9.935,5 16,5 C18.493,5 20.796,5.834 22.643,7.237 L21.741,7.702 C20.0558672,6.53065233 18.0522483,5.90384525 16,5.906 C10.435,5.906 5.907,10.432 5.907,15.995 C5.907,18.605 6.903,20.986 8.537,22.779 L8.536,22.78 Z M23.684,9.46 L24.312,8.8 C26.0478122,10.7948328 27.0026606,13.3506863 27,15.995 C27,22.057 22.065,26.989 16,26.989 C13.7650131,26.9916254 11.5828308,26.3097152 9.747,25.035 L10.671,24.558 C12.268951,25.5565174 14.1157282,26.0850097 16,26.083 C21.565,26.083 26.093,21.557 26.093,15.995 C26.093,13.505 25.186,11.223 23.684,9.461 L23.684,9.46 Z M10.842,16.9 L14.783,14.887 L12.646,13.411 L24.476,7.313 L18.523,13.581 L21.158,15.574 L17.217,17.587 L19.354,19.063 L7.524,25.161 L13.477,18.893 L10.842,16.9 Z" id="Shape" fill="#FFFFFF"></path>
        </g>
    </g>
</svg>