<?xml version="1.0" encoding="UTF-8"?>
<svg width="32px" height="32px" viewBox="0 0 32 32" version="1.1" xmlns="http://www.w3.org/2000/svg" xmlns:xlink="http://www.w3.org/1999/xlink">
    <!-- Generator: Sketch 51.2 (57519) - http://www.bohemiancoding.com/sketch -->
    <title>currency/etp</title>
    <desc>Created with Sketch.</desc>
    <defs></defs>
    <g id="currency/etp" stroke="none" stroke-width="1" fill="none" fill-rule="evenodd">
        <g id="etp" fill-rule="nonzero">
            <circle id="Oval" fill="#00A5FF" cx="16" cy="16" r="16"></circle>
            <path d="M18.08,12.574 C18.077,13.467 18.071,14.359 18.07,15.251 C18.069,16.735 18.067,18.22 18.074,19.704 C18.074,19.884 18.024,19.991 17.867,20.086 C17.257,20.453 16.657,20.836 16.013,21.239 L16.013,20.914 C16.013,18.617 16.01,16.319 16.017,14.022 C16.018,13.831 15.967,13.723 15.795,13.63 C15.26,13.34 14.737,13.028 14.209,12.726 C14.151,12.693 14.089,12.666 14,12.622 L14,12.937 C14,14.996 13.996,17.055 14.006,19.113 C14.006,19.32 13.94,19.428 13.766,19.525 C13.241,19.815 12.728,20.125 12.209,20.427 C12.136,20.469 12.059,20.506 11.943,20.567 L11.943,20.247 C11.943,18.179 11.938,16.111 11.95,14.044 C11.951,13.804 11.87,13.684 11.67,13.574 C11.086,13.248 10.513,12.902 9.906,12.547 C10.578,12.16 11.224,11.784 11.877,11.423 C11.937,11.39 12.062,11.433 12.137,11.476 C12.706,11.796 13.273,12.119 13.834,12.452 C13.97,12.532 14.069,12.542 14.211,12.455 C14.729,12.138 15.265,11.847 15.781,11.525 C15.967,11.409 16.101,11.428 16.278,11.534 C16.875,11.891 17.482,12.234 18.086,12.581 L18.08,12.574 Z M18.086,12.581 C18.13,12.535 18.168,12.476 18.221,12.445 C18.784,12.117 19.347,11.787 19.92,11.477 C20.0321002,11.4280264 20.1597533,11.4291174 20.271,11.48 C20.853,11.793 21.427,12.121 21.994,12.459 C22.072,12.505 22.15,12.627 22.15,12.714 C22.159,14.877 22.158,17.041 22.154,19.204 C22.154,19.274 22.136,19.384 22.089,19.412 C21.441,19.798 20.786,20.173 20.091,20.575 L20.091,20.246 C20.091,18.162 20.089,16.078 20.095,13.995 C20.095,13.818 20.053,13.711 19.887,13.62 C19.279,13.282 18.681,12.924 18.08,12.574 L18.086,12.581 Z M6.939,18.788 C6.56048046,18.7925329 6.19577624,18.6459539 5.92567432,18.3807322 C5.6555724,18.1155105 5.50236872,17.7535393 5.5,17.375 C5.49626109,16.9960646 5.64424775,16.6313765 5.91098484,16.3621975 C6.17772194,16.0930184 6.54104623,15.9417145 6.92,15.942 C7.29891744,15.936383 7.66429634,16.0827779 7.93450626,16.3484781 C8.20471618,16.6141782 8.35723932,16.9770417 8.358,17.356 C8.36228176,17.7348317 8.21457604,18.0995803 7.94790875,18.3686906 C7.68124145,18.637801 7.31785503,18.7888269 6.939,18.788 Z M8.854,23.075 C8.11204575,23.0811235 7.50442515,22.4869063 7.494,21.745 C7.49219688,21.0033554 8.08452157,20.3968007 8.826,20.381 C9.551,20.365 10.178,20.981 10.186,21.718 C10.1915545,22.460002 9.59597698,23.0667577 8.854,23.075 Z M7.767,11.399 C8.487,11.401 9.065,11.979 9.065,12.694 C9.065,13.421 8.473,14.006 7.745,13.998 C7.4011182,13.9956715 7.07254207,13.855497 6.83287769,13.6088776 C6.59321332,13.3622583 6.46249296,13.0298077 6.47,12.686 C6.46671001,12.3419265 6.60262869,12.0111302 6.84687631,11.7687658 C7.09112393,11.5264013 7.42296223,11.393047 7.767,11.399 Z M25.289,16.305 C24.617974,16.305 24.074,15.761026 24.074,15.09 C24.074,14.418974 24.617974,13.875 25.289,13.875 C25.960026,13.875 26.504,14.418974 26.504,15.09 C26.504,15.761026 25.960026,16.305 25.289,16.305 Z M9.542,8.617 C9.53764873,8.32253223 9.65263743,8.03883447 9.86078611,7.83049742 C10.0689348,7.62216037 10.3525284,7.5069151 10.647,7.511 C10.9416186,7.51070859 11.2240635,7.6285084 11.4311652,7.8380533 C11.638267,8.04759819 11.7527464,8.33140507 11.749,8.626 C11.7500762,8.92035263 11.6333467,9.20290196 11.4248312,9.41066605 C11.2163157,9.61843014 10.9333468,9.73413884 10.639,9.732 C10.344488,9.73341392 10.0618916,9.61580595 9.85533925,9.40586443 C9.64878692,9.19592291 9.53579344,8.91144998 9.542,8.617 Z M24.636,20.91 C24.3416522,20.9162482 24.0573592,20.8028308 23.8481429,20.5956878 C23.6389266,20.3885448 23.5226835,20.1053955 23.526,19.811 C23.5217291,19.5167119 23.6348263,19.2328377 23.8402977,19.0221122 C24.0457691,18.8113868 24.3266979,18.6911595 24.621,18.688 C24.9152061,18.6872033 25.1976498,18.8034496 25.4060606,19.01111 C25.6144713,19.2187703 25.7317355,19.5007929 25.732,19.795 C25.7393217,20.0895979 25.6268288,20.3745654 25.4202506,20.5847248 C25.2136723,20.7948842 24.9306802,20.9122578 24.636,20.91 Z M15.986,6.855 C15.9853764,7.07744741 15.8941854,7.29004744 15.7334391,7.44381301 C15.5726927,7.59757859 15.356256,7.67924689 15.134,7.67 C14.9115884,7.66592703 14.7002978,7.5719945 14.5482687,7.40960406 C14.3962396,7.24721362 14.3164214,7.0301972 14.327,6.808 C14.3416473,6.35524204 14.7150232,5.99696102 15.168,6.001 C15.3906163,6.00302792 15.6029886,6.09483142 15.7569835,6.25560363 C15.9109784,6.41637583 15.9935559,6.63250271 15.986,6.855 Z M21.757,24.357 C21.5383258,24.3580984 21.3284061,24.2711661 21.1745324,24.1157875 C21.0206587,23.9604089 20.9357735,23.7496532 20.939,23.531 C20.9378018,23.3074533 21.0275929,23.0930371 21.1877277,22.9370518 C21.3478625,22.7810665 21.5645618,22.6969345 21.788,22.704 C22.248,22.71 22.608,23.074 22.606,23.534 C22.606,24.006 22.238,24.361 21.757,24.357 Z M17.477,26 C17.2671264,26.0044591 17.0645968,25.9227033 16.9166334,25.7737951 C16.76867,25.6248869 16.6882051,25.421841 16.694,25.212 C16.6931646,25.0018088 16.7769806,24.8001309 16.9265471,24.6524457 C17.0761135,24.5047606 17.2788362,24.4235041 17.489,24.427 C17.9257553,24.4319085 18.2778437,24.7862225 18.28,25.223 C18.2795595,25.4334827 18.193963,25.6348295 18.0427002,25.7811946 C17.8914374,25.9275597 17.6873833,26.0064852 17.477,26 Z M20.105,8.277 C19.7128778,8.27479086 19.3967909,7.95512217 19.399,7.563 C19.4012091,7.17087783 19.7208778,6.85479087 20.113,6.857 C20.497,6.859 20.823,7.188 20.822,7.571 C20.8118012,7.96088038 20.4949915,8.27282977 20.105,8.277 Z M13.567,24.559 C13.5665318,24.7241326 13.4993514,24.8820682 13.3807166,24.9969368 C13.2620818,25.1118054 13.1020618,25.1738575 12.937,25.169 C12.7716631,25.1688914 12.6135494,25.1012326 12.4993119,24.9817082 C12.3850745,24.8621837 12.3246335,24.7011727 12.332,24.536 C12.3341067,24.3713857 12.4015962,24.2143678 12.5195892,24.0995639 C12.6375821,23.9847599 12.7963898,23.9215968 12.961,23.924 C13.304,23.932 13.574,24.214 13.567,24.559 Z M24.23,10.58 C24.2359429,10.7224688 24.1844442,10.8613598 24.0870569,10.9655153 C23.9896696,11.0696709 23.8545465,11.1303715 23.712,11.134 C23.416212,11.1390384 23.171641,10.9047322 23.164,10.609 C23.1583257,10.4666474 23.2103087,10.3280236 23.3081842,10.2245014 C23.4060597,10.1209792 23.5415531,10.0613108 23.684,10.059 C23.983,10.049 24.224,10.28 24.23,10.581 L24.23,10.58 Z" id="Shape" fill="#FFFFFF"></path>
        </g>
    </g>
</svg>