<?xml version="1.0" encoding="UTF-8"?>
<svg width="32px" height="32px" viewBox="0 0 32 32" version="1.1" xmlns="http://www.w3.org/2000/svg" xmlns:xlink="http://www.w3.org/1999/xlink">
    <!-- Generator: Sketch 51.2 (57519) - http://www.bohemiancoding.com/sketch -->
    <title>currency/eur</title>
    <desc>Created with Sketch.</desc>
    <defs></defs>
    <g id="currency/eur" stroke="none" stroke-width="1" fill="none" fill-rule="evenodd">
        <g id="eur" fill-rule="nonzero">
            <circle id="Oval" fill="#0F8FF8" cx="16" cy="16" r="16"></circle>
            <path d="M8,19.004 L8.81,17 L9.667,17 C9.64479923,16.6571115 9.63346021,16.3136061 9.633,15.97 C9.633,15.522 9.652,15.106 9.689,14.72 L8,14.72 L8.81,12.717 L10.084,12.717 C11.27,8.906 13.944,7 18.103,7 C19.47,7 20.769,7.177 22,7.532 L22,10.056 C20.841502,9.53831768 19.5858868,9.27376231 18.317,9.28 C15.824,9.28 14.221,10.426 13.507,12.718 L20.93,12.718 L20.12,14.721 L13.023,14.721 C12.9805064,15.0508955 12.9617914,15.3834198 12.967,15.716 C12.967,16.195 12.982,16.623 13.012,17.001 L19.195,17.001 L18.395,19.004 L13.44,19.004 C13.973,20.393 14.623,21.359 15.389,21.904 C16.154,22.448 17.247,22.72 18.666,22.72 C19.68,22.72 20.791,22.473 22,21.979 L22,24.352 C20.851,24.784 19.485,25 17.9,25 C13.733,25 11.097,23.001 9.994,19.004 L8,19.004 Z" id="Shape" fill="#FFFFFF"></path>
        </g>
    </g>
</svg>