<?xml version="1.0" encoding="UTF-8"?>
<svg width="32px" height="32px" viewBox="0 0 32 32" version="1.1" xmlns="http://www.w3.org/2000/svg" xmlns:xlink="http://www.w3.org/1999/xlink">
    <!-- Generator: Sketch 51.2 (57519) - http://www.bohemiancoding.com/sketch -->
    <title>currency/evx</title>
    <desc>Created with Sketch.</desc>
    <defs></defs>
    <g id="currency/evx" stroke="none" stroke-width="1" fill="none" fill-rule="evenodd">
        <g id="evx" fill-rule="nonzero">
            <circle id="Oval" fill="#044AAC" cx="16" cy="16" r="16"></circle>
            <path d="M10.082,17.21 L7.464,19.83 L6.234,21.06 C5.42120579,19.4973111 4.99786972,17.7614274 5,16 C5,9.935 9.935,5 16,5 C22.065,5 27,9.935 27,16 C27,22.065 22.065,27 16,27 C13.654,27 11.478,26.261 9.69,25.005 C9.23888253,24.6882503 8.81203069,24.3382786 8.413,23.958 L9.575,22.795 L17.992,14.378 C18.0601911,13.5369542 18.7621948,12.8888839 19.606,12.888 C20.443,12.888 21.135,13.527 21.216,14.343 L25.09,18.217 C25.2669444,17.4912853 25.3562483,16.7469746 25.356,16 C25.356,10.84 21.159,6.644 16,6.644 C10.841,6.644 6.644,10.84 6.644,16 C6.644,16.718 6.725,17.417 6.879,18.089 L9.367,15.6 C9.49267852,14.8141837 10.1701975,14.2358139 10.966,14.235 C11.761,14.235 12.424,14.811 12.559,15.569 L14.142,17.151 L12.979,18.313 L11.865,17.199 C11.3269379,17.5611764 10.6240907,17.5651184 10.082,17.209 L10.082,17.21 Z M18.791,15.904 L10.873,23.822 C12.3948143,24.8245669 14.1776237,25.3579841 16,25.356 C19.753,25.356 22.997,23.135 24.486,19.938 L20.441,15.892 C19.935071,16.1991764 19.3013432,16.2037853 18.791,15.904 Z M19.635,13.788 C19.3686471,13.7784966 19.1183924,13.9153026 18.9826068,14.1446418 C18.8468213,14.3739809 18.8472133,14.6591881 18.9836288,14.8881531 C19.1200444,15.1171181 19.3706742,15.2532356 19.637,15.243 C20.0282841,15.2279619 20.3375793,14.906109 20.337041,14.5145364 C20.3365028,14.1229638 20.0263239,13.8019623 19.635,13.788 Z M10.975,15.115 C10.5729367,15.115 10.247,15.4409367 10.247,15.843 C10.247,16.2450633 10.5729367,16.571 10.975,16.571 C11.3770633,16.571 11.703,16.2450633 11.703,15.843 C11.703,15.4409367 11.3770633,15.115 10.975,15.115 Z" id="Shape" fill="#FFFFFF"></path>
        </g>
    </g>
</svg>