<?xml version="1.0" encoding="UTF-8"?>
<svg width="32px" height="32px" viewBox="0 0 32 32" version="1.1" xmlns="http://www.w3.org/2000/svg" xmlns:xlink="http://www.w3.org/1999/xlink">
    <!-- Generator: Sketch 51.2 (57519) - http://www.bohemiancoding.com/sketch -->
    <title>currency/exmo</title>
    <desc>Created with Sketch.</desc>
    <defs></defs>
    <g id="currency/exmo" stroke="none" stroke-width="1" fill="none" fill-rule="evenodd">
        <g id="exmo" fill-rule="nonzero">
            <circle id="Oval" fill="#347FFB" cx="16" cy="16" r="16"></circle>
            <path d="M19.7,13.055 L16.831,20.805 L16.813,20.852 L16.287,19.797 L15.187,20.297 L18.072,12.5 L19.172,12 L19.699,13.055 L19.7,13.055 Z M26.88,13.238 L24.012,21 L23.485,19.942 L22.385,20.442 L22.452,20.26 L25.319,12.5 L26.419,12 L26.944,13.055 L26.88,13.238 Z M20.74,19.95 L22.429,15.387 L21.326,15.887 L20.802,14.83 L19.108,19.392 L19.633,20.45 L20.74,19.95 Z M11.603,15.45 L6.558,15.45 L7.418,16.25 L6.558,17.063 L11.598,17.063 L12.454,16.25 L11.603,15.45 Z M5.86,18.833 L14.015,18.833 L13.158,19.64 L14.015,20.445 L5.86,20.445 L5,19.64 L5.86,18.832 L5.86,18.833 Z M8.361,12.065 L16.511,12.065 L15.657,12.873 L16.512,13.678 L8.362,13.678 L7.502,12.872 L8.362,12.065 L8.361,12.065 Z" id="Shape" fill="#FFFFFF"></path>
        </g>
    </g>
</svg>