<?xml version="1.0" encoding="UTF-8"?>
<svg width="32px" height="32px" viewBox="0 0 32 32" version="1.1" xmlns="http://www.w3.org/2000/svg" xmlns:xlink="http://www.w3.org/1999/xlink">
    <!-- Generator: Sketch 51.2 (57519) - http://www.bohemiancoding.com/sketch -->
    <title>currency/fuel</title>
    <desc>Created with Sketch.</desc>
    <defs></defs>
    <g id="currency/fuel" stroke="none" stroke-width="1" fill="none" fill-rule="evenodd">
        <g id="fuel" fill-rule="nonzero">
            <circle id="Oval" fill="#4096D0" cx="16" cy="16" r="16"></circle>
            <path d="M25.5324213,10 L19.0369357,10 L17.1110807,14.8294595 L11.0372093,14.8294595 L11.0372093,12.342973 L17.1110807,12.342973 L18,10 L8.80246238,10 C8.56386932,10 8.37045144,10.1910655 8.37045144,10.4267568 L8.37045144,14.8294595 L6.88891929,14.8294595 L6,17.1710811 L8.37045144,17.1710811 L8.37045144,21.5675676 C8.37045144,21.8063934 8.5664417,22 8.80820793,22 L13.2593707,22 L14.1480164,19.6586486 L11.0369357,19.6586486 L11.0369357,17.1710811 L16.074145,17.1710811 L14.1480164,22 L17.1110807,22 L19.1852257,17.1708108 L25.5647059,17.1708108 C25.8050054,17.1708109 25.999849,16.978458 26,16.7410811 L26,10.4618919 C26,10.206796 25.7906579,10 25.5324213,10 Z M23.4829001,14.4594595 C23.4829001,14.6641033 23.314961,14.83 23.1077975,14.83 L20.074145,14.83 L21.1110807,12.3435135 L23.1064295,12.3435135 C23.3133364,12.3426157 23.4818449,12.5075022 23.4829001,12.7118919 L23.4829001,14.4594595 Z" id="Shape" fill="#FFFFFF"></path>
        </g>
    </g>
</svg>