<?xml version="1.0" encoding="UTF-8"?>
<svg width="32px" height="32px" viewBox="0 0 32 32" version="1.1" xmlns="http://www.w3.org/2000/svg" xmlns:xlink="http://www.w3.org/1999/xlink">
    <!-- Generator: Sketch 51.2 (57519) - http://www.bohemiancoding.com/sketch -->
    <title>currency/fun</title>
    <desc>Created with Sketch.</desc>
    <defs></defs>
    <g id="currency/fun" stroke="none" stroke-width="1" fill="none" fill-rule="evenodd">
        <g id="fun" fill-rule="nonzero">
            <circle id="Oval" fill="#ED1968" cx="16" cy="16" r="16"></circle>
            <path d="M12.7,26.9 C11.4223807,26.5460071 10.2310949,25.9333458 9.2,25.1 C8.1840155,24.3173522 7.30534853,23.3710955 6.6,22.3 C5.84786128,21.1732688 5.30579655,19.9197441 5,18.6 C4.64991349,17.0191501 4.64991349,15.3808499 5,13.8 C5.29835602,12.4627321 5.80450002,11.1805006 6.5,10 C7.51820772,8.36642283 8.97300349,7.05017904 10.7,6.2 C11.3064802,5.87357841 11.9426899,5.60570065 12.6,5.4 C13.6,6.6 14.6,7.9 15.6,9.2 C15.7,9.4 15.9,9.5 16,9.7 C14.9969432,9.74204895 14.0117897,9.97984461 13.1,10.4 C12.2939308,10.8214023 11.5800051,11.3993421 11,12.1 C10.4293133,12.8543937 9.98982714,13.6995593 9.7,14.6 C9.43295019,15.6886614 9.46752125,16.8295062 9.8,17.9 L14.1,14.5 C15.1,15.8 16.1,17 17.1,18.3 C15.7,19.4 14.2,20.5 12.8,21.7 C14.2,23.5 15.7,25.4 17.1,27.3 C15.6214851,27.4748085 14.1227541,27.3385602 12.7,26.9 Z M22.2294288,14.7857647 C22.1929891,14.6225373 22.149842,14.4604782 22.1,14.3 C21.9649246,14.4061307 18.9891282,16.6807473 17.8,17.7 C16.8,16.4 15.8,15.2 14.8,13.9 C16.2,12.8 17.7,11.7 19.1,10.5 C17.7,8.7 16.3,6.9 14.8,5 C14.8,4.9 14.7,4.9 14.7,4.8 L16.1,4.8 C18.6651185,4.82394506 21.1412086,5.74363566 23.1,7.4 C24.0546122,8.18883483 24.8664451,9.13597322 25.5,10.2 C26.2461672,11.3454313 26.7246816,12.644256 26.9,14 C27.1679026,15.5586187 27.1339544,17.1541868 26.8,18.7 C26.5137438,19.9952411 25.9695949,21.2195761 25.2,22.3 C24.5283548,23.3372406 23.6825877,24.2506691 22.7,25 C21.7430261,25.8314591 20.6171681,26.4455635 19.4,26.8 C18.5,25.7 17.7,24.7 16.9,23.6 C16.6011183,23.2578803 16.3333882,22.8897513 16.1,22.5 C18.0178891,22.5064228 19.8293446,21.6191794 21,20.1 C21.5759838,19.3631896 21.9853862,18.510268 22.2,17.6 C22.3861774,16.8410249 22.395987,15.9029464 22.2294288,14.7857647 Z M17.5065521,23.1588712 C18.1345988,24.0224355 18.7625183,24.8283035 19.6568763,25.9283747 C20.5918976,25.5925699 21.4618157,25.0825311 22.2452016,24.4036289 C23.1591089,23.7066744 23.945759,22.8570922 24.5891291,21.8648716 C25.3003033,20.8664637 25.8031454,19.7350691 26.0669124,18.5416252 C26.3805861,17.0896873 26.4124727,15.591016 26.1561933,14.0961856 C25.9953243,12.8521787 25.5562479,11.6604 24.8555851,10.5837049 C24.266027,9.59356882 23.5105714,8.71220393 22.6157264,7.9726946 C20.8132391,6.44850179 18.5406647,5.59374963 16.1890786,5.55122184 C17.1159496,6.7303555 18.0547262,7.93445998 19.6920142,10.0395445 L20.1310649,10.6040384 L19.5880935,11.0694425 C18.9544542,11.6125619 18.2866501,12.1497087 17.4097478,12.8300639 C17.3394433,12.8846105 16.4901332,13.5383337 15.8522949,14.0319497 C16.1154438,14.3671077 16.4196713,14.7490033 16.8856516,15.3314787 C17.3464272,15.9074482 17.6508139,16.2895014 17.9140338,16.6245633 C18.3780655,16.2419253 18.884224,15.8401304 19.4902522,15.3699361 C19.5878239,15.2942339 21.1858449,14.0644526 21.6366338,13.7102612 L22.4931588,13.0372773 L22.8162495,14.077544 C23.189143,15.2781627 23.2279164,16.557684 22.9299854,17.7721086 C22.6904936,18.7878945 22.2336335,19.7396865 21.5940792,20.557788 C20.5649125,21.8933551 19.0942379,22.7935216 17.4706009,23.1169591 C17.4824808,23.1308882 17.4944638,23.1448579 17.5065521,23.1588712 Z" id="Shape" fill="#FFFFFF"></path>
        </g>
    </g>
</svg>