<?xml version="1.0" encoding="UTF-8"?>
<svg width="32px" height="32px" viewBox="0 0 32 32" version="1.1" xmlns="http://www.w3.org/2000/svg" xmlns:xlink="http://www.w3.org/1999/xlink">
    <!-- Generator: Sketch 51.2 (57519) - http://www.bohemiancoding.com/sketch -->
    <title>currency/game</title>
    <desc>Created with Sketch.</desc>
    <defs></defs>
    <g id="currency/game" stroke="none" stroke-width="1" fill="none" fill-rule="evenodd">
        <g id="game" fill-rule="nonzero">
            <circle id="Oval" fill="#2D475B" cx="16" cy="16" r="16"></circle>
            <path d="M12.8688213,12.684964 L23.9540034,12.684964 L23.9540034,15.1725519 L12.8688213,15.1725519 L12.8688213,12.684964 Z M23.9540034,16.8291011 L24,16.8291011 L24,23.3723785 C24,23.3723785 15.3526381,29.6374146 8.63713359,22.8195812 C8.63713359,22.8195812 4.95740511,19.0881994 6.29130669,13.6523593 C6.29130669,13.6523593 7.34922863,6.88059239 15.3986347,6.05139644 C15.3986347,6.05139644 20.3662681,5.36039982 23.5860305,9.04571515 L21.6541731,10.9344393 C21.6541731,10.9344393 17.5604752,6.69632663 12.086879,10.0131104 C12.086879,10.0131104 7.62520826,12.5006983 9.4650725,18.7657344 C9.4650725,18.7657344 11.4889232,24.2015745 17.8364548,23.0959799 C17.8364548,23.0959799 19.9982953,22.6044509 21.1022138,21.6522576 L21.1022138,19.316689 L12.8688213,19.316689 L12.8688213,16.8291011 L23.9540034,16.8291011 Z" id="Shape" fill="#FFFFFF"></path>
        </g>
    </g>
</svg>