<?xml version="1.0" encoding="UTF-8"?>
<svg width="32px" height="32px" viewBox="0 0 32 32" version="1.1" xmlns="http://www.w3.org/2000/svg" xmlns:xlink="http://www.w3.org/1999/xlink">
    <!-- Generator: Sketch 51.2 (57519) - http://www.bohemiancoding.com/sketch -->
    <title>currency/gbp</title>
    <desc>Created with Sketch.</desc>
    <defs></defs>
    <g id="currency/gbp" stroke="none" stroke-width="1" fill="none" fill-rule="evenodd">
        <g id="gbp" fill-rule="nonzero">
            <circle id="Oval" fill="#BC3FE0" cx="16" cy="16" r="16"></circle>
            <path d="M11.087,14.815 L11.087,12.483 C11.087,8.807 13.306,6.5 17.162,6.5 C20.094,6.5 21.732,7.742 23,9.34 L20.517,11.24 C19.566,10.075 18.667,9.39 17.189,9.39 C15.419,9.39 14.362,10.607 14.362,12.56 L14.362,14.815 L20.94,14.815 L20.94,17.452 L14.362,17.452 L14.362,21.787 L22.947,21.787 L22.947,24.5 L9,24.5 L9,22.523 L11.087,21.914 L11.087,17.452 L9,17.452 L9,14.815 L11.087,14.815 Z" id="Shape" fill="#FFFFFF"></path>
        </g>
    </g>
</svg>