<?xml version="1.0" encoding="UTF-8"?>
<svg width="32px" height="32px" viewBox="0 0 32 32" version="1.1" xmlns="http://www.w3.org/2000/svg" xmlns:xlink="http://www.w3.org/1999/xlink">
    <!-- Generator: Sketch 51.2 (57519) - http://www.bohemiancoding.com/sketch -->
    <title>currency/generic</title>
    <desc>Created with Sketch.</desc>
    <defs></defs>
    <g id="currency/generic" stroke="none" stroke-width="1" fill="none" fill-rule="evenodd">
        <g id="generic" fill-rule="nonzero">
            <circle id="Oval" fill="#EFB914" cx="16" cy="16" r="16"></circle>
            <path d="M21.0016811,9.85510634 C22.6914362,11.1867447 23.7848941,13.1476471 24,15.277862 L21.1530875,14.5698978 C20.6363465,12.8233193 19.2149618,11.3812174 17.2935489,10.9034044 C14.4266228,10.1904633 11.5321103,11.8943338 10.8284742,14.7091058 C10.1248381,17.5238778 11.8785311,20.3836544 14.7454571,21.0965956 C16.66687,21.5744085 18.6006739,20.9666679 19.8790404,19.6664945 L22.7259541,20.3744576 C21.5333372,22.154603 19.6448767,23.3739681 17.5261108,23.7585114 L16.7158042,27 L14.1202898,26.3545529 L14.763854,23.7800881 C14.5455649,23.7442117 14.3269461,23.6992324 14.1084341,23.6448933 C13.8899222,23.5905542 13.6757216,23.5279009 13.4660968,23.4573645 L12.8225326,26.0318293 L10.2270182,25.3863822 L11.0373248,22.1448937 C8.65871975,20.2703961 7.46168601,17.1490032 8.23295979,14.0636587 C9.00423357,10.9783142 11.5303877,8.7827958 14.5128951,8.24148858 L15.3232018,5 L17.9187162,5.64544711 L17.275152,8.21991194 C17.4934411,8.25578832 17.7120599,8.30076756 17.9305718,8.35510666 C18.1490838,8.40944576 18.3632844,8.47209915 18.5729092,8.54263549 L19.2164734,5.96817066 L21.8119878,6.61361777 L21.0016811,9.85510634 Z" id="Shape" fill="#FFFFFF"></path>
        </g>
    </g>
</svg>