<?xml version="1.0" encoding="UTF-8"?>
<svg width="32px" height="32px" viewBox="0 0 32 32" version="1.1" xmlns="http://www.w3.org/2000/svg" xmlns:xlink="http://www.w3.org/1999/xlink">
    <!-- Generator: Sketch 51.2 (57519) - http://www.bohemiancoding.com/sketch -->
    <title>currency/gno</title>
    <desc>Created with Sketch.</desc>
    <defs></defs>
    <g id="currency/gno" stroke="none" stroke-width="1" fill="none" fill-rule="evenodd">
        <g id="gno" fill-rule="nonzero">
            <circle id="Oval" fill="#00A6C4" cx="16" cy="16" r="16"></circle>
            <path d="M24.777,10.5 L24.977,10.831 C25.9743118,12.5057177 26.5005267,14.4188181 26.5,16.368 C26.482,22.236 21.785,27 16,27 L15.982,27 C10.197,27 5.482,22.199 5.5,16.331 C5.5,14.363 6.044,12.45 7.041,10.794 L7.223,10.482 L8.184,11.457 C8.003,11.732 7.839,12.027 7.731,12.357 C6.96828811,14.470473 8.05330102,16.803474 10.161,17.582 C11.3682994,18.0119585 12.7082028,17.8411282 13.769,17.122 L16,19.403 L18.557,16.809 C18.793,16.975 19.065,17.104 19.355,17.214 C21.405,17.95 23.653,16.864 24.378,14.804 C24.813,13.59 24.614,12.321 23.979,11.309 L24.777,10.5 Z M9.363,12.652 L12.373,15.687 C12.01,15.982 11.557,16.147 11.067,16.147 C9.889,16.147 8.927,15.172 8.927,13.977 C8.927,13.48 9.091,13.02 9.363,12.652 Z M19.863,15.503 L22.837,12.487 C23.073,12.837 23.199,13.259 23.199,13.701 C23.199,14.896 22.239,15.871 21.059,15.871 C20.606,15.871 20.207,15.742 19.863,15.503 Z M16.036,17.784 L7.368,8.954 L7.712,8.587 C9.852,6.287 12.772,5 15.91,5 L15.928,5 C19.102,5 22.148,6.38 24.27,8.77 L24.597,9.139 L16.037,17.784 L16.036,17.784 Z M8.782,8.954 L16.036,16.331 L23.2,9.102 C21.278,7.152 18.667,6.03 15.947,6.03 L15.928,6.03 C13.226,6.03 10.706,7.06 8.783,8.955 L8.782,8.954 Z" id="Shape" fill="#FFFFFF"></path>
        </g>
    </g>
</svg>