<?xml version="1.0" encoding="UTF-8"?>
<svg width="32px" height="33px" viewBox="0 0 32 33" version="1.1" xmlns="http://www.w3.org/2000/svg" xmlns:xlink="http://www.w3.org/1999/xlink">
    <!-- Generator: Sketch 51.2 (57519) - http://www.bohemiancoding.com/sketch -->
    <title>currency/grs</title>
    <desc>Created with Sketch.</desc>
    <defs></defs>
    <g id="currency/grs" stroke="none" stroke-width="1" fill="none" fill-rule="evenodd">
        <g id="grs" fill-rule="nonzero">
            <circle id="Oval" fill="#377E96" cx="16" cy="16" r="16"></circle>
            <path d="M23.625,30.07 L23.709,30.008 C23.477,29.583 23.101,29.36 22.678,29.259 C22.074,29.115 21.46,28.982 20.844,28.939 C19.475,28.84 18.102,28.817 16.732,28.734 C15.206,28.641 13.682,28.512 12.155,28.412 C12.022,28.402 11.831,28.452 11.755,28.547 C11.355,29.037 10.968,29.541 10.608,30.061 C10.432,30.316 10.323,30.616 10.186,30.891 L10.291,30.951 C9.68907522,30.7211818 9.10166092,30.4550254 8.532,30.154 C8.636,30.174 8.772,30.158 8.823,30.107 C9.449,29.48 10.055,28.833 10.664,28.193 C10.209,27.829 9.764,27.506 9.359,27.14 C8.981,26.798 8.823,26.345 8.856,25.826 C8.906,25.029 9.255,24.35 9.768,23.78 C10.375,23.107 11.056,22.5 11.706,21.866 C11.786,21.789 11.869,21.718 11.943,21.65 C11.918,21.606 11.915,21.593 11.908,21.588 L11.718,21.478 C9.63,20.274 8.589,18.445 8.562,16.058 C8.538,14.014 9.408,12.359 10.947,11.052 C12.447,9.779 14.214,9.332 16.153,9.376 C17.588,9.409 18.929,9.726 20.178,10.439 C20.248,10.479 20.424,10.432 20.488,10.365 C21.079,9.746 21.678,9.133 22.232,8.48 C22.92,7.67 23.502,6.79 23.743,5.728 C23.931,4.9 23.851,4.122 23.251,3.476 C22.37,2.527 20.854,2.655 20.081,3.736 C19.929,3.948 19.841,4.206 19.692,4.423 C19.637,4.503 19.497,4.526 19.395,4.576 C19.371,4.486 19.315,4.393 19.328,4.31 C19.362,4.082 19.406,3.85 19.481,3.634 C19.861,2.544 20.567,1.8 21.751,1.634 C22.136,1.58 22.536,1.625 22.938,1.625 C22.918,1.598 22.91,1.575 22.894,1.568 C22.8195644,1.52790942 22.7438586,1.49022327 22.667,1.455 C21.9123467,1.11022564 21.132811,0.822746797 20.335,0.595 C21.8333197,1.01567297 23.2618509,1.65379514 24.575,2.489 C24.583,2.576 24.578,2.599 24.588,2.611 C25.471,3.7 25.358,4.855 24.802,6.031 C24.33,7.026 23.642,7.868 22.899,8.67 C22.219,9.404 21.535,10.135 20.85,10.87 C20.878,10.888 20.894,10.908 20.91,10.908 C21.957,10.909 23.004,10.924 24.05,10.902 C24.596,10.892 25.081,10.711 25.418,10.228 C25.482,10.135 25.656,10.118 25.78,10.066 L25.85,10.163 C25.56,10.999 25.274,11.836 24.968,12.665 C24.942,12.735 24.788,12.792 24.69,12.796 C24.32,12.812 23.95,12.803 23.58,12.803 L22.25,12.803 L22.401,13.103 C23.121,14.513 23.312,16.008 22.948,17.533 C22.411,19.783 20.939,21.237 18.798,21.993 C17.05,22.611 15.256,22.589 13.461,22.16 C13.302,22.122 13.056,22.09 12.971,22.175 C12.585,22.561 12.177,22.95 11.899,23.412 C11.326,24.364 11.659,25.026 12.751,25.256 L12.782,25.26 C13.854,25.343 14.925,25.445 15.998,25.504 C17.516,25.587 19.036,25.62 20.553,25.711 C21.472,25.766 22.379,25.928 23.207,26.367 C24.273,26.93 25.028,27.76 25.359,28.973 C25.437,28.918 25.515,28.863 25.593,28.806 C24.97,29.273 24.313,29.696 23.623,30.07 L23.625,30.07 Z M18.775,31.76 C17.8044088,31.9297965 16.8202794,32.0101336 15.835,32 C16.8194744,31.9903233 17.8019902,31.9101179 18.775,31.76 Z M32,16.05 L32,16 C32,14.62 31.825,13.281 31.497,12.004 C31.8237104,13.3284372 31.992551,14.6868819 32,16.051 L32,16.05 Z M28.28,5.745 C27.3526832,4.63544241 26.2800241,3.65595568 25.091,2.833 C26.308,3.713 27.374,4.683 28.281,5.745 L28.28,5.745 Z M8.306,30.03 C7.5167136,29.5963244 6.7653872,29.0968897 6.06,28.537 C6.773,29.078 7.551,29.542 8.306,30.03 Z M4.44075657e-16,16.031 C0.00196182021,15.1786033 0.0678129575,14.3275525 0.197,13.485 C0.0641597151,14.3267918 -0.00171344841,15.1777928 2.23364621e-15,16.03 L4.44075657e-16,16.031 Z M2.916,6.788 C3.54361502,5.91492812 4.24990029,5.10119377 5.026,4.357 C4.24321021,5.09443544 3.53634068,5.90850793 2.916,6.787 L2.916,6.788 Z M11.133,0.754 C12.7101135,0.26766733 14.3496607,0.0136672136 16,-6.77668858e-06 C14.3484631,-0.00152047875 12.7066595,0.252829211 11.133,0.754 Z M19.566,16.656 L19.506,16.641 C19.471,16.157 19.452,15.671 19.4,15.189 C19.282,14.073 18.965,13.019 18.35,12.069 C17.44,10.661 15.92,10.093 14.462,10.657 C13.265,11.119 12.63,12.069 12.344,13.28 C12.072,14.426 12.094,15.587 12.232,16.743 C12.365,17.843 12.679,18.89 13.312,19.821 C14.126,21.016 15.261,21.538 16.672,21.302 C18.012,21.08 18.854,20.213 19.197,18.924 C19.394,18.188 19.448,17.414 19.567,16.656 L19.566,16.656 Z" id="Shape" fill="#FFFFFF"></path>
        </g>
    </g>
</svg>