<?xml version="1.0" encoding="UTF-8"?>
<svg width="32px" height="32px" viewBox="0 0 32 32" version="1.1" xmlns="http://www.w3.org/2000/svg" xmlns:xlink="http://www.w3.org/1999/xlink">
    <!-- Generator: Sketch 51.2 (57519) - http://www.bohemiancoding.com/sketch -->
    <title>currency/gto</title>
    <desc>Created with Sketch.</desc>
    <defs></defs>
    <g id="currency/gto" stroke="none" stroke-width="1" fill="none" fill-rule="evenodd">
        <g id="gto" fill-rule="nonzero">
            <circle id="Oval" fill="#7F27FF" cx="16" cy="16" r="16"></circle>
            <path d="M15.3761334,13.999082 L8.01871892,13.999082 L8.01871892,21.2218695 C8.01125645,21.9608611 8.30699564,22.6717195 8.83930762,23.1942912 C9.3716196,23.7168629 10.0957279,24.0071906 10.8484937,23.9998646 L15.3761334,23.9998646 L15.3761334,13.999082 Z M15.5465385,10.2210086 L16.3376381,10.2210086 C17.1223972,8.87169367 17.8401992,7.95341272 18.514551,7.45690339 C19.3466244,6.84426745 20.1991977,6.83876105 20.8672862,7.4946248 C21.4910331,8.10695825 21.6083123,8.87507451 21.1962803,9.61451722 C21.0813225,9.82082335 20.926479,10.0231499 20.7336473,10.2210086 L23.6417081,10.2210086 C24.3208541,10.2210086 25,10.7791918 25,11.5544463 C25,12.2211651 24.4314127,12.887884 23.6417081,12.887884 L16.5080433,12.887884 L16.5080433,11.109967 L15.3761334,11.109967 L15.3761334,12.887884 L8.3582919,12.887884 C7.67914595,12.887884 7,12.3297007 7,11.5544463 C7,10.8877274 7.56858731,10.2210086 8.3582919,10.2210086 L11.2975382,10.2210086 C11.0997733,10.0327293 10.9365476,9.84175219 10.8098982,9.64858923 C10.3225089,8.9052338 10.381657,8.1182346 11.0168904,7.4946248 C11.684979,6.83876105 12.5375523,6.84426745 13.3696256,7.45690339 C14.0439774,7.95341272 14.7617795,8.87169367 15.5465385,10.2210086 Z M14.2310283,10.2210086 C13.6517069,9.29819611 13.1327403,8.67148787 12.6904797,8.34586185 C12.2822101,8.04526261 12.0582251,8.04381599 11.8172716,8.28036049 C11.5702231,8.52288849 11.5545622,8.73126497 11.7616871,9.04716726 C11.9984022,9.40819998 12.4949293,9.81473099 13.2107853,10.2210086 L14.2310283,10.2210086 Z M17.6531484,10.2210086 L18.8738426,10.2210086 C19.5555478,9.82854951 20.0070115,9.4333909 20.2032373,9.08123928 C20.3726304,8.77724228 20.3372929,8.54580077 20.0669051,8.28036049 C19.8259515,8.04381599 19.6019666,8.04526261 19.193697,8.34586185 C18.7514364,8.67148787 18.2324697,9.29819611 17.6531484,10.2210086 Z M16.5080433,13.999082 L23.8654577,13.999082 L23.8654577,21.2218695 C23.8729202,21.9608611 23.577181,22.6717195 23.044869,23.1942912 C22.5125571,23.7168629 21.7884488,24.0071906 21.0356829,23.9998646 L16.5080433,23.9998646 L16.5080433,13.999082 Z" id="Shape" fill="#FFFFFF"></path>
        </g>
    </g>
</svg>