<?xml version="1.0" encoding="UTF-8"?>
<svg width="32px" height="32px" viewBox="0 0 32 32" version="1.1" xmlns="http://www.w3.org/2000/svg" xmlns:xlink="http://www.w3.org/1999/xlink">
    <!-- Generator: Sketch 51.2 (57519) - http://www.bohemiancoding.com/sketch -->
    <title>currency/gup</title>
    <desc>Created with Sketch.</desc>
    <defs></defs>
    <g id="currency/gup" stroke="none" stroke-width="1" fill="none" fill-rule="evenodd">
        <g id="gup" fill-rule="nonzero">
            <circle id="Oval" fill="#37DCD8" cx="16" cy="16" r="16"></circle>
            <path d="M15.99,12.679 L13.206,9.875 C14.0412336,8.5166885 14.9750776,7.22153972 16,6 C17.0232151,7.21629911 17.9557231,8.50610138 18.79,9.859 L15.99,12.679 Z M21.708,15.489 C22.494,17.691 23.647,19.893 22.548,22.007 C21.8487556,23.340603 20.764418,24.4329546 19.436,25.142 C15.817,27.062 11.337,25.652 9.431,22.007 C8.321,19.893 9.614,17.517 10.401,15.316 C11.122,13.693 11.851,12.197 12.679,10.759 L15.989,14.093 L19.318,10.741 C20.193,12.255 20.949,13.813 21.708,15.49 L21.708,15.489 Z" id="Shape" fill="#FFFFFF"></path>
        </g>
    </g>
</svg>