<?xml version="1.0" encoding="UTF-8"?>
<svg width="32px" height="32px" viewBox="0 0 32 32" version="1.1" xmlns="http://www.w3.org/2000/svg" xmlns:xlink="http://www.w3.org/1999/xlink">
    <!-- Generator: Sketch 51.2 (57519) - http://www.bohemiancoding.com/sketch -->
    <title>currency/gvt</title>
    <desc>Created with Sketch.</desc>
    <defs></defs>
    <g id="currency/gvt" stroke="none" stroke-width="1" fill="none" fill-rule="evenodd">
        <g id="gvt" fill-rule="nonzero">
            <circle id="Oval" fill="#16B9AD" cx="16" cy="16" r="16"></circle>
            <path d="M26,13.193 C26,18.601 21.513,23 16,23 C10.487,23 6,18.6 6,13.195 C6,12.797 6.024,12.398 6.074,12.002 L7.87,12.002 C7.81,12.397 7.78,12.796 7.78,13.195 C7.78,17.64 11.468,21.257 16.001,21.257 C20.327,21.257 23.883,17.965 24.201,13.802 L11.48,13.802 C11.75,15.746 13.283,17.29 15.257,17.609 C17.232,17.927 19.187,16.945 20.079,15.189 L22.004,15.189 C21.129,17.711 18.714,19.407 15.998,19.409 C12.502,19.409 9.657,16.62 9.657,13.193 C9.657,12.793 9.697,12.393 9.774,12 L25.926,12 C25.976,12.396 26,12.794 26,13.193 Z" id="Shape" fill="#FFFFFF"></path>
        </g>
    </g>
</svg>