<?xml version="1.0" encoding="UTF-8"?>
<svg width="32px" height="32px" viewBox="0 0 32 32" version="1.1" xmlns="http://www.w3.org/2000/svg" xmlns:xlink="http://www.w3.org/1999/xlink">
    <!-- Generator: Sketch 51.2 (57519) - http://www.bohemiancoding.com/sketch -->
    <title>currency/hpb</title>
    <desc>Created with Sketch.</desc>
    <defs></defs>
    <g id="currency/hpb" stroke="none" stroke-width="1" fill="none" fill-rule="evenodd">
        <g id="hpb" fill-rule="nonzero">
            <circle id="Oval" fill="#1591CA" cx="16" cy="16" r="16"></circle>
            <g id="Group" transform="translate(6.000000, 6.000000)" fill="#FFFFFF">
                <path d="M10.572,9.272 C10.572,9.272 11.899,6.322 9.297,3.472 C9.297,3.472 7.817,1.572 4.757,1.722 L5.368,1.482 C5.47,1.442 5.577,1.414 5.685,1.4 L6.287,1.322 L10.521,0.672 C10.521,0.672 12.018,0.378 13.153,0.702 C13.476,0.795 13.77,0.97 14.003,1.208 C14.629,1.842 15.886,3.519 15.063,6.172 C15.063,6.172 14.246,9.122 11.185,9.822 C11.185,9.822 10.419,10.022 10.572,9.272 Z M10.383,10.916 C10.383,10.916 12.296,13.539 16.125,12.8 C16.125,12.8 18.547,12.521 19.976,9.863 L19.874,10.502 C19.857,10.608 19.827,10.712 19.784,10.811 L19.546,11.358 L17.958,15.258 C17.958,15.258 17.453,16.669 16.59,17.461 C16.342242,17.6866596 16.0405596,17.8447329 15.714,17.92 C14.839,18.123 12.726,18.328 10.816,16.282 C10.816,16.282 8.643,14.09 9.589,11.152 C9.589,11.15 9.803,10.405 10.383,10.916 Z M8.998,9.969 C8.998,9.969 5.728,10.313 4.503,13.944 C4.503,13.944 3.559,16.148 5.217,18.674 L4.7,18.274 C4.61406811,18.2075744 4.5367994,18.1306416 4.47,18.045 L4.1,17.573 L1.416,14.3 C1.416,14.3 0.409,13.173 0.132,12.05 C0.052,11.728 0.06,11.39 0.154,11.072 C0.403,10.225 1.26,8.322 4.017,7.7 C4.017,7.7 7.034,6.923 9.179,9.176 C9.181,9.176 9.739,9.726 8.999,9.969 L8.998,9.969 Z" id="Shape"></path>
                <path d="M11.106,10.159 C11.106,10.159 14.366,9.735 15.496,6.074 C15.496,6.074 16.383,3.847 14.659,1.363 L15.187,1.75 C15.274,1.815 15.354,1.89 15.423,1.973 L15.804,2.435 L18.574,5.641 C18.574,5.641 19.608,6.741 19.916,7.859 C20.003,8.179 20.003,8.515 19.916,8.835 C19.689,9.688 18.882,11.613 16.141,12.303 C16.141,12.303 13.145,13.153 10.943,10.957 C10.945,10.957 10.373,10.421 11.106,10.159 Z M9.468,10.763 C9.468,10.763 8.067,13.679 10.595,16.592 C10.595,16.592 12.024,18.527 15.09,18.452 L14.472,18.677 C14.3690202,18.7141788 14.2619001,18.7386922 14.153,18.75 L13.55,18.814 L9.3,19.36 C9.3,19.36 7.797,19.617 6.67,19.265 C6.3503831,19.1641042 6.06212948,18.9826111 5.833,18.738 C5.223,18.088 4.01,16.382 4.901,13.751 C4.901,13.751 5.791,10.821 8.87,10.197 C8.87,10.2 9.643,10.017 9.468,10.763 Z M9.577,9.226 C9.577,9.226 7.625,6.63 3.808,7.426 C3.808,7.426 1.39,7.738 1.77635684e-15,10.416 L0.092,9.775 C0.108,9.669 0.136,9.565 0.178,9.465 L0.408,8.915 L1.938,4.991 C1.938,4.991 2.423,3.573 3.274,2.769 C3.51947511,2.5402475 3.81982371,2.3787068 4.146,2.3 C5.018,2.083 7.128,1.85 9.066,3.869 C9.066,3.869 11.271,6.03 10.368,8.981 C10.368,8.979 10.164,9.729 9.577,9.226 Z" id="Shape" opacity="0.5"></path>
            </g>
        </g>
    </g>
</svg>