<?xml version="1.0" encoding="UTF-8"?>
<svg width="32px" height="32px" viewBox="0 0 32 32" version="1.1" xmlns="http://www.w3.org/2000/svg" xmlns:xlink="http://www.w3.org/1999/xlink">
    <!-- Generator: Sketch 51.2 (57519) - http://www.bohemiancoding.com/sketch -->
    <title>currency/html</title>
    <desc>Created with Sketch.</desc>
    <defs></defs>
    <g id="currency/html" stroke="none" stroke-width="1" fill="none" fill-rule="evenodd">
        <g id="html" fill-rule="nonzero">
            <circle id="Oval" fill="#CFA967" cx="16" cy="16" r="16"></circle>
            <path d="M16.0199557,16.9448402 L16.0199557,24.9375 L21.9667406,23.3359375 L23.3636364,7.9453125 L16.0199557,7.9453125 L16.0199557,14.4780996 L16.3235622,13.53125 L17.120086,13.53125 L16.0199557,16.9448402 Z M8.63636364,24.46875 L7,6.5 L25,6.5 L23.3636364,24.46875 L15.9800443,26.5 L8.63636364,24.46875 Z M13.7994054,17.6764859 L13.7994054,16.9345371 L11.3301814,15.9506484 L13.7994054,14.9613833 L13.7994054,14.2194344 L10.2727273,15.6522559 L10.2727273,16.2436644 L13.7994054,17.6764859 Z M21.7316847,16.2436644 L18.2050065,17.6764859 L18.2050065,16.9345371 L20.6742305,15.9479602 L18.2050065,14.9613833 L18.2050065,14.2194344 L21.7316847,15.6522559 L21.7316847,16.2436644 Z M16.0199557,16.9448402 L16.0199557,14.4780996 L14.703048,18.5851044 L15.491332,18.5851044 L16.0199557,16.9448402 Z" id="Shape" fill="#FFFFFF"></path>
        </g>
    </g>
</svg>