<?xml version="1.0" encoding="UTF-8"?>
<svg width="32px" height="32px" viewBox="0 0 32 32" version="1.1" xmlns="http://www.w3.org/2000/svg" xmlns:xlink="http://www.w3.org/1999/xlink">
    <!-- Generator: Sketch 51.2 (57519) - http://www.bohemiancoding.com/sketch -->
    <title>currency/hush</title>
    <desc>Created with Sketch.</desc>
    <defs></defs>
    <g id="currency/hush" stroke="none" stroke-width="1" fill="none" fill-rule="evenodd">
        <g id="hush" fill-rule="nonzero">
            <circle id="Oval" fill="#292929" cx="16" cy="16" r="16"></circle>
            <path d="M15.007,18.657 C15.007,18.197 15.009,17.738 15.006,17.279 C15.005,17.151 15.042,17.053 15.161,17.001 C15.271,16.953 15.386,16.987 15.482,17.099 C15.768,17.433 16.052,17.769 16.337,18.105 C16.437,18.222 16.538,18.338 16.635,18.459 C16.6577942,18.4875498 16.6710819,18.5225174 16.673,18.559 C16.675,19.044 16.676,19.529 16.674,20.013 C16.6794783,20.4555229 16.3437317,20.8278489 15.903,20.868 C15.4624504,20.8962022 15.0749158,20.5793664 15.015,20.142 C15.006,20.087 15.007,20.03 15.007,19.974 L15.007,18.657 Z M15.01,9.647 C15.009,9.627 15.007,9.608 15.007,9.588 L15.007,6.856 C15.008,6.436 15.296,6.082 15.686,6.013 C15.9295318,5.96768766 16.180582,6.03338195 16.3707047,6.19217212 C16.5608274,6.3509623 16.6701987,6.58629144 16.669,6.834 C16.679,7.765 16.673,8.697 16.675,9.628 L16.67,9.676 C16.476,9.344 16.208,9.178 15.842,9.179 C15.48,9.179 15.21,9.339 15.01,9.647 Z M15.007,22.26 C15.211,22.57 15.483,22.728 15.848,22.727 C16.212,22.726 16.477,22.56 16.675,22.252 L16.675,24.566 C16.674,24.793 16.681,25.022 16.661,25.246 C16.6207541,25.6901547 16.2363347,26.0228763 15.791,25.999 C15.3524901,25.9696359 15.0111647,25.6064866 15.009,25.167 C15.004,24.274 15.007,23.381 15.007,22.487 L15.007,22.26 Z M16.675,13.434 L16.675,15.095 C16.675,15.253 16.625,15.339 16.505,15.387 C16.3774695,15.439521 16.2305737,15.4011649 16.145,15.293 L15.421,14.445 C15.296,14.299 15.171,14.154 15.048,14.005 C15.0244262,13.976736 15.0104217,13.9417249 15.008,13.905 C15.006,13.191 15.005,12.476 15.008,11.762 C15.0052596,11.324741 15.3384317,10.9585126 15.774,10.92 C16.169,10.876 16.561,11.17 16.653,11.584 C16.668,11.653 16.673,11.725 16.673,11.796 C16.675,12.342 16.675,12.888 16.675,13.434 Z M18.406,10.057 L18.406,7.837 C18.408,7.435 18.637,7.107 18.993,6.995 C19.533,6.824 20.073,7.232 20.076,7.82 C20.079,8.374 20.076,8.928 20.076,9.481 L20.076,12.276 C20.076,12.689 19.828,13.023 19.449,13.126 C18.956,13.259 18.453,12.896 18.412,12.377 C18.4083467,12.3260843 18.4066787,12.2750456 18.407,12.224 L18.407,10.057 L18.406,10.057 Z M13.362,20.76 L13.362,23.325 C13.3697209,23.7389902 13.0763213,24.0975898 12.669,24.172 C12.189,24.264 11.71,23.874 11.696,23.375 C11.692,23.232 11.695,23.089 11.695,22.946 L11.695,18.193 C11.695,17.794 11.951,17.457 12.323,17.361 C12.5728882,17.2979592 12.8378845,17.3539867 13.0408712,17.5127779 C13.243858,17.6715691 13.3620309,17.9152847 13.361,18.173 C13.364,19.035 13.361,19.898 13.361,20.76 L13.362,20.76 Z M13.362,11.314 L13.362,14.813 C13.361,15.225 13.096,15.563 12.706,15.653 C12.2,15.77 11.7,15.373 11.696,14.843 C11.691,14.337 11.695,13.832 11.694,13.326 L11.694,7.82 C11.694,7.408 11.962,7.064 12.347,6.977 C12.5949387,6.92257842 12.8541702,6.98389636 13.0514533,7.14362952 C13.2487364,7.30336269 13.3626464,7.54416424 13.361,7.798 C13.364,8.697 13.361,9.595 13.361,10.494 L13.362,11.314 Z M18.406,19.5 L18.406,15.7 C18.406,15.321 18.568,15.04 18.906,14.882 C19.448,14.631 20.056,15.032 20.076,15.645 L20.076,23.293 C20.076,23.711 19.837,24.043 19.46,24.151 C18.966,24.293 18.454,23.931 18.412,23.41 C18.4082126,23.3567541 18.4065446,23.3033785 18.407,23.25 L18.407,19.498 L18.406,19.5 Z M23.5,15.634 L23.5,21.574 C23.5100939,21.9823313 23.2283232,22.3401087 22.829,22.426 C22.337,22.533 21.847,22.14 21.833,21.627 L21.833,21.551 L21.833,9.707 C21.833,9.322 22.026,9.015 22.352,8.879 C22.902,8.649 23.499,9.063 23.499,9.677 L23.499,15.633 L23.5,15.634 Z M10.167,15.625 L10.167,21.574 C10.167,21.994 9.907,22.331 9.515,22.424 C9.015,22.544 8.514,22.15 8.5,21.625 L8.5,21.572 L8.5,9.688 C8.5,9.279 8.745,8.947 9.12,8.843 C9.36930692,8.77747048 9.63490542,8.83090778 9.83947117,8.98775456 C10.0440369,9.14460134 10.1645776,9.38722871 10.166,9.645 C10.171,10.3 10.167,10.956 10.167,11.612 L10.167,15.624 L10.167,15.625 Z" id="Shape" fill="#FFFFFF"></path>
        </g>
    </g>
</svg>