<?xml version="1.0" encoding="UTF-8"?>
<svg width="32px" height="32px" viewBox="0 0 32 32" version="1.1" xmlns="http://www.w3.org/2000/svg" xmlns:xlink="http://www.w3.org/1999/xlink">
    <!-- Generator: Sketch 51.2 (57519) - http://www.bohemiancoding.com/sketch -->
    <title>currency/icx</title>
    <desc>Created with Sketch.</desc>
    <defs></defs>
    <g id="currency/icx" stroke="none" stroke-width="1" fill="none" fill-rule="evenodd">
        <g id="icx" fill-rule="nonzero">
            <circle id="Oval" fill="#1FC5C9" cx="16" cy="16" r="16"></circle>
            <path d="M11.296,22.472 L13.46,20.308 C15.4244222,21.4683749 17.9252058,21.1517905 19.5384982,19.5384982 C21.1517905,17.9252058 21.4683749,15.4244222 20.308,13.46 L22.472,11.296 C24.7894692,14.4797172 24.4454215,18.8764506 21.6609361,21.6609361 C18.8764506,24.4454215 14.4797172,24.7894692 11.296,22.472 Z M9.528,20.704 C7.21053083,17.5202828 7.55457848,13.1235494 10.3390639,10.3390639 C13.1235494,7.55457848 17.5202828,7.21053083 20.704,9.528 L18.54,11.692 C16.5755778,10.5316251 14.0747942,10.8482095 12.4615018,12.4615018 C10.8482095,14.0747942 10.5316251,16.5755778 11.692,18.54 L9.528,20.704 Z M24,10 C22.8954305,10 22,9.1045695 22,8 C22,6.8954305 22.8954305,6 24,6 C25.1045695,6 26,6.8954305 26,8 C26,9.1045695 25.1045695,10 24,10 Z M8,26 C6.8954305,26 6,25.1045695 6,24 C6,22.8954305 6.8954305,22 8,22 C9.1045695,22 10,22.8954305 10,24 C10,25.1045695 9.1045695,26 8,26 Z" id="Shape" fill="#FFFFFF"></path>
        </g>
    </g>
</svg>