<?xml version="1.0" encoding="UTF-8"?>
<svg width="32px" height="32px" viewBox="0 0 32 32" version="1.1" xmlns="http://www.w3.org/2000/svg" xmlns:xlink="http://www.w3.org/1999/xlink">
    <!-- Generator: Sketch 51.2 (57519) - http://www.bohemiancoding.com/sketch -->
    <title>currency/ins</title>
    <desc>Created with Sketch.</desc>
    <defs></defs>
    <g id="currency/ins" stroke="none" stroke-width="1" fill="none" fill-rule="evenodd">
        <g id="ins" fill-rule="nonzero">
            <circle id="Oval" fill="#B2A3F6" cx="16" cy="16" r="16"></circle>
            <g id="Group" transform="translate(4.000000, 5.000000)" fill="#FFFFFF">
                <path d="M9.446,7.287 C8.686,7.287 8.071,6.686 8.071,5.945 C8.071,5.204 8.686,4.602 9.446,4.602 C10.205,4.602 10.821,5.203 10.821,5.945 C10.821,6.687 10.205,7.287 9.446,7.287 Z M13.373,5.753 C12.614,5.753 11.998,5.152 11.998,4.411 C11.998,3.669 12.614,3.068 13.373,3.068 C14.133,3.068 14.748,3.669 14.748,4.411 C14.748,5.152 14.133,5.753 13.373,5.753 Z M14.946,14.958 C14.186,14.958 13.571,14.358 13.571,13.616 C13.571,12.874 14.186,12.273 14.946,12.273 C15.705,12.273 16.321,12.874 16.321,13.616 C16.321,14.358 15.705,14.958 14.946,14.958 Z M1.786,13.04 C1.58001581,13.0426683 1.38142357,12.9633237 1.23398745,12.8194516 C1.08655132,12.6755794 1.00237191,12.4789878 1,12.273 C1,11.85 1.352,11.506 1.785,11.506 C2.218,11.506 2.571,11.85 2.571,12.273 C2.56862809,12.4789878 2.48444868,12.6755794 2.33701255,12.8194516 C2.18957643,12.9633237 1.99098419,13.0426683 1.785,13.04 L1.786,13.04 Z M3.946,18.028 C3.7913755,18.0298677 3.64234324,17.9702288 3.53169433,17.8622055 C3.42104542,17.7541821 3.35784541,17.6066248 3.356,17.452 C3.356,17.134 3.62,16.877 3.946,16.877 C4.272,16.877 4.536,17.134 4.536,17.452 C4.53415459,17.6066248 4.47095458,17.7541821 4.36030567,17.8622055 C4.24965676,17.9702288 4.1006245,18.0298677 3.946,18.028 Z M10.231,21.863 C9.905,21.863 9.641,21.605 9.641,21.287 C9.641,20.969 9.905,20.712 10.231,20.712 C10.557,20.712 10.821,20.969 10.821,21.287 C10.821,21.605 10.557,21.863 10.231,21.863 Z M20.446,18.411 C20.12,18.411 19.856,18.153 19.856,17.835 C19.856,17.517 20.12,17.259 20.446,17.259 C20.771,17.259 21.036,17.517 21.036,17.835 C21.036,18.153 20.771,18.411 20.446,18.411 Z M14.16,17.261 C14.0053755,17.2628677 13.8563432,17.2032288 13.7456943,17.0952055 C13.6350454,16.9871821 13.5718454,16.8396248 13.57,16.685 C13.57,16.367 13.835,16.11 14.16,16.11 C14.485,16.11 14.75,16.367 14.75,16.685 C14.7481546,16.8396248 14.6849546,16.9871821 14.5743057,17.0952055 C14.4636568,17.2032288 14.3146245,17.2628677 14.16,17.261 Z M17.696,14.576 C17.37,14.576 17.106,14.318 17.106,14 C17.106,13.682 17.37,13.425 17.696,13.425 C18.021,13.425 18.286,13.682 18.286,14 C18.286,14.318 18.021,14.576 17.696,14.576 Z M13.571,21.863 C13.137,21.863 12.785,21.519 12.785,21.096 C12.785,20.673 13.137,20.329 13.571,20.329 C14.004,20.329 14.356,20.672 14.356,21.096 C14.356,21.52 14.004,21.863 13.571,21.863 Z M17.106,12.273 C16.9001879,12.2754008 16.7018531,12.1959377 16.554634,12.0520943 C16.4074149,11.9082509 16.3233732,11.7118124 16.321,11.506 C16.321,11.083 16.672,10.739 17.106,10.739 C17.54,10.739 17.891,11.083 17.891,11.506 C17.8886268,11.7118124 17.8045851,11.9082509 17.657366,12.0520943 C17.5101469,12.1959377 17.3118121,12.2754008 17.106,12.273 Z M18.286,19.945 C18.0800158,19.9476683 17.8814236,19.8683237 17.7339874,19.7244516 C17.5865513,19.5805794 17.5023719,19.3839878 17.5,19.178 C17.5,18.754 17.852,18.411 18.285,18.411 C18.719,18.411 19.071,18.754 19.071,19.178 C19.0686281,19.3839878 18.9844487,19.5805794 18.8370126,19.7244516 C18.6895764,19.8683237 18.4909842,19.9476683 18.285,19.945 L18.286,19.945 Z M2.765,16.11 C2.223,16.11 1.783,15.68 1.783,15.151 C1.783,14.622 2.223,14.193 2.765,14.193 C3.307,14.193 3.747,14.623 3.747,15.151 C3.747,15.679 3.307,16.11 2.765,16.11 Z M12.195,19.945 C11.435,19.945 10.82,19.344 10.82,18.602 C10.82,17.86 11.435,17.259 12.195,17.259 C12.954,17.259 13.57,17.861 13.57,18.602 C13.57,19.343 12.954,19.945 12.195,19.945 Z M4.73,13.425 C3.97,13.425 3.355,12.823 3.355,12.082 C3.355,11.341 3.97,10.739 4.73,10.739 C5.49,10.739 6.105,11.34 6.105,12.082 C6.105,12.824 5.489,13.425 4.73,13.425 Z M12.195,16.492 C11.652,16.492 11.212,16.063 11.212,15.534 C11.212,15.005 11.652,14.576 12.195,14.576 C12.737,14.576 13.177,15.005 13.177,15.534 C13.177,16.063 12.737,16.492 12.195,16.492 Z M7.48,8.056 C7.154,8.056 6.89,7.798 6.89,7.48 C6.89,7.162 7.154,6.904 7.48,6.904 C7.806,6.904 8.07,7.162 8.07,7.48 C8.07,7.798 7.806,8.056 7.48,8.056 Z M11.212,10.356 C10.562,10.356 10.034,9.841 10.034,9.206 C10.034,8.57 10.562,8.054 11.212,8.054 C11.862,8.054 12.39,8.57 12.39,9.205 C12.39,9.841 11.863,10.357 11.212,10.357 L11.212,10.356 Z M13.962,11.506 C13.7561879,11.5084008 13.5578531,11.4289377 13.410634,11.2850943 C13.2634149,11.1412509 13.1793732,10.9448124 13.177,10.739 C13.177,10.316 13.528,9.972 13.962,9.972 C14.396,9.972 14.747,10.316 14.747,10.739 C14.7446268,10.9448124 14.6605851,11.1412509 14.513366,11.2850943 C14.3661469,11.4289377 14.1678121,11.5084008 13.962,11.506 Z M15.337,1.918 C15.011,1.918 14.747,1.661 14.747,1.343 C14.747,1.025 15.011,0.767 15.337,0.767 C15.663,0.767 15.927,1.025 15.927,1.343 C15.927,1.661 15.663,1.918 15.337,1.918 Z M12.587,1.917 C12.329563,1.92020136 12.0814138,1.82092709 11.89722,1.64104739 C11.7130262,1.46116768 11.6078997,1.2154406 11.605,0.958 C11.605,0.429 12.045,1.75494385e-15 12.587,1.75494385e-15 C12.8444378,-0.00346992522 13.0926942,0.0955488211 13.2770763,0.275241659 C13.4614584,0.454934497 13.5668383,0.700558198 13.57,0.958 C13.5671018,1.21561614 13.4618376,1.46149651 13.2774267,1.64140504 C13.0930158,1.82131358 12.8446091,1.92046911 12.587,1.917 Z M13.177,8.054 C12.743,8.054 12.392,7.711 12.392,7.287 C12.392,6.863 12.743,6.52 13.177,6.52 C13.611,6.52 13.962,6.864 13.962,7.287 C13.962,7.71 13.611,8.054 13.177,8.054 Z M5.712,16.494 C5.062,16.494 4.534,15.979 4.534,15.343 C4.534,14.707 5.062,14.192 5.712,14.192 C6.362,14.192 6.89,14.707 6.89,15.342 C6.89,15.979 6.363,16.494 5.712,16.494 Z M17.105,17.644 C16.455,17.644 15.927,17.128 15.927,16.492 C15.927,15.857 16.454,15.342 17.105,15.342 C17.756,15.342 18.283,15.857 18.283,16.492 C18.283,17.128 17.755,17.644 17.105,17.644 Z M15.535,20.329 C14.884,20.329 14.356,19.813 14.356,19.178 C14.356,18.542 14.884,18.026 15.534,18.026 C16.184,18.026 16.712,18.542 16.712,19.178 C16.712,19.813 16.185,20.328 15.534,20.328 L15.535,20.329 Z M6.302,20.329 C5.542,20.329 4.927,19.728 4.927,18.986 C4.927,18.244 5.543,17.644 6.302,17.644 C7.061,17.644 7.677,18.244 7.677,18.986 C7.677,19.728 7.061,20.329 6.302,20.329 Z M2.177,10.357 C1.527,10.357 0.999,9.841 0.999,9.205 C0.999,8.57 1.526,8.055 2.177,8.055 C2.828,8.055 3.355,8.57 3.355,9.205 C3.355,9.841 2.827,10.357 2.177,10.357 Z" id="Shape"></path>
                <path d="M8.07,12.273 C7.202,12.273 6.498,11.587 6.498,10.739 C6.498,9.892 7.202,9.205 8.071,9.205 C8.94,9.205 9.643,9.892 9.643,10.739 C9.643,11.587 8.939,12.273 8.071,12.273 L8.07,12.273 Z M16.32,9.973 C15.452,9.973 14.748,9.286 14.748,8.438 C14.748,7.591 15.452,6.904 16.321,6.904 C17.189,6.904 17.893,7.591 17.893,8.438 C17.893,9.286 17.189,9.972 16.321,9.972 L16.32,9.973 Z M20.641,16.494 C19.991,16.494 19.463,15.979 19.463,15.343 C19.463,14.707 19.991,14.192 20.641,14.192 C21.291,14.192 21.819,14.707 21.819,15.342 C21.819,15.979 21.292,16.494 20.641,16.494 Z M21.821,11.891 C21.17,11.891 20.643,11.375 20.643,10.739 C20.643,10.104 21.17,9.589 21.821,9.589 C22.471,9.589 22.998,10.104 22.998,10.739 C22.998,11.375 22.471,11.891 21.821,11.891 Z M17.303,6.521 C17.0453916,6.52420064 16.797092,6.42478955 16.6128693,6.24469409 C16.4286467,6.06459864 16.3236361,5.81861484 16.321,5.561 C16.321,5.032 16.761,4.603 17.303,4.603 C17.560437,4.59979864 17.8085862,4.69907291 17.99278,4.87895261 C18.1769738,5.05883232 18.2821003,5.3045594 18.285,5.562 C18.281837,5.81926627 18.1765948,6.0647368 17.9924298,6.24440087 C17.8082647,6.42406493 17.5602658,6.52320236 17.303,6.52 L17.303,6.521 Z M17.498,3.452 C17.065,3.452 16.713,3.109 16.713,2.685 C16.713,2.261 17.065,1.918 17.498,1.918 C17.932,1.918 18.284,2.262 18.284,2.685 C18.284,3.108 17.932,3.452 17.498,3.452 Z M19.266,4.219 C18.94,4.219 18.676,3.961 18.676,3.644 C18.676,3.327 18.94,3.068 19.266,3.068 C19.592,3.068 19.856,3.326 19.856,3.644 C19.856,3.962 19.592,4.219 19.266,4.219 Z M22.41,8.823 C22.085,8.823 21.82,8.565 21.82,8.247 C21.82,7.929 22.085,7.671 22.41,7.671 C22.735,7.671 23,7.929 23,8.247 C23,8.565 22.736,8.823 22.41,8.823 Z M5.516,3.836 C5.19,3.836 4.926,3.579 4.926,3.261 C4.926,2.943 5.19,2.685 5.516,2.685 C5.842,2.685 6.106,2.943 6.106,3.261 C6.106,3.579 5.842,3.836 5.516,3.836 Z M4.731,8.823 C4.405,8.823 4.141,8.565 4.141,8.247 C4.141,7.929 4.405,7.671 4.731,7.671 C5.057,7.671 5.321,7.929 5.321,8.247 C5.321,8.565 5.057,8.823 4.731,8.823 Z M6.303,9.59 C5.977,9.59 5.713,9.332 5.713,9.014 C5.713,8.696 5.977,8.438 6.303,8.438 C6.629,8.438 6.893,8.696 6.893,9.014 C6.893,9.332 6.629,9.59 6.303,9.59 Z M8.266,2.3 C7.94,2.3 7.676,2.042 7.676,1.724 C7.676,1.406 7.94,1.149 8.266,1.149 C8.592,1.149 8.856,1.406 8.856,1.724 C8.856,2.042 8.592,2.3 8.266,2.3 Z M22.41,13.809 C22.085,13.809 21.82,13.551 21.82,13.233 C21.82,12.915 22.085,12.658 22.41,12.658 C22.735,12.658 23,12.915 23,13.233 C23,13.551 22.736,13.809 22.41,13.809 Z M20.446,7.671 C19.686,7.671 19.071,7.071 19.071,6.329 C19.071,5.587 19.686,4.986 20.446,4.986 C21.205,4.986 21.821,5.587 21.821,6.329 C21.821,7.07 21.205,7.671 20.446,7.671 Z M19.266,10.739 C19.0087342,10.7422024 18.7607353,10.6430649 18.5765702,10.4634009 C18.3924052,10.2837368 18.287163,10.0382663 18.284,9.781 C18.284,9.251 18.724,8.823 19.266,8.823 C19.5232658,8.81979764 19.7712647,8.91893507 19.9554298,9.09859913 C20.1395948,9.2782632 20.244837,9.52373373 20.248,9.781 C20.244837,10.0382663 20.1395948,10.2837368 19.9554298,10.4634009 C19.7712647,10.6430649 19.5232658,10.7422024 19.266,10.739 Z M5.91,6.52 C5.65273421,6.52320236 5.40473528,6.42406493 5.22057023,6.24440087 C5.03640519,6.0647368 4.93116299,5.81926627 4.928,5.562 C4.928,5.032 5.368,4.603 5.91,4.603 C6.452,4.603 6.893,5.033 6.893,5.562 C6.8898383,5.8194418 6.7844584,6.0650655 6.60007629,6.24475834 C6.41569418,6.42445118 6.16743783,6.52346993 5.91,6.52 Z M10.23,3.835 C9.97273421,3.83820236 9.72473528,3.73906493 9.54057023,3.55940087 C9.35640519,3.3797368 9.25116299,3.13426627 9.248,2.877 C9.248,2.347 9.688,1.918 10.231,1.918 C10.774,1.918 11.213,2.348 11.213,2.877 C11.209837,3.13426627 11.1045948,3.3797368 10.9204298,3.55940087 C10.7362647,3.73906493 10.4882658,3.83820236 10.231,3.835 L10.23,3.835 Z M7.678,4.219 C7.244,4.219 6.893,3.876 6.893,3.452 C6.893,3.028 7.244,2.685 7.678,2.685 C8.112,2.685 8.463,3.029 8.463,3.452 C8.463,3.875 8.112,4.219 7.678,4.219 Z M3.356,7.287 C3.15018792,7.28940084 2.95185308,7.20993766 2.80463399,7.06609429 C2.6574149,6.92225092 2.57337316,6.7258124 2.571,6.52 C2.571,6.097 2.922,5.753 3.356,5.753 C3.79,5.753 4.141,6.097 4.141,6.52 C4.13862684,6.7258124 4.0545851,6.92225092 3.90736601,7.06609429 C3.76014692,7.20993766 3.56181208,7.28940084 3.356,7.287 Z M19.856,13.425 C19.6501879,13.4274008 19.4518531,13.3479377 19.304634,13.2040943 C19.1574149,13.0602509 19.0733732,12.8638124 19.071,12.658 C19.071,12.234 19.422,11.891 19.856,11.891 C20.29,11.891 20.641,12.234 20.641,12.658 C20.6386268,12.8638124 20.5545851,13.0602509 20.407366,13.2040943 C20.2601469,13.3479377 20.0618121,13.4274008 19.856,13.425 Z M11.41,13.809 C10.65,13.809 10.035,13.208 10.035,12.466 C10.035,11.724 10.651,11.124 11.41,11.124 C12.17,11.124 12.785,11.724 12.785,12.466 C12.785,13.208 12.17,13.809 11.41,13.809 Z M8.856,14.576 C8.65018792,14.5784008 8.45185308,14.4989377 8.30463399,14.3550943 C8.1574149,14.2112509 8.07337316,14.0148124 8.071,13.809 C8.071,13.385 8.422,13.042 8.856,13.042 C9.29,13.042 9.641,13.385 9.641,13.809 C9.63862684,14.0148124 9.5545851,14.2112509 9.40736601,14.3550943 C9.26014692,14.4989377 9.06181208,14.5784008 8.856,14.576 Z M9.248,17.644 C8.598,17.644 8.071,17.128 8.071,16.492 C8.071,15.857 8.598,15.342 9.248,15.342 C9.898,15.342 10.426,15.857 10.426,16.492 C10.426,17.128 9.899,17.644 9.248,17.644 Z M9.248,19.944 C8.81980118,19.9490017 8.46848919,19.6061928 8.463,19.178 C8.463,18.754 8.815,18.411 9.248,18.411 C9.681,18.411 10.034,18.754 10.034,19.178 C10.0316281,19.3839878 9.94744868,19.5805794 9.80001255,19.7244516 C9.65257643,19.8683237 9.45398419,19.9476683 9.248,19.945 L9.248,19.944 Z" id="Shape" opacity="0.5"></path>
            </g>
        </g>
    </g>
</svg>