<?xml version="1.0" encoding="UTF-8"?>
<svg width="32px" height="32px" viewBox="0 0 32 32" version="1.1" xmlns="http://www.w3.org/2000/svg" xmlns:xlink="http://www.w3.org/1999/xlink">
    <!-- Generator: Sketch 51.2 (57519) - http://www.bohemiancoding.com/sketch -->
    <title>currency/ion</title>
    <desc>Created with Sketch.</desc>
    <defs></defs>
    <g id="currency/ion" stroke="none" stroke-width="1" fill="none" fill-rule="evenodd">
        <g id="ion" fill-rule="nonzero">
            <circle id="Oval" fill="#57BEEA" cx="16" cy="16" r="16"></circle>
            <path d="M7.02599456,19.0087638 C6.92085409,19.0212368 6.81386716,19.0276518 6.70538904,19.0276518 C5.21124393,19.0276518 4,17.8106349 4,16.3093684 C4,14.8158879 5.19871294,13.6037162 6.68216507,13.5911831 C7.64190924,9.1813036 11.5514026,5.87999115 16.2283012,5.87999115 C17.1013222,5.87999115 17.9476034,5.99502352 18.7529501,6.210826 C19.238029,5.48081998 20.0654118,5 21.0045634,5 C22.4987085,5 23.7099525,6.21701692 23.7099525,7.71828338 C23.7099525,8.18676586 23.5920012,8.62756803 23.3843093,9.01234466 C25.0072937,10.7652499 26,13.1152746 26,15.6982635 C26,18.4307878 24.8890263,20.9025936 23.0961669,22.6825476 C23.4216098,23.13129 23.6136302,23.683972 23.6136302,24.2817166 C23.6136302,25.7829831 22.4023863,27 20.9082412,27 C19.7632139,27 18.7843292,26.2852689 18.3893958,25.2756067 C17.6942041,25.4332999 16.970927,25.5165358 16.2283012,25.5165358 C11.9876922,25.5165358 8.37799017,22.8024274 7.02599456,19.0087638 Z M7.51515561,18.9037913 C8.8159139,22.4722251 12.2261257,25.0188032 16.2283012,25.0188032 C16.9231239,25.0188032 17.6001044,24.9420472 18.2513018,24.7965136 C18.2195007,24.6298237 18.2028521,24.4577236 18.2028521,24.2817166 C18.2028521,22.7804502 19.4140961,21.5634332 20.9082412,21.5634332 C21.6288551,21.5634332 22.2836647,21.8465179 22.7685251,22.308046 C24.4584485,20.6198679 25.5046285,18.2818222 25.5046285,15.6982635 C25.5046285,13.2882822 24.5943023,11.0919325 23.1003004,9.43742151 C22.6041851,10.0472669 21.8496215,10.4365668 21.0045634,10.4365668 C19.5104183,10.4365668 18.2991744,9.21954983 18.2991744,7.71828338 C18.2991744,7.34367028 18.3745936,6.98675625 18.5110081,6.66203395 C17.780749,6.47636855 17.0159903,6.3777237 16.2283012,6.3777237 C11.8115512,6.3777237 8.11575669,9.47921363 7.18052165,13.6328685 C8.44809744,13.8585037 9.41077808,14.9709772 9.41077808,16.3093684 C9.41077808,17.5272021 8.61371622,18.5579848 7.51515561,18.9037913 Z M16.2283012,18.4198651 C14.7323322,18.4198651 13.5196097,17.2013625 13.5196097,15.6982635 C13.5196097,14.1951644 14.7323322,12.9766619 16.2283012,12.9766619 C17.7242702,12.9766619 18.9369927,14.1951644 18.9369927,15.6982635 C18.9369927,17.2013625 17.7242702,18.4198651 16.2283012,18.4198651 Z" id="Shape" fill="#FFFFFF"></path>
        </g>
    </g>
</svg>