<?xml version="1.0" encoding="UTF-8"?>
<svg width="32px" height="32px" viewBox="0 0 32 32" version="1.1" xmlns="http://www.w3.org/2000/svg" xmlns:xlink="http://www.w3.org/1999/xlink">
    <!-- Generator: Sketch 51.2 (57519) - http://www.bohemiancoding.com/sketch -->
    <title>currency/iota</title>
    <desc>Created with Sketch.</desc>
    <defs></defs>
    <g id="currency/iota" stroke="none" stroke-width="1" fill="none" fill-rule="evenodd">
        <circle id="Oval" fill="#22B1AB" fill-rule="nonzero" cx="16" cy="16" r="16"></circle>
        <g id="iota"></g>
        <g id="Group" transform="translate(6.000000, 7.000000)">
            <circle id="Oval" fill="#FFFFFF" fill-rule="nonzero" cx="14.4927007" cy="1.16029197" r="1.14861314"></circle>
            <circle id="Oval" fill="#FFFFFF" fill-rule="nonzero" cx="14.8135766" cy="4.18846715" r="1"></circle>
            <circle id="Oval" fill="#FFFFFF" fill-rule="nonzero" cx="14.5119708" cy="6.73883212" r="1"></circle>
            <circle id="Oval" fill="#FFFFFF" fill-rule="nonzero" cx="13.7608759" cy="8.80321168" r="1"></circle>
            <circle id="Oval" fill="#FFFFFF" fill-rule="nonzero" cx="12.7475912" cy="10.3620438" r="1"></circle>
            <circle id="Oval" fill="#FFFFFF" fill-rule="nonzero" cx="11.6157664" cy="11.4684672" r="1"></circle>
            <circle id="Oval" fill="#FFFFFF" fill-rule="nonzero" cx="17.3794161" cy="4.5449635" r="1"></circle>
            <circle id="Oval" fill="#FFFFFF" fill-rule="nonzero" cx="17.0581022" cy="7.11357664" r="1"></circle>
            <circle id="Oval" fill="#FFFFFF" fill-rule="nonzero" cx="16.3143066" cy="9.1659854" r="1"></circle>
            <circle id="Oval" fill="#FFFFFF" fill-rule="nonzero" cx="15.2928467" cy="10.7290511" r="1"></circle>
            <circle id="Oval" fill="#FFFFFF" fill-rule="nonzero" cx="14.1522628" cy="11.8229197" r="1"></circle>
            <circle id="Oval" fill="#FFFFFF" fill-rule="nonzero" cx="13.0010219" cy="12.5191241" r="1"></circle>
            <circle id="Oval" fill="#FFFFFF" fill-rule="nonzero" cx="19.0856934" cy="7.86481752" r="1"></circle>
            <circle id="Oval" fill="#FFFFFF" fill-rule="nonzero" cx="18.3309489" cy="9.92277372" r="1"></circle>
            <circle id="Oval" fill="#FFFFFF" fill-rule="nonzero" cx="17.3286131" cy="11.4849635" r="1"></circle>
            <circle id="Oval" fill="#FFFFFF" fill-rule="nonzero" cx="16.1883212" cy="12.5932847" r="1"></circle>
            <circle id="Oval" fill="#FFFFFF" fill-rule="nonzero" cx="15.0366423" cy="13.289781" r="1"></circle>
            <circle id="Oval" fill="#FFFFFF" fill-rule="nonzero" cx="13.950219" cy="13.6534307" r="1"></circle>
            <circle id="Oval" fill="#FFFFFF" fill-rule="nonzero" cx="15.8040876" cy="17.2185401" r="1.14846715"></circle>
            <circle id="Oval" fill="#FFFFFF" fill-rule="nonzero" cx="13.020292" cy="15.9846715" r="1"></circle>
            <circle id="Oval" fill="#FFFFFF" fill-rule="nonzero" cx="10.9608759" cy="14.449781" r="1"></circle>
            <circle id="Oval" fill="#FFFFFF" fill-rule="nonzero" cx="9.54729927" cy="12.7686131" r="1"></circle>
            <circle id="Oval" fill="#FFFFFF" fill-rule="nonzero" cx="8.70233577" cy="11.1127007" r="1"></circle>
            <circle id="Oval" fill="#FFFFFF" fill-rule="nonzero" cx="8.30890511" cy="9.57927007" r="1"></circle>
            <circle id="Oval" fill="#FFFFFF" fill-rule="nonzero" cx="11.430365" cy="18.029635" r="1"></circle>
            <circle id="Oval" fill="#FFFFFF" fill-rule="nonzero" cx="9.36510949" cy="16.4691971" r="1"></circle>
            <circle id="Oval" fill="#FFFFFF" fill-rule="nonzero" cx="7.9579562" cy="14.8" r="1"></circle>
            <circle id="Oval" fill="#FFFFFF" fill-rule="nonzero" cx="7.11372263" cy="13.1345985" r="1"></circle>
            <circle id="Oval" fill="#FFFFFF" fill-rule="nonzero" cx="6.73518248" cy="11.600292" r="1"></circle>
            <circle id="Oval" fill="#FFFFFF" fill-rule="nonzero" cx="6.70671533" cy="10.2550365" r="1"></circle>
            <circle id="Oval" fill="#FFFFFF" fill-rule="nonzero" cx="7.70218978" cy="17.8508029" r="1"></circle>
            <circle id="Oval" fill="#FFFFFF" fill-rule="nonzero" cx="6.29562044" cy="16.169635" r="1"></circle>
            <circle id="Oval" fill="#FFFFFF" fill-rule="nonzero" cx="5.44248175" cy="14.5211679" r="1"></circle>
            <circle id="Oval" fill="#FFFFFF" fill-rule="nonzero" cx="5.05138686" cy="12.980146" r="1"></circle>
            <circle id="Oval" fill="#FFFFFF" fill-rule="nonzero" cx="5.02291971" cy="11.6343066" r="1"></circle>
            <circle id="Oval" fill="#FFFFFF" fill-rule="nonzero" cx="5.25021898" cy="10.5113869" r="1"></circle>
            <circle id="Oval" fill="#FFFFFF" fill-rule="nonzero" cx="1.23328467" cy="10.3286131" r="1.14846715"></circle>
            <circle id="Oval" fill="#FFFFFF" fill-rule="nonzero" cx="3.69620438" cy="8.5379562" r="1"></circle>
            <circle id="Oval" fill="#FFFFFF" fill-rule="nonzero" cx="6.05620438" cy="7.52510949" r="1"></circle>
            <circle id="Oval" fill="#FFFFFF" fill-rule="nonzero" cx="8.21956204" cy="7.14452555" r="1"></circle>
            <circle id="Oval" fill="#FFFFFF" fill-rule="nonzero" cx="10.0762044" cy="7.24321168" r="1"></circle>
            <circle id="Oval" fill="#FFFFFF" fill-rule="nonzero" cx="11.6" cy="7.67124088" r="1"></circle>
            <path d="M2.44116788,5.20277372 C2.95737226,5.0470073 3.5020438,5.33927007 3.6579562,5.85547445 C3.81372263,6.37138686 3.52145985,6.91635036 3.00540146,7.07182482 C2.48934307,7.22788321 1.94437956,6.93562044 1.78861314,6.41941606 C1.63284672,5.90335766 1.9249635,5.35839416 2.44116788,5.20277372 Z" id="Shape" fill="#FFFFFF" fill-rule="nonzero"></path>
            <circle id="Oval" fill="#FFFFFF" fill-rule="nonzero" cx="5.10861314" cy="5.13226277" r="1"></circle>
            <circle id="Oval" fill="#FFFFFF" fill-rule="nonzero" cx="7.25824818" cy="4.75124088" r="1"></circle>
            <circle id="Oval" fill="#FFFFFF" fill-rule="nonzero" cx="9.12248175" cy="4.85532847" r="1"></circle>
            <circle id="Oval" fill="#FFFFFF" fill-rule="nonzero" cx="10.64" cy="5.29664234" r="1"></circle>
            <circle id="Oval" fill="#FFFFFF" fill-rule="nonzero" cx="11.8183942" cy="5.94613139" r="1"></circle>
            <circle id="Oval" fill="#FFFFFF" fill-rule="nonzero" cx="4.74656934" cy="3.00072993" r="1"></circle>
            <path d="M6.85532847,1.92058394 C7.2449635,1.89226277 7.58364964,2.18525547 7.6119708,2.57489051 C7.64014599,2.96481752 7.34729927,3.30335766 6.95751825,3.33138686 C6.5680292,3.36 6.22934307,3.0670073 6.20087591,2.67751825 C6.17240876,2.28759124 6.46540146,1.94905109 6.85532847,1.92058394 Z" id="Shape" fill="#FFFFFF" fill-rule="nonzero"></path>
            <circle id="Oval" fill="#FFFFFF" fill-rule="nonzero" cx="8.76029197" cy="2.7140146" r="1"></circle>
            <circle id="Oval" fill="#FFFFFF" fill-rule="nonzero" cx="10.290073" cy="3.1480292" r="1"></circle>
            <circle id="Oval" fill="#FFFFFF" fill-rule="nonzero" cx="11.4686131" cy="3.79781022" r="1"></circle>
            <path d="M12.2985401,4.17357664 C12.5109489,4.15824818 12.6951825,4.31751825 12.7105109,4.52948905 C12.7256934,4.74145985 12.5665693,4.9259854 12.3545985,4.94131387 C12.1427737,4.95649635 11.9579562,4.79708029 11.9427737,4.58525547 C11.9274453,4.37328467 12.0870073,4.18890511 12.2985401,4.17357664 Z" id="Shape" fill="#FFFFFF" fill-rule="nonzero"></path>
            <g id="iota"></g>
        </g>
    </g>
</svg>