<?xml version="1.0" encoding="UTF-8"?>
<svg width="32px" height="32px" viewBox="0 0 32 32" version="1.1" xmlns="http://www.w3.org/2000/svg" xmlns:xlink="http://www.w3.org/1999/xlink">
    <!-- Generator: Sketch 51.2 (57519) - http://www.bohemiancoding.com/sketch -->
    <title>currency/kcs</title>
    <desc>Created with Sketch.</desc>
    <defs></defs>
    <g id="currency/kcs" stroke="none" stroke-width="1" fill="none" fill-rule="evenodd">
        <g id="kcs" fill-rule="nonzero">
            <circle id="Oval" fill="#0093DD" cx="16" cy="16" r="16"></circle>
            <path d="M13.54,16 L18.714,21.33 L21.979,17.967 C22.2517314,17.6824079 22.6288236,17.5214899 23.023,17.5214899 C23.4171764,17.5214899 23.7942686,17.6824079 24.067,17.967 C24.6440366,18.5682885 24.6440366,19.5177115 24.067,20.119 L19.758,24.559 C19.483859,24.8410044 19.1072935,25.0001108 18.714,25.0001108 C18.3207065,25.0001108 17.944141,24.8410044 17.67,24.559 L11.454,18.153 L11.454,21.961 C11.454,22.797 10.788,23.483 9.977,23.483 C9.161,23.483 8.5,22.801 8.5,21.961 L8.5,10.04 C8.5,9.2 9.161,8.518 9.977,8.518 C10.792,8.518 11.454,9.2 11.454,10.04 L11.454,13.848 L17.67,7.442 C17.944141,7.15999562 18.3207065,7.00088916 18.714,7.00088916 C19.1072935,7.00088916 19.483859,7.15999562 19.758,7.442 L24.068,11.882 C24.6450366,12.4832885 24.6450366,13.4327115 24.068,14.034 C23.7952063,14.3192276 23.4176786,14.4805547 23.023,14.4805547 C22.6283214,14.4805547 22.2507937,14.3192276 21.978,14.034 L18.714,10.67 L13.54,16 Z M18.716,14.477 C19.532,14.477 20.194,15.159 20.194,16 C20.194,16.841 19.532,17.523 18.716,17.523 C17.9,17.523 17.238,16.841 17.238,16 C17.238,15.159 17.9,14.477 18.716,14.477 Z" id="Shape" fill="#FFFFFF"></path>
        </g>
    </g>
</svg>