<?xml version="1.0" encoding="UTF-8"?>
<svg width="32px" height="32px" viewBox="0 0 32 32" version="1.1" xmlns="http://www.w3.org/2000/svg" xmlns:xlink="http://www.w3.org/1999/xlink">
    <!-- Generator: Sketch 51.2 (57519) - http://www.bohemiancoding.com/sketch -->
    <title>currency/kin</title>
    <desc>Created with Sketch.</desc>
    <defs></defs>
    <g id="currency/kin" stroke="none" stroke-width="1" fill="none" fill-rule="evenodd">
        <g id="kin" fill-rule="nonzero">
            <circle id="Oval" fill="#005FFF" cx="16" cy="16" r="16"></circle>
            <path d="M13.701,18.007 L13.701,13.19 L14.826,13.19 C15.069,13.19 15.266,13.384 15.266,13.623 L15.266,14.039 C15.266,14.491 15.658,14.879 16.115,14.879 C16.572,14.879 16.919,14.491 16.919,14.039 L16.919,13.639 C16.919,13.391 17.122,13.189 17.374,13.189 L18.627,13.189 L18.627,14.407 C18.627,14.655 18.423,14.857 18.172,14.857 L17.747,14.857 C17.2930785,14.8547801 16.9228507,15.2200894 16.919,15.674 C16.919,16.125 17.343,16.491 17.8,16.491 L18.175,16.491 C18.425,16.491 18.627,16.691 18.627,16.937 L18.627,18.007 L19.636,18.007 C19.986,18.007 20.269,18.285 20.269,18.627 L20.269,18.994 C20.269,19.336 19.985,19.614 19.636,19.614 L19.26,19.614 C19.0937999,19.6158661 18.9336805,19.5515597 18.8149389,19.4352568 C18.6961973,19.3189538 18.6285826,19.160203 18.627,18.994 L18.627,18.168 L17.37,18.168 C17.12,18.168 16.919,17.968 16.919,17.722 L16.919,17.31 C16.9103576,16.8499127 16.5371489,16.4802498 16.077,16.476 C15.62,16.476 15.265,16.876 15.265,17.351 L15.265,17.725 C15.265,17.97 15.065,18.168 14.817,18.168 L13.701,18.168 L13.701,18.994 C13.701,19.336 13.418,19.614 13.068,19.614 L12.693,19.614 C12.5267999,19.6158661 12.3666805,19.5515597 12.2479389,19.4352568 C12.1291973,19.3189538 12.0615826,19.160203 12.06,18.994 L12.06,18.627 C12.06,18.285 12.343,18.007 12.693,18.007 L13.701,18.007 Z M19.636,13.029 L18.626,13.029 L18.626,12.043 C18.626,11.701 18.91,11.423 19.26,11.423 L19.636,11.423 C19.986,11.423 20.269,11.701 20.269,12.043 L20.269,12.41 C20.269,12.752 19.985,13.03 19.636,13.03 L19.636,13.029 Z M13.701,13.029 L12.693,13.029 C12.5269714,13.0308669 12.3670024,12.9666974 12.2482896,12.8506102 C12.1295768,12.7345229 12.0618462,12.5760288 12.06,12.41 L12.06,12.043 C12.06,11.701 12.343,11.423 12.693,11.423 L13.068,11.423 C13.418,11.423 13.701,11.701 13.701,12.043 L13.701,13.029 Z M15.976,11.584 C15.8097999,11.5858661 15.6496805,11.5215597 15.5309389,11.4052568 C15.4121973,11.2889538 15.3445826,11.130203 15.343,10.964 L15.343,10.597 C15.343,10.255 15.627,9.978 15.976,9.978 L16.352,9.978 C16.702,9.978 16.985,10.255 16.985,10.598 L16.985,10.965 C16.985,11.307 16.702,11.584 16.352,11.584 L15.976,11.584 Z M15.976,21.38 C15.8097999,21.3818661 15.6496805,21.3175597 15.5309389,21.2012568 C15.4121973,21.0849538 15.3445826,20.926203 15.343,20.76 L15.343,20.393 C15.343,20.051 15.627,19.773 15.976,19.773 L16.352,19.773 C16.702,19.773 16.985,20.051 16.985,20.393 L16.985,20.761 C16.985,21.102 16.702,21.38 16.352,21.38 L15.976,21.38 Z M20.902,16.401 C20.7359714,16.4028669 20.5760024,16.3386974 20.4572896,16.2226102 C20.3385768,16.1065229 20.2708462,15.9480288 20.269,15.782 L20.269,15.415 C20.269,15.073 20.552,14.795 20.902,14.795 L21.277,14.795 C21.627,14.795 21.91,15.073 21.91,15.415 L21.91,15.782 C21.91,16.124 21.627,16.402 21.277,16.402 L20.902,16.401 Z M10.887,16.401 C10.7209714,16.4028669 10.5610024,16.3386974 10.4422896,16.2226102 C10.3235768,16.1065229 10.2558462,15.9480288 10.254,15.782 L10.254,15.415 C10.254,15.073 10.537,14.795 10.887,14.795 L11.262,14.795 C11.612,14.795 11.896,15.073 11.896,15.415 L11.896,15.782 C11.896,16.124 11.612,16.402 11.262,16.402 L10.887,16.401 Z M18.653,21.422 C18.9443444,21.3034934 19.2770518,21.4387944 19.403,21.727 C19.4610311,21.8652767 19.4608544,22.0211115 19.4025099,22.1592562 C19.3441654,22.297401 19.2325825,22.4061841 19.093,22.461 C18.8019265,22.5796312 18.4693264,22.4448172 18.343,22.157 C18.2849364,22.018582 18.2850881,21.8626082 18.3434207,21.7243033 C18.4017534,21.5859984 18.5133472,21.4770274 18.653,21.422 Z M13.4,8.897 C13.6910735,8.77836885 14.0236736,8.91318277 14.15,9.201 C14.2077447,9.33930395 14.2074255,9.49502308 14.1491142,9.63308911 C14.090803,9.77115515 13.9794023,9.87995979 13.84,9.935 C13.5486489,10.0542813 13.2153404,9.91936014 13.089,9.631 C13.0312553,9.49269605 13.0315745,9.33697692 13.0898858,9.19891089 C13.148197,9.06084485 13.2595977,8.95204021 13.399,8.897 L13.4,8.897 Z M21.954,13.325 C21.8959899,13.1864549 21.896283,13.0303737 21.9548129,12.8920474 C22.0133428,12.753721 22.1251665,12.6448317 22.265,12.59 C22.5560735,12.4713688 22.8886736,12.6061828 23.015,12.894 C23.0730636,13.032418 23.0729119,13.1883918 23.0145793,13.3266967 C22.9562466,13.4650016 22.8446528,13.5739726 22.705,13.629 C22.4139265,13.7476312 22.0813264,13.6128172 21.955,13.325 L21.954,13.325 Z M9.312,18.463 C9.25430902,18.324569 9.25476967,18.1687427 9.31327811,18.0306553 C9.37178655,17.8925679 9.48341696,17.7838448 9.623,17.729 C9.91434971,17.609145 10.2480596,17.7442287 10.374,18.033 C10.4317447,18.171304 10.4314255,18.3270231 10.3731142,18.4650891 C10.314803,18.6031552 10.2034023,18.7119598 10.064,18.767 C9.77237186,18.886933 9.43835348,18.7519043 9.312,18.463 Z M9.312,12.894 C9.43834045,12.6056399 9.77164891,12.4707187 10.063,12.59 C10.2028335,12.6448317 10.3146572,12.753721 10.3731871,12.8920474 C10.431717,13.0303737 10.4320101,13.1864549 10.374,13.325 C10.2476736,13.6128172 9.91507347,13.7476312 9.624,13.629 C9.48398578,13.5743644 9.37193191,13.465557 9.31320463,13.3272091 C9.25447736,13.1888612 9.25404305,13.0326724 9.312,12.894 Z M18.489,9.935 C18.3495977,9.87995979 18.238197,9.77115515 18.1798858,9.63308911 C18.1215745,9.49502308 18.1212553,9.33930395 18.179,9.201 C18.3053264,8.91318277 18.6379265,8.77836885 18.929,8.897 C19.0684023,8.95204021 19.179803,9.06084485 19.2381142,9.19891089 C19.2964255,9.33697692 19.2967447,9.49269605 19.239,9.631 C19.1126736,9.91881723 18.7800735,10.0536312 18.489,9.935 Z M21.954,18.033 C22.079928,17.7447732 22.4129273,17.6097975 22.704,17.729 C22.8437638,17.783649 22.9556242,17.8922903 23.0143299,18.0303993 C23.0730356,18.1685082 23.0736376,18.3244419 23.016,18.463 C22.8896736,18.7508172 22.5570735,18.8856312 22.266,18.767 C22.1262362,18.712351 22.0143758,18.6037097 21.9556701,18.4656007 C21.8969644,18.3274918 21.8963624,18.1715581 21.954,18.033 Z M13.071,22.621 C12.9314175,22.5661841 12.8198346,22.457401 12.7614901,22.3192562 C12.7031456,22.1811115 12.7029689,22.0252767 12.761,21.887 C12.8873264,21.5991828 13.2199265,21.4643688 13.511,21.583 C13.6504023,21.6380402 13.761803,21.7468448 13.8201142,21.8849109 C13.8784255,22.0229769 13.8787447,22.178696 13.821,22.317 C13.6946736,22.6048172 13.3620735,22.7396312 13.071,22.621 Z M21.514,20.991 C21.6434241,20.8660331 21.8485759,20.8660331 21.978,20.991 C22.107,21.117 22.107,21.321 21.978,21.446 C21.849,21.571 21.643,21.571 21.514,21.446 C21.4525335,21.3864738 21.417834,21.3045658 21.417834,21.219 C21.417834,21.1334342 21.4525335,21.0515262 21.514,20.992 L21.514,20.991 Z M10.35,9.912 C10.478,9.787 10.686,9.787 10.814,9.912 C10.942,10.037 10.942,10.242 10.814,10.367 C10.6845759,10.4919669 10.4794241,10.4919669 10.35,10.367 C10.2885335,10.3074738 10.253834,10.2255658 10.253834,10.14 C10.253834,10.0544342 10.2885335,9.97252616 10.35,9.913 L10.35,9.912 Z M21.514,10.367 C21.4525335,10.3074738 21.417834,10.2255658 21.417834,10.14 C21.417834,10.0544342 21.4525335,9.97252616 21.514,9.913 C21.643,9.787 21.85,9.787 21.978,9.913 C22.106,10.039 22.107,10.241 21.978,10.367 C21.8485759,10.4919669 21.6434241,10.4919669 21.514,10.367 Z M10.35,21.446 C10.2885335,21.3864738 10.253834,21.3045658 10.253834,21.219 C10.253834,21.1334342 10.2885335,21.0515262 10.35,20.992 C10.4794241,20.8670331 10.6845759,20.8670331 10.814,20.992 C10.942,21.117 10.942,21.321 10.814,21.446 C10.686,21.571 10.478,21.571 10.35,21.446 Z M23.88,15.599 C23.88,15.421 24.028,15.277 24.209,15.277 C24.39,15.277 24.537,15.421 24.537,15.599 C24.5342581,15.7777114 24.3877246,15.9206709 24.209,15.919 C24.0302754,15.9206709 23.8837419,15.7777114 23.881,15.599 L23.88,15.599 Z M7.955,15.599 C7.955,15.421 8.102,15.277 8.284,15.277 C8.464,15.277 8.612,15.421 8.612,15.599 C8.60925808,15.7777114 8.46272458,15.9206709 8.284,15.919 C8.10488707,15.9212256 7.95774197,15.7781058 7.955,15.599 Z M16.165,8.212 C16.0786308,8.21333533 15.995283,8.18023277 15.9333649,8.12000337 C15.8714468,8.05977397 15.8360528,7.97737315 15.835,7.891 C15.835,7.713 15.983,7.569 16.165,7.569 C16.345,7.569 16.493,7.713 16.493,7.891 C16.490258,8.07010577 16.3431129,8.21322562 16.164,8.211 L16.165,8.212 Z M16.165,23.788 C16.0788017,23.7893363 15.995604,23.7563705 15.9337147,23.6963567 C15.8718255,23.6363429 15.8363159,23.5541986 15.835,23.468 C15.835,23.29 15.983,23.146 16.165,23.146 C16.345,23.146 16.493,23.29 16.493,23.467 C16.4919456,23.5531974 16.4566893,23.6354449 16.3949884,23.6956454 C16.3332875,23.755846 16.2501973,23.7890674 16.164,23.788 L16.165,23.788 Z M26.343,15.598 C26.343,15.421 26.491,15.278 26.672,15.278 C26.852,15.278 27,15.421 27,15.598 C26.999208,15.6841965 26.9642051,15.7665476 26.9026924,15.8269351 C26.8411797,15.8873226 26.7581965,15.9207993 26.672,15.92 C26.5858027,15.9210674 26.5027125,15.887846 26.4410116,15.8276454 C26.3793107,15.7674449 26.3440544,15.6851974 26.343,15.599 L26.343,15.598 Z M5.246,15.438 C5.382,15.438 5.493,15.546 5.493,15.678 C5.493,15.81 5.383,15.92 5.246,15.92 C5.11,15.92 5,15.812 5,15.679 C5,15.546 5.11,15.438 5.246,15.438 Z M15.672,5.321 C15.672,5.144 15.819,5 16,5 C16.181,5 16.328,5.144 16.328,5.321 C16.328,5.498 16.181,5.642 16,5.642 C15.819,5.642 15.672,5.498 15.672,5.322 L15.672,5.321 Z M25.397,19.426 C25.5066011,19.1794602 25.7928824,19.0653915 26.042,19.169 C26.292,19.273 26.41,19.556 26.305,19.801 C26.1962143,20.0489532 25.9081025,20.1631275 25.659,20.057 C25.539846,20.008964 25.4449827,19.9150766 25.3957172,19.7964257 C25.3464516,19.6777747 25.3469139,19.5443069 25.397,19.426 Z M20.067,24.616 C20.149,24.65 20.211,24.712 20.244,24.792 C20.2769707,24.87041 20.2766097,24.9588618 20.243,25.037 C20.189367,25.1568328 20.0699791,25.2336406 19.9386946,25.2327741 C19.80741,25.2319075 19.6890464,25.1535303 19.637,25.033 C19.6037101,24.9547258 19.6037101,24.8662742 19.637,24.788 C19.6713878,24.7085389 19.7362381,24.6462106 19.817,24.615 C19.8975073,24.5835877 19.9870055,24.5843036 20.067,24.617 L20.067,24.616 Z M6.442,11.289 C6.522,11.323 6.585,11.385 6.618,11.464 C6.65125509,11.5426998 6.65089381,11.6315732 6.617,11.71 C6.56336702,11.8298328 6.44397912,11.9066406 6.31269456,11.9057741 C6.18141001,11.9049075 6.06304642,11.8265303 6.011,11.706 C5.97774491,11.6273002 5.97810619,11.5384268 6.012,11.46 C6.0462798,11.3810468 6.11074286,11.3191047 6.191,11.288 C6.27165444,11.2558967 6.36160392,11.2562551 6.442,11.289 Z M5.526,19.539 C5.61733781,19.3332727 5.85631039,19.2382167 6.064,19.325 C6.16348842,19.3648328 6.24270944,19.4431035 6.28374005,19.5421039 C6.32477065,19.6411044 6.32414333,19.7524681 6.282,19.851 C6.19028565,20.0563401 5.95141928,20.1509099 5.744,20.064 C5.64451158,20.0241672 5.56529056,19.9458965 5.52425995,19.8468961 C5.48322935,19.7478956 5.48385667,19.6365319 5.526,19.538 L5.526,19.539 Z M19.863,6.252 C19.7633313,6.21236201 19.6838808,6.13417281 19.6426531,6.03515107 C19.6014255,5.93612933 19.6019111,5.82465876 19.644,5.726 C19.7353378,5.52027271 19.9743104,5.4252167 20.182,5.512 C20.2814884,5.55183283 20.3607094,5.63010348 20.40174,5.72910393 C20.4427707,5.82810438 20.4421433,5.93946808 20.4,6.038 C20.3086763,6.24318124 20.0704146,6.33813098 19.863,6.252 Z M26.004,11.119 C26.0647239,11.0946951 26.1325367,11.0950539 26.193,11.12 C26.2834358,11.157272 26.3422032,11.2456985 26.3415438,11.3435115 C26.3408844,11.4413246 26.2809301,11.5289507 26.19,11.565 C26.0649096,11.6151074 25.9226551,11.5566103 25.869,11.433 C25.8439071,11.373814 25.8442688,11.3069113 25.87,11.248 C25.8956983,11.188866 25.943932,11.1424321 26.004,11.119 Z M11.587,5.95 C11.6413836,5.82657488 11.7847215,5.76959583 11.909,5.822 C12.000292,5.85850977 12.0599097,5.94720338 12.0592469,6.04552301 C12.0585841,6.14384265 11.9977759,6.23172439 11.906,6.267 C11.8455901,6.29113985 11.7781497,6.29078112 11.718,6.266 C11.6583877,6.24187715 11.6109502,6.19483982 11.5863231,6.13543409 C11.5616961,6.07602836 11.5619399,6.00922436 11.587,5.95 Z M11.65,24.912 C11.682,24.912 11.714,24.919 11.745,24.932 C11.8045418,24.955913 11.8519676,25.002763 11.8766061,25.0620082 C11.9012446,25.1212535 11.9010262,25.1879175 11.876,25.247 C11.8212167,25.3700096 11.6782839,25.4268276 11.554,25.375 C11.4944575,25.3510597 11.4469831,25.30427 11.4221804,25.2450816 C11.3973776,25.1858931 11.3973126,25.1192367 11.422,25.06 C11.4615797,24.9695233 11.5512472,24.9113181 11.65,24.912 Z M23.292,23.212 C23.162449,23.3376119 22.956551,23.3376119 22.827,23.212 C22.7655335,23.1524738 22.730834,23.0705658 22.730834,22.985 C22.730834,22.8994342 22.7655335,22.8175262 22.827,22.758 C22.889234,22.6971699 22.9729771,22.6633851 23.06,22.664 C23.1466773,22.6636487 23.2300128,22.697414 23.292,22.758 C23.3537818,22.8175594 23.3886834,22.8996845 23.3886834,22.9855 C23.3886834,23.0713155 23.3537818,23.1534406 23.292,23.213 L23.292,23.212 Z M7.935,8.033 C8.12926336,7.84490508 8.43773664,7.84490508 8.632,8.033 C8.72394322,8.12242845 8.77581312,8.24523853 8.77581312,8.3735 C8.77581312,8.50176147 8.72394322,8.62457155 8.632,8.714 C8.43859906,8.90421349 8.12840094,8.90421349 7.935,8.714 C7.84305678,8.62457155 7.79118688,8.50176147 7.79118688,8.3735 C7.79118688,8.24523853 7.84305678,8.12242845 7.935,8.033 Z M23.46,8.123 C23.5565302,8.02795261 23.7114698,8.02795261 23.808,8.123 C23.8536883,8.16776517 23.8794347,8.22903643 23.8794347,8.293 C23.8794347,8.35696357 23.8536883,8.41823483 23.808,8.463 C23.7110375,8.55698607 23.5569625,8.55698607 23.46,8.463 C23.4137992,8.41851274 23.3876948,8.35713759 23.3876948,8.293 C23.3876948,8.22886241 23.4137992,8.16748726 23.46,8.123 Z M8.027,22.735 C8.12353016,22.6399526 8.27846984,22.6399526 8.375,22.735 C8.42094282,22.7796276 8.44686672,22.8409503 8.44686672,22.905 C8.44686672,22.9690497 8.42094282,23.0303724 8.375,23.075 C8.27803746,23.1689861 8.12396254,23.1689861 8.027,23.075 C7.98105718,23.0303724 7.95513328,22.9690497 7.95513328,22.905 C7.95513328,22.8409503 7.98105718,22.7796276 8.027,22.735 Z M16.082,27 C15.8581541,27.0022223 15.6747458,26.8228401 15.672,26.599 C15.672,26.377 15.855,26.197 16.082,26.197 C16.309,26.197 16.492,26.377 16.492,26.599 C16.4892542,26.8228401 16.3058459,27.0022223 16.082,27 Z" id="Shape" fill="#FFFFFF"></path>
        </g>
    </g>
</svg>