<?xml version="1.0" encoding="UTF-8"?>
<svg width="32px" height="32px" viewBox="0 0 32 32" version="1.1" xmlns="http://www.w3.org/2000/svg" xmlns:xlink="http://www.w3.org/1999/xlink">
    <!-- Generator: Sketch 51.2 (57519) - http://www.bohemiancoding.com/sketch -->
    <title>currency/knc</title>
    <desc>Created with Sketch.</desc>
    <defs></defs>
    <g id="currency/knc" stroke="none" stroke-width="1" fill="none" fill-rule="evenodd">
        <g id="knc" fill-rule="nonzero">
            <circle id="Oval" fill="#188C92" cx="16" cy="16" r="16"></circle>
            <path d="M21.836,21.03 C21.7207949,21.1952925 21.7061807,21.4106594 21.798,21.59 L15.872,26.228 C15.7953948,26.167598 15.70505,26.1270631 15.609,26.11 L15.429,14.694 C15.4924221,14.6806597 15.5532283,14.6570128 15.609,14.624 L21.836,21.031 L21.836,21.03 Z M22.002,20.872 L15.78,14.47 C15.8809315,14.3340385 15.9130694,14.1589426 15.867,13.996 L22.193,10.916 C22.273,11.014 22.386,11.086 22.516,11.115 L22.201,20.793 C22.1307026,20.8074651 22.063615,20.8345712 22.003,20.873 L22.002,20.872 Z M15.262,26.149 L11.912,21.646 C12.0112384,21.5435779 12.066813,21.4066131 12.067,21.264 C12.061683,20.9691299 11.8330479,20.7266381 11.539,20.704 L10.493,11.237 C10.7485146,11.1787828 10.9308422,10.9530438 10.934,10.691 C10.9338696,10.5608659 10.8874326,10.4350254 10.803,10.336 L15.008,5.823 C15.062,5.853 15.122,5.876 15.186,5.889 L15.186,13.593 C14.9185637,13.6412973 14.7228076,13.8722643 14.719,14.144 C14.719,14.419 14.924,14.648 15.195,14.697 L15.375,26.113 C15.3365691,26.1212707 15.2990524,26.1333296 15.263,26.149 L15.262,26.149 Z M15.42,13.593 L15.42,5.89 C15.521146,5.8699565 15.6152729,5.82375501 15.693,5.756 L22.12,10.331 C22.0615806,10.4511065 22.0494759,10.5885306 22.086,10.717 L15.761,13.797 C15.6742925,13.6918613 15.5537567,13.6201054 15.42,13.594 L15.42,13.593 Z M15.303,5 C15.496,5 15.653,5.151 15.653,5.337 C15.6514225,5.42823897 15.6136579,5.51511271 15.5480172,5.57850297 C15.4823764,5.64189322 15.3942385,5.67660525 15.303,5.675 C15.2117615,5.67660525 15.1236236,5.64189322 15.0579828,5.57850297 C14.9923421,5.51511271 14.9545775,5.42823897 14.953,5.337 C14.953,5.151 15.109,5 15.303,5 Z M10.35,10.354 C10.544,10.354 10.7,10.504 10.7,10.691 C10.6984225,10.782239 10.6606579,10.8691127 10.5950172,10.932503 C10.5293764,10.9958932 10.4412385,11.0306053 10.35,11.029 C10.2587615,11.0306053 10.1706236,10.9958932 10.1049828,10.932503 C10.0393421,10.8691127 10.0015775,10.782239 10,10.691 C10,10.505 10.157,10.354 10.35,10.354 Z M11.483,20.926 C11.677,20.926 11.833,21.077 11.833,21.264 C11.8291705,21.4536051 11.6726142,21.6043464 11.483,21.601 C11.2933858,21.6043464 11.1368295,21.4536051 11.133,21.264 C11.133,21.077 11.29,20.926 11.483,20.926 Z M22.65,10.23 C22.843,10.23 23,10.381 23,10.567 C22.9984225,10.658239 22.9606579,10.7451127 22.8950172,10.808503 C22.8293764,10.8718932 22.7412385,10.9066053 22.65,10.905 C22.5587615,10.9066053 22.4706236,10.8718932 22.4049828,10.808503 C22.3393421,10.7451127 22.3015775,10.658239 22.3,10.567 C22.3,10.381 22.456,10.23 22.65,10.23 Z M15.303,13.807 C15.496,13.807 15.653,13.957 15.653,14.144 C15.6514225,14.235239 15.6136579,14.3221127 15.5480172,14.385503 C15.4823764,14.4488932 15.3942385,14.4836053 15.303,14.482 C15.2117615,14.4836053 15.1236236,14.4488932 15.0579828,14.385503 C14.9923421,14.3221127 14.9545775,14.235239 14.953,14.144 C14.953,13.958 15.109,13.807 15.303,13.807 Z M15.501,26.325 C15.695,26.325 15.851,26.476 15.851,26.663 C15.8471705,26.8526051 15.6906142,27.0033464 15.501,27 C15.3113858,27.0033464 15.1548295,26.8526051 15.151,26.663 C15.151,26.476 15.308,26.325 15.501,26.325 Z M22.323,21.005 C22.516,21.005 22.673,21.156 22.673,21.343 C22.6691705,21.5326051 22.5126142,21.6833464 22.323,21.68 C22.1333858,21.6833464 21.9768295,21.5326051 21.973,21.343 C21.973,21.156 22.129,21.005 22.323,21.005 Z" id="Shape" fill="#FFFFFF"></path>
        </g>
    </g>
</svg>