<?xml version="1.0" encoding="UTF-8"?>
<svg width="32px" height="32px" viewBox="0 0 32 32" version="1.1" xmlns="http://www.w3.org/2000/svg" xmlns:xlink="http://www.w3.org/1999/xlink">
    <!-- Generator: Sketch 51.2 (57519) - http://www.bohemiancoding.com/sketch -->
    <title>currency/krb</title>
    <desc>Created with Sketch.</desc>
    <defs></defs>
    <g id="currency/krb" stroke="none" stroke-width="1" fill="none" fill-rule="evenodd">
        <g id="krb" fill-rule="nonzero">
            <circle id="Oval" fill="#00AEEF" cx="16" cy="16" r="16"></circle>
            <path d="M15.76,14.706 C15.998,14.665 16.208,14.576 16.392,14.441 C16.576,14.306 16.75,14.078 16.913,13.766 L20.538,6.779 C20.68,6.545 20.854,6.359 21.054,6.213 C21.254,6.073 21.491,6 21.754,6 L24.053,6 L19.539,14.218 C19.339,14.556 19.112,14.831 18.859,15.044 C18.6062189,15.2541894 18.3180636,15.417737 18.008,15.527 C18.492,15.652 18.897,15.855 19.228,16.14 C19.554,16.42 19.865,16.816 20.154,17.325 L24.5,26 L21.97,26 C21.459,26 21.048,25.725 20.738,25.18 L17.176,17.829 C16.992,17.501 16.792,17.268 16.576,17.127 C16.361,16.987 16.087,16.904 15.761,16.883 L15.761,20.613 L13.772,20.613 L13.772,16.867 L12.31,16.867 L12.31,26 L9.5,26 L9.5,6 L12.31,6 L12.31,14.738 L13.772,14.738 L13.772,10.416 L15.761,10.416 L15.761,14.706 L15.76,14.706 Z" id="Shape" fill="#FFFFFF"></path>
        </g>
    </g>
</svg>