<?xml version="1.0" encoding="UTF-8"?>
<svg width="32px" height="32px" viewBox="0 0 32 32" version="1.1" xmlns="http://www.w3.org/2000/svg" xmlns:xlink="http://www.w3.org/1999/xlink">
    <!-- Generator: Sketch 51.2 (57519) - http://www.bohemiancoding.com/sketch -->
    <title>currency/link</title>
    <desc>Created with Sketch.</desc>
    <defs></defs>
    <g id="currency/link" stroke="none" stroke-width="1" fill="none" fill-rule="evenodd">
        <g id="link" fill-rule="nonzero">
            <circle id="Oval" fill="#01A6FB" cx="16" cy="16" r="16"></circle>
            <path d="M15,18.618 L15,21 C15,21.5522847 15.4477153,22 16,22 C16.5522847,22 17,21.5522847 17,21 L17,18.618 C17.4635548,18.2033839 17.6231748,17.5457172 17.4012585,16.9647329 C17.1793423,16.3837486 16.6219241,15.999966 16,15.999966 C15.3780759,15.999966 14.8206577,16.3837486 14.5987415,16.9647329 C14.3768252,17.5457172 14.5364452,18.2033839 15,18.618 Z M10,14 L10,12 C10,8.6862915 12.6862915,6 16,6 C19.3137085,6 22,8.6862915 22,12 L22,14 C22.5522847,14 23,14.4477153 23,15 L23,23 C23,23.5522847 22.5522847,24 22,24 L10,24 C9.44771525,24 9,23.5522847 9,23 L9,15 C9,14.4477153 9.44771525,14 10,14 Z M22,14 L12.5,14 L12.5,12.1 C12.5,10.112 14.067,8.5 16,8.5 C17.933,8.5 19.5,10.112 19.5,12.1 L19.5,14 L16,14 L22,14 Z" id="Shape" fill="#FFFFFF"></path>
        </g>
    </g>
</svg>