<?xml version="1.0" encoding="UTF-8"?>
<svg width="32px" height="32px" viewBox="0 0 32 32" version="1.1" xmlns="http://www.w3.org/2000/svg" xmlns:xlink="http://www.w3.org/1999/xlink">
    <!-- Generator: Sketch 51.2 (57519) - http://www.bohemiancoding.com/sketch -->
    <title>currency/mco</title>
    <desc>Created with Sketch.</desc>
    <defs></defs>
    <g id="currency/mco" stroke="none" stroke-width="1" fill="none" fill-rule="evenodd">
        <g id="mco" fill-rule="nonzero">
            <circle id="Oval" fill="#103F68" cx="16" cy="16" r="16"></circle>
            <path d="M15.98,5.018 L25.5,10.501 L25.5,21.501 L15.991,27 L15.914,26.981 L6.5,21.501 L6.5,10.501 L15.914,5.018 L15.98,5.018 Z M15.949,6.156 L7.5,11.076 L7.5,20.926 L15.948,25.845 L16.98,25.248 L24.5,20.923 L24.5,11.078 L16.98,6.728 L15.949,6.156 Z M8.809,16.766 L11.31,14.896 L13.521,16.308 L13.521,18.848 L15.194,20.46 L15.193,21.216 L13.581,22.726 L12.22,22.726 L8.81,16.766 L8.809,16.766 Z M16.712,21.218 L16.709,20.458 L18.376,18.848 L18.376,16.308 L20.563,14.878 L23.059,16.767 L19.666,22.709 L18.322,22.709 L16.712,21.218 Z M14.342,16.308 L13.528,14.177 L18.366,14.177 L17.568,16.308 L17.804,18.69 L15.937,18.694 L14.092,18.697 L14.342,16.308 Z M15.937,13.593 L11.339,13.591 L12.194,9.771 L19.658,9.771 L20.558,13.596 L15.937,13.593 Z" id="Shape" fill="#FFFFFF"></path>
        </g>
    </g>
</svg>