<?xml version="1.0" encoding="UTF-8"?>
<svg width="32px" height="32px" viewBox="0 0 32 32" version="1.1" xmlns="http://www.w3.org/2000/svg" xmlns:xlink="http://www.w3.org/1999/xlink">
    <!-- Generator: Sketch 51.2 (57519) - http://www.bohemiancoding.com/sketch -->
    <title>currency/mds</title>
    <desc>Created with Sketch.</desc>
    <defs></defs>
    <g id="currency/mds" stroke="none" stroke-width="1" fill="none" fill-rule="evenodd">
        <g id="mds" fill-rule="nonzero">
            <circle id="Oval" fill="#1E252C" cx="16" cy="16" r="16"></circle>
            <path d="M14.2191781,15.5890411 C13.3869682,15.5890411 12.7123288,14.9144017 12.7123288,14.0821918 C12.7123288,13.2499819 13.3869682,12.5753425 14.2191781,12.5753425 C15.051388,12.5753425 15.7260274,13.2499819 15.7260274,14.0821918 C15.7260274,14.9144017 15.051388,15.5890411 14.2191781,15.5890411 Z M17.9178082,15.5890411 C17.0855983,15.5890411 16.4109589,14.9144017 16.4109589,14.0821918 C16.4109589,13.2499819 17.0855983,12.5753425 17.9178082,12.5753425 C18.7500181,12.5753425 19.4246575,13.2499819 19.4246575,14.0821918 C19.4246575,14.9144017 18.7500181,15.5890411 17.9178082,15.5890411 Z M14.2191781,19.2876712 C13.3869682,19.2876712 12.7123288,18.6130318 12.7123288,17.7808219 C12.7123288,16.948612 13.3869682,16.2739726 14.2191781,16.2739726 C15.051388,16.2739726 15.7260274,16.948612 15.7260274,17.7808219 C15.7260274,18.6130318 15.051388,19.2876712 14.2191781,19.2876712 Z M17.9178082,19.2876712 C17.0855983,19.2876712 16.4109589,18.6130318 16.4109589,17.7808219 C16.4109589,16.948612 17.0855983,16.2739726 17.9178082,16.2739726 C18.7500181,16.2739726 19.4246575,16.948612 19.4246575,17.7808219 C19.4246575,18.6130318 18.7500181,19.2876712 17.9178082,19.2876712 Z M21.6164384,15.1780822 C21.0111948,15.1780822 20.5205479,14.6874353 20.5205479,14.0821918 C20.5205479,13.4769482 21.0111948,12.9863014 21.6164384,12.9863014 C22.2216819,12.9863014 22.7123288,13.4769482 22.7123288,14.0821918 C22.7123288,14.6874353 22.2216819,15.1780822 21.6164384,15.1780822 Z M21.6164384,18.8767123 C21.0111948,18.8767123 20.5205479,18.3860655 20.5205479,17.7808219 C20.5205479,17.1755784 21.0111948,16.6849315 21.6164384,16.6849315 C22.2216819,16.6849315 22.7123288,17.1755784 22.7123288,17.7808219 C22.7123288,18.3860655 22.2216819,18.8767123 21.6164384,18.8767123 Z M10.3835616,15.1780822 C9.77831808,15.1780822 9.28767123,14.6874353 9.28767123,14.0821918 C9.28767123,13.4769482 9.77831808,12.9863014 10.3835616,12.9863014 C10.9888052,12.9863014 11.4794521,13.4769482 11.4794521,14.0821918 C11.4794521,14.6874353 10.9888052,15.1780822 10.3835616,15.1780822 Z M10.3835616,18.8767123 C9.77831808,18.8767123 9.28767123,18.3860655 9.28767123,17.7808219 C9.28767123,17.1755784 9.77831808,16.6849315 10.3835616,16.6849315 C10.9888052,16.6849315 11.4794521,17.1755784 11.4794521,17.7808219 C11.4794521,18.3860655 10.9888052,18.8767123 10.3835616,18.8767123 Z M14.2191781,22.5753425 C13.6139345,22.5753425 13.1232877,22.0846956 13.1232877,21.4794521 C13.1232877,20.8742085 13.6139345,20.3835616 14.2191781,20.3835616 C14.8244216,20.3835616 15.3150685,20.8742085 15.3150685,21.4794521 C15.3150685,22.0846956 14.8244216,22.5753425 14.2191781,22.5753425 Z M17.9178082,22.5753425 C17.3125647,22.5753425 16.8219178,22.0846956 16.8219178,21.4794521 C16.8219178,20.8742085 17.3125647,20.3835616 17.9178082,20.3835616 C18.5230518,20.3835616 19.0136986,20.8742085 19.0136986,21.4794521 C19.0136986,22.0846956 18.5230518,22.5753425 17.9178082,22.5753425 Z M14.2191781,11.4794521 C13.6139345,11.4794521 13.1232877,10.9888052 13.1232877,10.3835616 C13.1232877,9.77831808 13.6139345,9.28767123 14.2191781,9.28767123 C14.8244216,9.28767123 15.3150685,9.77831808 15.3150685,10.3835616 C15.3150685,10.9888052 14.8244216,11.4794521 14.2191781,11.4794521 Z M17.9178082,11.4794521 C17.3125647,11.4794521 16.8219178,10.9888052 16.8219178,10.3835616 C16.8219178,9.77831808 17.3125647,9.28767123 17.9178082,9.28767123 C18.5230518,9.28767123 19.0136986,9.77831808 19.0136986,10.3835616 C19.0136986,10.9888052 18.5230518,11.4794521 17.9178082,11.4794521 Z M14.2191781,7.36986301 C13.8409009,7.36986301 13.5342466,7.06320873 13.5342466,6.68493151 C13.5342466,6.30665428 13.8409009,6 14.2191781,6 C14.5974553,6 14.9041096,6.30665428 14.9041096,6.68493151 C14.9041096,7.06320873 14.5974553,7.36986301 14.2191781,7.36986301 Z M17.9178082,7.36986301 C17.539531,7.36986301 17.2328767,7.06320873 17.2328767,6.68493151 C17.2328767,6.30665428 17.539531,6 17.9178082,6 C18.2960854,6 18.6027397,6.30665428 18.6027397,6.68493151 C18.6027397,7.06320873 18.2960854,7.36986301 17.9178082,7.36986301 Z M25.3150685,14.7671233 C24.9367913,14.7671233 24.630137,14.460469 24.630137,14.0821918 C24.630137,13.7039146 24.9367913,13.3972603 25.3150685,13.3972603 C25.6933457,13.3972603 26,13.7039146 26,14.0821918 C26,14.460469 25.6933457,14.7671233 25.3150685,14.7671233 Z M25.3150685,18.4657534 C24.9367913,18.4657534 24.630137,18.1590991 24.630137,17.7808219 C24.630137,17.4025447 24.9367913,17.0958904 25.3150685,17.0958904 C25.6933457,17.0958904 26,17.4025447 26,17.7808219 C26,18.1590991 25.6933457,18.4657534 25.3150685,18.4657534 Z M6.68493151,14.7671233 C6.30665428,14.7671233 6,14.460469 6,14.0821918 C6,13.7039146 6.30665428,13.3972603 6.68493151,13.3972603 C7.06320873,13.3972603 7.36986301,13.7039146 7.36986301,14.0821918 C7.36986301,14.460469 7.06320873,14.7671233 6.68493151,14.7671233 Z M6.68493151,18.4657534 C6.30665428,18.4657534 6,18.1590991 6,17.7808219 C6,17.4025447 6.30665428,17.0958904 6.68493151,17.0958904 C7.06320873,17.0958904 7.36986301,17.4025447 7.36986301,17.7808219 C7.36986301,18.1590991 7.06320873,18.4657534 6.68493151,18.4657534 Z M14.2191781,26 C13.8409009,26 13.5342466,25.6933457 13.5342466,25.3150685 C13.5342466,24.9367913 13.8409009,24.630137 14.2191781,24.630137 C14.5974553,24.630137 14.9041096,24.9367913 14.9041096,25.3150685 C14.9041096,25.6933457 14.5974553,26 14.2191781,26 Z M17.9178082,26 C17.539531,26 17.2328767,25.6933457 17.2328767,25.3150685 C17.2328767,24.9367913 17.539531,24.630137 17.9178082,24.630137 C18.2960854,24.630137 18.6027397,24.9367913 18.6027397,25.3150685 C18.6027397,25.6933457 18.2960854,26 17.9178082,26 Z" id="Shape" fill="#FFFFFF"></path>
        </g>
    </g>
</svg>