<?xml version="1.0" encoding="UTF-8"?>
<svg width="32px" height="32px" viewBox="0 0 32 32" version="1.1" xmlns="http://www.w3.org/2000/svg" xmlns:xlink="http://www.w3.org/1999/xlink">
    <!-- Generator: Sketch 51.2 (57519) - http://www.bohemiancoding.com/sketch -->
    <title>currency/miota</title>
    <desc>Created with Sketch.</desc>
    <defs></defs>
    <g id="currency/miota" stroke="none" stroke-width="1" fill="none" fill-rule="evenodd">
        <g id="miota" fill-rule="nonzero">
            <circle id="Oval" fill="#242424" cx="16" cy="16" r="16"></circle>
            <path d="M22.257,6.77 C22.257,7.471 21.687,8.04 20.983,8.04 C20.6456445,8.04053085 20.3218954,7.90702579 20.0829739,7.6688545 C19.8440525,7.43068321 19.70953,7.1073555 19.709,6.77 C19.709,6.068 20.279,5.5 20.983,5.5 C21.687,5.5 22.257,6.068 22.257,6.77 Z M21.339,11.194 C20.743,11.194 20.259,10.712 20.259,10.118 C20.259,9.524 20.743,9.043 21.339,9.043 C21.935,9.043 22.418,9.524 22.418,10.118 C22.418,10.712 21.935,11.194 21.338,11.194 L21.339,11.194 Z M21.004,13.847 C20.7623067,13.8475312 20.5303305,13.751891 20.3592395,13.5811753 C20.1881486,13.4104596 20.0919994,13.1786939 20.092,12.937 C20.0922648,12.6954794 20.1885312,12.4639708 20.3595932,12.2934714 C20.5306553,12.1229721 20.7624798,12.027469 21.004,12.028 C21.2456933,12.0274688 21.4776695,12.123109 21.6487605,12.2938247 C21.8198514,12.4645404 21.9160006,12.6963061 21.916,12.938 C21.9157352,13.1795206 21.8194688,13.4110292 21.6484068,13.5815286 C21.4773447,13.7520279 21.2455202,13.847531 21.004,13.847 Z M20.95,15.219 C20.95,15.6497821 20.6007821,15.999 20.17,15.999 C19.7392179,15.999 19.39,15.6497821 19.39,15.219 C19.39,14.7882179 19.7392179,14.439 20.17,14.439 C20.6007821,14.439 20.95,14.7882179 20.95,15.219 Z M19.716,16.943 C19.716,17.313 19.416,17.61 19.047,17.61 C18.6782061,17.6088954 18.380083,17.3091312 18.3810028,16.9403368 C18.3819227,16.5715424 18.6815375,16.2732692 19.0503323,16.2740043 C19.4191272,16.2747395 19.7175504,16.5742049 19.717,16.943 L19.716,16.943 Z M18.366,18.166 C18.366,18.4830114 18.1090114,18.74 17.792,18.74 C17.4749886,18.74 17.218,18.4830114 17.218,18.166 C17.218,17.8489886 17.4749886,17.592 17.792,17.592 C18.1090114,17.592 18.366,17.8489886 18.366,18.166 Z M25.24,10.757 C25.0861556,11.3186619 24.5160225,11.6584093 23.9488262,11.526422 C23.38163,11.3944346 23.0200675,10.8378803 23.13,10.266 C23.2655859,9.68333959 23.8478396,9.32091409 24.4305,9.4565 C25.0131604,9.59208591 25.3755859,10.1743396 25.24,10.757 Z M24.722,13.56 C24.6068486,14.0531903 24.1136903,14.3596514 23.6205,14.2445 C23.1273097,14.1293486 22.8208486,13.6361903 22.936,13.143 C23.0511514,12.6498097 23.5443097,12.3433487 24.0375,12.4585 C24.5306903,12.5736514 24.8371513,13.0668097 24.722,13.56 Z M23.758,15.797 C23.6607979,16.213975 23.243975,16.4732021 22.827,16.376 C22.410025,16.2787979 22.1507979,15.861975 22.248,15.445 C22.3600423,15.0451589 22.7669898,14.8043748 23.1713899,14.8986455 C23.57579,14.9929163 23.8343151,15.3888304 23.758,15.797 Z M22.516,17.5 C22.4192142,17.8401008 22.0725539,18.0443923 21.7281404,17.9642962 C21.3837269,17.8842 21.1627838,17.5479077 21.226,17.2 C21.2659359,17.0291355 21.3721709,16.8811614 21.5212946,16.7886859 C21.6704182,16.6962105 21.8501919,16.6668232 22.021,16.707 C22.1919404,16.7462736 22.340218,16.8519732 22.4330922,17.0007596 C22.5259665,17.149546 22.5557981,17.329181 22.516,17.5 Z M21.159,18.689 C21.1125555,18.8869251 20.9640472,19.0450376 20.7694167,19.1037781 C20.5747862,19.1625185 20.3636026,19.1129628 20.2154167,18.9737781 C20.0672308,18.8345934 20.0045555,18.6269251 20.051,18.429 C20.122797,18.1230342 20.4290342,17.933203 20.735,18.005 C21.0409658,18.076797 21.230797,18.3830342 21.159,18.689 Z M19.804,19.44 C19.728018,19.6856791 19.4750389,19.8308201 19.2245977,19.7724189 C18.9741565,19.7140177 18.8114726,19.4719469 18.852,19.218 C18.927982,18.9723209 19.1809611,18.8271799 19.4314023,18.8855811 C19.6818435,18.9439823 19.8445274,19.1860531 19.804,19.44 Z M26.908,14.584 C26.6853077,15.0416722 26.1341554,15.2326966 25.676,15.011 C25.455657,14.9054412 25.2865495,14.7163154 25.206197,14.4855836 C25.1258445,14.2548517 25.1408916,14.0015939 25.248,13.782 C25.47068,13.3249009 26.0210978,13.1339762 26.479,13.355 C26.937,13.577 27.129,14.127 26.908,14.584 Z M25.947,16.799 C25.7483426,17.1694987 25.2930679,17.3177269 24.9143589,17.1352068 C24.5356499,16.9526868 24.3679559,16.5042168 24.534,16.118 C24.7242691,15.7296506 25.1919673,15.5672058 25.582,15.754 C25.7694896,15.8436194 25.9134663,16.0043498 25.9819901,16.2005346 C26.050514,16.3967193 26.0379193,16.6121373 25.947,16.799 Z M24.739,18.479 C24.5747438,18.8150145 24.1699622,18.955303 23.833,18.793 C23.6714927,18.7153024 23.5475818,18.5764783 23.4886591,18.4072162 C23.4297364,18.2379541 23.4406545,18.0521941 23.519,17.891 C23.6908029,17.5711336 24.0840971,17.4433873 24.4110703,17.6012457 C24.7380436,17.7591041 24.8826205,18.1465275 24.739,18.48 L24.739,18.479 Z M23.393,19.667 C23.2503381,19.9577532 22.8999701,20.0791546 22.608,19.939 C22.413475,19.8510625 22.2820266,19.6644501 22.2647309,19.4516736 C22.2474352,19.2388971 22.3470192,19.033505 22.5247882,18.9153054 C22.7025572,18.7971057 22.9304823,18.784735 23.12,18.883 C23.2601707,18.9507587 23.3676816,19.0714271 23.4188795,19.2184571 C23.4700775,19.3654872 23.4607683,19.5268339 23.393,19.667 Z M22.038,20.399 C21.9102608,20.6357505 21.6188534,20.7300865 21.3766039,20.6131108 C21.1343545,20.4961351 21.027024,20.2092593 21.133,19.962 C21.2654463,19.7345035 21.5506637,19.6472554 21.7877167,19.7617218 C22.0247696,19.8761882 22.1338018,20.1538089 22.038,20.399 Z M20.765,20.768 C20.6617522,20.9794887 20.4071227,21.0679389 20.195,20.966 C20.0581673,20.8995486 19.96718,20.7651456 19.9563123,20.6134193 C19.9454445,20.461693 20.0163473,20.3156942 20.1423123,20.2304193 C20.2682772,20.1451444 20.4301673,20.1335486 20.567,20.2 C20.6686421,20.2489958 20.7466284,20.3363997 20.7837698,20.4429465 C20.8209111,20.5494933 20.8141584,20.6664364 20.765,20.768 Z M21.801,25.624 C21.5083874,25.4566882 21.2945047,25.1796752 21.2066739,24.8542507 C21.118843,24.5288261 21.1643045,24.1818171 21.333,23.89 C21.6859901,23.2823763 22.4635766,23.0741262 23.073,23.424 C23.683,23.774 23.893,24.551 23.542,25.158 C23.1893704,25.7660946 22.4113465,25.9744619 21.802,25.624 L21.801,25.624 Z M18.811,24.092 C18.5631797,23.9504416 18.3820376,23.7159058 18.3077063,23.4403544 C18.233375,23.1648031 18.2719914,22.8709863 18.415,22.624 C18.7136347,22.1094093 19.3719628,21.9328719 19.888,22.229 C20.404,22.525 20.581,23.183 20.284,23.697 C19.9857263,24.2120619 19.3269604,24.3887167 18.811,24.092 Z M16.609,22.252 C16.3992772,22.1320285 16.246018,21.9334182 16.1831444,21.7001292 C16.1202709,21.4668403 16.1529685,21.2181129 16.274,21.009 C16.52685,20.5739275 17.0838139,20.425076 17.52,20.676 C17.7291111,20.7957736 17.881961,20.9938409 17.9448122,21.2264842 C18.0076634,21.4591275 17.9753485,21.7072192 17.855,21.916 C17.6035382,22.3526335 17.0458936,22.5030096 16.609,22.252 Z M15.108,20.278 C14.8675603,20.1388451 14.7196231,19.8819875 14.7199149,19.6041831 C14.7202068,19.3263787 14.8686833,19.0698326 15.1094149,18.9311831 C15.3501465,18.7925337 15.6465603,18.7928451 15.887,18.932 C16.259,19.146 16.387,19.621 16.172,19.992 C15.9568224,20.364351 15.4808642,20.4922872 15.108,20.278 Z M14.225,18.352 C14.0713189,18.2640526 13.958986,18.1185273 13.9128255,17.9475834 C13.866665,17.7766394 13.8904772,17.5943504 13.979,17.441 C14.1644522,17.1212449 14.5735813,17.0116966 14.894,17.196 C15.214,17.38 15.324,17.788 15.14,18.106 C14.9552527,18.4265909 14.545603,18.5367262 14.225,18.352 Z M13.836,16.575 C13.7040693,16.4992494 13.6077495,16.3740633 13.5683408,16.2271251 C13.5289321,16.0801869 13.5496813,15.923603 13.626,15.792 C13.7852587,15.5184978 14.1353538,15.4247223 14.41,15.582 C14.5873824,15.6845352 14.6965886,15.873914 14.6964816,16.0787993 C14.6963747,16.2836845 14.5869709,16.4729493 14.4094816,16.5752993 C14.2319923,16.6776493 14.0133824,16.6775352 13.836,16.575 Z M17.586,26.501 C17.2991278,26.5015309 17.0238088,26.3880118 16.820678,26.1854437 C16.6175472,25.9828756 16.5032649,25.7078726 16.503,25.421 C16.503,24.825 16.987,24.342 17.586,24.342 C18.184,24.342 18.669,24.825 18.669,25.422 C18.669,26.018 18.184,26.501 17.586,26.501 Z M14.668,24.363 C14.490464,24.1976622 14.3861201,23.968402 14.3780503,23.7259345 C14.3699806,23.4834669 14.4588501,23.2477763 14.625,23.071 C14.9721471,22.7025476 15.5517424,22.6837789 15.922,23.029 C16.292,23.374 16.31,23.952 15.964,24.321 C15.6169572,24.6887953 15.0381282,24.7075537 14.668,24.363 Z M13.203,22.415 C13.0531129,22.2748753 12.9651747,22.0808459 12.9586076,21.8757655 C12.9520405,21.6706852 13.0273849,21.4714271 13.168,21.322 C13.4611021,21.0102712 13.9510732,20.9941772 14.264,21.286 C14.4145108,21.4257088 14.5029782,21.619752 14.5097384,21.824999 C14.5164986,22.0302461 14.4409914,22.22969 14.3,22.379 C14.0065501,22.6908465 13.516264,22.7069361 13.203,22.415 Z M12.344,20.491 C12.2157972,20.3715424 12.1405387,20.205882 12.1349071,20.0307409 C12.1292756,19.8555999 12.1937362,19.6854469 12.314,19.558 C12.564,19.292 12.983,19.278 13.25,19.527 C13.3781601,19.6466343 13.4534544,19.8123444 13.4592702,19.9875687 C13.465086,20.1627929 13.4009453,20.333131 13.281,20.461 C13.0302686,20.7274314 12.6112611,20.7408468 12.344,20.491 Z M11.988,18.727 C11.8781664,18.6243242 11.8136986,18.482167 11.8088209,18.3318941 C11.8039431,18.1816211 11.8590562,18.0355825 11.962,17.926 C12.176952,17.696499 12.5371533,17.6844177 12.767,17.899 C12.997,18.113 13.007,18.472 12.793,18.701 C12.5777665,18.9302121 12.2175758,18.9418456 11.988,18.727 Z M12.012,17.181 C11.9172895,17.0930608 11.861595,16.9709574 11.8572769,16.841788 C11.8529587,16.7126186 11.9003741,16.5870681 11.989,16.493 C12.1740188,16.2967299 12.4828709,16.2868967 12.68,16.471 C12.8509993,16.659965 12.8481999,16.9485776 12.6735673,17.1341901 C12.4989348,17.3198026 12.2110283,17.3401737 12.012,17.181 Z M12.687,25.741 C12.5496674,25.5394104 12.4982111,25.2914528 12.54399,25.0518638 C12.5897689,24.8122748 12.7290188,24.6007559 12.931,24.464 C13.3522807,24.177875 13.9256478,24.2865553 14.213,24.707 C14.3505485,24.9083491 14.402137,25.1562318 14.3563379,25.3957386 C14.3105388,25.6352454 14.1711327,25.8466056 13.969,25.983 C13.5478581,26.268744 12.9749947,26.160606 12.687,25.741 Z M11.241,23.805 C11.1236554,23.6336063 11.0795203,23.4224872 11.1183777,23.218439 C11.157235,23.0143908 11.275875,22.8342693 11.448,22.718 C11.8061963,22.4754084 12.293042,22.5674178 12.538,22.924 C12.6553446,23.0953937 12.6994797,23.3065128 12.6606223,23.510561 C12.621765,23.7146092 12.503125,23.8947307 12.331,24.011 C11.9729239,24.2541713 11.4856345,24.162078 11.241,23.805 Z M10.383,21.922 C10.282022,21.7739781 10.2441418,21.5918399 10.2777297,21.4158317 C10.3113176,21.2398235 10.4136087,21.0844343 10.562,20.984 C10.872,20.774 11.293,20.854 11.504,21.162 C11.605518,21.3102936 11.6436089,21.492989 11.6098098,21.6694955 C11.5760107,21.846002 11.4731209,22.001701 11.324,22.102 C11.0141397,22.3106622 10.5939746,22.2302905 10.383,21.922 Z M10.023,20.168 C9.93531352,20.0394211 9.90237693,19.8812422 9.93145454,19.7283502 C9.96053215,19.5754583 10.0492353,19.4404133 10.178,19.353 C10.4468433,19.1706721 10.8124957,19.2399583 10.996,19.508 C11.0841246,19.6365348 11.1172198,19.7949603 11.0879216,19.9480249 C11.0586233,20.1010894 10.9693622,20.2360946 10.84,20.323 C10.5713498,20.5046491 10.2064532,20.4354215 10.023,20.168 Z M10.063,18.632 C9.98796468,18.5222762 9.95970966,18.3871898 9.98447845,18.2565907 C10.0092472,18.1259917 10.0850008,18.010631 10.195,17.936 C10.4245955,17.7800084 10.7371025,17.8390226 10.894,18.068 C11.0306727,18.2967963 10.9651668,18.5924818 10.74465,18.7421466 C10.5241333,18.8918114 10.2251568,18.8435003 10.063,18.632 Z M10.377,17.349 C10.286496,17.2229637 10.2714858,17.0577511 10.3377936,16.9174678 C10.4041013,16.7771845 10.54129,16.6839118 10.6961276,16.6738413 C10.8509653,16.6637707 10.9990798,16.7384875 11.083,16.869 C11.2082373,17.0637689 11.1554118,17.3228644 10.9639199,17.4530572 C10.772428,17.58325 10.5120626,17.5370888 10.377,17.349 Z M5.637,15.807 C6.24634651,15.4565381 7.02437037,15.6649054 7.377,16.273 C7.54550579,16.5647582 7.59096759,16.9115837 7.50334966,17.2369145 C7.41573173,17.5622453 7.20223893,17.8393293 6.91,18.007 C6.3,18.357 5.522,18.148 5.171,17.542 C5.00209338,17.2502734 4.95630139,16.903297 5.0437423,16.5777391 C5.1311832,16.2521813 5.34465907,15.9748411 5.637,15.807 Z M8.467,13.997 C8.98266088,13.6992673 9.64201376,13.8750649 9.941,14.39 C10.238,14.905 10.061,15.562 9.545,15.859 C9.02914739,16.1547107 8.37133481,15.9787581 8.072,15.465 C7.92886309,15.2179828 7.89006841,14.9241072 7.96420125,14.6484081 C8.0383341,14.372709 8.21928161,14.13792 8.467,13.996 L8.467,13.997 Z M11.168,13.02 C11.6042629,12.7696629 12.1607907,12.9183978 12.414,13.353 C12.534571,13.5621163 12.5671177,13.8105692 12.5044782,14.0436856 C12.4418387,14.2768021 12.2891458,14.4754802 12.08,14.596 C11.6434762,14.8461679 11.0868686,14.6969649 10.834,14.262 C10.7132045,14.0530983 10.6805331,13.804705 10.7432005,13.5716723 C10.8058679,13.3386395 10.958719,13.1401371 11.168,13.02 Z M13.635,12.714 C14.0076027,12.4995447 14.4834803,12.627012 14.699,12.999 C14.8020837,13.1772864 14.8299676,13.3892703 14.7764953,13.5881497 C14.723023,13.787029 14.5925924,13.9564473 14.414,14.059 C14.2348619,14.1626347 14.0218812,14.1908292 13.8219478,14.137376 C13.6220143,14.0839229 13.4515197,13.9532046 13.348,13.774 C13.2450811,13.5954708 13.2175013,13.3833036 13.2713567,13.1843952 C13.3252121,12.9854867 13.4560678,12.8162167 13.635,12.714 Z M15.749,12.918 C16.0691179,12.733786 16.4779384,12.8433713 16.663,13.163 C16.8238011,13.4807721 16.707898,13.8688133 16.3991575,14.0463391 C16.090417,14.2238649 15.6967448,14.1288295 15.503,13.83 C15.4141586,13.6765599 15.390168,13.4940282 15.4363431,13.3228425 C15.4825182,13.1516569 15.5950469,13.0059495 15.749,12.918 Z M17.487,13.472 C17.7619468,13.3146314 18.1123521,13.4083704 18.272,13.682 C18.3485917,13.8135397 18.3694935,13.9702156 18.3300634,14.1172335 C18.2906333,14.2642513 18.1941355,14.3894408 18.062,14.465 C17.8846176,14.5677139 17.6659124,14.567993 17.4882684,14.4657323 C17.3106244,14.3634716 17.20103,14.1742069 17.2007684,13.9692323 C17.2005067,13.7642577 17.3096176,13.5747139 17.487,13.472 Z M7.614,11.24 C8.18608114,11.0674492 8.78990944,11.3903855 8.964,11.962 C9.10022626,12.5217483 8.7748296,13.0902757 8.22319279,13.2563256 C7.67155598,13.4223754 7.08639553,13.1279376 6.891,12.586 C6.717,12.014 7.041,11.412 7.614,11.24 Z M10.308,10.287 C10.7832214,10.1638629 11.2709356,10.4376895 11.4132303,10.9075303 C11.5555249,11.377371 11.3016882,11.8757816 10.838,12.037 C10.3547508,12.1833555 9.84435546,11.9102492 9.698,11.427 C9.55164454,10.9437508 9.82475084,10.4333555 10.308,10.287 Z M12.734,10 C13.1426907,9.87656436 13.5740644,10.1078093 13.6975,10.5165 C13.8209356,10.9251907 13.5896907,11.3565644 13.181,11.48 C12.7723093,11.6034356 12.3409356,11.3721907 12.2175,10.9635 C12.0940644,10.5548093 12.3253093,10.1234356 12.734,10 Z M14.834,10.223 C15.1833201,10.1175136 15.5520136,10.3151799 15.6575,10.6645 C15.7629864,11.0138201 15.5653201,11.3825136 15.216,11.488 C14.866198,11.5930579 14.4973102,11.3954234 14.391,11.046 C14.3403976,10.8779832 14.3587852,10.6967321 14.4420992,10.5423008 C14.5254133,10.3878696 14.6667947,10.2729723 14.835,10.223 L14.834,10.223 Z M16.544,10.8 C16.8374362,10.7278511 17.1359925,10.8980779 17.2233595,11.1873481 C17.3107266,11.4766184 17.1563156,11.783653 16.872,11.886 C16.6780048,11.9445916 16.4674876,11.8952372 16.3197482,11.7565282 C16.1720088,11.6178192 16.1094923,11.4108287 16.1557482,11.2135282 C16.202004,11.0162276 16.3500048,10.8585915 16.544,10.8 Z M17.874,11.595 C18.0404858,11.5444469 18.2212947,11.586553 18.3483179,11.7054574 C18.475341,11.8243618 18.5292805,12.002 18.4898179,12.1714574 C18.4503552,12.3409149 18.3234858,12.4764469 18.157,12.527 C17.8996353,12.6051483 17.6276483,12.4598647 17.5495,12.2025 C17.4713517,11.9451353 17.6166353,11.6731483 17.874,11.595 Z M10.104,7.888 C10.3478312,7.86926945 10.5890865,7.94838842 10.7744707,8.10787881 C10.9598548,8.26736921 11.0741113,8.49410564 11.092,8.738 C11.1290031,9.24610196 10.747102,9.6879969 10.239,9.72499997 C9.73089804,9.76200305 9.28900309,9.38010196 9.252,8.872 C9.23440291,8.62834683 9.314433,8.38769874 9.47444596,8.20311169 C9.63445892,8.01852464 9.86131536,7.9051559 10.105,7.888 L10.104,7.888 Z M12.511,7.61 C12.9282912,7.60045083 13.2797113,7.91991625 13.3098671,8.33622597 C13.3400229,8.75253569 13.0383112,9.1193113 12.624,9.17 C12.3371609,9.20509319 12.0543109,9.07934431 11.8882005,8.84287968 C11.72209,8.60641504 11.6997266,8.29768094 11.8300248,8.03974568 C11.9603229,7.78181041 12.2220978,7.61661115 12.511,7.61 Z M14.575,7.814 C14.9330835,7.80952377 15.2327139,8.08468975 15.2586802,8.44185856 C15.2846464,8.79902738 15.0279656,9.11463735 14.673,9.162 C14.306796,9.17922079 13.9936079,8.90140595 13.9670255,8.53576224 C13.9404431,8.17011853 14.2101559,7.84992662 14.575,7.814 Z M16.278,8.382 C16.5929977,8.37159913 16.8599918,8.61180614 16.8828285,8.92614707 C16.9056653,9.240488 16.6761934,9.51676305 16.363,9.552 C16.1491002,9.57606557 15.939185,9.48112898 15.8160004,9.30461308 C15.6928159,9.12809719 15.6761225,8.89831755 15.7725006,8.70585052 C15.8688787,8.51338349 16.0628679,8.38910342 16.278,8.382 Z" id="Shape" fill="#FFFFFF"></path>
        </g>
    </g>
</svg>