<?xml version="1.0" encoding="UTF-8"?>
<svg width="32px" height="32px" viewBox="0 0 32 32" version="1.1" xmlns="http://www.w3.org/2000/svg" xmlns:xlink="http://www.w3.org/1999/xlink">
    <!-- Generator: Sketch 51.2 (57519) - http://www.bohemiancoding.com/sketch -->
    <title>currency/mln</title>
    <desc>Created with Sketch.</desc>
    <defs></defs>
    <g id="currency/mln" stroke="none" stroke-width="1" fill="none" fill-rule="evenodd">
        <g id="mln" fill-rule="nonzero">
            <circle id="Oval" fill="#0B1529" cx="16" cy="16" r="16"></circle>
            <path d="M8.627,20.124 L13.899,23.216 L13.899,24.945 L7,20.885 L7,10.295 L16,5 L25,10.295 L25,20.885 L18.101,24.945 L18.101,23.215 L23.372,20.124 L22.012,19.338 L22.19,19.029 L23.533,19.805 L23.533,11.953 L16.713,15.995 L16.713,27.555 L16,28 L15.286,27.555 L15.286,15.995 L8.467,11.953 L8.467,19.804 L9.809,19.029 L9.987,19.339 L8.627,20.124 Z M15.802,6.814 L9.18,10.699 L16,14.742 L22.82,10.699 L16.159,6.791 L16.159,8.395 L15.802,8.395 L15.802,6.814 Z M15.802,9.406 L16.159,9.406 L16.159,11.063 L15.802,11.063 L15.802,9.406 Z M15.802,12.074 L16.159,12.074 L16.159,13.731 L15.98,13.812 L15.802,13.732 L15.802,12.074 Z M21.362,18.524 L21.184,18.834 L19.748,18.004 L19.927,17.695 L21.362,18.525 L21.362,18.524 Z M19.097,17.19 L18.918,17.5 L17.483,16.67 L17.503,16.476 L17.661,16.362 L19.097,17.19 Z M10.637,18.524 L12.072,17.695 L12.251,18.005 L10.816,18.833 L10.637,18.524 Z M12.903,17.19 L14.338,16.362 L14.498,16.476 L14.516,16.671 L13.081,17.499 L12.903,17.19 Z" id="Shape" fill="#FFFFFF"></path>
        </g>
    </g>
</svg>