<?xml version="1.0" encoding="UTF-8"?>
<svg width="32px" height="32px" viewBox="0 0 32 32" version="1.1" xmlns="http://www.w3.org/2000/svg" xmlns:xlink="http://www.w3.org/1999/xlink">
    <!-- Generator: Sketch 51.2 (57519) - http://www.bohemiancoding.com/sketch -->
    <title>currency/music</title>
    <desc>Created with Sketch.</desc>
    <defs></defs>
    <g id="currency/music" stroke="none" stroke-width="1" fill="none" fill-rule="evenodd">
        <g id="music" fill-rule="nonzero">
            <circle id="Oval" fill="#FFFFFF" cx="16" cy="16" r="16"></circle>
            <path d="M18.65,0.226 C17.7744695,0.0772534077 16.8880746,0.00165897843 16,-1.77635684e-15 C7.16,3.94430453e-31 0,7.16 0,16 C0,19.394 1.067,22.53 2.86,25.131 C3.96,23.515 6.497,22.4 9.438,22.4 C11.458,22.4 13.285,22.933 14.594,23.79 L18.65,0.226 Z M27.152,4.541 C29.915,10.651 27.491,13.915 27.491,13.915 C25.616,8.275 20.186,7.451 20.186,7.451 C20.186,7.451 16.614,26.699 16.614,26.941 C16.614,29.026 14.4,30.788 11.394,31.321 C12.848,31.758 14.4,32 16,32 C24.84,32 32,24.84 32,16 C32,11.507 30.141,7.45 27.152,4.541 Z" id="Shape" fill="#FBBF02"></path>
        </g>
    </g>
</svg>