<?xml version="1.0" encoding="UTF-8"?>
<svg width="32px" height="32px" viewBox="0 0 32 32" version="1.1" xmlns="http://www.w3.org/2000/svg" xmlns:xlink="http://www.w3.org/1999/xlink">
    <!-- Generator: Sketch 51.2 (57519) - http://www.bohemiancoding.com/sketch -->
    <title>currency/nas</title>
    <desc>Created with Sketch.</desc>
    <defs></defs>
    <g id="currency/nas" stroke="none" stroke-width="1" fill="none" fill-rule="evenodd">
        <g id="nas" fill-rule="nonzero">
            <circle id="Oval" fill="#222222" cx="16" cy="16" r="16"></circle>
            <path d="M12.73,18.655 L15.876,25.037 L17.492,20.264 L12.731,18.655 M6.977,15.886 L11.741,17.503 L13.359,12.733 L6.977,15.886 M13.008,17.91 C13.083,17.95 13.114,17.974 13.149,17.986 C14.685,18.508 16.219,19.034 17.759,19.543 C17.884,19.583 18.062,19.549 18.185,19.489 C19.946,18.63 21.702,17.761 23.458,16.894 C23.958,16.647 24.456,16.397 25.001,16.125 C24.881,16.079 24.819,16.053 24.754,16.031 C23.267,15.526 21.78,15.018 20.288,14.527 C20.1304238,14.4805562 19.9615155,14.4911793 19.811,14.557 C17.939,15.467 16.074,16.392 14.208,17.313 C13.819,17.505 13.432,17.699 13.008,17.91 M19.507,13.845 C18.377,11.551 17.261,9.291 16.117,6.97 L12.637,17.237 L19.507,13.845 M5,16.002 C6.094,15.461 7.126,14.947 8.16,14.437 C9.918,13.57 11.676,12.702 13.437,11.841 C13.6135745,11.7636033 13.7468426,11.6120291 13.801,11.427 C14.489,9.374 15.187,7.325 15.883,5.275 C15.909,5.199 15.94,5.125 15.988,5 C16.058,5.136 16.11,5.232 16.158,5.329 C17.503,8.059 18.846,10.789 20.202,13.513 C20.268,13.645 20.442,13.755 20.591,13.806 C22.627,14.508 24.667,15.198 26.706,15.891 C26.783,15.917 26.859,15.945 27,15.995 C26.812,16.09 26.673,16.163 26.533,16.232 C23.905,17.529 21.278,18.829 18.646,20.117 C18.4056347,20.2223927 18.2248567,20.4295724 18.153,20.682 C17.474,22.716 16.778,24.744 16.087,26.774 C16.068,26.83 16.045,26.884 16,27 C15.823,26.645 15.67,26.342 15.52,26.038 C14.296,23.556 13.071,21.074 11.854,18.588 C11.7701677,18.3923874 11.6038768,18.2440442 11.4,18.183 C9.358,17.5 7.32,16.803 5.281,16.11 C5.206,16.084 5.133,16.053 5,16.002" id="Shape" fill="#FFFFFF"></path>
        </g>
    </g>
</svg>