<?xml version="1.0" encoding="UTF-8"?>
<svg width="32px" height="32px" viewBox="0 0 32 32" version="1.1" xmlns="http://www.w3.org/2000/svg" xmlns:xlink="http://www.w3.org/1999/xlink">
    <!-- Generator: Sketch 51.2 (57519) - http://www.bohemiancoding.com/sketch -->
    <title>currency/ncash</title>
    <desc>Created with Sketch.</desc>
    <defs></defs>
    <g id="currency/ncash" stroke="none" stroke-width="1" fill="none" fill-rule="evenodd">
        <g id="ncash" fill-rule="nonzero">
            <circle id="Oval" fill="#36A9CF" cx="16" cy="16" r="16"></circle>
            <path d="M26.3105819,18.4746297 C26.486347,18.552196 26.5512825,18.7913795 26.4563205,19.0091138 C26.3867468,19.1692346 26.2485758,19.2729888 26.1108931,19.286457 L23.885755,23.3894893 C23.9299404,23.5506077 23.8725726,23.7511328 23.7241487,23.8977854 C23.5979395,24.0227395 23.4365773,24.0798542 23.2949887,24.0651391 L18.9562745,26.6629863 C18.9037891,26.8201142 18.7482858,26.9515529 18.5466441,26.9892137 C18.33182,27.0301168 18.1279812,26.9515529 18.0303339,26.8066461 L12.9324119,26.4502402 C12.8201174,26.5417734 12.6531405,26.5821777 12.4805489,26.5437687 C12.2291071,26.4888986 12.0550508,26.2883736 12.0650596,26.080865 L8.12645527,23.2385967 C7.98096078,23.2715187 7.80568385,23.2243803 7.66678055,23.0986781 C7.49443304,22.9430467 7.43169464,22.7160842 7.4978507,22.5437424 L5.87714943,18.7866407 C5.70089604,18.7517234 5.54856623,18.578384 5.50877495,18.3481792 C5.47459839,18.1414189 5.54270739,17.9461314 5.67038125,17.8418783 L5.90864069,12.1550969 C5.80635513,12.0298934 5.77339917,11.8318625 5.83955522,11.6385703 C5.91889366,11.4063702 6.11247946,11.2584705 6.30167112,11.2699433 L10.5544557,6.81374741 C10.5173497,6.60349537 10.6774913,6.38077287 10.9282008,6.30195953 C11.1032336,6.24808712 11.2780223,6.27726801 11.397152,6.36481067 L17.5157326,5.25269461 C17.5945828,5.07237169 17.8194157,4.96662215 18.0608487,5.00952055 C18.280311,5.0484284 18.4458232,5.19882221 18.4851263,5.37315931 L21.3110395,6.985341 C21.4572663,6.93595796 21.6305903,6.95167075 21.7836525,7.04295455 C21.9484323,7.14122181 22.0504738,7.30408608 22.0700032,7.4709409 L23.2864446,8.2890034 C23.4251038,8.24535677 23.5979395,8.27403884 23.745387,8.37928956 C23.9743699,8.54315147 24.0554172,8.82897453 23.9255463,9.01852559 C23.9233492,9.02176791 23.9206639,9.02451142 23.9182227,9.02825256 L25.7012626,12.5097569 C25.871169,12.4860631 26.0454694,12.6180006 26.1072313,12.8270056 C26.174608,13.0557139 26.0806224,13.2886622 25.8985102,13.3472734 C25.7159097,13.4063834 25.5130474,13.2689588 25.4456708,13.0407493 C25.4412767,13.0237895 25.437859,13.0078273 25.4339531,12.9918651 L21.7650995,11.0257716 C21.7060229,11.1080767 21.6264403,11.1739207 21.5341636,11.2140756 L21.5341636,21.0078799 C21.7328759,21.0944249 21.8715351,21.2944512 21.8715351,21.5288959 C21.8715351,21.5705473 21.8666527,21.609954 21.8585968,21.6491112 L23.3494271,23.1667668 C23.4299862,23.1338448 23.5129864,23.1226214 23.5911042,23.1330965 L25.8411424,19.1565147 C25.7666863,19.0460264 25.7527716,18.8824139 25.8199041,18.7292766 C25.9148661,18.5112929 26.1345726,18.3975622 26.3105819,18.4746297 Z M26.3135113,18.9500038 C26.352082,18.8624611 26.325229,18.7669374 26.2554111,18.7357612 C26.1851051,18.7055827 26.0969784,18.7509752 26.05914,18.8375202 C26.0213017,18.9248135 26.04669,19.0200878 26.1179725,19.0515134 C26.1873021,19.082939 26.2751847,19.0372971 26.3135113,18.9500038 Z M23.6487161,23.7424035 C23.7287869,23.6628419 23.743434,23.5443725 23.6802074,23.478279 C23.6169808,23.4121855 23.5010246,23.4226607 23.4199773,23.5024717 C23.3406389,23.5820333 23.32648,23.7007521 23.3889743,23.7665962 C23.452445,23.8326896 23.5686453,23.8224638 23.6487161,23.7424035 Z M23.0203557,23.4924953 C23.0235292,23.4842648 23.0276792,23.4762837 23.031341,23.4680532 L21.6022726,22.0137476 C21.5190283,22.0651259 21.4218692,22.0955539 21.3166542,22.0955539 C21.0969477,22.0955539 20.9080002,21.9651128 20.8184088,21.7750629 L18.8991509,21.7750629 C18.8488625,21.8808125 18.7687917,21.9676069 18.6696797,22.0242228 L18.8556978,24.7308125 C18.9299098,24.7627369 18.9950894,24.8093764 19.0461101,24.8662417 L23.0203557,23.4924953 Z M18.852036,26.2778984 L22.3185156,24.2020648 L19.1586486,25.2944775 C19.120322,25.4516054 19.002657,25.58055 18.845689,25.6453964 L18.7499946,26.2093108 C18.7875888,26.2277671 18.8224977,26.2509622 18.852036,26.2778984 Z M18.5266264,26.8161236 C18.6364796,26.7959215 18.7124004,26.7053859 18.6960445,26.6138527 C18.6796885,26.5233171 18.5766706,26.4664518 18.4663292,26.4876516 C18.3569642,26.5073549 18.2805551,26.5978905 18.2971552,26.6894237 C18.3137552,26.7802087 18.416529,26.8368246 18.5266264,26.8161236 Z M18.0230104,26.4183158 C18.0811105,26.3165568 18.1848608,26.2325059 18.3147317,26.188111 L18.4062761,25.6531281 C18.3222994,25.6214531 18.2502845,25.5728183 18.1926726,25.5107154 L14.2147652,26.1529443 L18.0230104,26.4183158 Z M14.3016713,22.0818364 L13.0078444,25.8987962 L18.0237427,25.0892137 L14.4752394,22.0090088 C14.4222657,22.0426791 14.3644097,22.0673706 14.3016713,22.0818364 Z M12.6370287,25.6369165 L13.8705584,21.9980348 C13.7904876,21.9424166 13.725308,21.8653491 13.6833197,21.7750629 L11.4266903,21.7750629 C11.4132638,21.8027473 11.397152,21.8301824 11.3800637,21.8558715 L12.6370287,25.6369165 Z M12.4839666,26.3721751 C12.5930874,26.395869 12.6975701,26.342246 12.7161231,26.2517104 C12.7351643,26.1614242 12.6626612,26.0688934 12.5528079,26.0444513 C12.4436871,26.0210068 12.3389603,26.0743804 12.3204073,26.164916 C12.3013661,26.2557009 12.3741134,26.347733 12.4839666,26.3721751 Z M8.39669421,22.9595077 L12.2024982,25.705504 L10.9994833,22.0900669 C10.9762921,22.0933092 10.9516361,22.0955539 10.9272243,22.0955539 C10.7695239,22.0955539 10.6276912,22.0274651 10.5263821,21.9199697 L8.4032854,22.84453 C8.40621482,22.8836872 8.40377364,22.9223457 8.39669421,22.9595077 Z M8.04125799,22.3624218 C8.09301107,22.3848686 8.14329943,22.4160448 8.19065838,22.4549527 L10.3740523,21.5047032 C10.3789346,21.3927185 10.41482,21.2892136 10.4736525,21.2034168 L7.09798495,17.7144301 L8.04125799,22.3624218 Z M8.01782264,22.9709805 C8.07714338,22.9026424 8.05859039,22.7846718 7.9746137,22.7091007 C7.89063701,22.6335297 7.77443671,22.6277933 7.71413949,22.6968797 C7.65433052,22.7669637 7.67337174,22.8846849 7.75734843,22.9595077 C7.84132512,23.0350787 7.95801366,23.0408151 8.01782264,22.9709805 Z M6.22819152,18.6379928 L7.3897063,21.3311144 L6.6112131,17.4929547 L6.30411231,18.1466565 C6.30923879,18.1663598 6.31387704,18.1865619 6.31729469,18.2072629 C6.34488006,18.3716236 6.30826232,18.5282527 6.22819152,18.6379928 Z M6.19962968,14.2980216 L6.05950579,17.6500826 L6.33755651,17.0599802 C6.29752111,16.9836609 6.27481811,16.8948712 6.27481811,16.8003451 C6.27481811,16.6888591 6.30655349,16.5858531 6.36050363,16.5008045 L6.19962968,14.2980216 Z M5.99945269,11.6468008 C5.96234671,11.7550444 6.00287035,11.8672786 6.08782351,11.8979559 C6.17375315,11.9281345 6.27237693,11.8657821 6.30923879,11.7572891 C6.34634477,11.6495443 6.30655349,11.5373101 6.22086797,11.5066327 C6.13518246,11.4767036 6.03655867,11.539056 5.99945269,11.6468008 Z M6.84361371,16.8003451 C6.84361371,16.6858662 6.76110173,16.5935848 6.66101323,16.5935848 C6.55970415,16.5935848 6.47719217,16.6858662 6.47719217,16.8003451 C6.47719217,16.9150734 6.55970415,17.0071054 6.66101323,17.0071054 C6.76110173,17.0071054 6.84361371,16.9150734 6.84361371,16.8003451 Z M6.61365429,11.9139181 C6.58362774,12.0039549 6.53480408,12.0810224 6.47670393,12.14113 L6.76696057,16.1311799 L8.54609459,10.5020121 L6.64172789,11.7951993 C6.63586905,11.834606 6.62732491,11.8745115 6.61365429,11.9139181 Z M9.64047685,8.32865948 L7.20637347,10.8788695 L8.45308553,10.0326238 C8.46724439,9.92687425 8.51557981,9.81863062 8.59491825,9.72634918 C8.68084789,9.62633605 8.7892364,9.56298609 8.8973808,9.53854398 L9.64047685,8.32865948 Z M10.893536,7.12226671 L9.30725539,9.70365293 C9.34533784,9.77199108 9.36120553,9.8530491 9.35534669,9.93710003 L10.530288,10.2979953 C10.6311088,10.1919963 10.7709886,10.1264017 10.9272243,10.1264017 C11.1471749,10.1264017 11.3361224,10.2570922 11.4266903,10.4461444 L13.3940395,10.4461444 C13.4682515,10.289266 13.6108166,10.172293 13.7831641,10.1368769 L14.8526463,7.86176527 C14.7967432,7.78794012 14.7584166,7.70014805 14.7432813,7.60337724 L11.4750257,6.87909264 C11.4091138,6.97910577 11.3004812,7.06166025 11.1671926,7.1033116 C11.0736953,7.13249249 10.9789774,7.13723126 10.893536,7.12226671 Z M10.9516361,6.46856494 C10.8452006,6.50223519 10.7795327,6.60050246 10.8058975,6.68954158 C10.8325064,6.77783247 10.9406508,6.82222732 11.0473305,6.78905589 C11.1540102,6.75588445 11.2201662,6.65736778 11.1933132,6.56882748 C11.1669485,6.48003777 11.0595364,6.4353935 10.9516361,6.46856494 Z M17.1998435,5.70537249 L12.2676778,6.60274714 L14.8487404,7.17439325 C14.9498053,7.03746755 15.1099469,6.94942606 15.2903503,6.94942606 C15.3543093,6.94942606 15.4160712,6.96064948 15.4731949,6.98110104 L17.1998435,5.70537249 Z M17.8050127,5.80239271 L15.9660697,7.16167338 L21.0110181,7.30159199 C21.0146799,7.28912153 21.0188299,7.27690047 21.0222476,7.2641806 L18.34842,5.73954156 C18.2397874,5.82409131 18.0840399,5.86374739 17.9199924,5.83481591 C17.8794688,5.82783245 17.8413864,5.81660904 17.8050127,5.80239271 Z M18.0430281,5.18335883 C17.9321984,5.1639049 17.8301569,5.22126904 17.8145333,5.31305166 C17.7998863,5.40383665 17.875807,5.49387341 17.9861485,5.51332733 C18.0960017,5.53303066 18.1982873,5.4749183 18.214155,5.3836345 C18.2295344,5.2926001 18.1526372,5.20306216 18.0430281,5.18335883 Z M21.2761306,7.90840481 C21.2053363,7.86450878 21.1462596,7.80913991 21.1006095,7.74628877 L15.8379076,7.60038433 C15.8335135,7.6318099 15.8269223,7.66298606 15.8169135,7.69191754 L17.9409866,10.140618 C17.9800455,10.1313899 18.0210574,10.1264017 18.0630458,10.1264017 C18.282264,10.1264017 18.4712115,10.2570922 18.5617794,10.4461444 L20.8184088,10.4461444 C20.874556,10.3286726 20.9682974,10.2341465 21.0844977,10.1792765 L21.2761306,7.90840481 Z M21.3166542,10.4660972 C21.1945951,10.4660972 21.095483,10.5676067 21.095483,10.6925608 C21.095483,10.8175149 21.1945951,10.9185256 21.3166542,10.9185256 C21.4392016,10.9185256 21.5388018,10.8175149 21.5388018,10.6925608 C21.5388018,10.5676067 21.4392016,10.4660972 21.3166542,10.4660972 Z M21.4147897,7.26592646 C21.3598631,7.36194904 21.4006309,7.49164188 21.5070665,7.55424361 C21.6122814,7.61759357 21.7426406,7.59065737 21.7978113,7.49413597 C21.8527379,7.3983628 21.8119702,7.26916878 21.7060229,7.20556941 C21.6003196,7.14271827 21.4697164,7.16965447 21.4147897,7.26592646 Z M25.3299587,12.5838315 L21.7028493,7.99744393 L21.5200047,10.1658084 C21.7121258,10.2436241 21.8520056,10.4271893 21.869338,10.6459213 L25.3299587,12.5838315 Z M23.0367116,8.5867981 L22.2230654,8.04059174 L24.8502663,11.4602426 L23.572063,9.1744064 C23.4731951,9.16767235 23.3696889,9.13225623 23.2759475,9.06541454 C23.1050647,8.9437028 23.016938,8.75415174 23.0367116,8.5867981 Z M23.4175361,8.53018219 C23.3648066,8.60600262 23.3970302,8.72023207 23.4888187,8.78557731 C23.580363,8.85142136 23.6968074,8.84294145 23.7485605,8.76687161 C23.8012901,8.69105119 23.7690664,8.57632291 23.6775221,8.51122708 C23.5852454,8.44588185 23.4690451,8.45436176 23.4175361,8.53018219 Z M17.8462687,10.6925608 C17.8462687,10.8150208 17.9422072,10.9140363 18.0630458,10.9140363 C18.1824196,10.9140363 18.280311,10.8150208 18.280311,10.6925608 C18.280311,10.5703502 18.1824196,10.4708359 18.0630458,10.4708359 C17.9422072,10.4708359 17.8462687,10.5703502 17.8462687,10.6925608 Z M17.9658867,15.4662547 C17.8435834,15.4662547 17.7444714,15.5672655 17.7444714,15.6919702 C17.7444714,15.8169242 17.8435834,15.9186832 17.9658867,15.9186832 C18.0889223,15.9186832 18.187302,15.8169242 18.187302,15.6919702 C18.187302,15.5672655 18.0889223,15.4662547 17.9658867,15.4662547 Z M15.068935,7.44200943 C15.068935,7.56696348 15.1680471,7.66797425 15.2903503,7.66797425 C15.4126536,7.66797425 15.5122538,7.56696348 15.5122538,7.44200943 C15.5122538,7.31655655 15.4126536,7.21529637 15.2903503,7.21529637 C15.1680471,7.21529637 15.068935,7.31655655 15.068935,7.44200943 Z M15.2307855,8.07875136 L14.2167181,10.2341465 C14.3563538,10.3371525 14.4469217,10.5040074 14.4469217,10.6925608 C14.4469217,10.7975621 14.4183598,10.8958294 14.3697803,10.9801297 L17.7503302,15.1702059 C17.7810891,15.157486 17.8128245,15.1467614 17.8462687,15.1395286 L17.8462687,11.2140756 C17.6473123,11.12778 17.508409,10.9267561 17.508409,10.6925608 C17.508409,10.5855642 17.5374591,10.4855511 17.5889681,10.4002531 L15.5298304,8.02637541 C15.4561066,8.06154212 15.3757917,8.08224309 15.2903503,8.08224309 C15.2696003,8.08224309 15.2508032,8.08074664 15.2307855,8.07875136 Z M13.6706255,10.6925608 C13.6706255,10.8175149 13.7704699,10.9185256 13.8927732,10.9185256 C14.0143441,10.9185256 14.1141885,10.8175149 14.1141885,10.6925608 C14.1141885,10.5676067 14.0143441,10.4660972 13.8927732,10.4660972 C13.7704699,10.4660972 13.6706255,10.5676067 13.6706255,10.6925608 Z M10.7109355,10.6925608 C10.7109355,10.8150208 10.8071181,10.9140363 10.9272243,10.9140363 C11.0473305,10.9140363 11.1440013,10.8150208 11.1440013,10.6925608 C11.1440013,10.5703502 11.0473305,10.4708359 10.9272243,10.4708359 C10.8071181,10.4708359 10.7109355,10.5703502 10.7109355,10.6925608 Z M10.9272243,21.3029311 C10.804921,21.3029311 10.7060531,21.4039419 10.7060531,21.5288959 C10.7060531,21.65385 10.804921,21.7546114 10.9272243,21.7546114 C11.0502599,21.7546114 11.1486396,21.65385 11.1486396,21.5288959 C11.1486396,21.4039419 11.0502599,21.3029311 10.9272243,21.3029311 Z M8.73089213,9.84257391 C8.65765665,9.92886953 8.65228605,10.0478378 8.72039505,10.1091924 C8.78801581,10.1697989 8.9027514,10.1505944 8.9774516,10.0642988 C9.05117532,9.97875139 9.05581356,9.85978315 8.9881928,9.79892728 C8.92032792,9.73732319 8.80583644,9.75727593 8.73089213,9.84257391 Z M7.10579674,16.5015527 C7.15950276,16.5858531 7.19050578,16.6888591 7.19050578,16.8003451 C7.19050578,16.9103346 7.16121159,17.0118442 7.10897028,17.0951469 L10.7109355,20.8168324 L10.7109355,11.2140756 C10.5173497,11.1302741 10.3821082,10.9384784 10.3740523,10.7127629 L9.15224028,10.3376514 C9.11293724,10.3733169 9.06997242,10.4024978 9.02578702,10.4249446 L7.10579674,16.5015527 Z M18.399929,20.9627368 C18.6389208,20.9627368 18.841539,21.1168718 18.9196568,21.3316132 L20.798147,21.3316132 C20.8503883,21.186457 20.9604856,21.0684864 21.1001213,21.0078799 L21.1001213,11.2140756 C20.9604856,11.1534692 20.8503883,11.035748 20.798147,10.8895941 L18.5822853,10.8895941 C18.5285793,11.035748 18.4192143,11.1534692 18.280311,11.2140756 L18.280311,15.2248265 C18.4253173,15.3273338 18.5207675,15.4979297 18.5207675,15.6919702 C18.5207675,16.0049788 18.2722551,16.2588775 17.9658867,16.2588775 C17.6602506,16.2588775 17.4122264,16.0049788 17.4122264,15.6919702 C17.4122264,15.6218861 17.4244323,15.5545456 17.4481118,15.4924427 L14.0199588,11.2435059 C13.979191,11.2537317 13.9359821,11.2589693 13.8927732,11.2589693 C13.6545137,11.2589693 13.4518956,11.1053332 13.3732895,10.8895941 L11.446708,10.8895941 C11.393002,11.035748 11.2833929,11.1534692 11.1440013,11.2140756 L11.1440013,21.0078799 C11.2833929,21.0684864 11.393002,21.186457 11.446708,21.3316132 L13.6620814,21.3316132 C13.7155433,21.186457 13.8251524,21.0684864 13.9650322,21.0078799 L13.9650322,16.9387672 C13.8056229,16.8390035 13.6994315,16.6601771 13.6994315,16.4559108 C13.6994315,16.1431516 13.9479439,15.8892529 14.2538241,15.8892529 C14.5606808,15.8892529 14.8084608,16.1431516 14.8084608,16.4559108 C14.8084608,16.5244984 14.7957667,16.5905919 14.7733078,16.6519465 L18.2568757,20.9816919 C18.3027699,20.9702191 18.3506171,20.9627368 18.399929,20.9627368 Z M18.6408737,25.0091533 C18.5195469,25.0091533 18.4201908,25.0996888 18.4201908,25.2111748 C18.4201908,25.3226608 18.5195469,25.4124481 18.6408737,25.4124481 C18.763177,25.4124481 18.8627772,25.3226608 18.8627772,25.2111748 C18.8627772,25.0996888 18.763177,25.0091533 18.6408737,25.0091533 Z M18.1787578,21.5288959 C18.1787578,21.65385 18.2778698,21.7546114 18.399929,21.7546114 C18.5227205,21.7546114 18.6215884,21.65385 18.6215884,21.5288959 C18.6215884,21.4039419 18.5227205,21.3029311 18.399929,21.3029311 C18.2778698,21.3029311 18.1787578,21.4039419 18.1787578,21.5288959 Z M14.0321647,16.4559108 C14.0321647,16.5808649 14.1322532,16.6816263 14.2538241,16.6816263 C14.3761274,16.6816263 14.4754835,16.5808649 14.4754835,16.4559108 C14.4754835,16.330458 14.3761274,16.2296966 14.2538241,16.2296966 C14.1322532,16.2296966 14.0321647,16.330458 14.0321647,16.4559108 Z M14.1815651,21.3029311 C14.0592618,21.3029311 13.9601498,21.4039419 13.9601498,21.5288959 C13.9601498,21.65385 14.0592618,21.7546114 14.1815651,21.7546114 C14.3041125,21.7546114 14.4029804,21.65385 14.4029804,21.5288959 C14.4029804,21.4039419 14.3041125,21.3029311 14.1815651,21.3029311 Z M14.3983421,21.0078799 C14.5975426,21.0944249 14.7364459,21.2944512 14.7364459,21.5288959 C14.7364459,21.5683026 14.7325401,21.6064622 14.7244842,21.6446219 L18.3169288,24.7624875 C18.3491524,24.7435324 18.3835731,24.7278196 18.4201908,24.7150997 L18.2363697,22.0711118 C18.0108044,21.9997807 17.8462687,21.7835428 17.8462687,21.5288959 C17.8462687,21.4291322 17.8709247,21.3361026 17.9151101,21.2555434 L14.4727982,16.9761786 C14.4491187,16.9864044 14.4239746,16.9951337 14.3983421,17.0016184 L14.3983421,21.0078799 Z M21.5388018,21.5288959 C21.5388018,21.4039419 21.4392016,21.3029311 21.3166542,21.3029311 C21.1945951,21.3029311 21.095483,21.4039419 21.095483,21.5288959 C21.095483,21.65385 21.1945951,21.7546114 21.3166542,21.7546114 C21.4392016,21.7546114 21.5388018,21.65385 21.5388018,21.5288959 Z M5.82661695,18.5063047 C5.91620836,18.4910907 5.97382027,18.387087 5.95502317,18.2748528 C5.9354937,18.1618704 5.84809936,18.0828077 5.75875207,18.0990193 C5.66916066,18.1142333 5.61252522,18.2182369 5.63156644,18.3309699 C5.65036355,18.4439523 5.73751378,18.5225163 5.82661695,18.5063047 Z M25.8003747,12.7925871 C25.7276274,12.816281 25.689545,12.90956 25.7166421,13.0013427 C25.7442275,13.0923771 25.8247865,13.1474965 25.8977779,13.124052 C25.9707692,13.1006076 26.0078752,13.0073285 25.9807781,12.9157953 C25.9546574,12.8240127 25.873366,12.7696414 25.8003747,12.7925871 Z" id="Shape" fill="#FFFFFF"></path>
        </g>
    </g>
</svg>