<?xml version="1.0" encoding="UTF-8"?>
<svg width="32px" height="32px" viewBox="0 0 32 32" version="1.1" xmlns="http://www.w3.org/2000/svg" xmlns:xlink="http://www.w3.org/1999/xlink">
    <!-- Generator: Sketch 51.2 (57519) - http://www.bohemiancoding.com/sketch -->
    <title>currency/ndz</title>
    <desc>Created with Sketch.</desc>
    <defs></defs>
    <g id="currency/ndz" stroke="none" stroke-width="1" fill="none" fill-rule="evenodd">
        <g id="ndz" fill-rule="nonzero">
            <circle id="Oval" fill="#622FBA" cx="16" cy="16" r="16"></circle>
            <path d="M18.586,17.376 C18.499,17.403 18.415,17.436 18.333,17.474 L14.657,13.653 C14.951897,13.1419109 14.9940133,12.5232142 14.771098,11.9768763 C14.5481828,11.4305383 14.0852657,11.0179039 13.517,10.859 L13.517,8.186 L12.533,7.636 L14.806,6.321 C15.544628,5.89359809 16.455372,5.89359809 17.194,6.321 L21.713,8.937 L19.927,9.97 C19.3358642,9.7077311 18.6521898,9.76222762 18.1100661,10.11483 C17.5679424,10.4674324 17.2409309,11.0702957 17.241,11.717 C17.2412281,12.5540327 17.7864275,13.2933961 18.586,13.541 L18.586,17.376 Z M19.724,17.376 L19.724,13.54 C20.2774809,13.3683616 20.7231105,12.9547304 20.935439,12.4155481 C21.1477675,11.8763659 21.1038317,11.2699451 20.816,10.767 L22.846,9.593 L23.816,10.153 C24.5490639,10.577187 25.0003369,11.3600542 25,12.207 L25,19.793 C25,20.639 24.549,21.421 23.815,21.846 L19.725,24.214 L19.725,21.022 C20.503,20.781 21.069,20.056 21.069,19.199 C21.069,18.342 20.503,17.617 19.724,17.376 Z M17.497,18.245 C17.2075311,18.7478544 17.1623341,19.3550264 17.3741617,19.8951966 C17.5859893,20.4353668 18.0318721,20.8499619 18.586,21.022 L18.586,24.873 L17.194,25.679 C16.455372,26.1064019 15.544628,26.1064019 14.806,25.679 L9.94,22.863 L11.768,21.435 C12.101,21.714 12.53,21.882 12.999,21.882 C13.5061751,21.8827963 13.9928648,21.6819482 14.3518671,21.3236961 C14.7108694,20.9654441 14.9127352,20.4791756 14.913,19.972 C14.9121844,19.1153815 14.3411431,18.3640758 13.516,18.134 L13.516,14.536 C13.621,14.507 13.723,14.469 13.82,14.423 L17.497,18.245 Z M12.379,18.166 C11.4255865,18.4915886 10.8890043,19.5017287 11.153,20.474 L8.882,22.25 L8.185,21.847 C7.4515512,21.4230669 6.9998695,20.6401519 7,19.793 L7,12.207 C7,11.361 7.451,10.579 8.185,10.154 L11.39,8.298 L12.38,8.851 L12.38,10.891 C11.627,11.149 11.086,11.861 11.086,12.698 C11.086,13.535 11.627,14.248 12.379,14.504 L12.379,18.166 Z M13,13.523 C12.6978805,13.5338701 12.413905,13.3790213 12.2594102,13.1191642 C12.1049154,12.8593072 12.104524,12.5358569 12.2583896,12.2756267 C12.4122551,12.0153966 12.6958551,11.859861 12.998,11.87 C13.4433045,11.884943 13.7967245,12.2499793 13.7972635,12.6955342 C13.7978026,13.141089 13.445267,13.5069795 13,13.523 Z M13,20.798 C12.6978805,20.8088701 12.413905,20.6540213 12.2594102,20.3941642 C12.1049154,20.1343072 12.104524,19.8108569 12.2583896,19.5506267 C12.4122551,19.2903966 12.6958551,19.134861 12.998,19.145 C13.4433045,19.159943 13.7967245,19.5249793 13.7972635,19.9705342 C13.7978026,20.416089 13.445267,20.7819795 13,20.798 Z M19.155,12.543 C18.8528805,12.5538701 18.568905,12.3990213 18.4144102,12.1391642 C18.2599154,11.8793072 18.259524,11.5558569 18.4133896,11.2956267 C18.5672551,11.0353966 18.8508551,10.879861 19.153,10.89 C19.5983045,10.904943 19.9517245,11.2699793 19.9522635,11.7155342 C19.9528026,12.161089 19.600267,12.5269795 19.155,12.543 Z M19.155,20.025 C18.6982605,20.0255523 18.3275523,19.6557395 18.327,19.199 C18.3264477,18.7422605 18.6962605,18.3715523 19.153,18.371 C19.6097395,18.3704477 19.9804477,18.7402605 19.981,19.197 C19.9815523,19.6537395 19.6117395,20.0244477 19.155,20.025 Z" id="Shape" fill="#FFFFFF"></path>
        </g>
    </g>
</svg>