<?xml version="1.0" encoding="UTF-8"?>
<svg width="32px" height="32px" viewBox="0 0 32 32" version="1.1" xmlns="http://www.w3.org/2000/svg" xmlns:xlink="http://www.w3.org/1999/xlink">
    <!-- Generator: Sketch 51.2 (57519) - http://www.bohemiancoding.com/sketch -->
    <title>currency/nebl</title>
    <desc>Created with Sketch.</desc>
    <defs></defs>
    <g id="currency/nebl" stroke="none" stroke-width="1" fill="none" fill-rule="evenodd">
        <g id="nebl" fill-rule="nonzero">
            <circle id="Oval" fill="#50479E" cx="16" cy="16" r="16"></circle>
            <path d="M20.36,13.66 L20.36,18.444 L16.053,20.811 L16.053,16.029 L20.359,13.662 L20.36,13.66 Z M25.5,12.434 L25.5,19.565 C25.5,20.072 25.36,20.568 25.097,20.999 C24.837,21.429 24.46,21.794 23.993,22.051 L20.781,23.816 L20.781,19.11 L21.187,18.887 L21.187,13.208 L25.121,11.045 C25.365,11.465 25.5,11.94 25.5,12.435 L25.5,12.434 Z M8.007,22.051 C7.56912648,21.8118475 7.19921507,21.4653351 6.932,21.044 C6.65085232,20.6022242 6.50103348,20.0896495 6.5,19.566 L6.5,15 L10.924,18.455 L10.924,18.647 L10.931,18.845 L11.275,19.048 L15.691,21.476 L16.055,21.676 L16.055,26 C15.5099511,26.0108675 14.9715153,25.8791886 14.493,25.618 L8.007,22.05 L8.007,22.051 Z M7.823,10.06 L12.5,7.5 L15.68,10.58 L10.924,13.203 L10.924,13.603 L6.51,16.027 L6.5,12.433 C6.5,11.926 6.64,11.428 6.905,10.997 C7.137,10.617 7.451,10.297 7.823,10.059 L7.823,10.06 Z M23.993,9.949 C24.4614246,10.2048426 24.8513659,10.583376 25.121,11.044 L21.187,13.207 L21.187,13.171 L20.781,12.948 L16.447,10.566 L20.781,8.183 L23.993,9.949 Z M6.51,16.029 L10.924,13.602 L10.924,18.455 L6.51,16.028 L6.51,16.029 Z M16.055,10.38 L16.055,6 C16.5629412,6.00771148 17.0613392,6.13917597 17.507,6.383 L20.781,8.183 L16.447,10.565 L16.055,10.38 Z M15.691,10.58 L11.283,8.158 L14.685,6.287 C15.1142549,6.0894697 15.5825559,5.99136579 16.055,6 L16.055,10.38 L15.691,10.58 Z M16.083,21.691 L16.447,21.491 L20.729,23.845 L17.507,25.617 C17.06122,25.8604004 16.562846,25.9915153 16.055,25.999 L16.055,21.676 L16.083,21.691 Z M20.781,19.109 L20.781,23.816 L20.729,23.845 L16.447,21.491 L20.781,19.109 Z" id="Shape" fill="#FFFFFF"></path>
        </g>
    </g>
</svg>