<?xml version="1.0" encoding="UTF-8"?>
<svg width="32px" height="32px" viewBox="0 0 32 32" version="1.1" xmlns="http://www.w3.org/2000/svg" xmlns:xlink="http://www.w3.org/1999/xlink">
    <!-- Generator: Sketch 51.2 (57519) - http://www.bohemiancoding.com/sketch -->
    <title>currency/ngc</title>
    <desc>Created with Sketch.</desc>
    <defs></defs>
    <g id="currency/ngc" stroke="none" stroke-width="1" fill="none" fill-rule="evenodd">
        <g id="ngc" fill-rule="nonzero">
            <circle id="Oval" fill="#F80000" cx="16" cy="16" r="16"></circle>
            <path d="M20.5,16.842 L13.804,26 L14.051,18.559 L12.5,18.559 L13.134,12.027 L20.218,11.051 L17.892,16.976 L20.5,16.842 Z M15.002,23.34 L15.002,21.59 C15.002,21.46 14.892,21.354 14.756,21.354 C14.62,21.354 14.509,21.459 14.509,21.589 L14.509,23.34 C14.509,23.47 14.619,23.576 14.756,23.576 C14.893,23.576 15.002,23.47 15.002,23.34 Z M13.17,18.054 L14.58,18.054 L14.515,20.747 C14.514,20.818 14.542,20.887 14.594,20.937 C14.646,20.987 14.717,21.017 14.791,21.017 L14.803,21.017 C14.949484,21.0198567 15.0715162,20.9053683 15.078,20.759 L15.143,17.582 L13.733,17.582 L14.206,12.363 C14.211,12.303 14.19,12.243 14.147,12.198 C14.104,12.153 14.044,12.128 13.98,12.128 L13.94,12.128 C13.8251779,12.1256745 13.7273665,12.2109349 13.714,12.325 L13.17,18.054 Z M13.17,11.454 L15.778,9.3 C15.918,7.145 14.508,6.808 14.508,6.808 L14.72,6 C17.046,6.673 16.694,9.232 16.694,9.232 L20.077,10.646 L13.17,11.454 Z" id="Shape" fill="#FFFFFF"></path>
        </g>
    </g>
</svg>