<?xml version="1.0" encoding="UTF-8"?>
<svg width="32px" height="32px" viewBox="0 0 32 32" version="1.1" xmlns="http://www.w3.org/2000/svg" xmlns:xlink="http://www.w3.org/1999/xlink">
    <!-- Generator: Sketch 51.2 (57519) - http://www.bohemiancoding.com/sketch -->
    <title>currency/nlc2</title>
    <desc>Created with Sketch.</desc>
    <defs></defs>
    <g id="currency/nlc2" stroke="none" stroke-width="1" fill="none" fill-rule="evenodd">
        <g id="nlc2" fill-rule="nonzero">
            <circle id="Oval" fill="#F28F01" cx="16" cy="16" r="16"></circle>
            <path d="M18.151,13.719 L16.21,9.903 C16.614,9.023 16.816,8.523 16.816,8.408 C16.816,7.995 16.544,7.693 16.001,7.5 L21.949,7.5 C21.216,7.83 20.564,8.655 19.994,9.976 L18.151,13.719 Z M15.235,19.647 L14.33,21.487 L19.667,21.487 C22.084,21.487 23.7,21.034 24.515,20.127 L21.663,24.5 L7.078,24.5 C8.653,24.197 10.242,22.3 11.844,18.806 C12.384,17.732 12.879,16.74 13.331,15.832 L15.235,19.647 Z M5,20.25 C6.181,19.549 10.5,12.078 10.5,9.976 C10.5,9.481 10.201,9.013 9.604,8.573 L14.248,8.573 L18.281,16.495 L22.193,8.573 L27,8.573 C24.963,9.109 20.93,18.719 20.93,19.837 C20.93,20.057 20.97,20.195 21.052,20.25 L16.815,20.25 L13.189,12.988 L9.604,20.25 L5,20.25 Z" id="Shape" fill="#FFFFFF"></path>
        </g>
    </g>
</svg>