<?xml version="1.0" encoding="UTF-8"?>
<svg width="32px" height="32px" viewBox="0 0 32 32" version="1.1" xmlns="http://www.w3.org/2000/svg" xmlns:xlink="http://www.w3.org/1999/xlink">
    <!-- Generator: Sketch 51.2 (57519) - http://www.bohemiancoding.com/sketch -->
    <title>currency/nlg</title>
    <desc>Created with Sketch.</desc>
    <defs></defs>
    <g id="currency/nlg" stroke="none" stroke-width="1" fill="none" fill-rule="evenodd">
        <g id="nlg" fill-rule="nonzero">
            <circle id="Oval" fill="#2AB0FD" cx="16" cy="16" r="16"></circle>
            <path d="M25.515,14.804 C25.68,14.802 25.785,14.824 25.851,14.884 C25.921,14.948 25.949,15.052 25.964,15.215 C26.43,20.594 22.362,25.456 16.966,25.955 C11.402,26.47 6.572,22.455 6.044,16.875 C5.53,11.456 9.599,6.54 15.03,6.046 C18.106,5.766 20.762,6.732 22.998,8.862 C23.021,8.884 23.016,8.976 22.99,9.002 C22.487906,9.51354913 21.9812188,10.0205697 21.47,10.523 C21.441,10.551 21.337,10.547 21.305,10.518 C18.998,8.404 16.325,7.778 13.402,8.843 C10.446,9.92 8.755,12.15 8.42,15.29 C7.97,19.539 11.177,23.284 15.455,23.607 C19.333,23.899 22.847,21.154 23.49,17.322 C23.496,17.284 23.41,17.189 23.366,17.189 C20.971,17.182 18.576,17.184 16.182,17.175 C16.12,17.175 16.005,17.06 16.003,16.997 C15.9904325,16.3277257 15.9904325,15.6582743 16.003,14.989 C16.004,14.929 16.111,14.821 16.17,14.82 C17.766,14.811 23.996,14.825 25.514,14.803 L25.515,14.804 Z" id="Shape" fill="#FFFFFF"></path>
        </g>
    </g>
</svg>