<?xml version="1.0" encoding="UTF-8"?>
<svg width="32px" height="32px" viewBox="0 0 32 32" version="1.1" xmlns="http://www.w3.org/2000/svg" xmlns:xlink="http://www.w3.org/1999/xlink">
    <!-- Generator: Sketch 51.2 (57519) - http://www.bohemiancoding.com/sketch -->
    <title>currency/nmc</title>
    <desc>Created with Sketch.</desc>
    <defs></defs>
    <g id="currency/nmc" stroke="none" stroke-width="1" fill="none" fill-rule="evenodd">
        <g id="nmc" fill-rule="nonzero">
            <circle id="Oval" fill="#186C9D" cx="16" cy="16" r="16"></circle>
            <path d="M19.261,23.5 L19.262,23.498 C19.408,23.501 19.562,23.486 19.72,23.448 C20.596,23.243 21.337,22.478 21.513,21.652 L25,8.556 L22.228,8.542 L19.942,17.11 L13.762,8.513 L13.758,8.517 L13.761,8.507 L12.74,8.5 L12.74,8.501 C12.593,8.499 12.44,8.513 12.281,8.55 C11.406,8.756 10.665,9.521 10.488,10.346 L7,23.445 L9.773,23.457 L12.058,14.889 L18.238,23.487 L18.241,23.487 L19.261,23.5 Z M12.668,12.606 L13.151,10.796 L19.332,19.395 L18.849,21.205 L12.669,12.605 L12.668,12.606 Z" id="Shape" fill="#FFFFFF"></path>
        </g>
    </g>
</svg>