<?xml version="1.0" encoding="UTF-8"?>
<svg width="32px" height="32px" viewBox="0 0 32 32" version="1.1" xmlns="http://www.w3.org/2000/svg" xmlns:xlink="http://www.w3.org/1999/xlink">
    <!-- Generator: Sketch 51.2 (57519) - http://www.bohemiancoding.com/sketch -->
    <title>currency/nxs</title>
    <desc>Created with Sketch.</desc>
    <defs></defs>
    <g id="currency/nxs" stroke="none" stroke-width="1" fill="none" fill-rule="evenodd">
        <g id="nxs" fill-rule="nonzero">
            <circle id="Oval" fill="#4099CD" cx="16" cy="16" r="16"></circle>
            <path d="M2.005,23.76 C2.61,21.996 3.776,20.086 5.4,18.2 C4.80272948,17.4061305 4.87871681,16.2941861 5.57843227,15.5889492 C6.27814773,14.8837123 7.38946062,14.7989876 8.188,15.39 C9.47775476,14.2542403 10.849471,13.2150918 12.292,12.281 C19.226,7.778 26.554,6.341 30.128,8.483 C31.1577087,10.4141879 31.7776466,12.5371602 31.949,14.719 C30.795,18.497 26.983,23.011 21.551,26.539 C17.804,28.972 13.941,30.511 10.618,31.072 C6.95576523,29.7589643 3.8950338,27.1605586 2.005,23.76 Z M5.755,18.565 C3.411,21.273 2.472,24.059 3.608,25.809 C5.324,28.452 11.128,27.729 16.569,24.196 C22.011,20.662 25.031,15.654 23.315,13.011 C21.598,10.368 15.795,11.091 10.353,14.624 C9.75,15.016 9.176,15.426 8.636,15.849 C9.20857152,16.6624582 9.09626936,17.7730744 8.37244416,18.4554448 C7.64861896,19.1378153 6.53331589,19.1844971 5.755,18.565 Z" id="Shape" fill="#FFFFFF"></path>
        </g>
    </g>
</svg>