<?xml version="1.0" encoding="UTF-8"?>
<svg width="32px" height="32px" viewBox="0 0 32 32" version="1.1" xmlns="http://www.w3.org/2000/svg" xmlns:xlink="http://www.w3.org/1999/xlink">
    <!-- Generator: Sketch 51.2 (57519) - http://www.bohemiancoding.com/sketch -->
    <title>currency/nxt</title>
    <desc>Created with Sketch.</desc>
    <defs></defs>
    <g id="currency/nxt" stroke="none" stroke-width="1" fill="none" fill-rule="evenodd">
        <g id="nxt" fill-rule="nonzero">
            <circle id="Oval" fill="#008FBB" cx="16" cy="16" r="16"></circle>
            <path d="M26.082,16.833 C25.575,16.833 25.164,16.46 25.164,16 L25.164,15.166 L20.552,15.166 C20.045,15.166 19.634,14.793 19.634,14.333 C19.634,13.873 20.045,13.5 20.552,13.5 L26.082,13.5 C26.589,13.5 27,13.873 27,14.333 L27,16 C27,16.46 26.59,16.833 26.082,16.833 Z M21.533,16.833 L23.368,16.833 C23.875,16.833 24.286,17.206 24.286,17.666 C24.286,18.126 23.876,18.5 23.368,18.5 L22.388,18.5 L21.533,18.5 L20.552,18.5 C20.4057778,18.5003869 20.2612963,18.4682799 20.129,18.406 L14.777,15.166 L13.235,15.166 C12.728,15.166 12.317,14.793 12.317,14.333 C12.317,13.873 12.727,13.5 13.235,13.5 L15.07,13.5 C15.268,13.5 15.451,13.557 15.601,13.654 L20.833,16.834 L21.533,16.834 L21.533,16.833 Z M15.07,16.833 C15.577,16.833 15.988,17.206 15.988,17.666 C15.988,18.126 15.577,18.5 15.07,18.5 L13.235,18.5 C13.0887814,18.5003536 12.9443071,18.4682482 12.812,18.406 L7.46,15.166 L5.918,15.166 C5.411,15.166 5,14.793 5,14.333 C5,13.873 5.41,13.5 5.918,13.5 L7.753,13.5 C7.94111187,13.4993061 8.12544876,13.5527673 8.284,13.654 L13.516,16.834 L15.07,16.834 L15.07,16.833 Z M5.918,16.833 L7.753,16.833 C8.26,16.833 8.671,17.206 8.671,17.667 C8.671,18.127 8.26,18.5 7.753,18.5 L5.918,18.5 C5.411,18.5 5,18.127 5,17.667 C5,17.207 5.41,16.833 5.918,16.833 Z" id="Shape" fill="#FFFFFF"></path>
        </g>
    </g>
</svg>