<?xml version="1.0" encoding="UTF-8"?>
<svg width="32px" height="32px" viewBox="0 0 32 32" version="1.1" xmlns="http://www.w3.org/2000/svg" xmlns:xlink="http://www.w3.org/1999/xlink">
    <!-- Generator: Sketch 51.2 (57519) - http://www.bohemiancoding.com/sketch -->
    <title>currency/omg</title>
    <desc>Created with Sketch.</desc>
    <defs></defs>
    <g id="currency/omg" stroke="none" stroke-width="1" fill="none" fill-rule="evenodd">
        <g id="omg" fill-rule="nonzero">
            <circle id="Oval" fill="#1A53F0" cx="16" cy="16" r="16"></circle>
            <path d="M11.856,17.29 C9.45229499,17.2916563 7.50489504,19.2412947 7.506,21.645 C7.50489477,24.0483151 9.45168561,25.9977918 11.855,26 C13.0096607,25.9997349 14.1169096,25.5407249 14.9330966,24.7239752 C15.7492837,23.9072255 16.2075305,22.7996606 16.207,21.645 C16.2075306,20.4905126 15.749421,19.3830992 14.9334502,18.5663783 C14.1174794,17.7496573 13.0104874,17.2905303 11.856,17.29 Z M11.856,24.683 C10.1802063,24.6818958 8.82244748,23.3227939 8.823,21.647 C8.82246939,20.8420679 9.14171864,20.069893 9.71051651,19.5003449 C10.2793144,18.9307969 11.0510679,18.6105303 11.856,18.61 C12.6611054,18.6102651 13.4331158,18.9304147 14.00213,19.4999915 C14.5711441,20.0695683 14.8905306,20.8418947 14.89,21.647 C14.8877993,23.3220436 13.5310418,24.6796954 11.856,24.683 Z M21.15,8 C19.9955126,8.00053031 18.8885206,8.45965731 18.0725498,9.27637826 C17.256579,10.0930992 16.7984694,11.2005126 16.799,12.355 C16.797895,14.7587053 18.745295,16.7083437 21.149,16.71 C22.3036607,16.7097349 23.4109096,16.2507249 24.2270966,15.4339752 C25.0432837,14.6172255 25.5015305,13.5096606 25.501,12.355 C25.5015305,11.2003394 25.0432837,10.0927745 24.2270966,9.27602479 C23.4109096,8.45927508 22.3036607,8.00026513 21.149,8 L21.15,8 Z M21.15,15.393 C20.3450679,15.3927348 19.5732091,15.0727225 19.0042238,14.503362 C18.4352384,13.9340016 18.1157347,13.1619321 18.116,12.357 C18.1154694,11.5518947 18.4348559,10.7795683 19.00387,10.2099915 C19.5728842,9.64041473 20.3448946,9.3202651 21.15,9.32 C21.9549321,9.32053026 22.7266856,9.64079692 23.2954835,10.2103449 C23.8642814,10.779893 24.1835306,11.5520679 24.183,12.357 C24.1808009,14.0316542 22.8246512,15.3891453 21.15,15.393 Z M11.856,8 C9.78492796,8.00273768 8.00186245,9.46270752 7.5905627,11.49253 C7.17926294,13.5223525 8.25335563,15.5612639 10.16,16.37 C12.0683204,17.1764058 14.2805619,16.5254512 15.448,14.814 C16.616622,13.1017496 16.4180201,10.8034036 14.973,9.317 L16.206,9.317 L16.206,8 L11.856,8 Z M14.89,12.355 C14.8902653,13.1599321 14.5707616,13.9320016 14.0017762,14.501362 C13.4327909,15.0707225 12.6609321,15.3907348 11.856,15.391 C10.1802063,15.3898958 8.82244748,14.0307939 8.823,12.355 C8.82244748,10.6792061 10.1802063,9.32010422 11.856,9.319 C13.5314324,9.3217542 14.8887977,10.6795668 14.891,12.355 L14.89,12.355 Z" id="Shape" fill="#FFFFFF"></path>
        </g>
    </g>
</svg>