<?xml version="1.0" encoding="UTF-8"?>
<svg width="32px" height="32px" viewBox="0 0 32 32" version="1.1" xmlns="http://www.w3.org/2000/svg" xmlns:xlink="http://www.w3.org/1999/xlink">
    <!-- Generator: Sketch 51.2 (57519) - http://www.bohemiancoding.com/sketch -->
    <title>currency/ost</title>
    <desc>Created with Sketch.</desc>
    <defs></defs>
    <g id="currency/ost" stroke="none" stroke-width="1" fill="none" fill-rule="evenodd">
        <g id="ost" fill-rule="nonzero">
            <circle id="Oval" fill="#BBDFD0" cx="16" cy="16" r="16"></circle>
            <path d="M23.082,23.998 C21.313,22.271 19.132,21.557 16.719,21.408 C14.666,21.281 12.703,21.625 10.867,22.566 C10.1879525,22.9097808 9.56815078,23.3597785 9.031,23.899 C8.996,23.935 8.955,23.967 8.918,24 C6.63261819,22.1424232 5.22224588,19.4184357 5.02444068,16.4799948 C4.82663547,13.541554 5.85919966,10.6531168 7.875,8.506 C12.195,3.853 19.715,3.826 24.075,8.458 C26.1136261,10.5993368 27.1655947,13.4946117 26.9770554,16.4451664 C26.7885161,19.3957211 25.3765941,22.1335543 23.082,23.998 Z M12.02,15.795 C12.021,17.956 13.79,19.695 15.991,19.699 C18.203,19.703 19.994,17.959 19.996,15.8 C19.999,13.648 18.195,11.885 15.996,11.89 C13.8,11.895 12.019,13.645 12.02,15.795 Z" id="Shape" fill="#FFFFFF"></path>
        </g>
    </g>
</svg>