<?xml version="1.0" encoding="UTF-8"?>
<svg width="32px" height="32px" viewBox="0 0 32 32" version="1.1" xmlns="http://www.w3.org/2000/svg" xmlns:xlink="http://www.w3.org/1999/xlink">
    <!-- Generator: Sketch 51.2 (57519) - http://www.bohemiancoding.com/sketch -->
    <title>currency/ox</title>
    <desc>Created with Sketch.</desc>
    <defs></defs>
    <g id="currency/ox" stroke="none" stroke-width="1" fill="none" fill-rule="evenodd">
        <g id="ox" fill-rule="nonzero">
            <circle id="Oval" fill="#4392CD" cx="16" cy="16" r="16"></circle>
            <path d="M16.858,25.5 L15.142,25.5 C13.854,25.5 13.489,24.306 13.489,23.394 C13.489,22.482 13.554,22.069 13.554,21.657 C13.554,21.007 13.226,19.384 12.631,18.704 C11.472,17.379 10.742,16.192 10.742,14.47 C9.734,13.949 7.952,13.471 7.266,12.69 C6.58,11.909 6,10.8 6,9.214 C6,8.809 6.086,8.237 6.258,7.499 C6.653,8.733 7.261,9.579 8.082,10.039 C9.283,10.713 10.637,11.212 11.794,11.212 L20.206,11.212 C21.363,11.212 22.716,10.712 23.918,10.039 C24.738,9.579 25.347,8.733 25.742,7.499 C25.914,8.237 26,8.809 26,9.214 C26,10.799 25.42,11.907 24.734,12.688 C24.048,13.469 22.266,13.948 21.258,14.468 C21.258,16.191 20.528,17.378 19.369,18.703 C18.774,19.383 18.446,21.006 18.446,21.656 C18.446,22.068 18.511,22.481 18.511,23.393 C18.511,24.305 18.146,25.499 16.858,25.499 L16.858,25.5 Z" id="Shape" fill="#FFFFFF"></path>
        </g>
    </g>
</svg>