<?xml version="1.0" encoding="UTF-8"?>
<svg width="32px" height="32px" viewBox="0 0 32 32" version="1.1" xmlns="http://www.w3.org/2000/svg" xmlns:xlink="http://www.w3.org/1999/xlink">
    <!-- Generator: Sketch 51.2 (57519) - http://www.bohemiancoding.com/sketch -->
    <title>currency/part</title>
    <desc>Created with Sketch.</desc>
    <defs></defs>
    <g id="currency/part" stroke="none" stroke-width="1" fill="none" fill-rule="evenodd">
        <g id="part" fill-rule="nonzero">
            <circle id="Oval" fill="#03E8B0" cx="16" cy="16" r="16"></circle>
            <path d="M15.424,6.173 C16.068,5.893 16.528,6.487 16.926,6.885 C17.636,7.488 18.312,8.129 18.952,8.805 C19.319,9.206 19.17,9.939 18.671,10.162 C18.287,10.372 17.818,10.214 17.524,9.922 C16.751,9.182 16.012,8.405 15.21,7.698 C14.712,7.291 14.814,6.408 15.424,6.173 M22.458,8.224 C22.895,7.989 23.595,8.18 23.716,8.701 C23.901,9.164 23.604,9.621 23.278,9.93 C22.563,10.635 21.868,11.36 21.173,12.086 C20.92,12.392 20.473,12.474 20.115,12.309 C19.598,12.095 19.458,11.319 19.848,10.925 C20.725,10.033 21.499,9.033 22.458,8.225 M8.49,8.368 C8.945,8.093 9.508,8.275 9.845,8.648 C10.603,9.413 11.385,10.152 12.15,10.905 C12.657,11.373 12.303,12.365 11.596,12.369 C11.004,12.459 10.69,11.874 10.294,11.554 C9.6,10.979 8.964,10.339 8.334,9.694 C7.978,9.327 8.084,8.653 8.491,8.368 M9.078,12.888 C9.841,12.593 10.586,13.555 10.11,14.218 C9.547,14.952 8.814,15.543 8.2,16.236 C7.837,16.609 7.5,17.183 6.895,17.11 C6.188,17.083 5.833,16.1 6.347,15.623 C7.276,14.734 8.013,13.61 9.079,12.887 M24.554,15.015 C25.079,14.672 25.871,15.062 25.888,15.695 C25.965,16.289 25.375,16.603 25.05,17.003 C24.478,17.691 23.85,18.333 23.202,18.951 C22.728,19.398 21.844,19.084 21.759,18.436 C21.648,17.767 22.276,17.352 22.672,16.924 C23.328,16.315 23.882,15.598 24.554,15.015 M11.069,19.72 C11.579,19.415 12.352,19.777 12.364,20.396 C12.459,20.994 11.868,21.311 11.545,21.71 C10.975,22.4 10.339,23.033 9.697,23.658 C9.28,24.08 8.39,23.877 8.272,23.272 C8.07,22.687 8.566,22.216 8.944,21.849 C9.677,21.163 10.314,20.379 11.069,19.72 M20.131,19.697 C20.413,19.6 20.771,19.592 21.009,19.796 C21.892,20.635 22.832,21.414 23.662,22.31 C23.918,22.57 23.941,23.005 23.771,23.317 C23.531,23.878 22.709,23.892 22.31,23.495 C21.504,22.735 20.73,21.936 19.92,21.179 C19.43,20.799 19.545,19.917 20.13,19.697 M13.331,21.842 C13.751,21.615 14.245,21.83 14.547,22.15 C15.3036814,22.9106754 16.0751621,23.6564846 16.861,24.387 C17.381,24.881 17.029,25.884 16.296,25.892 C15.704,25.962 15.396,25.374 14.999,25.052 C14.313778,24.4735542 13.6626845,23.8558502 13.049,23.202 C12.675,22.804 12.827,22.062 13.331,21.842 M11.981,6.935 C11.981,7.41438316 11.5923832,7.803 11.113,7.803 C10.6336168,7.803 10.245,7.41438316 10.245,6.935 C10.2608799,6.46735246 10.6445829,6.0964576 11.1125,6.0964576 C11.5804171,6.0964576 11.9641201,6.46735246 11.98,6.935 M14.509,9.243 C14.509,9.72210702 14.120607,10.1105 13.6415,10.1105 C13.162393,10.1105 12.774,9.72210702 12.774,9.243 C12.774,8.76389298 13.162393,8.3755 13.6415,8.3755 C14.120607,8.3755 14.509,8.76389298 14.509,9.243 M7.735,11.363 C7.7457627,11.6799521 7.58281241,11.9775444 7.30997735,12.1392091 C7.03714228,12.3008738 6.69785772,12.3008738 6.42502265,12.1392091 C6.15218759,11.9775444 5.9892373,11.6799521 6,11.363 C6.01587985,10.8953525 6.39958293,10.5244576 6.8675,10.5244576 C7.33541707,10.5244576 7.71912015,10.8953525 7.735,11.363 M21.507,6.866 C21.507,7.34538316 21.1183832,7.734 20.639,7.734 C20.1596168,7.734 19.771,7.34538316 19.771,6.866 C19.771,6.38634069 20.1598407,5.9975 20.6395,5.9975 C21.1191593,5.9975 21.508,6.38634069 21.508,6.866 M26,11.146 C26,11.625107 25.611607,12.0135 25.1325,12.0135 C24.653393,12.0135 24.265,11.625107 24.265,11.146 C24.265,10.666893 24.653393,10.2785 25.1325,10.2785 C25.611607,10.2785 26,10.666893 26,11.146 M23.629,13.638 C23.629,14.117107 23.240607,14.5055 22.7615,14.5055 C22.282393,14.5055 21.894,14.117107 21.894,13.638 C21.894,13.158893 22.282393,12.7705 22.7615,12.7705 C23.240607,12.7705 23.629,13.158893 23.629,13.638 M25.996,20.644 C25.996,21.123107 25.607607,21.5115 25.1285,21.5115 C24.649393,21.5115 24.261,21.123107 24.261,20.644 C24.261,20.164893 24.649393,19.7765 25.1285,19.7765 C25.607607,19.7765 25.996,20.164893 25.996,20.644 M19.23,22.76 C19.2407627,23.0769521 19.0778124,23.3745444 18.8049773,23.5362091 C18.5321423,23.6978738 18.1928577,23.6978738 17.9200227,23.5362091 C17.6471876,23.3745444 17.4842373,23.0769521 17.495,22.76 C17.5108799,22.2923525 17.8945829,21.9214576 18.3625,21.9214576 C18.8304171,21.9214576 19.2141201,22.2923525 19.23,22.76 M21.726,25.132 C21.7367627,25.4489521 21.5738124,25.7465444 21.3009773,25.9082091 C21.0281423,26.0698738 20.6888577,26.0698738 20.4160227,25.9082091 C20.1431876,25.7465444 19.9802373,25.4489521 19.991,25.132 C20.0068799,24.6643525 20.3905829,24.2934576 20.8585,24.2934576 C21.3264171,24.2934576 21.7101201,24.6643525 21.726,25.132 M12.226,25.132 C12.226,25.6113832 11.8373832,26 11.358,26 C10.8786168,26 10.49,25.6113832 10.49,25.132 C10.5058799,24.6643525 10.8895829,24.2934576 11.3575,24.2934576 C11.8254171,24.2934576 12.2091201,24.6643525 12.225,25.132 M10.109,18.338 C10.1197627,18.6549521 9.95681241,18.9525444 9.68397735,19.1142091 C9.41114228,19.2758738 9.07185772,19.2758738 8.79902265,19.1142091 C8.52618759,18.9525444 8.3632373,18.6549521 8.374,18.338 C8.38987985,17.8703525 8.77358293,17.4994576 9.2415,17.4994576 C9.70941707,17.4994576 10.0931201,17.8703525 10.109,18.338 M7.735,20.859 C7.7457627,21.1759521 7.58281241,21.4735444 7.30997735,21.6352091 C7.03714228,21.7968738 6.69785772,21.7968738 6.42502265,21.6352091 C6.15218759,21.4735444 5.9892373,21.1759521 6,20.859 C6.01587985,20.3913525 6.39958293,20.0204576 6.8675,20.0204576 C7.33541707,20.0204576 7.71912015,20.3913525 7.735,20.859" id="Shape" fill="#FFFFFF"></path>
        </g>
    </g>
</svg>