<?xml version="1.0" encoding="UTF-8"?>
<svg width="32px" height="32px" viewBox="0 0 32 32" version="1.1" xmlns="http://www.w3.org/2000/svg" xmlns:xlink="http://www.w3.org/1999/xlink">
    <!-- Generator: Sketch 51.2 (57519) - http://www.bohemiancoding.com/sketch -->
    <title>currency/pasl</title>
    <desc>Created with Sketch.</desc>
    <defs></defs>
    <g id="currency/pasl" stroke="none" stroke-width="1" fill="none" fill-rule="evenodd">
        <g id="pasl" fill-rule="nonzero">
            <circle id="Oval" fill="#00ACFF" cx="16" cy="16" r="16"></circle>
            <path d="M15.08,20.156 C15.2055308,20.1038898 15.3466692,20.1040428 15.4720866,20.1564253 C15.597504,20.2088077 15.6968239,20.3090855 15.748,20.435 C15.8557946,20.6967833 15.7320705,20.9964903 15.471,21.106 L12.065,22.52 L11.613,25 L9.269,25 L9.526,23.574 L8.144,24.147 C8.01846925,24.1991102 7.87733082,24.1989572 7.7519134,24.1465747 C7.62649598,24.0941923 7.52717613,23.9939145 7.476,23.868 C7.36886673,23.6064938 7.49247831,23.3075055 7.753,23.198 L9.743,22.372 L9.893,21.533 L7.206,22.648 C7.08058447,22.6997956 6.9396986,22.6994773 6.81451839,22.6471155 C6.68933818,22.5947538 6.590185,22.494666 6.539,22.369 C6.43120543,22.1072167 6.55492947,21.8075097 6.816,21.698 L10.109,20.331 L12.507,7.01 L19.28,7.01 C23.427,6.867 25.5,8.252 25.5,11.165 C25.5,14.86 22.798,17.718 18.215,17.718 L12.94,17.718 L12.657,19.274 L14.144,18.657 C14.2694155,18.6052044 14.4103014,18.6055227 14.5354816,18.6578845 C14.6606618,18.7102462 14.759815,18.810334 14.811,18.936 C14.9181333,19.1975062 14.7945217,19.4964945 14.534,19.606 L12.437,20.477 L12.284,21.317 L15.08,20.156 Z M14.51,9.109 L13.338,15.534 L18.556,15.534 C21.768,15.534 22.986,13.349 22.986,11.764 C22.986,10.18 22.22,9.109 19.664,9.109 L14.51,9.109 Z" id="Shape" fill="#FFFFFF"></path>
        </g>
    </g>
</svg>