<?xml version="1.0" encoding="UTF-8"?>
<svg width="32px" height="32px" viewBox="0 0 32 32" version="1.1" xmlns="http://www.w3.org/2000/svg" xmlns:xlink="http://www.w3.org/1999/xlink">
    <!-- Generator: Sketch 51.2 (57519) - http://www.bohemiancoding.com/sketch -->
    <title>currency/pay</title>
    <desc>Created with Sketch.</desc>
    <defs></defs>
    <g id="currency/pay" stroke="none" stroke-width="1" fill="none" fill-rule="evenodd">
        <g id="pay" fill-rule="nonzero">
            <circle id="Oval" fill="#302C2C" cx="16" cy="16" r="16"></circle>
            <path d="M26.91,15.696 C26.8551507,15.5849578 26.7825274,15.4836229 26.695,15.396 C24.793,13.242 20.922,9 20.922,9 L16.005,14.378 L11.025,9.051 C11.025,9.051 7.109,13.33 5.19,15.507 C4.94,15.753 4.94,16.197 5.164,16.459 C6.161,17.595 11.058,22.995 11.058,22.995 L15.998,17.581 L20.904,23 L26.821,16.454 C26.821,16.454 26.946,16.324 26.973,16.237 C27.031,16.057 26.989,15.861 26.91,15.696 M7.918,16.295 C7.758,16.106 7.812,15.809 7.961,15.63 C8.587,14.917 11.092,12.23 11.092,12.23 L14.582,15.935 L11.086,19.759 C11.086,19.759 8.946,17.475 7.918,16.295 M23.906,16.421 C23.842,16.555 23.65,16.776 23.65,16.776 L20.94,19.721 L17.44,16 L20.884,12.225 C20.884,12.225 22.868,14.28 23.777,15.385 C23.854,15.481 23.945,15.572 23.984,15.694 C24.067,15.933 24.014,16.199 23.905,16.42" id="Shape" fill="#FFFFFF"></path>
        </g>
    </g>
</svg>