<?xml version="1.0" encoding="UTF-8"?>
<svg width="32px" height="32px" viewBox="0 0 32 32" version="1.1" xmlns="http://www.w3.org/2000/svg" xmlns:xlink="http://www.w3.org/1999/xlink">
    <!-- Generator: Sketch 51.2 (57519) - http://www.bohemiancoding.com/sketch -->
    <title>currency/pink</title>
    <desc>Created with Sketch.</desc>
    <defs></defs>
    <g id="currency/pink" stroke="none" stroke-width="1" fill="none" fill-rule="evenodd">
        <g id="pink" fill-rule="nonzero">
            <circle id="Oval" fill="#ED79AA" cx="16" cy="16" r="16"></circle>
            <g id="Group" transform="translate(6.000000, 6.000000)" fill="#FFFFFF">
                <path d="M17.452,2.929 L15.582,4.812 C14.2210935,3.43560515 12.3655948,2.66164035 10.43,2.663 C6.515,2.663 3.32,5.773 3.152,9.673 L3.144,9.673 L3.144,16.795 C1.4391657,14.9433116 0.495056433,12.5169794 0.5,10 C0.5,4.477 4.946,3.93061658e-15 10.43,3.93061658e-15 C13.068151,-0.00187315019 15.5971381,1.05301195 17.452,2.929 Z M17.452,17.071 C15.6367993,18.9075213 13.1738776,19.9591099 10.592,20 L10.592,17.336 C12.4709968,17.2953338 14.2604984,16.5253819 15.582,15.189 L17.452,17.071 Z" id="Shape" opacity="0.5"></path>
                <path d="M5.681,18.784 L5.681,9.674 L5.688,9.674 C5.828,7.069 7.97,5 10.592,5 C13.304,5 15.503,7.214 15.503,9.946 C15.503,12.677 13.304,14.891 10.593,14.891 C9.71954759,14.8924644 8.86183001,14.6586042 8.11,14.214 L8.11,19.725 C7.26219513,19.5208834 6.44534851,19.2047714 5.681,18.785 L5.681,18.784 Z M10.592,12.446 C11.2528292,12.443882 11.8857359,12.179267 12.3514182,11.7103964 C12.8171005,11.2415257 13.077391,10.6068283 13.075,9.946 C13.075,8.565 11.963,7.446 10.592,7.446 C9.93134439,7.44838264 9.29869449,7.71311434 8.83322827,8.18195622 C8.36776205,8.65079811 8.10760873,9.28534442 8.11,9.946 C8.11,11.326 9.221,12.446 10.592,12.446 Z" id="Shape"></path>
            </g>
        </g>
    </g>
</svg>