<?xml version="1.0" encoding="UTF-8"?>
<svg width="32px" height="32px" viewBox="0 0 32 32" version="1.1" xmlns="http://www.w3.org/2000/svg" xmlns:xlink="http://www.w3.org/1999/xlink">
    <!-- Generator: Sketch 51.2 (57519) - http://www.bohemiancoding.com/sketch -->
    <title>currency/pirl</title>
    <desc>Created with Sketch.</desc>
    <defs></defs>
    <g id="currency/pirl" stroke="none" stroke-width="1" fill="none" fill-rule="evenodd">
        <g id="pirl" fill-rule="nonzero">
            <circle id="Oval" fill="#96B73D" cx="16" cy="16" r="16"></circle>
            <path d="M11.594,16.105 C11.68,16.363 11.807,16.605 11.971,16.823 L9.478,14.305 C8.93728888,13.7596411 8.93728888,12.8803589 9.478,12.335 L12.623,9.188 C12.688,9.14 12.75,9.088 12.81,9.034 L12.901,8.954 L15.448,6.405 C15.7067304,6.14518553 16.0584575,5.99938116 16.4251245,5.99994439 C16.7917915,6.00050763 17.143069,6.14739188 17.401,6.408 L25.744,14.811 C26.1364423,15.3686884 26.0728264,16.1274446 25.593,16.612 C25.1200506,17.0889547 24.377994,17.1702474 23.813,16.807 L16.443,9.367 L16.435,9.357 L16.411,9.331 L12.468,13.275 L12.408,13.325 C12.4057164,13.3277098 12.4033827,13.3303769 12.401,13.333 L16.297,17.26 C16.647,17.612 16.783,18.125 16.655,18.606 C16.527,19.087 16.154,19.463 15.677,19.592 C15.1988425,19.7208332 14.6883313,19.5829913 14.34,19.231 L12.344,17.221 C12.315,17.195 12.286,17.161 12.25,17.125 L12.158,17.033 C12.0911047,16.9577089 12.028665,16.8785741 11.971,16.796 L12.016,16.849 L11.986,16.81 C11.8184844,16.5974674 11.6861373,16.3594451 11.594,16.105 Z M19.74,18.678 L15.839,14.749 C15.2982889,14.2036411 15.2982889,13.3243589 15.839,12.779 C16.0982454,12.5188896 16.450593,12.3730207 16.8178328,12.3737717 C17.1850725,12.3745227 17.5368207,12.5218314 17.795,12.783 L19.792,14.793 C19.82,14.818 19.849,14.853 19.886,14.888 L19.977,14.98 C20.029,15.038 20.077,15.1 20.121,15.163 L20.143,15.19 C20.1149224,15.1499109 20.0862526,15.1102399 20.057,15.071 L22.667,17.698 C23.208,18.243 23.208,19.126 22.667,19.67 L19.52,22.818 C19.4541209,22.8650442 19.3907039,22.915444 19.33,22.969 L16.706,25.593 C16.44763,25.8535189 16.0959129,26.0000588 15.729,26.0000588 C15.3620871,26.0000588 15.01037,25.8535189 14.752,25.593 L6.275,17.046 C5.84719935,16.4655483 5.92706088,15.6557092 6.46,15.17 C6.99177423,14.6863268 7.80542342,14.6906733 8.332,15.18 L15.716,22.635 L15.741,22.665 L19.676,18.731 L19.734,18.684 C19.7359758,18.681976 19.737976,18.6799758 19.74,18.678 Z" id="Shape" fill="#FFFFFF"></path>
        </g>
    </g>
</svg>