<?xml version="1.0" encoding="UTF-8"?>
<svg width="32px" height="32px" viewBox="0 0 32 32" version="1.1" xmlns="http://www.w3.org/2000/svg" xmlns:xlink="http://www.w3.org/1999/xlink">
    <!-- Generator: Sketch 51.2 (57519) - http://www.bohemiancoding.com/sketch -->
    <title>currency/poa</title>
    <desc>Created with Sketch.</desc>
    <defs></defs>
    <g id="currency/poa" stroke="none" stroke-width="1" fill="none" fill-rule="evenodd">
        <g id="poa" fill-rule="nonzero">
            <circle id="Oval" fill="#444FA1" cx="16" cy="16" r="16"></circle>
            <path d="M5,24 L16,5 L27,24 L5,24 Z M11.8722787,14.3240929 C13.1571746,13.4659805 14.5348805,13.0325166 16,13.0325166 C17.4651195,13.0325166 18.8428254,13.4659805 20.1277213,14.3240929 L16,7.19439253 L11.8722787,14.3240929 Z M9.92078993,17.6948463 L6.92407262,22.8709944 L25.0759274,22.8709944 L22.0792101,17.6948463 C20.269292,19.6835809 18.2364903,20.6936263 16,20.6936263 C13.7635097,20.6936263 11.730708,19.6835809 9.92078993,17.6948463 Z M16,19.5646207 C17.9382855,19.5646207 19.7112,18.6748307 21.3384422,16.8630715 C19.7112,15.0513123 17.9382855,14.1615223 16,14.1615223 C14.0617145,14.1615223 12.2888,15.0513123 10.6615578,16.8630715 C12.2888,18.6748307 14.0617145,19.5646207 16,19.5646207 Z M16,19.0807611 C14.8396668,19.0807611 13.8990309,18.1059203 13.8990309,16.9033931 C13.8990309,15.700866 14.8396668,14.7260251 16,14.7260251 C17.1603332,14.7260251 18.1009691,15.700866 18.1009691,16.9033931 C18.1009691,18.1059203 17.1603332,19.0807611 16,19.0807611 Z M16,17.9517555 C16.558679,17.9517555 17.0115777,17.4823877 17.0115777,16.9033931 C17.0115777,16.3243986 16.558679,15.8550307 16,15.8550307 C15.441321,15.8550307 14.9884223,16.3243986 14.9884223,16.9033931 C14.9884223,17.4823877 15.441321,17.9517555 16,17.9517555 Z" id="Shape" fill="#FFFFFF"></path>
        </g>
    </g>
</svg>