<?xml version="1.0" encoding="UTF-8"?>
<svg width="32px" height="32px" viewBox="0 0 32 32" version="1.1" xmlns="http://www.w3.org/2000/svg" xmlns:xlink="http://www.w3.org/1999/xlink">
    <!-- Generator: Sketch 51.2 (57519) - http://www.bohemiancoding.com/sketch -->
    <title>currency/poe</title>
    <desc>Created with Sketch.</desc>
    <defs></defs>
    <g id="currency/poe" stroke="none" stroke-width="1" fill="none" fill-rule="evenodd">
        <g id="poe" fill-rule="nonzero">
            <circle id="Oval" fill="#DCD6CC" cx="16" cy="16" r="16"></circle>
            <path d="M24.758,7.732 C23.9542047,6.94007781 22.8703708,6.49734462 21.742,6.5 C20.597,6.5 19.531,6.94 18.726,7.732 L8.87,17.438 C8.76947046,17.5388728 8.7167259,17.6778274 8.725,17.82 L8.725,22.816 L6,25.5 L7.503,25.5 L9.521,23.513 L14.565,23.513 C14.7081525,23.5144468 14.8453218,23.4556599 14.943,23.351 L24.749,13.693 L24.759,13.683 C25.5515295,12.9021793 25.9984501,11.8365563 26,10.724 C26.0054952,9.60075536 25.5577174,8.52277172 24.758,7.734 L24.758,7.732 Z M19.026,8.86 L19.443,8.45 C20.0554932,7.84639185 20.8820735,7.50986331 21.742,7.514 C22.605,7.514 23.42,7.848 24.041,8.45 C24.051,8.46 24.061,8.478 24.08,8.488 C24.671,9.09 24.991,9.873 24.991,10.714 C24.991,11.564 24.651,12.366 24.041,12.978 L23.614,13.398 L19.802,13.398 L22.305,10.933 C22.5039523,10.7387581 22.5123706,10.42152 22.324,10.217 C22.314,10.207 22.314,10.197 22.304,10.188 C22.0954989,9.98812167 21.7665011,9.98812167 21.558,10.188 L19.036,12.672 L19.036,8.859 L19.026,8.86 Z M10.55,22.501 L12.606,20.475 L16.418,20.475 L14.362,22.501 L10.55,22.501 Z M16.534,16.597 L18.969,14.199 L22.781,14.199 L20.346,16.597 L16.534,16.597 Z M19.512,17.419 L17.242,19.654 L13.43,19.654 L15.7,17.419 L19.512,17.419 Z M15.759,12.079 L18.203,9.671 L18.203,13.473 L15.759,15.89 L15.759,12.079 Z M12.655,15.135 L14.925,12.9 L14.925,16.702 L12.655,18.937 L12.655,15.135 Z M9.745,18.001 L11.83,15.957 L11.83,19.759 L9.745,21.803 L9.745,18.001 Z" id="Shape" fill="#FFFFFF"></path>
        </g>
    </g>
</svg>