<?xml version="1.0" encoding="UTF-8"?>
<svg width="32px" height="32px" viewBox="0 0 32 32" version="1.1" xmlns="http://www.w3.org/2000/svg" xmlns:xlink="http://www.w3.org/1999/xlink">
    <!-- Generator: Sketch 51.2 (57519) - http://www.bohemiancoding.com/sketch -->
    <title>currency/poly</title>
    <desc>Created with Sketch.</desc>
    <defs></defs>
    <g id="currency/poly" stroke="none" stroke-width="1" fill="none" fill-rule="evenodd">
        <g id="poly" fill-rule="nonzero">
            <circle id="Oval" fill="#4C5A95" cx="16" cy="16" r="16"></circle>
            <polygon id="Shape" fill="#FFFFFF" points="27 11.263 26.956 10.556 26.738 11.149 25.512 12.179 24.108 12.388 23.688 11.999 24.919 10.366 26.179 10 24.815 10.028 22.832 11.41 20.973 11.282 18.363 10 16.821 10.299 12.01 14.145 9.692 14.862 8.738 15.793 7.032 15.816 6.187 17.326 5 17.654 6.122 17.801 7.165 16.448 8.777 16.771 8.747 18.219 7.942 20.303 7.482 22.231 6.987 23 8.243 22.734 8.1 21.946 9.168 19.828 11.224 19.031 12.02 17.763 13.365 16.823 16.035 17.198 18.724 16.063 18.269 17.858 17.073 17.962 16.732 19.434 17.755 18.779 19.451 18.072 20.776 16.073 20.86 15.128 21.572 15.835 23.643 17.084 24.82 16.547 24.751 13.908 24.409 12.887 25.947 12.512"></polygon>
        </g>
    </g>
</svg>