<?xml version="1.0" encoding="UTF-8"?>
<svg width="32px" height="32px" viewBox="0 0 32 32" version="1.1" xmlns="http://www.w3.org/2000/svg" xmlns:xlink="http://www.w3.org/1999/xlink">
    <!-- Generator: Sketch 51.2 (57519) - http://www.bohemiancoding.com/sketch -->
    <title>currency/pot</title>
    <desc>Created with Sketch.</desc>
    <defs></defs>
    <g id="currency/pot" stroke="none" stroke-width="1" fill="none" fill-rule="evenodd">
        <g id="pot" fill-rule="nonzero">
            <circle id="Oval" fill="#105B2F" cx="16" cy="16" r="16"></circle>
            <path d="M12.033,18.18 L11.643,20.167 L10.933,23.818 C10.913,23.928 10.885,24.002 10.745,24 C9.863,23.987 8.981,23.98 8.099,23.97 C8.078,23.97 8.056,23.956 8,23.935 L9.99,13.995 L8.313,13.995 C8.317,13.921 8.315,13.877 8.323,13.835 C8.426,13.298 8.537,12.762 8.63,12.223 C8.656,12.073 8.723,12.035 8.863,12.036 C9.273,12.04 9.683,12.025 10.091,12.039 C10.286,12.045 10.361,11.989 10.399,11.797 C10.627,10.609 10.871,9.425 11.105,8.239 C11.133,8.098 11.164,8.001 11.348,8.001 C13.356,8.007 15.365,7.988 17.373,8.014 C18.545,8.029 19.72,8.089 20.873,8.326 C21.27,8.408 21.673,8.514 22.041,8.678 C23.099,9.148 23.736,9.962 23.913,11.089 C24.188,12.84 23.817,14.449 22.693,15.851 C21.863,16.883 20.725,17.462 19.454,17.814 C18.446,18.093 17.412,18.18 16.37,18.182 C15.015,18.185 13.66,18.182 12.305,18.181 L12.033,18.181 L12.033,18.18 Z M12.588,15.442 L12.871,15.442 C14.304,15.442 15.737,15.445 17.171,15.44 C17.476,15.44 17.785,15.427 18.088,15.39 C19.245,15.252 20.124,14.697 20.686,13.69 C20.9271389,13.2533015 21.0081387,12.7460804 20.915,12.256 C20.797,11.559 20.381,11.104 19.674,10.976 C19.156404,10.8773568 18.6317121,10.8205068 18.105,10.806 C16.633,10.779 15.161,10.79 13.688,10.786 C13.635,10.786 13.582,10.794 13.511,10.8 L13.267,12.048 L17.357,12.048 L16.981,13.986 L12.878,13.986 L12.588,15.442 Z" id="Shape" fill="#FFFFFF"></path>
        </g>
    </g>
</svg>