<?xml version="1.0" encoding="UTF-8"?>
<svg width="32px" height="32px" viewBox="0 0 32 32" version="1.1" xmlns="http://www.w3.org/2000/svg" xmlns:xlink="http://www.w3.org/1999/xlink">
    <!-- Generator: Sketch 51.2 (57519) - http://www.bohemiancoding.com/sketch -->
    <title>currency/ppp</title>
    <desc>Created with Sketch.</desc>
    <defs></defs>
    <g id="currency/ppp" stroke="none" stroke-width="1" fill="none" fill-rule="evenodd">
        <g id="ppp" fill-rule="nonzero">
            <circle id="Oval" fill="#348F8D" cx="16" cy="16" r="16"></circle>
            <path d="M23.312,7.044 C23.808552,7.55915842 23.808552,8.37484158 23.312,8.89 L20.182,12.099 C20.0825556,12.2006105 19.9669978,12.2850826 19.84,12.349 C19.3674407,12.6156406 18.7743512,12.528857 18.398,12.138 L15.28,8.944 L9.275,15.103 L10.725,16.586 C11.1573498,17.0405518 11.1542618,17.7552014 10.718,18.206 C10.5109838,18.4201167 10.2263007,18.5416015 9.92847531,18.5429193 C9.63064995,18.5442371 9.34490292,18.4252764 9.136,18.213 L6.83,15.86 C6.39006635,15.4049438 6.39006635,14.6830562 6.83,14.228 L6.846,14.213 C6.85092277,14.2082453 6.85559571,14.2032386 6.86,14.198 L14.484,6.378 L14.485,6.378 L14.486,6.377 L14.511,6.351 C14.9042263,5.94236124 15.5370594,5.88243547 16,6.21 C16.072,6.259 16.14,6.314 16.2,6.377 L19.184,9.43 L21.511,7.044 C21.747373,6.80022076 22.0724407,6.66262692 22.412,6.66262692 C22.7515593,6.66262692 23.076627,6.80022076 23.313,7.044 L23.312,7.044 Z M25.17,16.146 C25.381,16.362 25.5,16.654 25.5,16.959 C25.5,17.264 25.382,17.557 25.171,17.773 L25.155,17.788 C25.1497356,17.7927284 25.1447284,17.7977356 25.14,17.803 L17.486,25.65 C17.2505187,25.8940842 16.9191595,26.0215512 16.5808051,25.9982098 C16.2424506,25.9748683 15.9317338,25.8031076 15.732,25.529 L12.815,22.545 L10.502,24.923 C10.18,25.255 9.71,25.386 9.269,25.265 C8.828,25.144 8.483,24.792 8.365,24.34 C8.248,23.889 8.375,23.407 8.7,23.078 L11.829,19.87 C12.007,19.684 12.236,19.558 12.486,19.508 C12.89,19.418 13.312,19.544 13.605,19.844 L16.731,23.042 L22.725,16.898 L21.275,15.415 C20.8426502,14.9604482 20.8457382,14.2457986 21.282,13.795 C21.4890162,13.5808833 21.7736993,13.4593985 22.0715247,13.4580807 C22.3693501,13.4567629 22.6550971,13.5757236 22.864,13.788 L25.137,16.113 L25.139,16.115 L25.142,16.117 L25.17,16.146 Z" id="Shape" fill="#FFFFFF"></path>
        </g>
    </g>
</svg>