<?xml version="1.0" encoding="UTF-8"?>
<svg width="32px" height="32px" viewBox="0 0 32 32" version="1.1" xmlns="http://www.w3.org/2000/svg" xmlns:xlink="http://www.w3.org/1999/xlink">
    <!-- Generator: Sketch 51.2 (57519) - http://www.bohemiancoding.com/sketch -->
    <title>currency/ppt</title>
    <desc>Created with Sketch.</desc>
    <defs></defs>
    <g id="currency/ppt" stroke="none" stroke-width="1" fill="none" fill-rule="evenodd">
        <g id="ppt" fill-rule="nonzero">
            <circle id="Oval" fill="#152743" cx="16" cy="16" r="16"></circle>
            <path d="M16.049,8.316 C14.733,8.316 13.666,7.583 13.666,6.678 C13.666,5.773 14.733,5.04 16.049,5.04 C17.365,5.04 18.431,5.773 18.431,6.678 C18.431,7.583 17.365,8.316 16.049,8.316 Z M14.816,26.6 L14.816,9.104 L20.128,9.104 C20.325,9.104 20.464,9.251 20.464,9.448 L20.464,19.156 C20.464,19.352 20.324,19.52 20.128,19.52 L17.2,19.52 L17.2,26.6 C17.2,26.797 17.05,26.976 16.853,26.976 L15.185,26.976 C14.9822406,26.968126 14.8206029,26.80386 14.816,26.601 L14.816,26.6 Z M13.92,19.519 L11.91,19.519 C11.7081356,19.5170019 11.5434669,19.3567362 11.536,19.155 L11.536,9.448 C11.536,9.251 11.713,9.104 11.909,9.104 L13.92,9.104 L13.92,19.52 L13.92,19.519 Z" id="Shape" fill="#FFFFFF"></path>
        </g>
    </g>
</svg>