<?xml version="1.0" encoding="UTF-8"?>
<svg width="32px" height="32px" viewBox="0 0 32 32" version="1.1" xmlns="http://www.w3.org/2000/svg" xmlns:xlink="http://www.w3.org/1999/xlink">
    <!-- Generator: Sketch 51.2 (57519) - http://www.bohemiancoding.com/sketch -->
    <title>currency/prl</title>
    <desc>Created with Sketch.</desc>
    <defs></defs>
    <g id="currency/prl" stroke="none" stroke-width="1" fill="none" fill-rule="evenodd">
        <g id="prl" fill-rule="nonzero">
            <circle id="Oval" fill="#1061E3" cx="16" cy="16" r="16"></circle>
            <path d="M24.281,20.867 C24.365,21.728 24.096,22.578 23.263,23.13 C22.864,23.395 22.419,23.5 21.941,23.5 C17.981,23.498 14.021,23.499 10.061,23.498 C9.97428621,23.498001 9.88758812,23.4956668 9.801,23.491 C8.933,23.444 8.113,22.815 7.833,21.994 C7.709,21.631 7.69,21.259 7.705,20.867 L10.115,20.867 C10.347,20.866 10.501,20.697 10.449,20.486 C10.4218015,20.4042054 10.3739189,20.3308315 10.31,20.273 C9.327,19.291 8.341,18.313 7.356,17.333 L6.454,16.435 C6.115,16.1 5.952,15.695 6.012,15.223 C6.042,14.991 6.117,14.763 6.192,14.539 C6.6129347,13.2701791 7.28151855,12.0975231 8.159,11.089 C9.4019555,9.64254501 11.0231917,8.57083929 12.841,7.994 C14.0243769,7.60666426 15.2699368,7.44486358 16.513,7.517 C19.449,7.693 21.894,8.887 23.832,11.088 C24.8234822,12.2135631 25.5451236,13.5504806 25.942,14.997 C26.092,15.536 25.95,16.021 25.551,16.418 C24.801,17.166 24.045,17.908 23.292,18.653 C22.739,19.2 22.187,19.749 21.635,20.298 C21.453,20.478 21.471,20.718 21.679,20.825 C21.739,20.855 21.814,20.865 21.882,20.865 C22.642,20.868 23.403,20.867 24.164,20.867 L24.281,20.867 Z M8.442,21.407 C8.453,21.729 8.539,22.015 8.727,22.265 C9.039,22.681 9.46,22.877 9.982,22.876 L22.01,22.876 C22.057,22.876 22.104,22.874 22.15,22.871 C22.5989596,22.8538544 23.0142313,22.6282838 23.273,22.261 C23.459,22.011 23.546,21.725 23.551,21.408 L8.442,21.407 Z M18.71,13.66 C18.739,13.679 18.76,13.69 18.777,13.703 C19.765,14.439 20.391,15.403 20.629,16.61 C20.759,17.266 20.741,17.92 20.587,18.571 C20.446636,19.1623699 20.1918432,19.720536 19.837,20.214 C19.7693248,20.2989623 19.7442708,20.4102315 19.769,20.516 C19.838,20.788 20.147,20.876 20.351,20.677 C20.651,20.386 20.944,20.089 21.241,19.795 C22.437,18.605 23.633,17.416 24.83,16.228 C25.09,15.97 25.204,15.662 25.14,15.302 C25.111,15.146 25.055,14.994 25.002,14.844 C24.6136653,13.7169852 24.0430901,12.6613029 23.313,11.719 C22.754445,10.9958364 22.0903591,10.3607411 21.343,9.835 C21.3049084,9.80762608 21.2784957,9.76693619 21.269,9.721 C21.2467568,9.50589551 21.1238154,9.3140869 20.9376545,9.20404686 C20.7514936,9.09400683 20.5241762,9.07877693 20.325,9.163 C20.2842666,9.17912822 20.2389823,9.17948479 20.198,9.164 C19.1438871,8.66225703 18.0032361,8.36758886 16.838,8.296 C15.9118199,8.22639616 14.9805085,8.27884546 14.068,8.452 C13.3055632,8.59725644 12.5653225,8.841314 11.866,9.178 C11.8117465,9.20885398 11.7452535,9.20885398 11.691,9.178 C11.4876713,9.07784785 11.2473653,9.08797912 11.053188,9.20489006 C10.8590106,9.32180101 10.7376211,9.52944057 10.731,9.756 C10.731,9.816 10.709,9.851 10.663,9.887 C10.357,10.13 10.039,10.361 9.753,10.626 C8.409,11.871 7.495,13.39 6.908,15.113 C6.76,15.549 6.858,15.923 7.183,16.246 L10.743,19.785 C11.041,20.082 11.338,20.379 11.639,20.674 C11.812,20.844 12.073,20.814 12.186,20.613 C12.263,20.474 12.244,20.337 12.153,20.209 C11.6745238,19.5466852 11.3805047,18.7691908 11.301,17.956 C11.2313229,17.2874469 11.3098522,16.6117534 11.531,15.977 C11.581,15.832 11.643,15.69 11.702,15.54 L13.114,16.37 C12.5071217,17.8378887 13.1027151,19.5272709 14.496,20.29 C15.8060005,21.0074596 17.4405031,20.6983199 18.398,19.552 C18.858,19.005 19.102,18.37 19.116,17.655 C19.136,16.589 18.695,15.739 17.866,15.077 L18.71,13.66 Z M23.375,16.7 C23.349,16.534 23.325,16.381 23.299,16.228 C23.2027275,15.6632601 23.0374917,15.1124742 22.807,14.588 C22.782,14.528 22.776,14.482 22.806,14.42 C22.8857657,14.2517647 22.8912335,14.0577688 22.8210702,13.8853077 C22.7509069,13.7128467 22.6115593,13.5777668 22.437,13.513 C22.2659473,13.4483953 22.0760356,13.4557278 21.9104734,13.5333292 C21.7449113,13.6109306 21.6177784,13.7522014 21.558,13.925 C21.4984983,14.0978528 21.5133542,14.2876422 21.5990269,14.4491313 C21.6846995,14.6106204 21.833514,14.7293426 22.01,14.777 C22.1064747,14.795378 22.1853621,14.8646917 22.216,14.958 C22.52,15.703 22.689,16.475 22.713,17.278 C22.7149703,17.3259004 22.6993165,17.3728618 22.669,17.41 C22.212,17.87 21.751,18.326 21.292,18.783 C21.276,18.798 21.257,18.81 21.25,18.817 C21.688,16.647 21.155,14.766 19.412,13.35 C17.601,11.88 15.583,11.767 13.464,12.723 L12.817,11.606 C13.048,11.503 13.27,11.396 13.497,11.302 C14.0816713,11.0685592 14.6958259,10.9171238 15.322,10.852 C15.403,10.843 15.462,10.856 15.525,10.92 C15.6501298,11.0489192 15.8224079,11.1212562 16.0020652,11.1203126 C16.1817225,11.119369 16.3532312,11.0452264 16.477,10.915 C16.5199497,10.8648967 16.5858213,10.840668 16.651,10.851 C18.184,11.017 19.514,11.619 20.636,12.672 C20.726,12.757 20.811,12.846 20.898,12.934 C21.053,13.09 21.224,13.094 21.382,12.942 L22.433,11.925 L22.531,11.832 C22.657,11.992 22.784,12.146 22.902,12.306 C23.59,13.237 24.105,14.255 24.452,15.356 C24.500945,15.4878631 24.4649396,15.6362368 24.361,15.731 L23.437,16.65 C23.421,16.665 23.402,16.677 23.375,16.7 Z M22.109,11.39 L21.211,12.259 C21.184,12.236 21.159,12.215 21.136,12.193 C20.2011192,11.2933949 19.0439629,10.6583912 17.783,10.353 C17.43,10.267 17.065,10.227 16.706,10.169 C16.643,10.159 16.6,10.146 16.561,10.086 C16.4353575,9.89509968 16.2219961,9.78034195 15.9934599,9.78074501 C15.7649236,9.78114807 15.5519684,9.89665769 15.427,10.088 C15.3970139,10.128376 15.3525875,10.1556052 15.303,10.164 C12.989,10.418 11.173,11.502 9.843,13.396 C9.81282815,13.4430939 9.76267845,13.4737 9.707,13.479 C9.241,13.555 9.004,14.009 9.197,14.439 C9.21215964,14.4775637 9.21215964,14.5204363 9.197,14.559 C8.91717694,15.1966943 8.73027357,15.8712303 8.642,16.562 C8.636,16.605 8.627,16.647 8.617,16.706 L8.531,16.626 C8.245,16.341 7.961,16.053 7.671,15.772 C7.537,15.642 7.493,15.504 7.556,15.322 C8.229,13.392 9.299,11.74 10.966,10.507 C10.985,10.493 11.005,10.481 11.023,10.466 C11.083,10.413 11.138,10.398 11.227,10.422 C11.408243,10.4725749 11.6023995,10.4446043 11.7619969,10.3449273 C11.9215943,10.2452502 12.0319205,10.0830552 12.066,9.898 C12.0761723,9.85844639 12.1017361,9.82460139 12.137,9.804 C12.5688571,9.59100393 13.0194303,9.41827305 13.483,9.288 C14.578,8.977 15.696,8.896 16.826,8.977 C17.8668466,9.04304077 18.8861018,9.30353594 19.831,9.745 C19.891,9.773 19.921,9.805 19.931,9.875 C19.9603128,10.0799649 20.0827424,10.2598627 20.2626567,10.3623356 C20.4425709,10.4648085 20.6597553,10.478343 20.851,10.399 C20.883,10.387 20.934,10.386 20.959,10.403 C21.368,10.685 21.744,11.005 22.091,11.358 C22.098,11.365 22.101,11.375 22.109,11.39 Z M18.445,17.57 C18.452,18.901 17.355,19.998 16.009,20.006 C14.6618854,20.0099 13.5645458,18.9250708 13.553,17.578 C13.547,16.245 14.642,15.151 15.991,15.144 C17.3381956,15.1362447 18.4367402,16.2218074 18.445,17.569 L18.445,17.57 Z M10.747,18.834 L10.115,18.199 C9.855,17.939 9.593,17.683 9.335,17.421 C9.30146715,17.3869145 9.2815507,17.3417469 9.279,17.294 C9.30289875,16.4669948 9.48200733,15.6518472 9.807,14.891 C9.82395209,14.8407034 9.86753898,14.8040596 9.92,14.796 C10.369,14.691 10.578,14.299 10.419,13.871 C10.409,13.841 10.409,13.796 10.424,13.771 C10.9154041,13.0441342 11.5462744,12.4221015 12.28,11.941 C12.283,11.939 12.286,11.939 12.3,11.935 L12.565,12.387 L13.121,13.347 C13.233,13.543 13.379,13.586 13.572,13.469 C14.0764414,13.1631109 14.6354346,12.9579882 15.218,12.865 C16.2195856,12.6955495 17.2491142,12.8544511 18.153,13.318 C18.162,13.323 18.169,13.33 18.187,13.344 L17.348,14.751 C15.763,14.156 14.453,14.511 13.395,15.828 L11.988,15.001 C12.114,14.832 12.234,14.669 12.357,14.509 C12.407,14.443 12.465,14.383 12.521,14.321 C12.607,14.225 12.607,14.171 12.519,14.081 C12.4415764,14.0024257 12.3635743,13.9244236 12.285,13.847 C12.179,13.743 12.127,13.743 12.027,13.851 C11.6003368,14.3076493 11.2577348,14.8361095 11.015,15.412 C10.6708895,16.2187809 10.5340697,17.0988276 10.617,17.972 C10.643,18.252 10.7,18.529 10.747,18.834 Z M15.995,10.824 C15.7887456,10.8197356 15.6227166,10.653265 15.619,10.447 C15.6258906,10.2410448 15.7929613,10.0766121 15.999,10.073 C16.2052444,10.0778109 16.3708327,10.2447238 16.374,10.451 C16.3696767,10.657681 16.2017202,10.8234217 15.995,10.825 L15.995,10.824 Z M11.395,9.41 C11.4947853,9.40731533 11.5914832,9.44473909 11.663463,9.5138999 C11.7354429,9.5830607 11.776698,9.67818707 11.778,9.778 C11.778,9.98676364 11.6087636,10.156 11.4,10.156 C11.1912364,10.156 11.022,9.98676364 11.022,9.778 C11.0241959,9.57372358 11.1907125,9.40943904 11.395,9.41 Z M22.196,14.51 C21.9980904,14.5017681 21.8413422,14.3398978 21.8394762,14.1418259 C21.8376101,13.943754 21.9912807,13.7789592 22.189,13.767 C22.3941738,13.765067 22.562067,13.9298262 22.564,14.135 C22.565933,14.3401738 22.4011738,14.508067 22.196,14.51 Z M20.593,9.41 C20.806,9.41 20.968,9.57 20.967,9.782 C20.9664538,9.98572893 20.8017267,10.1509025 20.598,10.152 C20.4984633,10.1536026 20.4023949,10.1154561 20.3310705,10.0460087 C20.2597461,9.97656124 20.2190518,9.88154403 20.218,9.782 C20.2166272,9.68231113 20.2557609,9.58633124 20.3264465,9.51602263 C20.3971321,9.44571401 20.4933199,9.40709411 20.593,9.409 L20.593,9.41 Z M10.175,14.138 C10.1755511,14.2375249 10.1359835,14.3330751 10.0652324,14.4030736 C9.99448123,14.473072 9.89851331,14.5116155 9.799,14.51 C9.69931113,14.5113728 9.60333124,14.4722391 9.53302263,14.4015535 C9.46271401,14.3308679 9.42409411,14.2346801 9.426,14.135 C9.42710172,13.9310454 9.59304317,13.7664458 9.797,13.767 C9.89660251,13.7651204 9.99277615,13.8033764 10.0638735,13.8731572 C10.1349709,13.9429379 10.1750177,14.0383798 10.175,14.138 Z" id="Shape" fill="#FFFFFF"></path>
        </g>
    </g>
</svg>