<?xml version="1.0" encoding="UTF-8"?>
<svg width="32px" height="32px" viewBox="0 0 32 32" version="1.1" xmlns="http://www.w3.org/2000/svg" xmlns:xlink="http://www.w3.org/1999/xlink">
    <!-- Generator: Sketch 51.2 (57519) - http://www.bohemiancoding.com/sketch -->
    <title>currency/pura</title>
    <desc>Created with Sketch.</desc>
    <defs></defs>
    <g id="currency/pura" stroke="none" stroke-width="1" fill="none" fill-rule="evenodd">
        <g id="pura" fill-rule="nonzero">
            <circle id="Oval" fill="#333333" cx="16" cy="16" r="16"></circle>
            <path d="M11.192,8 L18.956,8 C21.104,8.127 23.467,9.01 24.416,11.06 C25.603,13.671 25.013,17.343 22.339,18.833 C19.873,20.243 16.923,19.687 14.215,19.803 C14.142,21.137 14.515,22.689 13.585,23.817 C13.211,24.357 11.496,25 11.496,25 C11.496,25 11.338,23.551 11.28,20.29 C11.243,19.39 11.39,18.38 12.163,17.795 C13.068,17.017 14.351,17.26 15.45,17.22 C17.11,17.176 18.854,17.43 20.43,16.79 C22.742,15.845 22.826,11.986 20.496,11.013 C18.117,10.091 15.49,10.93 13.046,10.42 C11.936,10.109 11.437,9.016 11.192,8 Z M7,12.43 C9.03,12.467 11.064,12.359 13.09,12.481 C14.563,12.594 15.53,13.928 15.684,15.292 C13.64,15.282 11.591,15.357 9.546,15.267 C8.29,15.194 7.363,14.174 7,13.049 L7,12.431 L7,12.43 Z" id="Shape" fill="#FFFFFF"></path>
        </g>
    </g>
</svg>