<?xml version="1.0" encoding="UTF-8"?>
<svg width="32px" height="32px" viewBox="0 0 32 32" version="1.1" xmlns="http://www.w3.org/2000/svg" xmlns:xlink="http://www.w3.org/1999/xlink">
    <!-- Generator: Sketch 51.2 (57519) - http://www.bohemiancoding.com/sketch -->
    <title>currency/qiwi</title>
    <desc>Created with Sketch.</desc>
    <defs></defs>
    <g id="currency/qiwi" stroke="none" stroke-width="1" fill="none" fill-rule="evenodd">
        <g id="qiwi" fill-rule="nonzero">
            <circle id="Oval" fill="#FF8C00" cx="16" cy="16" r="16"></circle>
            <path d="M22.59,19.445 C22.641,19.846 22.527,20.001 22.4,20.001 C22.273,20.001 22.095,19.846 21.905,19.536 C21.715,19.226 21.638,18.876 21.74,18.696 C21.803,18.579 21.943,18.527 22.108,18.592 C22.438,18.722 22.565,19.225 22.59,19.445 Z M20.813,20.325 C21.206,20.661 21.321,21.048 21.117,21.333 C20.987303,21.4845006 20.7963785,21.5696823 20.597,21.565 C20.3777873,21.5671697 20.1653855,21.4888977 20,21.345 C19.645,21.035 19.543,20.518 19.771,20.234 C19.8697162,20.1117924 20.0211353,20.0444537 20.178,20.053 C20.381,20.053 20.61,20.143 20.813,20.324 L20.813,20.325 Z M7,14.894 C7,9.981 10.91,6 15.734,6 C20.559,6 24.469,9.982 24.469,14.894 C24.469102,16.4973731 24.0443554,18.0721442 23.238,19.458 C23.212,19.497 23.148,19.484 23.136,19.432 C22.832,17.247 21.524,16.045 19.62,15.683 C19.454,15.657 19.429,15.553 19.645,15.528 C20.229,15.476 21.054,15.489 21.485,15.567 C21.511,15.347 21.524,15.114 21.524,14.881 C21.524,11.636 18.934,8.999 15.747,8.999 C12.561,8.999 9.971,11.636 9.971,14.881 C9.971,18.127 12.561,20.764 15.747,20.764 L16.014,20.764 C15.9233361,20.2390881 15.8848152,19.7064953 15.899,19.174 C15.912,18.812 15.989,18.76 16.141,19.044 C16.941,20.454 18.083,21.721 20.318,22.224 C22.146,22.639 23.974,23.117 25.942,25.664 C26.119,25.884 25.853,26.116 25.65,25.935 C23.644,24.125 21.816,23.53 20.153,23.53 C18.286,23.544 17.017,23.79 15.734,23.79 C10.91,23.79 7,19.806 7,14.893 L7,14.894 Z" id="Shape" fill="#FFFFFF"></path>
        </g>
    </g>
</svg>