<?xml version="1.0" encoding="UTF-8"?>
<svg width="32px" height="32px" viewBox="0 0 32 32" version="1.1" xmlns="http://www.w3.org/2000/svg" xmlns:xlink="http://www.w3.org/1999/xlink">
    <!-- Generator: Sketch 51.2 (57519) - http://www.bohemiancoding.com/sketch -->
    <title>currency/qsp</title>
    <desc>Created with Sketch.</desc>
    <defs></defs>
    <g id="currency/qsp" stroke="none" stroke-width="1" fill="none" fill-rule="evenodd">
        <g id="qsp" fill-rule="nonzero">
            <circle id="Oval" fill="#454545" cx="16" cy="16" r="16"></circle>
            <path d="M11.5,16 C11.5,13.519 13.519,11.5 16,11.5 C18.481,11.5 20.5,13.519 20.5,16 C20.5,16.653 20.357,17.272 20.106,17.833 L17.136,14.863 L14.864,17.136 L17.834,20.106 C17.2574342,20.3656305 16.632326,20.4999231 16,20.5 C13.5158609,20.4972444 11.5027556,18.4841391 11.5,16 M23.313,16 C23.3142842,14.5875503 22.9042618,13.2052883 22.133,12.022 L25,9.154 L22.846,7 L19.978,9.868 C18.832,9.123 17.468,8.687 16,8.687 C14.532,8.687 13.168,9.123 12.022,9.867 L9.154,7 L7,9.154 L9.868,12.022 C9.123,13.168 8.687,14.532 8.687,16 C8.687,17.468 9.124,18.832 9.868,19.978 L7,22.846 L9.154,25 L12.022,22.132 C13.168,22.877 14.532,23.313 16,23.313 C17.468,23.313 18.832,22.877 19.978,22.132 L22.846,25 L25,22.846 L22.132,19.978 C22.9036675,18.7948456 23.3140446,17.4125594 23.313,16" id="Shape" fill="#FFFFFF"></path>
        </g>
    </g>
</svg>