<?xml version="1.0" encoding="UTF-8"?>
<svg width="32px" height="32px" viewBox="0 0 32 32" version="1.1" xmlns="http://www.w3.org/2000/svg" xmlns:xlink="http://www.w3.org/1999/xlink">
    <!-- Generator: Sketch 51.2 (57519) - http://www.bohemiancoding.com/sketch -->
    <title>currency/qtum</title>
    <desc>Created with Sketch.</desc>
    <defs></defs>
    <g id="currency/qtum" stroke="none" stroke-width="1" fill="none" fill-rule="evenodd">
        <g id="qtum" fill-rule="nonzero">
            <circle id="Oval" fill="#2E9AD0" cx="16" cy="16" r="16"></circle>
            <path d="M25.313,23.636 L23.34,21.88 L19.348,24.875 C19.3956315,24.9795427 19.4201883,25.0931179 19.42,25.208 C19.4233303,25.641327 19.0753175,25.9956022 18.642,26 C18.2649006,25.997801 17.9429383,25.7271173 17.876,25.356 L13.566,25.356 C13.4991313,25.7267491 13.1777216,25.9973215 12.801,26 C12.3672906,25.9961501 12.018672,25.6417137 12.022,25.208 C12.021784,25.0938652 12.0459926,24.9810053 12.093,24.877 L8.547,22.237 C8.40568035,22.3651099 8.22174427,22.4360465 8.031,22.436 C7.59729064,22.4321501 7.24867202,22.0777137 7.252,21.644 C7.252,21.344 7.416,21.083 7.658,20.948 L6.355,16.788 C6.13451819,16.8074349 5.91606079,16.7330076 5.75330509,16.5830059 C5.59054939,16.4330042 5.49858189,16.2213322 5.5,16 C5.49866714,15.7743562 5.59437581,15.5590227 5.76276285,15.4088138 C5.9311499,15.2586049 6.15597219,15.1880102 6.38,15.215 L7.661,11.054 C7.40747,10.9134407 7.25069245,10.6458839 7.252,10.356 C7.252,9.919 7.601,9.564 8.031,9.564 C8.233,9.564 8.417,9.642 8.555,9.77 L12.128,7.19 C12.0584923,7.06887644 12.0219447,6.9316504 12.022,6.792 C12.022,6.355 12.371,6 12.801,6 C13.181,6 13.498,6.277 13.566,6.644 L17.876,6.644 C17.9429383,6.27288268 18.2649006,6.00219898 18.642,6 C19.072,6 19.42,6.355 19.42,6.792 C19.4203108,6.9245818 19.3876657,7.05516233 19.325,7.172 L22.875,9.782 C23.0187781,9.6421709 23.21144,9.56395804 23.412,9.564 C23.842,9.564 24.19,9.919 24.19,10.356 C24.1911837,10.6230546 24.0582038,10.8728615 23.836,11.021 L25.112,15.21 C25.3293715,15.1950984 25.5430125,15.2721485 25.7008341,15.4223642 C25.8586557,15.57258 25.9461556,15.782158 25.942,16 C25.9436793,16.2126554 25.8591171,16.4169157 25.707616,16.5661556 C25.5561149,16.7153955 25.3506061,16.7968768 25.138,16.792 L23.641,21.622 L25.558,23.328 C25.764,23.142 26.035,23.03 26.332,23.03 C26.977,23.03 27.5,23.562 27.5,24.218 C27.5,24.874 26.977,25.406 26.332,25.406 C26.0195714,25.4033591 25.7209895,25.2767087 25.5019446,25.053913 C25.2828997,24.8311174 25.1613365,24.5304284 25.164,24.218 C25.164,24.006 25.218,23.808 25.314,23.636 L25.313,23.636 Z M18.708,24.419 L20.195,21.07 C20.0728709,20.969101 19.983716,20.8339757 19.939,20.682 L16.489,21.184 C16.4645047,21.3306567 16.3993719,21.4675048 16.301,21.579 L18.348,24.474 C18.461823,24.4269546 18.5853222,24.4080867 18.708,24.419 Z M19.101,24.569 L22.97,21.666 L21.302,20.94 C21.1265608,21.1722626 20.8355223,21.2862817 20.549,21.235 L19.076,24.551 C19.0844424,24.5565046 19.0927773,24.5621724 19.101,24.568 L19.101,24.569 Z M18.036,24.71 L15.976,21.798 C15.8109905,21.856254 15.6310095,21.856254 15.466,21.798 L13.406,24.71 C13.4656468,24.7845509 13.5113769,24.8692363 13.541,24.96 L17.901,24.96 C17.9306231,24.8692363 17.9763532,24.7845509 18.036,24.71 Z M24.764,16.68 C24.5275915,16.5350662 24.3839231,16.277297 24.385,16 C24.385,15.72 24.527,15.475 24.742,15.334 L23.536,11.374 L23.266,15.248 C23.576,15.352 23.801,15.649 23.801,16 C23.8025551,16.3372005 23.5901706,16.6383127 23.272,16.75 L23.538,20.636 L24.764,16.68 Z M22.51,15.403 L20.926,12.298 C20.7969789,12.3406863 20.6589242,12.3482793 20.526,12.32 L19.134,15.387 C19.3157305,15.5386493 19.4205467,15.7633078 19.42,16 C19.4204354,16.2406326 19.3119923,16.4685467 19.125,16.62 L20.56,19.674 C20.663079,19.6569545 20.7685471,19.6610371 20.87,19.686 L22.489,16.576 C22.331734,16.4256833 22.2428434,16.2175493 22.243,16 C22.243,15.762 22.347,15.548 22.51,15.403 Z M22.884,16.78 C22.8658609,16.776654 22.847849,16.7726514 22.83,16.768 L21.213,19.872 C21.4055549,20.0519655 21.4965452,20.3155752 21.456,20.576 L23.196,21.334 L22.884,16.78 Z M22.878,15.222 L23.164,11.108 C23.0133477,11.056178 22.8821471,10.9595222 22.788,10.831 L21.45,11.39 C21.4975243,11.6394251 21.4253387,11.896702 21.255,12.085 L22.859,15.225 C22.8653205,15.2239202 22.8716543,15.2229201 22.878,15.222 Z M18.77,16.782 C18.6583658,16.8006618 18.5439918,16.7945164 18.435,16.764 L16.312,20.534 C16.375,20.608 16.424,20.694 16.457,20.788 L19.925,20.284 C19.965,20.103 20.065,19.944 20.203,19.834 L18.77,16.78 L18.77,16.782 Z M18.78,15.221 L20.177,12.144 C20.0350345,12.0192582 19.9421492,11.8480231 19.915,11.661 L16.44,11.156 C16.4017698,11.2493226 16.3461109,11.3345078 16.276,11.407 L18.415,15.242 C18.533509,15.2055182 18.6590961,15.1983124 18.781,15.221 L18.78,15.221 Z M18.098,16.567 C17.9470205,16.4170136 17.8623881,16.2128153 17.863,16 C17.863,15.786 17.947,15.591 18.083,15.449 L15.943,11.611 C15.8236998,11.6471434 15.6973881,11.653665 15.575,11.63 L13.368,15.457 C13.5046969,15.6047371 13.5804339,15.7987238 13.58,16 C13.5806168,16.2089013 13.4990872,16.4096725 13.353,16.559 L15.521,20.284 C15.676214,20.2422998 15.8405992,20.2503441 15.991,20.307 L18.098,16.567 Z M6.721,16.652 L7.963,20.618 L8.256,16.774 C7.89535373,16.6915868 7.64019598,16.3699384 7.642,16 C7.642,15.615 7.912,15.295 8.269,15.223 L7.966,11.389 L6.743,15.364 C6.94205566,15.5147651 7.05870944,15.7502946 7.058,16 C7.058,16.27 6.924,16.51 6.721,16.652 Z M10.609,19.678 C10.7243945,19.6553749 10.8434381,19.6594798 10.957,19.69 L12.327,16.629 C12.1337825,16.47758 12.021238,16.24548 12.022,16 C12.022,15.752 12.134,15.531 12.309,15.386 L10.917,12.32 C10.8208768,12.3402785 10.7217611,12.3419757 10.625,12.325 L8.946,15.416 C9.10824286,15.5668408 9.20028696,15.7784698 9.2,16 C9.20063964,16.215276 9.11405683,16.4216317 8.96,16.572 L10.61,19.678 L10.609,19.678 Z M10.933,21.228 C10.6420402,21.296304 10.3378591,21.1898407 10.153,20.955 L8.803,21.543 C8.81831675,21.6659727 8.805319,21.7908195 8.765,21.908 L12.34,24.57 C12.3504713,24.5620651 12.3611413,24.5543959 12.372,24.547 L10.932,21.227 L10.933,21.228 Z M9.99,20.595 C9.93936951,20.3159038 10.0410836,20.0309518 10.257,19.847 L8.644,16.812 L8.331,20.912 C8.46223833,20.96817 8.57564966,21.0591066 8.659,21.175 L9.99,20.595 Z M11.52,20.296 L14.985,20.79 C15.0252547,20.6719729 15.0927436,20.5650869 15.182,20.478 L13.018,16.761 C12.9103504,16.7928723 12.7970162,16.8007238 12.686,16.784 L11.296,19.885 C11.408,19.994 11.488,20.136 11.52,20.296 Z M11.5,20.693 C11.4582921,20.8272637 11.381682,20.9480455 11.278,21.043 L12.741,24.418 C12.8614211,24.4089455 12.9822936,24.4281207 13.094,24.474 L15.142,21.579 C15.0439622,21.4680608 14.9788506,21.3319498 14.954,21.186 L11.5,20.693 Z M9.997,11.371 L8.666,10.815 C8.58251691,10.9349276 8.46717897,11.0291376 8.333,11.087 L8.653,15.138 L10.269,12.162 C10.03631,11.9712396 9.93106908,11.6655767 9.997,11.372 L9.997,11.371 Z M10.947,10.776 L12.322,7.536 L8.769,10.102 C8.80570092,10.2123765 8.81798419,10.3294087 8.805,10.445 L10.175,11.018 C10.3659419,10.797953 10.6646126,10.7043283 10.947,10.776 Z M11.529,11.649 C11.5043382,11.8404583 11.4108566,12.0164028 11.266,12.144 L12.662,15.221 C12.7881158,15.1977248 12.918048,15.2063182 13.04,15.246 L15.222,11.46 C15.1251712,11.3771345 15.0497123,11.2721781 15.002,11.154 L11.529,11.649 Z M11.289,10.967 C11.373,11.047 11.439,11.146 11.482,11.256 L14.947,10.762 C14.9629086,10.6171917 15.0182516,10.479526 15.107,10.364 L13.117,7.516 C12.9949418,7.57146708 12.8604498,7.59388241 12.727,7.581 L11.29,10.967 L11.289,10.967 Z M20.612,10.756 C20.8667374,10.732421 21.1166999,10.8360731 21.28,11.033 L22.64,10.465 C22.6244924,10.3485964 22.6343859,10.2302148 22.669,10.118 L19.14,7.524 L20.611,10.756 L20.612,10.756 Z M19.956,11.266 C20.0121692,11.1143547 20.1133584,10.9835067 20.246,10.891 L18.736,7.578 C18.596238,7.59500814 18.454484,7.57357216 18.326,7.516 L16.336,10.364 C16.422,10.477 16.479,10.614 16.496,10.764 L19.956,11.267 L19.956,11.266 Z M18.02,7.27 C17.9683821,7.20028443 17.9285219,7.1225909 17.902,7.04 L13.54,7.04 C13.5131705,7.12265527 13.4729706,7.20035249 13.421,7.27 L15.415,10.123 C15.609539,10.0384262 15.830461,10.0384262 16.025,10.123 L18.02,7.27 Z" id="Shape" fill="#FFFFFF"></path>
        </g>
    </g>
</svg>