<?xml version="1.0" encoding="UTF-8"?>
<svg width="32px" height="32px" viewBox="0 0 32 32" version="1.1" xmlns="http://www.w3.org/2000/svg" xmlns:xlink="http://www.w3.org/1999/xlink">
    <!-- Generator: Sketch 51.2 (57519) - http://www.bohemiancoding.com/sketch -->
    <title>currency/rads</title>
    <desc>Created with Sketch.</desc>
    <defs></defs>
    <g id="currency/rads" stroke="none" stroke-width="1" fill="none" fill-rule="evenodd">
        <g id="rads" fill-rule="nonzero">
            <circle id="Oval" fill="#9D4BEF" cx="16" cy="16" r="16"></circle>
            <path d="M11.47,7.661 C13.5731003,7.661 15.278,9.36589967 15.278,11.469 C15.278,13.5721003 13.5731003,15.277 11.47,15.277 C9.36689967,15.277 7.662,13.5721003 7.662,11.469 C7.662,9.36589967 9.36689967,7.661 11.47,7.661 Z M15.277,20.531 C15.277,22.6341003 13.5721003,24.339 11.469,24.339 C9.36589967,24.339 7.661,22.6341003 7.661,20.531 C7.661,18.4278997 9.36589967,16.723 11.469,16.723 C14.3701518,16.723 16.722,14.3711518 16.722,11.47 C16.722,9.36689967 18.4268997,7.662 20.53,7.662 C22.6331003,7.662 24.338,9.36689967 24.338,11.47 C24.338,13.5731003 22.6331003,15.278 20.53,15.278 C17.6292387,15.2785522 15.2779999,17.6302387 15.278,20.531 L15.277,20.531 Z M20.53,24.339 C18.4268997,24.339 16.722,22.6341003 16.722,20.531 C16.722,18.4278997 18.4268997,16.723 20.53,16.723 C22.6331003,16.723 24.338,18.4278997 24.338,20.531 C24.338,22.6341003 22.6331003,24.339 20.53,24.339 Z M20.53,21.679 C21.1640229,21.679 21.678,21.1650229 21.678,20.531 C21.678,19.8969771 21.1640229,19.383 20.53,19.383 C19.8959771,19.383 19.3820001,19.8969771 19.3820001,20.531 C19.3820001,21.1650229 19.8959771,21.679 20.53,21.679 Z M11.47,21.679 C12.1040229,21.679 12.618,21.1650229 12.618,20.531 C12.618,19.8969771 12.1040229,19.383 11.47,19.383 C10.8359771,19.383 10.3220001,19.8969771 10.3220001,20.531 C10.3220001,21.1650229 10.8359771,21.679 11.47,21.679 Z M20.53,12.617 C21.1640229,12.617 21.678,12.1030229 21.678,11.469 C21.678,10.8349771 21.1640229,10.321 20.53,10.321 C19.8959771,10.321 19.382,10.8349771 19.382,11.469 C19.382,12.1030229 19.8959771,12.617 20.53,12.617 Z M11.47,12.617 C12.1040229,12.617 12.618,12.1030229 12.618,11.469 C12.618,10.8349771 12.1040229,10.321 11.47,10.321 C10.8359771,10.321 10.322,10.8349771 10.322,11.469 C10.322,12.1030229 10.8359771,12.617 11.47,12.617 Z" id="Shape" fill="#FFFFFF"></path>
        </g>
    </g>
</svg>