<?xml version="1.0" encoding="UTF-8"?>
<svg width="32px" height="32px" viewBox="0 0 32 32" version="1.1" xmlns="http://www.w3.org/2000/svg" xmlns:xlink="http://www.w3.org/1999/xlink">
    <!-- Generator: Sketch 51.2 (57519) - http://www.bohemiancoding.com/sketch -->
    <title>currency/rep</title>
    <desc>Created with Sketch.</desc>
    <defs></defs>
    <g id="currency/rep" stroke="none" stroke-width="1" fill="none" fill-rule="evenodd">
        <g id="rep" fill-rule="nonzero">
            <circle id="Oval" fill="#602A52" cx="16" cy="16" r="16"></circle>
            <path d="M20.582,16.312 C20.3036908,15.5358697 19.8071228,14.856648 19.152,14.356 L19.145,14.348 C19.0755775,14.2954777 19.0045433,14.2451201 18.932,14.197 L18.918,14.187 C18.8465343,14.140089 18.7738423,14.0950733 18.7,14.052 L18.68,14.04 C18.6075964,13.9980349 18.5331732,13.9596553 18.457,13.925 L18.435,13.913 C18.3570586,13.8763921 18.2783754,13.8413847 18.199,13.808 L18.173,13.798 C17.916099,13.6913459 17.6495395,13.6096367 17.377,13.554 C17.2199516,13.838808 17.0180294,14.0964445 16.779,14.317 C17.3403626,14.3617926 17.8826675,14.5411888 18.36,14.84 L18.387,14.856 L18.519,14.946 L18.579,14.988 C18.619,15.018 18.656,15.048 18.697,15.078 L18.764,15.132 C18.8,15.162 18.833,15.192 18.867,15.223 L18.935,15.288 L19.028,15.382 L19.096,15.455 L19.179,15.552 L19.244,15.633 L19.319,15.733 C19.344,15.766 19.361,15.792 19.381,15.821 C19.401,15.85 19.427,15.888 19.448,15.923 L19.506,16.019 C19.524,16.051 19.546,16.087 19.564,16.121 C19.584,16.154 19.6,16.191 19.618,16.227 C19.635,16.263 19.652,16.293 19.667,16.327 C19.682,16.363 19.704,16.416 19.721,16.461 C19.8158884,16.6977789 19.8830032,16.9447614 19.921,17.197 L20.03,17.601 C20.076,17.769 20.501,19.257 21.486,19.758 C22.615,20.337 24.11,21.052 24.698,21.335 L16.932,25.895 L16.932,22.77 C16.932,22.277 17.932,21.7 18.395,21.497 L18.422,21.482 C18.517,21.435 18.612,21.384 18.702,21.33 L18.741,21.31 C18.941,21.189 19.133,21.053 19.311,20.903 L19.359,20.86 L19.414,20.811 C19.4703092,20.7604024 19.5253269,20.7083857 19.579,20.655 L19.607,20.628 C19.666,20.569 19.725,20.513 19.777,20.444 L19.826,20.388 C19.87,20.336 19.912,20.283 19.953,20.229 L19.989,20.184 C20.039,20.118 20.085,20.05 20.131,19.981 L20.147,19.961 C20.209,19.864 20.264,19.767 20.322,19.666 C20.1042171,19.4031063 19.9176389,19.1158564 19.766,18.81 C19.704,18.983 19.626,19.151 19.536,19.312 C19.498,19.382 19.458,19.45 19.418,19.516 L19.4,19.543 C19.3622568,19.59912 19.3229072,19.6541427 19.282,19.708 L19.246,19.754 C19.2052613,19.8065825 19.1625647,19.8576184 19.118,19.907 L19.094,19.935 C18.8046838,20.2509534 18.4591454,20.5103615 18.075,20.7 L18.002,20.737 C17.805,20.824 16.069,21.594 16.069,22.765 L16.069,25.891 L8.279,21.323 C8.78,21.017 10.244,20.165 11.448,19.79 C11.919,19.646 12.919,20.263 13.486,20.716 L13.52,20.746 C13.595,20.816 13.674,20.883 13.756,20.946 L13.784,20.971 C13.964,21.115 14.156,21.244 14.357,21.358 L14.492,21.431 L14.519,21.445 C14.65,21.511 14.784,21.571 14.921,21.624 L14.981,21.647 L15.021,21.663 C15.218,21.735 15.421,21.791 15.626,21.833 C15.786,21.546 15.995,21.286 16.242,21.065 C15.9133665,21.0406681 15.5898276,20.9699676 15.281,20.855 L15.228,20.835 L15.126,20.794 L15.074,20.772 L14.975,20.726 C14.7457292,20.6147883 14.5294218,20.478632 14.33,20.32 L14.02,20.044 C13.7353563,19.798894 13.4271929,19.5825097 13.1,19.398 C12.33,18.968 11.686,18.828 11.192,18.98 C10.162,19.298 9.002,19.916 8.294,20.324 L16.072,6.607 L16.072,12.614 C16.072,12.827 15.752,13.383 14.683,13.855 L14.609,13.895 C14.505,13.945 14.404,13.999 14.305,14.057 L14.285,14.067 C13.9558353,14.2608991 13.6538648,14.4976332 13.387,14.771 L13.377,14.781 C13.2758387,14.8850521 13.1800477,14.9941938 13.09,15.108 L13.079,15.123 C13.0355412,15.1784787 12.9931993,15.2348233 12.952,15.292 L12.938,15.312 C12.9009176,15.3659461 12.8649105,15.4206236 12.83,15.476 L12.818,15.493 C12.783,15.55 12.749,15.607 12.717,15.666 L12.694,15.707 C12.665,15.763 12.636,15.823 12.607,15.875 L12.594,15.902 C12.568,15.955 12.544,16.008 12.521,16.062 L12.496,16.122 C12.473,16.178 12.452,16.238 12.431,16.292 L12.411,16.352 C12.3957012,16.3949029 12.3816949,16.4382558 12.369,16.482 C12.362,16.506 12.354,16.529 12.348,16.554 C12.2905978,16.7548066 12.2488066,16.9597506 12.223,17.167 L12.213,17.26 C12.2082706,17.3022346 12.2046028,17.3445812 12.202,17.387 C12.2,17.43 12.202,17.472 12.195,17.514 C12.188,17.557 12.195,17.566 12.195,17.594 L12.195,17.689 C12.195,17.899 12.211,18.109 12.243,18.318 C12.5779939,18.3997335 12.9022187,18.5205627 13.209,18.678 C13.1148229,18.3760733 13.0643115,18.0622291 13.059,17.746 L13.059,17.689 C13.059,17.613 13.059,17.538 13.068,17.458 L13.068,17.398 C13.068,17.333 13.081,17.267 13.09,17.202 L13.09,17.174 C13.1,17.101 13.115,17.029 13.132,16.959 L13.144,16.904 C13.159,16.844 13.174,16.786 13.193,16.727 L13.205,16.689 C13.225,16.62 13.25,16.553 13.276,16.486 L13.296,16.441 C13.318,16.386 13.342,16.331 13.367,16.276 L13.386,16.234 C13.417,16.169 13.451,16.106 13.486,16.043 L13.505,16.012 C13.5365089,15.9577583 13.5695217,15.9044043 13.604,15.852 L13.629,15.815 C13.67,15.755 13.712,15.699 13.757,15.637 L13.765,15.627 C13.808,15.572 13.853,15.519 13.899,15.467 L13.924,15.437 C14.135,15.205 14.377,15.002 14.644,14.834 L15.012,14.664 C15.209,14.577 16.937,13.786 16.937,12.614 L16.937,6.607 L24.776,20.427 C24.076,20.09 22.846,19.495 21.886,19.007 C21.338,18.727 20.964,17.74 20.868,17.386 L20.762,16.971 C20.7227646,16.7483108 20.6652364,16.5292355 20.59,16.316 L20.582,16.312 Z M25.892,20.662 L17.252,5.436 C17.0966709,5.16487263 16.8074649,4.99830221 16.495,5 C16.1832491,4.9990235 15.8949758,5.16549656 15.74,5.436 L7.11,20.663 C6.88388175,21.0625507 7.02227329,21.5696887 7.42,21.799 L16.057,26.879 C16.3312986,27.0392948 16.6707014,27.0392948 16.945,26.879 L25.581,21.803 C25.9784972,21.574061 26.1172763,21.0675844 25.892,20.668 L25.894,20.662 L25.892,20.662 Z" id="Shape" fill="#FFFFFF"></path>
        </g>
    </g>
</svg>