<?xml version="1.0" encoding="UTF-8"?>
<svg width="32px" height="32px" viewBox="0 0 32 32" version="1.1" xmlns="http://www.w3.org/2000/svg" xmlns:xlink="http://www.w3.org/1999/xlink">
    <!-- Generator: Sketch 51.2 (57519) - http://www.bohemiancoding.com/sketch -->
    <title>currency/req</title>
    <desc>Created with Sketch.</desc>
    <defs></defs>
    <g id="currency/req" stroke="none" stroke-width="1" fill="none" fill-rule="evenodd">
        <g id="req" fill-rule="nonzero">
            <circle id="Oval" fill="#6CFCCD" cx="16" cy="16" r="16"></circle>
            <path d="M10,6 L16.607,6 C17.509,6.007 18.181,6.057 18.623,6.15 C20.1077376,6.42343192 21.4096975,7.30712491 22.212,8.586 C23.13,10.043 23.25,11.944 22.552,13.511 C21.92,14.953 20.598,16.082 19.052,16.491 C18.071,16.769 17.042,16.666 16.034,16.684 C17.7583405,19.4883585 19.480008,22.2943598 21.199,25.102 L19.77,26 C16.775,21.12 14.53,17.46 13.035,15.02 C14.628,15.012 16.221,15.032 17.813,15.01 C19.65,14.961 21.257,13.368 21.295,11.566 C21.415,10.009 20.385,8.456 18.88,7.944 C18.464,7.785 17.81,7.711 16.917,7.724 L10,7.721 L10,6 Z" id="Shape" fill="#FFFFFF"></path>
        </g>
    </g>
</svg>