<?xml version="1.0" encoding="UTF-8"?>
<svg width="32px" height="32px" viewBox="0 0 32 32" version="1.1" xmlns="http://www.w3.org/2000/svg" xmlns:xlink="http://www.w3.org/1999/xlink">
    <!-- Generator: Sketch 51.2 (57519) - http://www.bohemiancoding.com/sketch -->
    <title>currency/ric</title>
    <desc>Created with Sketch.</desc>
    <defs></defs>
    <g id="currency/ric" stroke="none" stroke-width="1" fill="none" fill-rule="evenodd">
        <g id="ric" fill-rule="nonzero">
            <circle id="Oval" fill="#60E4DD" cx="16" cy="16" r="16"></circle>
            <path d="M10.144,20.024 C10.444,19.569 10.728,19.143 10.996,18.744 L7.932,18.744 C7.88063752,18.744 7.839,18.7023625 7.839,18.651 L7.839,18.015 C7.839,17.964 7.881,17.922 7.932,17.922 L11.554,17.922 C13.491,15.093 14.459,13.928 14.459,13.809 C14.459,13.626 14.419,13.535 13.759,13.535 C12.455,13.535 10.31,12.604 10.31,10.062 C10.31,8.679 12.547,7 13.853,7 C14.459,7 14.552,7.257 14.273,7.274 C13.527,7.32 11.895,8.81 11.895,10.244 C11.895,11.204 12.747,12.849 14.645,12.849 C16.887,12.849 18.802,9.285 23.457,9.285 C26.254,9.285 27,11.473 27,12.073 C27,12.673 26.127,12.987 24.949,12.987 C23.771,12.987 23.727,10.884 21.359,10.884 C17.641,10.884 14.475,14.91 12.954,17.922 L15.578,17.922 C15.63,17.922 15.671,17.964 15.671,18.015 L15.671,18.651 C15.6712671,18.6758379 15.6615869,18.6997506 15.644117,18.7174083 C15.6266471,18.7350661 15.6028394,18.7450014 15.578,18.745 L12.568,18.745 C12.36,19.225 12.205,19.66 12.108,20.025 L14.738,20.025 C14.79,20.025 14.832,20.065 14.832,20.117 L14.832,20.754 C14.832,20.8053625 14.7903625,20.847 14.739,20.847 L11.99,20.847 C12.039,22.013 13.017,23.064 14.926,24 L7.606,24 C8.26206196,22.9423107 8.92876246,21.8912573 9.606,20.847 L7.094,20.847 C7.06916206,20.8472671 7.04524943,20.8375869 7.02759167,20.820117 C7.0099339,20.8026471 6.99999856,20.7788394 7,20.754 L7,20.117 C7,20.066 7.042,20.024 7.093,20.024 L10.144,20.024 Z" id="Shape" fill="#FFFFFF"></path>
        </g>
    </g>
</svg>