<?xml version="1.0" encoding="UTF-8"?>
<svg width="32px" height="32px" viewBox="0 0 32 32" version="1.1" xmlns="http://www.w3.org/2000/svg" xmlns:xlink="http://www.w3.org/1999/xlink">
    <!-- Generator: Sketch 51.2 (57519) - http://www.bohemiancoding.com/sketch -->
    <title>currency/rise</title>
    <desc>Created with Sketch.</desc>
    <defs></defs>
    <g id="currency/rise" stroke="none" stroke-width="1" fill="none" fill-rule="evenodd">
        <g id="rise" fill-rule="nonzero">
            <circle id="Oval" fill="#F49352" cx="16" cy="16" r="16"></circle>
            <path d="M12.605,9.155 C11.748,9.155 11.053,8.449 11.053,7.578 C11.053,6.707 11.748,6 12.605,6 C13.463,6 14.158,6.706 14.158,7.578 C14.158,8.45 13.463,9.155 12.605,9.155 Z M19.447,26 C19.0319317,25.9965665 18.6352291,25.8283809 18.3441696,25.5324454 C18.05311,25.2365099 17.8915378,24.8370681 17.895,24.422 C17.895,23.552 18.59,22.845 19.447,22.845 C20.305,22.845 21,23.551 21,24.422 C21,25.294 20.305,26 19.447,26 Z M13.242,14.21 C12.9490931,14.4380903 12.5766408,14.538547 12.2087644,14.4886814 C11.840888,14.4388158 11.508618,14.242834 11.287,13.945 C10.8192722,13.3224202 10.9347698,12.4401956 11.547,11.959 L18.705,6.397 C18.9979069,6.16890975 19.3703592,6.06845297 19.7382356,6.11831857 C20.106112,6.16818417 20.438382,6.36416596 20.66,6.662 C21.128394,7.284754 21.0128564,8.16772819 20.4,8.649 L13.242,14.21 Z M13.295,19.879 C13.0020931,20.1070903 12.6296408,20.207547 12.2617644,20.1576814 C11.893888,20.1078158 11.561618,19.911834 11.34,19.614 C10.871606,18.991246 10.9871436,18.1082718 11.6,17.627 L18.758,12.066 C19.0509069,11.8379097 19.4233592,11.737453 19.7912356,11.7873186 C20.159112,11.8371842 20.491382,12.033166 20.713,12.331 C21.1807278,12.9535798 21.0652302,13.8358044 20.453,14.317 L13.295,19.879 Z M13.295,25.708 C13.0020931,25.9360903 12.6296408,26.036547 12.2617644,25.9866814 C11.893888,25.9368158 11.561618,25.740834 11.34,25.443 C10.871606,24.820246 10.9871436,23.9372718 11.6,23.456 L18.758,17.895 C19.0509069,17.6669097 19.4233592,17.566453 19.7912356,17.6163186 C20.159112,17.6661842 20.491382,17.862166 20.713,18.16 C21.1807278,18.7825798 21.0652302,19.6648044 20.453,20.146 L13.295,25.708 Z" id="Shape" fill="#FFFFFF"></path>
        </g>
    </g>
</svg>