<?xml version="1.0" encoding="UTF-8"?>
<svg width="32px" height="32px" viewBox="0 0 32 32" version="1.1" xmlns="http://www.w3.org/2000/svg" xmlns:xlink="http://www.w3.org/1999/xlink">
    <!-- Generator: Sketch 51.2 (57519) - http://www.bohemiancoding.com/sketch -->
    <title>currency/rlc</title>
    <desc>Created with Sketch.</desc>
    <defs></defs>
    <g id="currency/rlc" stroke="none" stroke-width="1" fill="none" fill-rule="evenodd">
        <g id="rlc" fill-rule="nonzero">
            <circle id="Oval" fill="#FFD800" cx="16" cy="16" r="16"></circle>
            <path d="M23.683,12.886 C23.74,12.829 23.853,12.829 23.964,12.829 C25.651,12.829 27,14.257 27,15.972 C27,17.572 25.82,18.829 24.302,19.114 L23.964,19.114 C23.402,19.114 22.84,18.943 22.334,18.657 C22.1697764,18.5413609 21.9728006,18.481427 21.772,18.486 C21.547,18.486 21.322,18.543 21.154,18.657 C20.76,18.886 20.592,19.286 20.592,19.743 L20.592,20.257 C20.4698363,21.7121334 19.3426659,22.8814839 17.893,23.057 L17.556,23.057 C16.994,23.057 16.432,22.886 15.926,22.6 C15.701,22.486 15.533,22.429 15.308,22.429 C15.083,22.429 14.858,22.486 14.689,22.6 C14.296,22.829 14.127,23.229 14.127,23.686 L14.127,24.2 C14.015,25.686 12.834,26.829 11.373,27 L11.092,27 C9.405,27 8.056,25.571 8.056,23.857 C8.112,22.257 9.236,20.943 10.754,20.771 L11.092,20.771 C11.654,20.771 12.216,20.943 12.722,21.229 C12.8862236,21.3446391 13.0831994,21.404573 13.284,21.4 C13.509,21.4 13.734,21.343 13.902,21.229 C14.296,21 14.464,20.6 14.464,20.143 C14.352,18.486 15.533,17 17.163,16.829 L17.5,16.829 C18.062,16.829 18.624,17 19.13,17.286 C19.355,17.4 19.524,17.457 19.749,17.457 C19.973,17.457 20.199,17.4 20.367,17.286 C20.76,17.057 20.929,16.657 20.929,16.2 C20.817,14.543 22.053,13.057 23.683,12.886 Z M17.22,8.943 C17.332,8.886 17.389,8.886 17.557,8.886 C19.244,8.886 20.593,10.314 20.593,12.029 C20.537,13.629 19.413,14.943 17.894,15.114 L17.557,15.114 C16.995,15.114 16.433,14.943 15.927,14.657 C15.7627764,14.5413609 15.5658006,14.481427 15.365,14.486 C15.14,14.486 14.915,14.543 14.747,14.657 C14.353,14.886 14.184,15.286 14.184,15.743 L14.184,16.257 C14.072,17.742 12.892,18.885 11.43,19.057 L11.149,19.057 C9.463,19.057 8.113,17.629 8.113,15.914 C8.113,14.372 9.238,13.114 10.755,12.886 L11.093,12.886 C11.655,12.886 12.217,13.057 12.723,13.343 C12.8872236,13.4586391 13.0841994,13.518573 13.285,13.514 C13.51,13.514 13.735,13.457 13.903,13.343 C14.297,13.114 14.465,12.714 14.465,12.257 C14.353,10.6 15.59,9.114 17.22,8.943 Z M11.036,5 C12.712,5 14.071,6.382 14.071,8.086 C14.071,9.79 12.711,11.171 11.036,11.171 C9.359,11.171 8,9.79 8,8.086 C8,6.382 9.36,5 11.036,5 Z" id="Shape" fill="#FFFFFF"></path>
        </g>
    </g>
</svg>