<?xml version="1.0" encoding="UTF-8"?>
<svg width="32px" height="32px" viewBox="0 0 32 32" version="1.1" xmlns="http://www.w3.org/2000/svg" xmlns:xlink="http://www.w3.org/1999/xlink">
    <!-- Generator: Sketch 51.2 (57519) - http://www.bohemiancoding.com/sketch -->
    <title>currency/rpx</title>
    <desc>Created with Sketch.</desc>
    <defs></defs>
    <g id="currency/rpx" stroke="none" stroke-width="1" fill="none" fill-rule="evenodd">
        <g id="rpx" fill-rule="nonzero">
            <circle id="Oval" fill="#8D181B" cx="16" cy="16" r="16"></circle>
            <path d="M25.696,15.732 C26.416,15.732 27,16.302 27,17.007 C27,17.712 26.416,18.282 25.696,18.282 C25.146,18.282 24.675,17.948 24.484,17.477 L20.764,17.477 L19.392,19.917 C19.166,20.319 18.547,20.2 18.493,19.745 L18.185,17.138 L17.045,25.592 C16.969,26.154 16.128,26.128 16.089,25.562 L15.154,11.895 L14.164,20.949 C14.104,21.489 13.311,21.517 13.214,20.982 L12.166,15.226 L11.682,17.121 C11.6259444,17.3319958 11.4343105,17.4783942 11.216,17.477 L6.48,17.477 C6.215,17.477 6,17.267 6,17.007 C6,16.747 6.215,16.537 6.48,16.537 L10.84,16.537 L11.779,12.866 C11.905,12.374 12.627,12.399 12.719,12.898 L13.568,17.567 L14.787,6.42 C14.85,5.849 15.705,5.865 15.744,6.438 L16.725,20.778 L17.739,13.254 C17.813,12.705 18.628,12.711 18.693,13.261 L19.275,18.176 L20.059,16.78 C20.145224,16.6289865 20.3061066,16.5361255 20.48,16.537 L24.484,16.537 C24.686834,16.0472702 25.1659356,15.729055 25.696,15.732 Z" id="Shape" fill="#FFFFFF"></path>
        </g>
    </g>
</svg>