<?xml version="1.0" encoding="UTF-8"?>
<svg width="32px" height="32px" viewBox="0 0 32 32" version="1.1" xmlns="http://www.w3.org/2000/svg" xmlns:xlink="http://www.w3.org/1999/xlink">
    <!-- Generator: Sketch 51.2 (57519) - http://www.bohemiancoding.com/sketch -->
    <title>currency/rub</title>
    <desc>Created with Sketch.</desc>
    <defs></defs>
    <g id="currency/rub" stroke="none" stroke-width="1" fill="none" fill-rule="evenodd">
        <g id="rub" fill-rule="nonzero">
            <circle id="Oval" fill="#64D1FF" cx="16" cy="16" r="16"></circle>
            <path d="M10.5,15.238 L12.264,15.238 L12.264,7 L16.811,7 C17.655,7 18.425,7.099 19.121,7.297 C19.817,7.495 20.413,7.797 20.91,8.201 C21.407,8.605 21.796,9.118 22.078,9.737 C22.359,10.357 22.5,11.097 22.5,11.958 C22.5,12.819 22.35,13.568 22.053,14.205 C21.7719991,14.8194419 21.355601,15.362332 20.835,15.793 C20.3002809,16.2261321 19.6836329,16.5468707 19.022,16.736 C18.2872806,16.9480837 17.5256893,17.0525036 16.761,17.046 L14.251,17.046 L14.251,19.654 L18.251,19.654 L18.251,21.359 L14.251,21.359 L14.251,25 L12.264,25 L12.264,21.359 L10.5,21.359 L10.5,19.654 L12.264,19.654 L12.264,17.046 L10.5,17.046 L10.5,15.238 Z M16.81,15.238 C17.953,15.238 18.852,14.967 19.506,14.425 C20.16,13.882 20.488,13.06 20.488,11.958 C20.488,10.857 20.16,10.056 19.506,9.557 C18.852,9.057 17.953,8.807 16.811,8.807 L14.251,8.807 L14.251,15.238 L16.81,15.238 Z" id="Shape" fill="#FFFFFF"></path>
        </g>
    </g>
</svg>