<?xml version="1.0" encoding="UTF-8"?>
<svg width="32px" height="32px" viewBox="0 0 32 32" version="1.1" xmlns="http://www.w3.org/2000/svg" xmlns:xlink="http://www.w3.org/1999/xlink">
    <!-- Generator: Sketch 51.2 (57519) - http://www.bohemiancoding.com/sketch -->
    <title>currency/san</title>
    <desc>Created with Sketch.</desc>
    <defs></defs>
    <g id="currency/san" stroke="none" stroke-width="1" fill="none" fill-rule="evenodd">
        <g id="san" fill-rule="nonzero">
            <circle id="Oval" fill="#2B77B3" cx="16" cy="16" r="16"></circle>
            <path d="M27,16.039 C26.953,22.147 22.003,27.045 15.923,26.999 C9.838,26.954 4.951,21.982 5,15.887 C5.05,9.85 10.014,4.96 16.05,5 C22.13,5.041 27.044,9.996 27,16.04 L27,16.039 Z M5.796,16.004 C5.807,21.624 10.354,26.161 15.985,26.174 C21.622,26.184 26.221,21.616 26.202,15.99 C26.181,10.13 21.327,5.71 15.74,5.806 C10.338,5.898 5.785,10.49 5.796,16.004 Z M18.681,11.228 L18.274,12.53 C17.516,12.405 16.814,12.256 16.103,12.186 C15.681,12.145 15.243,12.255 15.08,12.73 C14.912,13.217 14.892,13.736 15.295,14.112 C15.709,14.497 16.195,14.802 16.649,15.144 C17.066,15.458 17.525,15.732 17.889,16.099 C18.876,17.095 19.051,18.303 18.646,19.605 C18.406,20.377 17.834,20.865 17.102,21.161 C15.982,21.615 14.075,21.391 13.004,20.671 L13.474,19.307 C14.156,19.487 14.78,19.703 15.422,19.805 C16.034,19.902 16.675,19.808 16.989,19.183 C17.305,18.553 17.205,17.89 16.71,17.384 C16.328,16.994 15.849,16.697 15.402,16.372 C15.104,16.156 14.771,15.986 14.481,15.76 C13.3232705,14.8748017 12.9276438,13.3088655 13.526,11.98 C13.785958,11.3545154 14.3345864,10.8950859 14.996,10.749 C16.251,10.451 17.468,10.586 18.681,11.229 L18.681,11.228 Z M10.601,15.818 C10.6010365,16.514356 10.0403195,17.0808719 9.344,17.088 C8.644,17.091 8.046,16.481 8.062,15.784 C8.08938519,15.0891705 8.66063105,14.5399975 9.356,14.54 C10.056,14.55 10.606,15.115 10.602,15.818 L10.601,15.818 Z M22.694,14.575 C23.392,14.574 23.912,15.089 23.921,15.791 C23.9288468,16.1336829 23.7976221,16.4649443 23.5572314,16.7092913 C23.3168407,16.9536383 22.9877653,17.0902524 22.645,17.088 C21.9482054,17.0765095 21.3901681,16.5068836 21.393,15.81 C21.393,15.078 21.923,14.575 22.694,14.575 Z" id="Shape" fill="#FFFFFF"></path>
        </g>
    </g>
</svg>