<?xml version="1.0" encoding="UTF-8"?>
<svg width="32px" height="32px" viewBox="0 0 32 32" version="1.1" xmlns="http://www.w3.org/2000/svg" xmlns:xlink="http://www.w3.org/1999/xlink">
    <!-- Generator: Sketch 51.2 (57519) - http://www.bohemiancoding.com/sketch -->
    <title>currency/sbd</title>
    <desc>Created with Sketch.</desc>
    <defs></defs>
    <g id="currency/sbd" stroke="none" stroke-width="1" fill="none" fill-rule="evenodd">
        <g id="sbd" fill-rule="nonzero">
            <circle id="Oval" fill="#4BA2F2" cx="16" cy="16" r="16"></circle>
            <path d="M9.87,8.229 C10.086,8.266 9.548,9.699 9.848,11.336 C10.108,12.739 13.355,18.172 13.221,20.036 C13.117,21.206 10.451,23.951 10.17,23.768 C9.863,23.683 10.98,21.818 10.566,20.264 C10.084,18.452 7.226,13.768 7.229,11.7 C7.229,10.187 9.677,8.131 9.869,8.229 L9.87,8.229 Z M15.979,6.089 C16.253,6.136 15.569,7.965 15.951,10.048 C16.281,11.84 20.424,18.768 20.252,21.143 C20.118,22.637 16.72,26.134 16.36,25.903 C15.97,25.796 17.394,23.417 16.866,21.435 C16.253,19.127 12.608,13.153 12.611,10.516 C12.611,8.585 15.733,5.966 15.979,6.09 L15.979,6.089 Z M22.284,8.229 C22.5,8.266 21.963,9.699 22.262,11.336 C22.522,12.739 25.769,18.172 25.636,20.036 C25.533,21.206 22.866,23.951 22.584,23.768 C22.278,23.683 23.394,21.818 22.98,20.264 C22.499,18.452 19.64,13.768 19.643,11.7 C19.643,10.187 22.093,8.131 22.284,8.229 Z" id="Shape" fill="#FFFFFF"></path>
        </g>
    </g>
</svg>