<?xml version="1.0" encoding="UTF-8"?>
<svg width="32px" height="32px" viewBox="0 0 32 32" version="1.1" xmlns="http://www.w3.org/2000/svg" xmlns:xlink="http://www.w3.org/1999/xlink">
    <!-- Generator: Sketch 51.2 (57519) - http://www.bohemiancoding.com/sketch -->
    <title>currency/sberbank</title>
    <desc>Created with Sketch.</desc>
    <defs></defs>
    <g id="currency/sberbank" stroke="none" stroke-width="1" fill="none" fill-rule="evenodd">
        <g id="sberbank" fill-rule="nonzero">
            <circle id="Oval" fill="#48B254" cx="16" cy="16" r="16"></circle>
            <path d="M22.681,7.368 L23.626,8.226 L11.694,15.038 L5.918,11.713 L6.458,10.64 L11.694,13.617 L22.681,7.367 L22.681,7.368 Z M20.279,6 L21.547,6.644 L11.694,12.276 L7.106,9.674 L7.888,8.736 L11.694,10.908 L20.28,6 L20.279,6 Z M24.463,9.111 L25.164,10.05 L11.694,17.747 L5.189,14.046 L5.486,12.866 L11.694,16.406 L24.463,9.111 Z M26.406,12.571 C26.802,13.68 27,14.841 27,16.057 C27,17.273 26.802,18.454 26.406,19.597 L26.136,20.322 C25.5815714,21.6224341 24.7847301,22.8054787 23.788,23.808 C22.7794386,24.7982876 21.5871005,25.5819696 20.278,26.115 C18.893,26.705 17.463,27 15.987,27 C14.493,27 13.062,26.705 11.694,26.115 C10.4005104,25.5682136 9.21982283,24.7859487 8.212,23.808 C7.20382676,22.8149277 6.40537166,21.6294871 5.864,20.322 C5.294,18.972 4.999,17.522 5,16.057 L5,15.333 L11.694,19.115 L25.812,11.069 L26.406,12.571 Z" id="Shape" fill="#FFFFFF"></path>
        </g>
    </g>
</svg>