<?xml version="1.0" encoding="UTF-8"?>
<svg width="32px" height="32px" viewBox="0 0 32 32" version="1.1" xmlns="http://www.w3.org/2000/svg" xmlns:xlink="http://www.w3.org/1999/xlink">
    <!-- Generator: Sketch 51.2 (57519) - http://www.bohemiancoding.com/sketch -->
    <title>currency/sngls</title>
    <desc>Created with Sketch.</desc>
    <defs></defs>
    <g id="currency/sngls" stroke="none" stroke-width="1" fill="none" fill-rule="evenodd">
        <g id="sngls" fill-rule="nonzero">
            <circle id="Oval" fill="#B30D23" cx="16" cy="16" r="16"></circle>
            <path d="M16.913,21.234 L15.981,22.97 L15.049,21.234 C9.419,20.797 5,16.599 5,16.599 C5,16.589 9.294,12.521 14.809,11.985 L15.539,10.735 L15.981,10 L16.731,11.25 L17.153,11.985 C22.667,12.511 26.962,16.599 26.962,16.599 C26.962,16.599 22.542,20.797 16.912,21.234 L16.913,21.234 Z M5.932,16.599 C5.922,16.599 10.178,19.507 14.453,20.122 L12.369,16.222 L12.935,15.24 L13.455,16.212 L13.445,16.222 L15.472,20.212 C15.635,20.222 15.798,20.222 15.962,20.222 C16.125,20.222 16.279,20.222 16.442,20.212 L17.931,17.244 L19.017,15.22 L19.583,16.202 L17.499,20.112 C21.774,19.507 26.029,16.669 26.029,16.589 C26.029,16.519 21.976,13.811 17.806,13.116 L18.44,14.218 L17.912,15.279 L16.538,12.977 C16.3525442,12.9653823 16.1668115,12.9587133 15.981,12.957 C15.798,12.957 15.606,12.967 15.414,12.977 L14.011,15.279 L13.493,14.267 L14.155,13.126 C9.986,13.831 5.932,16.599 5.932,16.599 Z" id="Shape" fill="#FFFFFF"></path>
        </g>
    </g>
</svg>