<?xml version="1.0" encoding="UTF-8"?>
<svg width="32px" height="32px" viewBox="0 0 32 32" version="1.1" xmlns="http://www.w3.org/2000/svg" xmlns:xlink="http://www.w3.org/1999/xlink">
    <!-- Generator: Sketch 51.2 (57519) - http://www.bohemiancoding.com/sketch -->
    <title>currency/snm</title>
    <desc>Created with Sketch.</desc>
    <defs></defs>
    <g id="currency/snm" stroke="none" stroke-width="1" fill="none" fill-rule="evenodd">
        <g id="snm" fill-rule="nonzero">
            <circle id="Oval" fill="#0B1C26" cx="16" cy="16" r="16"></circle>
            <path d="M16,27 C9.93207,26.9819 5,22.057262 5,16 C5,9.94273804 9.93207,5.01820974 16,5 C22.06793,5.01820974 27,9.94273804 27,16 C27,22.057262 22.06793,26.9879333 16,27 Z M25.7548,17.7505485 C25.58474,18.1442519 25.18995,18.4228828 24.73433,18.4228828 C24.5883929,18.422851 24.4439034,18.3940327 24.30918,18.3380869 C24.69792,18.7439667 24.94091,19.2890522 24.94091,19.888767 C24.94091,20.0642826 24.9166,20.2279509 24.88019,20.3915094 C25.2933889,19.5560036 25.5877593,18.6671266 25.7548,17.7505485 Z M24.73433,17.8595875 C25.0396054,17.8595875 25.28708,17.6127941 25.28708,17.3083589 C25.28708,17.0039238 25.0396054,16.7571303 24.73433,16.7571303 C24.4290546,16.7571303 24.18158,17.0039238 24.18158,17.3083589 C24.1826649,17.6122165 24.4293045,17.8583241 24.734,17.8595875 L24.73433,17.8595875 Z M24.98337,11.832602 C25.159622,12.3307481 25.2501084,12.8550372 25.251,13.3832821 C25.2521162,14.4763151 24.8647577,15.534373 24.15771,16.36957 C24.32172,16.2727073 24.51609,16.2060114 24.72861,16.2060114 C25.30567,16.2060114 25.77944,16.648201 25.82795,17.2175296 C25.87657,16.8177929 25.90693,16.4179465 25.90693,16.0060333 C25.9140132,14.5637313 25.5985432,13.1379993 24.98348,11.832602 L24.98337,11.832602 Z M24.41852,13.3772488 C24.41852,11.2753401 22.7056,9.56121106 20.59195,9.56121106 C18.48424,9.56121106 16.76538,11.2694164 16.76538,13.3772488 C16.76538,15.4791575 18.4783,17.1932865 20.59195,17.1932865 C22.69966,17.1932865 24.41852,15.4790478 24.41852,13.3772488 Z M20.44004,19.888767 C20.4398864,19.0583815 20.9004222,18.2960587 21.63662,17.9080737 C20.7030315,18.1252927 19.7249147,18.0491164 18.83646,17.6899956 C19.5926005,18.2697638 20.1522845,19.0668163 20.44004,19.9736727 C20.4462,19.9372532 20.44004,19.9130101 20.44004,19.888767 Z M20.65872,21.3668276 C20.6576848,21.7342541 20.6128195,22.1002531 20.52507,22.4571084 C20.7065024,22.0940593 21.0779541,21.864303 21.48471,21.8635366 C21.5418995,21.863277 21.5989394,21.8693847 21.65477,21.8817464 C21.1863938,21.640745 20.8168733,21.2445068 20.60977,20.7611891 C20.6416342,20.9615183 20.6579991,21.1639951 20.65872,21.3668276 Z M22.68745,21.3002413 C23.47098,21.3002413 24.10876,20.6639974 24.10876,19.8888767 C24.10876,19.1075033 23.47076,18.4775121 22.68745,18.4775121 C21.90414,18.4775121 21.27219,19.113756 21.27219,19.8888767 C21.27219,20.6701404 21.90997,21.3001316 22.688,21.3001316 L22.68745,21.3002413 Z M23.62245,17.314502 C23.6240284,17.1280325 23.6720326,16.9448747 23.76215,16.7814831 C23.3588869,17.1542246 22.8946194,17.4553775 22.38946,17.6718956 C22.48659,17.6598289 22.58383,17.6476525 22.68712,17.6476525 C23.0913281,17.6469039 23.4881345,17.755767 23.83508,17.9625932 C23.696847,17.774626 23.6225323,17.5474906 23.623,17.3143923 L23.62245,17.314502 Z M15.99945,16.7147872 C16.5989227,16.7143711 17.1928218,16.829546 17.74845,17.053971 C16.8146571,16.3377258 16.1893071,15.2938339 15.99945,14.1343791 C15.80508,15.3216323 15.16125,16.3513602 14.25045,17.053971 C14.79099,16.8419263 15.38026,16.7147872 15.99945,16.7147872 Z M15.99945,10.5424528 C15.5757696,10.5433176 15.1606454,10.4235529 14.80287,10.1972356 C15.4339702,10.8638275 15.8508582,11.7033308 16,12.6079421 C16.1528863,11.7046166 16.5690443,10.8661599 17.19658,10.1971259 C16.8388138,10.4234762 16.4236905,10.5432787 16,10.5424528 L15.99945,10.5424528 Z M18.27117,8.27698552 C18.2710065,8.78449922 18.0998989,9.27724793 17.7853,9.67617376 C18.2570969,9.31928768 18.7932286,9.05607471 19.36457,8.9008337 C19.34026,8.9008337 19.322,8.90686705 19.30385,8.90686705 C18.83613,8.90686705 18.43485,8.61616937 18.27128,8.20425625 C18.266,8.22849934 18.27172,8.25274243 18.27172,8.27698552 L18.27117,8.27698552 Z M19.99619,6.93867925 C20.24523,7.14458096 20.40924,7.44745502 20.40924,7.79278192 C20.4098314,8.23123874 20.1498787,8.62838549 19.74715,8.80430013 C20.0257212,8.75351664 20.3082172,8.72716174 20.5914,8.72553752 C22.01876,8.72553752 23.28827,9.36759544 24.1444,10.367047 C23.1007425,8.86880349 21.6665946,7.68325345 19.99674,6.93835015 L19.99619,6.93867925 Z M19.29769,7.24758666 C18.9924146,7.24758666 18.74494,7.49438012 18.74494,7.79881527 C18.74494,8.10325042 18.9924146,8.35004388 19.29769,8.35004388 C19.6029654,8.35004388 19.85044,8.10325042 19.85044,7.79881527 C19.8495363,7.4948718 19.6029108,7.24858219 19.29813,7.24725757 L19.29769,7.24758666 Z M16.6864,6.11452391 C17.4300639,6.35146468 17.9991623,6.95331213 18.19274,7.70754717 C18.23531,7.13810882 18.70908,6.68385257 19.29208,6.68385257 C19.328797,6.68487567 19.3653671,6.68891154 19.40142,6.69591926 C18.55112,6.3810882 17.63394,6.18725318 16.6864,6.11452391 Z M14.56659,8.27698552 C14.56659,9.06439228 15.21042,9.70601141 16,9.70601141 C16.78958,9.70601141 17.43341,9.06395349 17.43341,8.27654673 C17.43341,7.48913997 16.78958,6.84752084 16,6.84752084 C15.21042,6.84752084 14.56659,7.48957876 14.56659,8.27698552 Z M12.59253,6.69602896 C12.6285829,6.68902173 12.6651531,6.68498587 12.70187,6.68396226 C13.28487,6.68396226 13.75875,7.13218517 13.80121,7.70765687 C13.9947545,6.95337988 14.5638584,6.35148508 15.30755,6.11452391 C14.36001,6.18725318 13.44888,6.3810882 12.59253,6.69602896 Z M13.72828,8.27698552 C13.7272689,8.25258613 13.7293012,8.22815598 13.73433,8.20425625 C13.57032,8.61616937 13.16948,8.90686705 12.70176,8.90686705 C12.67745,8.90686705 12.65919,8.9008337 12.64104,8.9008337 C13.2119023,9.05733543 13.7478034,9.32043523 14.22031,9.67617376 C13.9013211,9.27925689 13.7277415,8.78564776 13.72828,8.27698552 Z M12.14912,7.79848618 C12.14912,8.10292133 12.3965946,8.34971479 12.70187,8.34971479 C13.0071454,8.34971479 13.25462,8.10292133 13.25462,7.79848618 C13.25462,7.49405102 13.0071454,7.24725757 12.70187,7.24725757 C12.3970456,7.24834066 12.1502061,7.49450079 12.14912,7.79848618 Z M7.85483,10.3727512 C8.71129,9.36726634 9.98069,8.73124177 11.40783,8.73124177 C11.6910269,8.73258122 11.9735479,8.75893845 12.25208,8.81000439 C11.8981092,8.65621732 11.6506255,8.3289478 11.5996761,7.9472733 C11.5487268,7.5655988 11.7017393,7.18516129 12.00304,6.9443835 C10.32686,7.68341378 8.8874,8.88273366 7.85483,10.3727512 Z M7.58148,13.3772488 C7.58148,15.4791575 9.2944,17.1932865 11.40805,17.1932865 C13.51576,17.1932865 15.23462,15.4850812 15.23462,13.3772488 C15.23462,11.2753401 13.5217,9.56121106 11.40805,9.56121106 C9.30034,9.56713471 7.58148,11.2753401 7.58148,13.3772488 Z M11.55996,19.888767 C11.55996,19.9130101 11.55391,19.9436156 11.55391,19.9675296 C11.8432717,19.0614953 12.4026471,18.2649205 13.15749,17.6839623 C12.2689362,18.043152 11.2906932,18.1193292 10.357,17.9020404 C11.07398,18.2835674 11.55996,19.028631 11.55996,19.888767 Z M8.377,17.3143923 C8.37804787,17.5486058 8.30113591,17.776546 8.15832,17.9624835 C8.50538491,17.755811 8.90226892,17.6471371 9.3065,17.6480913 C9.4062616,17.6468803 9.50591744,17.6549968 9.60416,17.6723344 C9.09652333,17.4602029 8.6314637,17.1584117 8.23136,16.7814831 C8.32683127,16.9429306 8.37712577,17.1269625 8.377,17.3143923 Z M7.89113,19.888767 C7.89113,20.6701404 8.52913,21.3001316 9.30639,21.3001316 C10.08992,21.3001316 10.72165,20.6638877 10.72165,19.888767 C10.72165,19.1073936 10.08365,18.4774024 9.30639,18.4774024 C8.52902,18.471369 7.89124,19.1070645 7.89124,19.888767 L7.89113,19.888767 Z M10.33896,21.8816367 C10.39396,21.8756033 10.4483,21.8634269 10.50902,21.8634269 C10.9157759,21.8641933 11.2872276,22.0939496 11.46866,22.4569987 C11.3809572,22.1001744 11.3361289,21.734213 11.33512,21.3668276 C11.3369977,21.1622337 11.3512134,20.9579377 11.37769,20.7550461 C11.1752037,21.2407568 10.8074248,21.6396864 10.33907,21.8816367 L10.33896,21.8816367 Z M6.166,17.2114963 C6.21462,16.648201 6.68839,16.1999781 7.26534,16.1999781 C7.46714208,16.2010622 7.66473062,16.257659 7.83635,16.3635366 C7.12930235,15.5283397 6.74194379,14.4702817 6.74306,13.3772488 C6.74306,12.8320535 6.84019,12.3172444 7.01036,11.8265687 C6.41515,13.0925845 6.08713,14.5099824 6.08713,16 C6.08860787,16.4050586 6.11494712,16.8096473 6.166,17.2114963 Z M7.266,16.7632734 C6.9607246,16.7632734 6.71325,17.0100668 6.71325,17.314502 C6.71325,17.6189371 6.9607246,17.8657306 7.266,17.8657306 C7.5712754,17.8657306 7.81875,17.6189371 7.81875,17.314502 C7.81766392,17.0105166 7.57082439,16.7643565 7.266,16.7632734 Z M7.05953,19.8888767 C7.05911124,19.309575 7.28582631,18.7530674 7.69126,18.3381966 C7.55671507,18.3947239 7.41210661,18.423566 7.26611,18.4229925 C6.8106,18.4229925 6.4157,18.1443616 6.24564,17.7506582 C6.4157,18.6830847 6.70764,19.5677929 7.12025,20.3916191 C7.0834,20.2279509 7.05909,20.0643923 7.05909,19.888767 L7.05953,19.8888767 Z M9.90215,22.0513383 C9.71383,22.1061869 9.51341,22.1301009 9.30694,22.1301009 C8.71778,22.1301009 8.18329,21.8997367 7.78234,21.5303861 C8.31192036,22.3127039 8.94995128,23.0162699 9.67742,23.6201185 C9.52562,23.4323168 9.42838,23.202172 9.42838,22.9417508 C9.42855045,22.5850598 9.60579606,22.2515902 9.90171,22.0512286 L9.90215,22.0513383 Z M9.98718,22.9417508 C9.98718,23.2294647 10.221062,23.4627029 10.50957,23.4627029 C10.798078,23.4627029 11.03196,23.2294647 11.03196,22.9417508 C11.03196,22.6540368 10.798078,22.4207986 10.50957,22.4207986 C10.2218057,22.4226501 9.98889951,22.6546709 9.98674,22.9416411 L9.98718,22.9417508 Z M14.658,25.8188899 C13.2120633,25.380595 12.0673907,24.2729018 11.5846,22.8447784 C11.5846,22.8750548 11.5967,22.9053313 11.5967,22.9416411 C11.5984173,23.3127846 11.4077318,23.6584728 11.092477,23.8557322 C10.7772223,24.0529916 10.3821458,24.0738231 10.04779,23.9108161 C11.36559,24.9042343 12.94475,25.582602 14.658,25.8188899 Z M19.82052,21.3668276 C19.82052,19.2649188 18.1076,17.5568232 16,17.5507898 C13.89229,17.5507898 12.17948,19.2589952 12.17948,21.3668276 C12.17948,23.4746599 13.89229,25.1768319 16,25.1828653 C18.10771,25.1768319 19.82052,23.4686266 19.82052,21.3668276 Z M21.95859,23.9109258 C21.6242342,24.0739327 21.2291577,24.0531013 20.913903,23.8558419 C20.5986482,23.6585825 20.4079627,23.3128943 20.40968,22.9417508 C20.4107179,22.9091608 20.4147684,22.8767359 20.42178,22.8448881 C19.9389893,24.2730115 18.7943167,25.3807047 17.34838,25.8189996 C19.05525,25.582602 20.63441,24.9042343 21.95859,23.9108161 L21.95859,23.9109258 Z M22.01359,22.9417508 C22.01359,22.6540368 21.779708,22.4207986 21.4912,22.4207986 C21.202692,22.4207986 20.96881,22.6540368 20.96881,22.9417508 C20.96881,23.2294647 21.202692,23.4627029 21.4912,23.4627029 C21.7787487,23.4604323 22.0112253,23.2284001 22.01326,22.9416411 L22.01359,22.9417508 Z M24.2181,21.5302764 C23.81726,21.8997367 23.2831,22.1299912 22.6935,22.1299912 C22.4925623,22.1288383 22.2925757,22.1023746 22.09829,22.0512286 C22.394339,22.2514693 22.5717541,22.5849067 22.57206,22.9416411 C22.57206,23.2020623 22.47493,23.4323168 22.32302,23.6200088 C23.0504887,23.0161602 23.6885196,22.3125942 24.2181,21.5302764 Z" id="Shape" fill="#FFFFFF"></path>
        </g>
    </g>
</svg>