<?xml version="1.0" encoding="UTF-8"?>
<svg width="32px" height="32px" viewBox="0 0 32 32" version="1.1" xmlns="http://www.w3.org/2000/svg" xmlns:xlink="http://www.w3.org/1999/xlink">
    <!-- Generator: Sketch 51.2 (57519) - http://www.bohemiancoding.com/sketch -->
    <title>currency/snt</title>
    <desc>Created with Sketch.</desc>
    <defs></defs>
    <g id="currency/snt" stroke="none" stroke-width="1" fill="none" fill-rule="evenodd">
        <g id="snt" fill-rule="nonzero">
            <circle id="Oval" fill="#5B6DEE" cx="16" cy="16" r="16"></circle>
            <path d="M13.3,15.02 C12.7421018,15.0171364 12.1851123,15.0653375 11.636,15.164 C12.088,10.984 15.572,7.818 19.72,7.818 C22.26,7.818 24,9.062 24,11.636 C24,14.211 21.911,15.455 18.864,15.455 C16.614,15.455 15.55,15.021 13.3,15.021 M13.136,16.545 C10.089,16.545 8,17.79 8,20.364 C8,22.938 9.74,24.182 12.28,24.182 C16.428,24.182 19.912,21.017 20.364,16.836 C19.8148877,16.9346625 19.2578982,16.9828636 18.7,16.98 C16.45,16.98 15.385,16.545 13.136,16.545" id="Shape" fill="#FFFFFF"></path>
        </g>
    </g>
</svg>