<?xml version="1.0" encoding="UTF-8"?>
<svg width="32px" height="32px" viewBox="0 0 32 32" version="1.1" xmlns="http://www.w3.org/2000/svg" xmlns:xlink="http://www.w3.org/1999/xlink">
    <!-- Generator: Sketch 51.2 (57519) - http://www.bohemiancoding.com/sketch -->
    <title>currency/sphtx</title>
    <desc>Created with Sketch.</desc>
    <defs></defs>
    <g id="currency/sphtx" stroke="none" stroke-width="1" fill="none" fill-rule="evenodd">
        <g id="sphtx" fill-rule="nonzero">
            <circle id="Oval" fill="#00B098" cx="16" cy="16" r="16"></circle>
            <path d="M6,12.391 L6,12.035 L14.417,12.035 L14.417,12.391 L6,12.391 Z M6,11.356 L6,11 L14.417,11 L14.417,11.356 L6,11.356 Z M9.55,21.996 L9.55,13.103 L9.888,13.103 L9.888,21.996 L9.55,21.996 Z M10.53,21.996 L10.53,13.103 L10.867,13.103 L10.867,21.996 L10.53,21.996 Z M25.762,21.268 L21.964,17.255 L22.202,17.004 L26,21.016 L25.762,21.268 Z M16.519,11 L20.317,15.013 L20.079,15.264 L16.281,11.252 L16.519,11 Z M25.069,22 L21.271,17.987 L21.509,17.735 L25.307,21.748 L25.069,22 Z M15.827,11.732 L19.625,15.744 L19.386,15.996 L15.588,11.984 L15.827,11.732 Z M21.248,16.5 L21.487,16.248 L25.762,11.732 L26,11.984 L21.725,16.5 L21.487,16.752 L21.033,17.232 L20.794,17.484 L16.52,22 L16.282,21.748 L20.557,17.232 L20.795,16.98 L21.248,16.5 Z M20.794,15.516 L25.07,11 L25.308,11.252 L21.033,15.768 L20.795,16.02 L20.341,16.5 L20.102,16.752 L15.828,21.268 L15.589,21.016 L19.864,16.5 L20.102,16.248 L20.557,15.768 L20.794,15.516 Z" id="Shape" fill="#FFFFFF"></path>
        </g>
    </g>
</svg>