<?xml version="1.0" encoding="UTF-8"?>
<svg width="32px" height="32px" viewBox="0 0 32 32" version="1.1" xmlns="http://www.w3.org/2000/svg" xmlns:xlink="http://www.w3.org/1999/xlink">
    <!-- Generator: Sketch 51.2 (57519) - http://www.bohemiancoding.com/sketch -->
    <title>currency/storj</title>
    <desc>Created with Sketch.</desc>
    <defs></defs>
    <g id="currency/storj" stroke="none" stroke-width="1" fill="none" fill-rule="evenodd">
        <g id="storj" fill-rule="nonzero">
            <circle id="Oval" fill="#2683FF" cx="16" cy="16" r="16"></circle>
            <path d="M24.977,18.971 C25.848,19.495 26.145,20.601 25.65,21.504 C25.136,22.406 23.968,22.726 23.049,22.222 C22.959,22.173 22.881,22.115 22.801,22.057 L17.875,24.841 C17.887,24.931 17.894,25.022 17.895,25.113 C17.895,25.22 17.895,25.317 17.875,25.423 C17.707,26.443 16.728,27.141 15.689,26.976 C14.651,26.811 13.939,25.85 14.107,24.832 L9.15,22.028 C9.07324734,22.083024 8.994175,22.1347379 8.913,22.183 C8.833,22.222 8.754,22.27 8.665,22.299 C7.69275304,22.6885979 6.58770026,22.2266386 6.182,21.261 C5.787,20.301 6.262,19.214 7.241,18.826 L7.241,13.218 C7.1511097,13.1890371 7.06487022,13.1497763 6.984,13.101 C6.90982997,13.0549659 6.83712731,13.0066086 6.766,12.956 C6.21710441,12.5571841 5.92891432,11.8911277 6.014,11.218 C6.10412836,10.5434769 6.55155569,9.9702345 7.184,9.719 C7.82032455,9.46245385 8.54477799,9.56051733 9.09,9.977 L14.096,7.134 C14.086,7.047 14.076,6.97 14.076,6.882 C14.076,5.854 14.956,5 16.005,5 C17.053,5 17.913,5.834 17.914,6.872 C17.914,6.96 17.904,7.037 17.894,7.125 L22.939,9.987 C23.3824195,9.66207456 23.9430648,9.54097638 24.4810627,9.65391777 C25.0190605,9.76685916 25.4836782,10.1031898 25.759,10.579 C26.272,11.481 25.936,12.626 25.016,13.131 C24.927,13.169 24.838,13.218 24.749,13.247 L24.749,18.865 C24.828,18.895 24.904,18.93 24.976,18.971 L24.977,18.971 Z M25.324,21.319 C25.5213954,20.9932064 25.5790961,20.6015855 25.4840528,20.2327045 C25.3890095,19.8638236 25.1492509,19.5488439 24.819,19.359 C24.2663651,19.0404253 23.5712477,19.1151909 23.099,19.544 L20.833,18.254 C21.397,17.118 21.021,15.76 19.963,15.052 C19.8993557,14.8379009 19.8163463,14.6300426 19.715,14.431 L23.138,12.529 C23.494,12.859 23.995,12.994 24.473,12.889 C24.849089,12.8078226 25.1769619,12.5793179 25.3833059,12.2545798 C25.5896499,11.9298417 25.6572534,11.5359574 25.571,11.161 C25.393,10.385 24.601,9.91 23.811,10.084 C23.4349428,10.164965 23.1070026,10.3932253 22.9004803,10.7177602 C22.6939581,11.0422951 22.6260735,11.4360454 22.712,11.811 L19.25,13.742 C18.578,12.956 16.441,12.432 16.441,12.432 L16.441,8.153 C16.878,8.025 17.221,7.69 17.351,7.261 C17.4551069,6.91884325 17.4173545,6.54920374 17.2462275,6.23515749 C17.0751005,5.92111125 16.7849547,5.68900344 16.441,5.591 C15.719,5.378 14.957,5.766 14.739,6.475 C14.6352031,6.81702393 14.6731107,7.18640438 14.8442128,7.50021682 C15.0153148,7.81402927 15.3052756,8.0459811 15.649,8.144 L15.649,12.51 C15.649,12.51 14.483,12.888 14.028,13.256 C13.5446822,13.2671116 13.0705535,13.3903508 12.643,13.616 L9.388,11.782 C9.498,11.316 9.368,10.831 9.032,10.482 C8.48039829,9.90041239 7.56380752,9.87011187 6.975,10.414 C6.69190787,10.6708087 6.52474855,11.0312196 6.51156341,11.4132118 C6.49837828,11.795204 6.64028894,12.1662829 6.905,12.442 C7.45694794,13.0237076 8.37385654,13.0540039 8.963,12.51 L11.901,14.159 C10.8357595,15.1950436 10.6926594,16.8560263 11.565,18.059 L8.983,19.524 C8.61967693,19.1929379 8.11645421,19.0623619 7.638,19.175 C7.26208333,19.2588019 6.93540326,19.4897004 6.73095639,19.8161014 C6.52650951,20.1425023 6.46133641,20.5372002 6.55,20.912 C6.739,21.686 7.531,22.163 8.32,21.978 C8.69569922,21.8941836 9.02220073,21.6634357 9.22662113,21.3372649 C9.43104154,21.0110941 9.49636152,20.6166563 9.408,20.242 L12.168,18.68 C12.878,19.243 13.805,19.467 14.7,19.291 C14.976,19.417 15.26,19.524 15.55,19.611 L15.55,23.687 C15.1538791,23.8097568 14.8230973,24.0854682 14.631,24.453 C14.4493793,24.8104108 14.4194518,25.2259317 14.5479793,25.6056807 C14.6765068,25.9854296 14.9526437,26.2973619 15.314,26.471 C15.374,26.501 15.433,26.529 15.502,26.549 C15.512,26.549 15.522,26.559 15.532,26.559 C16.342,26.801 17.204,26.364 17.451,25.569 C17.5704058,25.185358 17.5306887,24.76983 17.3407701,24.415754 C17.1508514,24.061678 16.8266537,23.7987391 16.441,23.686 L16.441,19.69 C16.441,19.69 17.183,19.622 17.529,19.515 C18.494,19.895 19.598,19.67 20.329,18.943 L22.643,20.273 C22.4969721,20.8877087 22.7755593,21.5248291 23.326,21.835 C24.0217679,22.2312617 24.9064771,22.003221 25.324,21.32 L25.324,21.319 Z M7.984,19.961 C8.204,19.962 8.406,20.076 8.518,20.261 C8.56847378,20.353755 8.59558901,20.4574107 8.597,20.563 C8.59315423,20.89801 8.31902058,21.1667773 7.984,21.164 C7.64859059,21.1673322 7.37384526,20.8984039 7.37,20.563 C7.37,20.23 7.645,19.961 7.984,19.961 Z M16.649,6.873 C16.6435255,7.20770547 16.369746,7.47568839 16.035,7.474 C15.6999794,7.47677727 15.4258458,7.20801002 15.422,6.873 C15.422,6.54 15.697,6.271 16.035,6.271 C16.375,6.271 16.649,6.541 16.649,6.873 Z M24.127,12.093 C23.7929177,12.0925197 23.520529,11.8250188 23.514,11.491 C23.514,11.159 23.789,10.889 24.127,10.889 C24.467,10.889 24.741,11.159 24.741,11.491 C24.7371547,11.8264039 24.4624094,12.0953322 24.127,12.092 L24.127,12.093 Z M8.27,10.937 C8.41045715,11.0127752 8.51407966,11.1423886 8.55707587,11.2960812 C8.60007208,11.4497738 8.57874813,11.6143416 8.498,11.752 C8.3295245,12.0422965 7.95817769,12.141948 7.667,11.975 C7.52611808,11.899639 7.42211541,11.7700216 7.3790712,11.6161574 C7.33602698,11.4622932 7.35767384,11.2975247 7.439,11.16 C7.6074755,10.8697035 7.97882231,10.770052 8.27,10.937 Z M24.374,20.077 C24.5141803,20.1527815 24.6176002,20.2822133 24.6605805,20.4356605 C24.7035608,20.5891077 24.6824205,20.7534286 24.602,20.891 C24.4866928,21.0760313 24.2850048,21.1895043 24.067,21.192 C23.8473602,21.1957 23.6423704,21.0821555 23.529,20.894 C23.4173775,20.7070615 23.4173775,20.4739385 23.529,20.287 C23.6423704,20.0988445 23.8473602,19.9853 24.067,19.989 C24.1749088,19.9924537 24.2803228,20.0223267 24.374,20.076 L24.374,20.077 Z M15.422,25.092 C15.4229831,25.0843965 15.4265071,25.0773485 15.432,25.072 C15.4881437,24.7449903 15.7960906,24.5233754 16.124,24.574 C16.4522709,24.6180141 16.6827866,24.9196986 16.639,25.248 C16.5778582,25.548536 16.3126867,25.7638569 16.006,25.762 C15.8381382,25.7547939 15.680592,25.6790035 15.5701935,25.5523478 C15.459795,25.425692 15.4062223,25.2592739 15.422,25.092 Z M18.944,15.807 C19.547,15.992 19.953,16.545 19.953,17.185 C19.953,17.234 19.943,17.283 19.943,17.331 C19.933,17.37 19.933,17.409 19.923,17.447 L19.923,17.477 C19.903,17.564 19.883,17.651 19.843,17.738 C19.7332822,18.0054308 19.5436385,18.2324445 19.3,18.388 C19.24,18.418 19.19,18.447 19.132,18.476 L19.102,18.486 C19.044,18.512 18.985,18.536 18.924,18.553 C18.862,18.57 18.799,18.583 18.736,18.593 L18.686,18.602 C18.617,18.602 18.558,18.612 18.489,18.612 C18.166,18.612 17.853,18.506 17.599,18.311 L17.331,18.427 C17.249,18.467 17.163,18.496 17.074,18.515 L17.064,18.515 C16.4518726,18.6788357 15.8009523,18.6130323 15.234,18.33 L15.224,18.33 C15.165,18.301 15.106,18.272 15.056,18.243 L15.036,18.233 C14.977,18.195 14.928,18.156 14.868,18.117 C14.6282131,18.222104 14.3687938,18.2749424 14.107,18.272 C14.027,18.272 13.958,18.272 13.889,18.262 L13.849,18.252 L13.671,18.224 L13.651,18.214 C13.5875675,18.2021934 13.5250713,18.1858175 13.464,18.165 C13.3044999,18.1121021 13.1517821,18.04061 13.009,17.952 C12.7110708,17.7676762 12.4763276,17.4970065 12.336,17.176 C12.336,17.156 12.326,17.146 12.316,17.127 C12.3043819,17.0939857 12.29103,17.0616073 12.276,17.03 C12.2642131,17.0081645 12.2541815,16.9854261 12.246,16.962 C12.236,16.933 12.217,16.904 12.217,16.875 C12.2150461,16.8451145 12.208293,16.8157386 12.197,16.788 C12.187,16.758 12.187,16.748 12.177,16.71 C12.167,16.671 12.167,16.633 12.158,16.594 C12.158,16.564 12.148,16.545 12.148,16.526 C12.1397053,16.4647018 12.1363611,16.4028351 12.138,16.341 C12.137,16.267 12.14,16.192 12.148,16.118 C12.148,16.089 12.158,16.07 12.158,16.05 C12.168,15.992 12.178,15.944 12.188,15.895 C12.198,15.875 12.198,15.847 12.208,15.827 C12.2198268,15.7740153 12.2362214,15.7221548 12.257,15.672 C12.267,15.652 12.267,15.643 12.277,15.624 C12.299,15.564 12.325,15.505 12.356,15.449 L12.366,15.429 C12.6962564,14.823568 13.3181395,14.433991 14.007,14.401 C14.037,14.391 14.067,14.391 14.107,14.391 C14.226,14.391 14.345,14.401 14.463,14.421 C14.513,14.361 14.562,14.313 14.621,14.255 L14.671,14.207 C14.73,14.158 14.779,14.11 14.839,14.071 L14.869,14.051 C14.908,14.022 14.977,13.974 15.007,13.954 C15.037,13.935 15.086,13.896 15.116,13.886 C15.1507797,13.8739655 15.1840112,13.8578532 15.215,13.838 C15.274,13.808 15.373,13.76 15.432,13.741 L15.482,13.702 C15.8781427,13.5480829 16.3070988,13.4981642 16.728,13.557 L16.738,13.557 C16.818,13.565 16.897,13.577 16.975,13.595 L16.985,13.595 C17.065,13.605 17.134,13.635 17.213,13.654 L17.223,13.664 C17.302,13.692 17.371,13.721 17.44,13.751 L17.46,13.761 C17.528,13.789 17.594,13.821 17.658,13.857 L17.668,13.867 C17.727,13.897 17.796,13.945 17.856,13.983 L17.866,13.993 C17.935,14.032 17.994,14.08 18.053,14.129 L18.063,14.139 C18.393784,14.4170076 18.6490074,14.7740452 18.805,15.177 L18.805,15.187 C18.825,15.245 18.845,15.313 18.865,15.371 C18.865,15.391 18.875,15.41 18.875,15.429 C18.891,15.479 18.905,15.532 18.914,15.584 L18.944,15.807 Z" id="Shape" fill="#FFFFFF"></path>
        </g>
    </g>
</svg>