<?xml version="1.0" encoding="UTF-8"?>
<svg width="32px" height="32px" viewBox="0 0 32 32" version="1.1" xmlns="http://www.w3.org/2000/svg" xmlns:xlink="http://www.w3.org/1999/xlink">
    <!-- Generator: Sketch 51.2 (57519) - http://www.bohemiancoding.com/sketch -->
    <title>currency/strat</title>
    <desc>Created with Sketch.</desc>
    <defs></defs>
    <g id="currency/strat" stroke="none" stroke-width="1" fill="none" fill-rule="evenodd">
        <g id="strat" fill-rule="nonzero">
            <circle id="Oval" fill="#1387C9" cx="16" cy="16" r="16"></circle>
            <path d="M16.053,18.373 L25.647,12.789 L16.053,7.105 L6.555,12.789 L16.053,18.373 Z M6.047,15.453 C6.047,15.724 6.19,15.974 6.423,16.11 L16.05,21.718 L25.835,15.93 C26.0636793,15.7977336 26.3455705,15.7975966 26.5743782,15.9296407 C26.8031859,16.0616848 26.9441059,16.3058247 26.944,16.57 L26.944,19.196 C26.9439019,19.4570011 26.8068636,19.698811 26.583,19.833 L16.426,25.896 C16.196536,26.0331432 15.9105596,26.0342933 15.68,25.899 L5.26,19.773 C5.01010301,19.6250387 4.92582258,19.3035245 5.071,19.052 C5.14021606,18.9312805 5.25484853,18.843267 5.3893483,18.8075757 C5.52384807,18.7718844 5.66703651,18.7914818 5.787,18.862 L16.05,24.895 L25.897,19.017 L25.897,17.117 L16.424,22.72 C16.1955357,22.8555706 15.9115531,22.8567188 15.682,22.723 L5.899,17.023 C5.34127496,16.6969582 4.99889638,16.0990335 5,15.453 L5,12.98 C4.9993455,12.754136 5.1194641,12.5451476 5.31495714,12.4320217 C5.51045018,12.3188959 5.75149918,12.3188876 5.947,12.432 L6.555,12.789 L5.791,13.246 C5.64262589,13.3356698 5.45936807,13.3456618 5.30212414,13.2726557 C5.14488021,13.1996496 5.03425129,13.0532101 5.007,12.882 C4.97071865,12.6670828 5.06996696,12.4519124 5.257,12.34 L15.676,6.104 C15.906643,5.96558147 16.1946221,5.96481352 16.426,6.102 L26.637,12.152 C26.8629796,12.286746 27.0009882,12.5308254 26.9999612,12.7939265 C26.9989343,13.0570276 26.8590246,13.3000222 26.632,13.433 L16.42,19.377 C16.1913134,19.5105523 15.9083248,19.5101699 15.68,19.376 L5.42,13.343 C5.52993421,13.4076408 5.66348453,13.4181467 5.78217403,13.3714908 C5.90086353,13.3248349 5.99151093,13.2261987 6.028,13.104 C6.04080032,13.0638923 6.04754128,13.0220983 6.048,12.98 L6.048,15.454 L6.047,15.453 Z" id="Shape" fill="#FFFFFF"></path>
        </g>
    </g>
</svg>