<?xml version="1.0" encoding="UTF-8"?>
<svg width="32px" height="32px" viewBox="0 0 32 32" version="1.1" xmlns="http://www.w3.org/2000/svg" xmlns:xlink="http://www.w3.org/1999/xlink">
    <!-- Generator: Sketch 51.2 (57519) - http://www.bohemiancoding.com/sketch -->
    <title>currency/sub</title>
    <desc>Created with Sketch.</desc>
    <defs></defs>
    <g id="currency/sub" stroke="none" stroke-width="1" fill="none" fill-rule="evenodd">
        <g id="sub" fill-rule="nonzero">
            <circle id="Oval" fill="#E53431" cx="16" cy="16" r="16"></circle>
            <path d="M12.117,5.314 C12.159917,5.28086878 12.2127877,5.26324523 12.267,5.264 C12.3210926,5.264 12.373726,5.28154447 12.417,5.314 L13.674,6.256 C13.7454531,6.30976847 13.7827934,6.39757237 13.7719551,6.48633683 C13.7611168,6.57510128 13.7037465,6.65134085 13.6214551,6.68633683 C13.5391637,6.72133281 13.4444531,6.70976848 13.373,6.656 L12.267,5.829 L8.67,8.526 L24.47,20.38 C24.5333767,20.427598 24.5706668,20.5022398 24.5706668,20.5815 C24.5706668,20.6607602 24.5333767,20.735402 24.47,20.783 L23.309,21.653 C23.1979908,21.7358427 23.0408427,21.7130092 22.958,21.602 C22.8751573,21.4909908 22.8979908,21.3338427 23.009,21.251 L23.902,20.581 L8.101,8.729 C8.03728574,8.68228393 7.99964242,8.60800569 7.99964242,8.529 C7.99964242,8.44999431 8.03728574,8.37571607 8.101,8.329 L12.117,5.315 L12.117,5.314 Z M16.134,5.314 C16.2220954,5.24572393 16.3450022,5.24490455 16.434,5.312 L24.469,11.339 C24.5557196,11.403098 24.5905835,11.5162029 24.555,11.618 C24.5216248,11.7206375 24.4259276,11.7900887 24.318,11.79 L20.301,11.79 C20.2469653,11.7896472 20.1944394,11.7721386 20.151,11.74 L14.878,7.786 C14.8061896,7.73223153 14.7685192,7.64423703 14.7791789,7.55516318 C14.7898386,7.46608932 14.8472088,7.38946856 14.9296789,7.35416318 C15.0121489,7.3188578 15.1071896,7.33023153 15.179,7.384 L20.386,11.288 L23.565,11.288 L16.285,5.828 L11.245,9.608 C11.1339908,9.69111885 10.9766189,9.66850923 10.8935,9.5575 C10.8103811,9.44649077 10.8329908,9.28911885 10.944,9.206 L16.134,5.314 Z M9.21,10.509 C9.32098018,10.4419447 9.46473048,10.4700515 9.54228111,10.5739693 C9.61983173,10.6778872 9.60586639,10.8236922 9.51,10.911 L8.669,11.541 L24.47,23.395 C24.5337401,23.4421414 24.5713427,23.5167213 24.5713427,23.596 C24.5713427,23.6752787 24.5337401,23.7498586 24.47,23.797 L20.453,26.81 C20.3637857,26.8756832 20.2422143,26.8756832 20.153,26.81 L18.99,25.938 C18.9181896,25.8838743 18.8807098,25.7955496 18.8916789,25.7062972 C18.902648,25.6170447 18.9603994,25.5404239 19.0431789,25.5052972 C19.1259583,25.4701704 19.2211896,25.4818743 19.293,25.536 L20.303,26.293 L23.903,23.593 L8.098,11.742 C8.03538183,11.6941333 7.99864895,11.6198179 7.99864895,11.541 C7.99864895,11.4621821 8.03538183,11.3878667 8.098,11.34 L9.208,10.51 L9.21,10.509 Z M8.251,20.328 L8.251,20.33 L12.266,20.33 C12.32,20.329 12.373,20.347 12.416,20.38 L17.632,24.291 C17.7038104,24.3445898 17.7415761,24.4324193 17.7310711,24.5214038 C17.7205661,24.6103883 17.6633865,24.6870091 17.5810711,24.7224038 C17.4987558,24.7577985 17.4038104,24.7465898 17.332,24.693 L12.186,20.832 L9.005,20.832 L16.286,26.292 L21.316,22.52 C21.3878104,22.4660529 21.4829464,22.4545141 21.5655711,22.4897302 C21.6481959,22.5249462 21.7057567,22.601567 21.7165711,22.6907302 C21.7273855,22.7798933 21.6898104,22.8680529 21.618,22.922 L16.437,26.806 C16.393726,26.8384555 16.3410926,26.856 16.287,26.856 C16.2325185,26.8565149 16.1794075,26.8389285 16.136,26.806 L8.099,20.781 C7.99042407,20.7796856 7.89500441,20.7087036 7.86252797,20.6050902 C7.83005153,20.5014768 7.86788311,20.3887287 7.95628339,20.3256743 C8.04468367,20.26262 8.16360581,20.2635584 8.251,20.328 Z" id="Shape" fill="#FFFFFF"></path>
        </g>
    </g>
</svg>