<?xml version="1.0" encoding="UTF-8"?>
<svg width="32px" height="32px" viewBox="0 0 32 32" version="1.1" xmlns="http://www.w3.org/2000/svg" xmlns:xlink="http://www.w3.org/1999/xlink">
    <!-- Generator: Sketch 51.2 (57519) - http://www.bohemiancoding.com/sketch -->
    <title>currency/sys</title>
    <desc>Created with Sketch.</desc>
    <defs></defs>
    <g id="currency/sys" stroke="none" stroke-width="1" fill="none" fill-rule="evenodd">
        <g id="sys" fill-rule="nonzero">
            <circle id="Oval" fill="#0082C6" cx="16" cy="16" r="16"></circle>
            <path d="M18.046,15.103 C18.0033319,15.0943974 17.9594152,15.110192 17.932,15.144 C17.913399,15.1673831 17.9053164,15.1974274 17.9096745,15.2269871 C17.9140327,15.2565467 17.9304421,15.2829801 17.955,15.3 C22.334,18.478 16.101,25.754 4,18.011 C14.26,27.666 28.547,17.001 18.046,15.103 Z M12.202,10.855 C3.116,13.762 13.525,20.618 14.428,17.155 C14.436113,17.1257809 14.4318039,17.0945087 14.4160908,17.0685727 C14.4003778,17.0426367 14.3746548,17.0243379 14.345,17.018 C14.3239696,17.0125327 14.3018493,17.0128783 14.281,17.019 C12.944,17.454 5.58,15.395 12.201,10.855 L12.202,10.855 Z M28,12.602 C20.133,6.992 5.372,11.618 12.987,15.579 C13.0435023,15.6076067 13.1125109,15.586948 13.144,15.532 C13.1603081,15.50161 13.1614187,15.4653306 13.147,15.434 C10.05,8.89 25.781,10.88 28,12.602 Z M21.472,20.753 C25.631,18.863 22.249,12.392 16.748,13.641 C16.6865521,13.6548308 16.625295,13.6170999 16.61,13.556 C16.6003193,13.5146442 16.6160161,13.4714778 16.65,13.446 C20.93,10.23 28.964,17.738 21.472,20.753 Z" id="Shape" fill="#FFFFFF"></path>
        </g>
    </g>
</svg>