<?xml version="1.0" encoding="UTF-8"?>
<svg width="32px" height="32px" viewBox="0 0 32 32" version="1.1" xmlns="http://www.w3.org/2000/svg" xmlns:xlink="http://www.w3.org/1999/xlink">
    <!-- Generator: Sketch 51.2 (57519) - http://www.bohemiancoding.com/sketch -->
    <title>currency/taas</title>
    <desc>Created with Sketch.</desc>
    <defs></defs>
    <g id="currency/taas" stroke="none" stroke-width="1" fill="none" fill-rule="evenodd">
        <g id="taas" fill-rule="nonzero">
            <circle id="Oval" fill="#002342" cx="16" cy="16" r="16"></circle>
            <path d="M4,13 L5.298,13 L5.298,14.221 L4,14.221 L4,13 Z M5.298,17.774 L9.075,17.774 L9.075,19 L4,19 L4,15.442 L7.81,15.442 L7.81,16.662 L5.299,16.662 L5.299,17.774 L5.298,17.774 Z M22.925,15.442 L28,15.442 L28,19 L24.19,19 L24.19,17.774 L26.702,17.774 L26.702,16.663 L22.925,16.663 L22.925,15.442 Z M26.723,14.28 L22.923,14.28 L22.923,13.059 L26.723,13.059 L26.723,14.279 L26.723,14.28 Z M10.312,15.442 L15.387,15.442 L15.387,17.826 L14.123,17.826 L14.123,19 L10.312,19 L10.312,15.442 Z M14.089,17.774 L14.089,16.663 L11.61,16.663 L11.61,17.773 L14.09,17.773 L14.089,17.774 Z M10.312,13 L15.387,13 L15.387,14.221 L10.312,14.221 L10.312,13 Z M16.646,15.442 L21.721,15.442 L21.721,17.826 L20.457,17.826 L20.457,19 L16.647,19 L16.647,15.442 L16.646,15.442 Z M20.418,17.774 L20.418,16.663 L17.938,16.663 L17.938,17.773 L20.418,17.773 L20.418,17.774 Z M16.646,13 L21.721,13 L21.721,14.221 L16.646,14.221 L16.646,13 Z" id="Shape" fill="#FFFFFF"></path>
        </g>
    </g>
</svg>