<?xml version="1.0" encoding="UTF-8"?>
<svg width="32px" height="32px" viewBox="0 0 32 32" version="1.1" xmlns="http://www.w3.org/2000/svg" xmlns:xlink="http://www.w3.org/1999/xlink">
    <!-- Generator: Sketch 51.2 (57519) - http://www.bohemiancoding.com/sketch -->
    <title>currency/tau</title>
    <desc>Created with Sketch.</desc>
    <defs></defs>
    <g id="currency/tau" stroke="none" stroke-width="1" fill="none" fill-rule="evenodd">
        <g id="tau" fill-rule="nonzero">
            <circle id="Oval" fill="#7B346E" cx="16" cy="16" r="16"></circle>
            <path d="M8.094,13.678 L10.204,15.788 L6,15.788 L8.094,13.678 Z M10.204,16.228 L8.094,18.322 L6,16.228 L10.204,16.228 Z M13.056,13.375 L10.946,15.469 L10.946,11.266 L13.056,13.375 Z M10.506,15.469 L8.413,13.375 L10.507,11.265 L10.506,15.469 Z M13.36,13.056 L11.266,10.962 L15.469,10.962 L13.36,13.056 Z M13.36,8.413 L15.469,10.522 L11.266,10.522 L13.36,8.413 Z M18.322,8.109 L16.212,10.203 L16.212,6 L18.322,8.109 Z M15.772,10.203 L13.678,8.11 L15.772,6 L15.772,10.203 Z M13.056,18.64 L10.946,20.734 L10.946,16.531 L13.056,18.64 Z M8.413,18.64 L10.507,16.531 L10.507,20.734 L8.413,18.64 Z M18.625,13.056 L16.531,10.962 L20.734,10.962 L18.625,13.056 Z M16.531,10.522 L18.625,8.412 L20.735,10.522 L16.531,10.522 Z M15.47,21.493 L13.36,23.587 L11.267,21.493 L15.47,21.493 Z M13.36,18.943 L15.47,21.053 L11.267,21.053 L13.36,18.943 Z M23.588,13.375 L21.479,15.469 L21.479,11.266 L23.588,13.375 Z M18.945,13.375 L21.039,11.265 L21.039,15.469 L18.945,13.375 Z M13.679,23.905 L15.773,21.797 L15.773,26 L13.679,23.905 Z M16.213,21.797 L18.323,23.906 L16.212,26 L16.213,21.797 Z M18.626,23.587 L16.532,21.493 L20.735,21.493 L18.626,23.587 Z M18.626,18.944 L20.736,21.054 L16.53,21.054 L18.626,18.944 Z M21.479,16.531 L23.589,18.641 L21.479,20.734 L21.479,16.531 Z M18.945,18.641 L21.039,16.531 L21.039,20.734 L18.945,18.641 Z M23.892,18.321 L21.798,16.228 L26,16.228 L23.892,18.321 Z M23.892,13.678 L26,15.788 L21.797,15.788 L23.892,13.678 Z" id="Shape" fill="#FFFFFF"></path>
        </g>
    </g>
</svg>