<?xml version="1.0" encoding="UTF-8"?>
<svg width="32px" height="32px" viewBox="0 0 32 32" version="1.1" xmlns="http://www.w3.org/2000/svg" xmlns:xlink="http://www.w3.org/1999/xlink">
    <!-- Generator: Sketch 51.2 (57519) - http://www.bohemiancoding.com/sketch -->
    <title>currency/tel</title>
    <desc>Created with Sketch.</desc>
    <defs></defs>
    <g id="currency/tel" stroke="none" stroke-width="1" fill="none" fill-rule="evenodd">
        <g id="tel" fill-rule="nonzero">
            <circle id="Oval" fill="#14C8FF" cx="16" cy="16" r="16"></circle>
            <path d="M25.0801371,11.4778077 C25.7128627,11.9908406 26.1120157,13.0522067 25.9720322,13.8311694 L24.6121921,21.3548668 C24.4698089,22.1393207 23.7202971,23.00222 22.947588,23.2728566 L15.5292607,25.878028 C14.7565516,26.149449 13.6094866,25.9525511 12.976761,25.4395183 L6.9190737,20.5233457 C6.28634813,20.0103128 5.88639519,18.9544379 6.02877844,18.169984 L7.38861845,10.6462866 C7.5310017,9.86183271 8.28051353,8.99893342 9.05322262,8.72829682 L16.4731497,6.12234096 C17.2458588,5.85013546 18.3929238,6.04781784 19.0256494,6.56006624 L25.0801371,11.4778077 Z M18.7688796,14.8556662 L19.071244,13.3267656 L16.2387773,13.3314723 L16.6387302,11.3154258 L15.7244378,11.3154258 C15.0699522,12.3222675 14.1080995,13.100824 12.9759611,13.540137 L12.7191913,14.858804 L13.9574456,14.858804 C13.9574456,14.858804 13.538295,16.7532602 13.3975115,17.4522086 C13.0463528,19.2313501 13.9262493,20.4935364 15.2788902,20.4935364 L17.566621,20.4935364 L17.966574,18.8038227 L16.0531991,18.8038227 C15.2028991,18.8038227 15.2476939,18.339426 15.4132744,17.5141805 L15.9396125,14.851744 L18.7688796,14.8556662 Z" id="Shape" fill="#FFFFFF"></path>
        </g>
    </g>
</svg>