<?xml version="1.0" encoding="UTF-8"?>
<svg width="32px" height="32px" viewBox="0 0 32 32" version="1.1" xmlns="http://www.w3.org/2000/svg" xmlns:xlink="http://www.w3.org/1999/xlink">
    <!-- Generator: Sketch 51.2 (57519) - http://www.bohemiancoding.com/sketch -->
    <title>currency/tnb</title>
    <desc>Created with Sketch.</desc>
    <defs></defs>
    <g id="currency/tnb" stroke="none" stroke-width="1" fill="none" fill-rule="evenodd">
        <g id="tnb" fill-rule="nonzero">
            <circle id="Oval" fill="#FFC04E" cx="16" cy="16" r="16"></circle>
            <path d="M15.5977558,11.8571429 L15.6006601,11.8571429 L15.570165,11.9864286 L15.310231,13.2142857 L15.2811881,13.2142857 L13.5676568,20.5 L11.3894389,20.5 L13.1356436,13.2142857 L10.2037624,13.2142857 L8.55775578,20.5 L6.16171617,20.5 L8.33993399,11.5 L8.99339934,11.5 L10.5907591,11.5 L15.6732673,11.5 L15.5977558,11.8571429 Z M19.7392739,11.5 L23.369637,11.5 C26.4917492,11.6428571 26.2013201,13.7142857 26.2013201,13.7142857 L27,13.7142857 L26.709571,14.5714286 L25.9834983,14.5714286 C25.7656766,15.3571429 24.3135314,15.7857143 24.3135314,15.7857143 C25.9834983,16 25.9108911,17.2857143 25.9108911,17.2857143 L26.709571,17.2857143 L26.4917492,18.1428571 L25.8382838,18.1428571 C25.6712871,19.3335714 24.6163036,19.9107143 23.7493729,20.1864286 C23.2250907,20.3498902 22.6780266,20.4315938 22.1280528,20.4285714 L17.5610561,20.4286523 L19.7392739,11.5 Z M7.32343234,13.2142857 L5,13.2142857 L5.43564356,11.5 L7.75907591,11.5 L7.32343234,13.2142857 Z M17.2706271,19.5 L15.3828383,15.0714286 L16.1815182,11.6428571 L18.0693069,15.8571429 L17.2706271,19.5 Z M22.8250825,15.0714286 C23.0851063,15.0716183 23.3345355,14.9700851 23.5184001,14.7892053 C23.7022647,14.6083255 23.8054734,14.3629454 23.8052805,14.1071429 C23.8054734,13.8513403 23.7022647,13.6059602 23.5184001,13.4250804 C23.3345355,13.2442006 23.0851063,13.1426674 22.8250825,13.1428571 L21.4092409,13.1428571 L20.9735974,15.0714289 L22.8250825,15.0714286 Z M22.3364356,18.7857143 C22.9869967,18.7857143 23.5148515,18.29 23.5148515,17.6785714 C23.5148515,17.0671429 22.989901,16.5714286 22.3364356,16.5714286 L20.6337954,16.5714286 L20.110297,18.7857143 L22.3364356,18.7857143 Z" id="Shape" fill="#FFFFFF"></path>
        </g>
    </g>
</svg>