<?xml version="1.0" encoding="UTF-8"?>
<svg width="32px" height="32px" viewBox="0 0 32 32" version="1.1" xmlns="http://www.w3.org/2000/svg" xmlns:xlink="http://www.w3.org/1999/xlink">
    <!-- Generator: Sketch 51.2 (57519) - http://www.bohemiancoding.com/sketch -->
    <title>currency/trig</title>
    <desc>Created with Sketch.</desc>
    <defs></defs>
    <g id="currency/trig" stroke="none" stroke-width="1" fill="none" fill-rule="evenodd">
        <g id="trig" fill-rule="nonzero">
            <circle id="Oval" fill="#30C0F2" cx="16" cy="16" r="16"></circle>
            <path d="M10.123,7 L21.897,7 C21.897,7 22.209,8.554 23.877,8.658 C23.877,8.658 29.399,21.508 15.958,27 C15.958,27 3.559,23.062 7.935,8.762 C7.935,8.762 9.811,8.658 10.123,7 Z M21.273,8.023 L10.753,8.023 L10.739,8.247 C10.651,8.736 10.406,9.077 10.047,9.307 C9.82451471,9.44728314 9.57519861,9.53958459 9.315,9.578 L9.131,9.596 L9.079,9.774 C8.11,13.084 8.077,15.944 8.84,18.384 C9.466,20.384 10.599,22.024 12.092,23.334 C12.8799643,24.0249736 13.7518267,24.6139427 14.687,25.087 C14.997,25.244 15.287,25.373 15.546,25.477 C15.703,25.54 15.818,25.581 15.881,25.602 L15.979,25.632 L16.074,25.592 C19.78,24.008 22.022,21.614 23.026,18.632 C23.856,16.172 23.782,13.553 23.163,11.073 C23.0439992,10.5972343 22.9004742,10.127941 22.733,9.667 C22.7194974,9.63047695 22.7054961,9.59414022 22.691,9.558 L22.627,9.4 L22.456,9.389 C21.97,9.357 21.661,9.159 21.47,8.841 C21.3683213,8.67001786 21.3051855,8.478904 21.285,8.281 L21.273,8.023 Z M11.228,8.568 C17.595,8.569 20.778,8.57 20.778,8.571 C20.822,8.758 20.893,8.944 20.998,9.121 C21.254,9.546 21.665,9.833 22.241,9.915 C22.3921082,10.3383336 22.522266,10.7688556 22.631,11.205 C23.227,13.593 23.297,16.111 22.506,18.459 C21.561,21.266 19.46,23.526 15.955,25.049 C15.6074246,24.9179664 15.2672529,24.7680772 14.936,24.6 C14.0420398,24.1483052 13.2084885,23.5858849 12.455,22.926 C11.034,21.678 9.958,20.122 9.364,18.223 C8.646,15.928 8.665,13.23 9.558,10.089 C9.83590308,10.0255293 10.1012312,9.91601813 10.343,9.765 C10.768,9.494 11.08,9.098 11.228,8.568 Z M18.588,14.15 L18.285,14.15 C18.315,13.542 18.18,12.218 16.535,11.85 C16.0570419,11.7357226 15.5565406,11.7585987 15.091,11.916 C14.449,12.144 13.683,12.717 13.654,14.15 L13.431,14.15 C12.9579809,14.149992 12.5737501,14.5319889 12.571,15.005 L12.571,18.58 C12.5737501,19.0530111 12.9579809,19.435008 13.431,19.435 L18.589,19.435 C19.0620191,19.435008 19.4462499,19.0530111 19.449,18.58 L19.449,15.005 C19.4462499,14.5319889 19.0620191,14.149992 18.589,14.15 L18.588,14.15 Z M16.583,18.192 L15.437,18.192 L15.74,16.685 C15.4462177,16.55834 15.2822065,16.242368 15.3476984,15.92922 C15.4131902,15.6160721 15.6900813,15.3923105 16.01,15.394 C16.2606422,15.2859392 16.5517303,15.3399632 16.7469057,15.5307646 C16.9420812,15.7215661 17.0026877,16.0113552 16.9003346,16.2643819 C16.7979815,16.5174085 16.5529406,16.6835586 16.28,16.685 L16.583,18.192 Z M14.395,14.15 C14.423,13.682 14.621,12.574 15.854,12.492 C15.854,12.492 17.48,12.403 17.451,14.15 L14.395,14.15 Z" id="Shape" fill="#FFFFFF"></path>
        </g>
    </g>
</svg>