<?xml version="1.0" encoding="UTF-8"?>
<svg width="32px" height="32px" viewBox="0 0 32 32" version="1.1" xmlns="http://www.w3.org/2000/svg" xmlns:xlink="http://www.w3.org/1999/xlink">
    <!-- Generator: Sketch 51.2 (57519) - http://www.bohemiancoding.com/sketch -->
    <title>currency/usd</title>
    <desc>Created with Sketch.</desc>
    <defs></defs>
    <g id="currency/usd" stroke="none" stroke-width="1" fill="none" fill-rule="evenodd">
        <g id="usd" fill-rule="nonzero">
            <circle id="Oval" fill="#6CDE07" cx="16" cy="16" r="16"></circle>
            <path d="M22.5,19.154 C22.5,21.724 20.414,23.43 17.334,23.687 L17.334,26 L15.224,26 L15.224,23.664 C13.1406811,23.4290866 11.1612789,22.628888 9.5,21.35 L11.052,19.224 C12.435,20.299 13.744,21 15.321,21.234 L15.321,16.654 C11.78,15.766 10.131,14.481 10.131,11.841 C10.131,9.318 12.192,7.589 15.224,7.355 L15.224,6 L17.334,6 L17.334,7.402 C18.9831235,7.58517675 20.5553987,8.19753655 21.894,9.178 L20.535,11.374 C19.468,10.603 18.377,10.112 17.237,9.879 L17.237,14.318 C20.924,15.206 22.5,16.631 22.5,19.154 Z M15.32,13.827 L15.32,9.715 C13.793,9.832 12.993,10.65 12.993,11.678 C12.993,12.658 13.453,13.29 15.321,13.828 L15.32,13.827 Z M19.638,19.317 C19.638,18.267 19.128,17.636 17.237,17.098 L17.237,21.328 C18.765,21.21 19.638,20.439 19.638,19.318 L19.638,19.317 Z" id="Shape" fill="#FFFFFF"></path>
        </g>
    </g>
</svg>