<?xml version="1.0" encoding="UTF-8"?>
<svg width="32px" height="32px" viewBox="0 0 32 32" version="1.1" xmlns="http://www.w3.org/2000/svg" xmlns:xlink="http://www.w3.org/1999/xlink">
    <!-- Generator: Sketch 51.2 (57519) - http://www.bohemiancoding.com/sketch -->
    <title>currency/xas</title>
    <desc>Created with Sketch.</desc>
    <defs></defs>
    <g id="currency/xas" stroke="none" stroke-width="1" fill="none" fill-rule="evenodd">
        <g id="xas" fill-rule="nonzero">
            <circle id="Oval" fill="#FAA00D" cx="16" cy="16" r="16"></circle>
            <path d="M25.9916006,14.4711311 L16.5232844,25.4806684 L16.0977134,26 L6.00671954,14.5818766 L6.03871737,14.5691517 L6,14.562982 L9.92181332,8.00624679 L9.92397317,8.00848329 L9.92181332,8 L22.17586,8 L22.1736202,8.00724936 L26,14.4690488 L25.9916006,14.4711311 Z M12.8555338,14.9296144 L10.6851214,18.6036504 L16.0375574,24.7160154 L21.4005528,18.5540617 L19.279097,14.9189717 L12.8555338,14.9296144 Z M10.0776427,17.9100257 L11.8372031,14.9313111 L7.47557966,14.9384833 L10.0776427,17.9100257 Z M19.8008215,14.0640103 L24.7554446,14.0556041 L21.6457361,8.84832905 L16.7630281,8.8588946 L19.8008215,14.0640103 Z M24.5720171,14.9100257 L20.2988677,14.9170437 L22.0115512,17.8517224 L24.5720171,14.9100257 Z M18.7809709,14.0656298 L16.0897139,9.45442159 L13.3605395,14.0745758 L18.7809709,14.0656298 Z M10.382342,8.87246787 L7.28255279,14.0848329 L12.3422087,14.0762725 L15.4225593,8.86174807 L10.382342,8.87246787 Z" id="Shape" fill="#FFFFFF"></path>
        </g>
    </g>
</svg>