<?xml version="1.0" encoding="UTF-8"?>
<svg width="32px" height="32px" viewBox="0 0 32 32" version="1.1" xmlns="http://www.w3.org/2000/svg" xmlns:xlink="http://www.w3.org/1999/xlink">
    <!-- Generator: Sketch 51.2 (57519) - http://www.bohemiancoding.com/sketch -->
    <title>currency/xbc</title>
    <desc>Created with Sketch.</desc>
    <defs></defs>
    <g id="currency/xbc" stroke="none" stroke-width="1" fill="none" fill-rule="evenodd">
        <g id="xbc" fill-rule="nonzero">
            <circle id="Oval" fill="#F7931A" cx="16" cy="16" r="16"></circle>
            <path d="M25.977,19.754 L25.432,21.937 L23.977,21.575 L24.521,19.391 L22.338,18.847 L22.701,17.392 L24.884,17.936 L25.429,15.753 L26.884,16.116 L26.34,18.299 L28.523,18.843 L28.16,20.299 L25.977,19.754 Z M20.61,13.76 C20.407,15.11 19.671,15.766 18.698,16 C20.029,16.703 20.703,17.787 20.046,19.677 C19.23,22.024 17.32,22.232 14.784,21.757 L14.154,24.279 L12.668,23.909 L13.289,21.419 C12.8932127,21.3210382 12.4985219,21.2186986 12.105,21.112 L11.481,23.612 L9.997,23.242 L10.627,20.714 C10.279,20.625 9.927,20.531 9.567,20.441 L7.632,19.958 L8.38,18.216 C8.38,18.216 9.475,18.507 9.46,18.486 C9.882,18.589 10.07,18.308 10.145,18.121 L11.139,14.133 L11.297,14.172 C11.2465211,14.151854 11.194736,14.1351491 11.142,14.122 L11.852,11.275 C11.872,10.952 11.765,10.546 11.162,10.395 C11.186,10.38 10.083,10.127 10.083,10.127 L10.488,8.503 L12.538,9.015 L12.536,9.022 C12.844,9.099 13.162,9.172 13.486,9.245 L14.109,6.747 L15.595,7.117 L14.984,9.567 C15.383,9.657 15.784,9.749 16.174,9.847 L16.781,7.414 L18.268,7.784 L17.645,10.283 C19.521,10.933 20.89,11.916 20.61,13.76 Z M17.183,18.645 C17.674,16.675 14.441,16.185 13.433,15.933 L12.6,19.28 C13.608,19.53 16.715,20.533 17.185,18.644 L17.183,18.645 Z M17.67,13.749 C18.116,11.956 15.412,11.572 14.573,11.363 L13.816,14.4 C14.655,14.61 17.241,15.467 17.67,13.749 Z" id="Shape" fill="#FFFFFF"></path>
        </g>
    </g>
</svg>