<?xml version="1.0" encoding="UTF-8"?>
<svg width="32px" height="32px" viewBox="0 0 32 32" version="1.1" xmlns="http://www.w3.org/2000/svg" xmlns:xlink="http://www.w3.org/1999/xlink">
    <!-- Generator: Sketch 51.2 (57519) - http://www.bohemiancoding.com/sketch -->
    <title>currency/xcp</title>
    <desc>Created with Sketch.</desc>
    <defs></defs>
    <g id="currency/xcp" stroke="none" stroke-width="1" fill="none" fill-rule="evenodd">
        <g id="xcp" fill-rule="nonzero">
            <circle id="Oval" fill="#ED1650" cx="16" cy="16" r="16"></circle>
            <path d="M23.48,10 L19.436,10 C19.2702852,10.0002921 19.1116774,10.06734 18.996,10.186 L11.621,17.715 C11.5053226,17.83366 11.3467148,17.9007079 11.181,17.901 L9.829,17.901 C9.66328525,17.9007079 9.50467743,17.83366 9.389,17.715 L8.433,16.741 C8.31586721,16.6216809 8.25016855,16.4612038 8.25,16.294 L8.25,14.917 C8.25001373,14.749471 8.31571595,14.5886262 8.433,14.469 L9.389,13.495 C9.50474238,13.3764352 9.66330825,13.309405 9.829,13.309 L11.181,13.309 C11.346,13.309 11.504,13.376 11.621,13.495 L12.208,14.093 C12.3235882,14.2117603 12.4822754,14.2787524 12.648,14.2787524 C12.8137246,14.2787524 12.9724118,14.2117603 13.088,14.093 L14.507,12.649 C14.7498696,12.3997075 14.7498696,12.0022925 14.507,11.753 L12.967,10.186 C12.8512576,10.0674352 12.6926917,10.000405 12.527,10 L8.483,10 C8.31730825,10.000405 8.15874238,10.0674352 8.043,10.186 L5.183,13.098 C5.06608187,13.2177868 5.00074655,13.3786122 5.001,13.546 L5.001,17.664 C5.001,17.832 5.067,17.994 5.183,18.112 L8.043,21.025 C8.15890905,21.1431973 8.31745394,21.2098582 8.483,21.21 L12.528,21.21 C12.6936917,21.209595 12.8522576,21.1425648 12.968,21.024 L20.343,13.496 C20.4585753,13.3770675 20.6171623,13.309668 20.783,13.309 L22.135,13.309 C22.3,13.309 22.458,13.376 22.575,13.495 L23.531,14.469 C23.6482841,14.5886262 23.7139863,14.749471 23.714,14.917 L23.714,16.294 C23.7137248,16.4611828 23.648042,16.6216211 23.531,16.741 L22.575,17.715 C22.4593226,17.83366 22.3007148,17.9007079 22.135,17.901 L20.783,17.901 C20.6172852,17.9007079 20.4586774,17.83366 20.343,17.715 L19.751,17.112 C19.6362634,16.9941358 19.4790327,16.9272369 19.3145469,16.926297 C19.1500611,16.9253571 18.9920761,16.9904547 18.876,17.107 L17.126,18.849 C17.0060316,18.9692079 16.9387603,19.1321698 16.939,19.302 L16.939,23.342 C16.939,23.692 17.218,23.976 17.561,23.976 L19.601,23.976 C19.7675576,23.9746792 19.9267682,23.907245 20.0436045,23.7885333 C20.1604408,23.6698216 20.2253314,23.5095575 20.224,23.343 L20.224,21.843 C20.224,21.493 20.503,21.21 20.846,21.21 L23.481,21.21 C23.6465461,21.2098582 23.8050909,21.1431973 23.921,21.025 L26.781,18.112 C26.8982841,17.9923738 26.9639863,17.831529 26.964,17.664 L26.964,13.546 C26.9642534,13.3786122 26.8989181,13.2177868 26.782,13.098 L23.922,10.186 C23.8062576,10.0674352 23.6476917,10.000405 23.482,10" id="Shape" fill="#FFFFFF"></path>
        </g>
    </g>
</svg>