<?xml version="1.0" encoding="UTF-8"?>
<svg width="32px" height="32px" viewBox="0 0 32 32" version="1.1" xmlns="http://www.w3.org/2000/svg" xmlns:xlink="http://www.w3.org/1999/xlink">
    <!-- Generator: Sketch 51.2 (57519) - http://www.bohemiancoding.com/sketch -->
    <title>currency/xdn</title>
    <desc>Created with Sketch.</desc>
    <defs></defs>
    <g id="currency/xdn" stroke="none" stroke-width="1" fill="none" fill-rule="evenodd">
        <g id="xdn" fill-rule="nonzero">
            <circle id="Oval" fill="#4F7AA2" cx="16" cy="16" r="16"></circle>
            <path d="M13.309,12 L16.047,12 C17.369,12 19.73,12.803 19.73,16 C19.73,19.197 17.37,20 16.047,20 L13.31,20 L13.309,12 Z M14.819,18.38 L15.953,18.38 C16.897,18.38 18.03,17.802 18.03,16 C18.03,14.198 16.897,13.62 15.953,13.62 L14.82,13.62 L14.819,18.38 Z M20.77,12 L21.336,12 L26.434,19.026 L26.434,12 L27,12 L27,20 L26.433,20 L21.335,13.128 L21.335,20 L20.768,20 L20.77,12 Z M5,12 L6.888,12 L6.888,14 L5,14 L5,12 Z M7.833,12 L9.72,12 L9.72,14 L7.833,14 L7.833,12 Z M10.665,12 L12.554,12 L12.554,14 L10.665,14 L10.665,12 Z M10.665,15 L12.554,15 L12.554,17 L10.665,17 L10.665,15 Z M10.665,18 L12.554,18 L12.554,20 L10.665,20 L10.665,18 Z M7.833,15 L9.72,15 L9.72,17 L7.833,17 L7.833,15 Z" id="Shape" fill="#FFFFFF"></path>
        </g>
    </g>
</svg>