<?xml version="1.0" encoding="UTF-8"?>
<svg width="32px" height="32px" viewBox="0 0 32 32" version="1.1" xmlns="http://www.w3.org/2000/svg" xmlns:xlink="http://www.w3.org/1999/xlink">
    <!-- Generator: Sketch 51.2 (57519) - http://www.bohemiancoding.com/sketch -->
    <title>currency/xem</title>
    <desc>Created with Sketch.</desc>
    <defs></defs>
    <g id="currency/xem" stroke="none" stroke-width="1" fill="none" fill-rule="evenodd">
        <g id="xem" fill-rule="nonzero">
            <circle id="Oval" fill="#67B2E8" cx="16" cy="16" r="16"></circle>
            <path d="M6.145,11.954 C6.05142115,11.1848298 6.0030048,10.410836 6,9.636 C7.31251253,8.8883795 8.70536276,8.29158746 10.152,7.857 C12.1817251,7.24622254 14.2948607,6.95837445 16.414,7.004 C16.982,7.015 17.804,7.078 18.428,7.145 C16.8242108,8.00507786 15.6969817,9.5460534 15.363,11.335 C15.303,11.649 15.27,11.975 15.259,12.323 C15.243,12.859 15.191,13.281 15.079,13.676 C14.5632839,15.4993125 12.9672364,16.8090031 11.07833,16.9588844 C9.18942365,17.1087657 7.40680543,16.0671663 6.61,14.348 C6.56601242,14.2518725 6.53248646,14.1512946 6.51,14.048 C6.35161734,13.3568997 6.22978158,12.6579296 6.145,11.954 Z M22.758,20.514 C22.52,20.884 22.268,21.244 22.006,21.599 C22.0141235,20.5890534 21.7627629,19.5939407 21.276,18.709 C20.7752748,17.7767896 20.034342,16.9954612 19.13,16.446 L19.04,16.391 C18.9899661,16.3616122 18.9402957,16.3316099 18.891,16.301 C17.754,15.578 17.061,14.566 16.817,13.26 C16.3772323,10.8974804 17.8638084,8.60411926 20.2,8.041 C21.02,7.843 21.83,7.871 22.637,8.124 C23.256,8.319 23.882,8.574 24.645,8.931 C25.085,9.138 25.529,9.368 26.001,9.635 C25.9945496,11.0295979 25.843068,12.4197432 25.549,13.783 C25.0358213,16.1775876 24.0903624,18.4585495 22.759,20.514 L22.758,20.514 Z M19.721,24.187 C18.5919221,25.2629794 17.3438647,26.206739 16.001,27 C15.6539937,26.8000165 15.3147468,26.5868613 14.984,26.361 C11.7765101,24.2038396 9.2488133,21.1787886 7.696,17.639 C8.43574059,18.0740757 9.26172576,18.3420089 10.116,18.424 C11.3718914,18.5511544 12.6360079,18.280772 13.73,17.651 C14.2558841,17.3513682 14.8355403,17.1580362 15.436,17.082 C17.635058,16.8041774 19.7111149,18.1619575 20.338,20.288 C20.673,21.409 20.575,22.51 20.055,23.595 C20.011,23.687 19.973,23.761 19.883,23.938 L19.839,24.025 C19.8093478,24.0854277 19.7694205,24.1402431 19.721,24.187 Z" id="Shape" fill="#FFFFFF"></path>
        </g>
    </g>
</svg>