<?xml version="1.0" encoding="UTF-8"?>
<svg width="32px" height="32px" viewBox="0 0 32 32" version="1.1" xmlns="http://www.w3.org/2000/svg" xmlns:xlink="http://www.w3.org/1999/xlink">
    <!-- Generator: Sketch 51.2 (57519) - http://www.bohemiancoding.com/sketch -->
    <title>currency/xlm</title>
    <desc>Created with Sketch.</desc>
    <defs></defs>
    <g id="currency/xlm" stroke="none" stroke-width="1" fill="none" fill-rule="evenodd">
        <g id="xlm" fill-rule="nonzero">
            <circle id="Oval" fill="#14B6E7" cx="16" cy="16" r="16"></circle>
            <path d="M12.779,13.527 C13.4674145,12.2997839 14.1708004,11.0810262 14.889,9.871 C16.992,6.338 22.613,5.971 22.919,6.191 L22.916,6.197 L22.92,6.193 C23.226,6.413 24.78,11.943 22.232,15.155 C21.3649696,16.2461057 20.4845699,17.3265206 19.591,18.396 C20.521,19.858 21.155,22.327 18.966,25.807 C18.862,25.971 18.666,26.105 18.651,25.765 C18.617,24.936 18.328,23.288 16.748,21.748 L16.648,21.866 C16.163,22.45 15.759,22.371 15.092,21.891 L15.039,21.852 C14.963,22.138 14.838,22.415 14.662,22.671 C14.642,22.699 14.62,22.725 14.599,22.753 C13.119,24.836 11.032,25.861 9.894,25.039 C8.756,24.219 8.994,21.861 10.412,19.733 C10.431,19.703 10.447,19.673 10.467,19.643 C10.642,19.39 10.852,19.178 11.087,19.009 L11.086,19.009 C10.419,18.528 10.211,18.166 10.585,17.502 L10.638,17.406 C8.686,16.453 7.068,16.736 6.286,16.983 C5.961,17.086 6.02,16.85 6.14,16.693 C8.612,13.47 11.09,13.171 12.779,13.527 Z M11.733,19.474 C11.6383216,19.5614176 11.553179,19.6586277 11.479,19.764 C11.465,19.784 11.454,19.804 11.441,19.824 C10.441,21.289 10.266,22.905 11.059,23.464 C11.851,24.021 13.313,23.312 14.355,21.878 C14.37,21.858 14.386,21.841 14.4,21.821 C14.469,21.724 14.526,21.622 14.573,21.518 L13.09,20.45 L11.734,19.474 L11.733,19.474 Z M16.665,10.704 C15.9436577,11.7480864 16.187364,13.177031 17.214,13.923 C17.7052011,14.2757903 18.3179613,14.4154834 18.9135342,14.3104487 C19.5091072,14.205414 20.0371145,13.8645363 20.378,13.365 C21.1003579,12.3205902 20.8560747,10.8904229 19.828,10.145 C19.3367442,9.79263125 18.7241345,9.65328819 18.1287977,9.75850263 C17.5334608,9.86371707 17.005721,10.2045952 16.665,10.704 Z" id="Shape" fill="#FFFFFF"></path>
        </g>
    </g>
</svg>