<?xml version="1.0" encoding="UTF-8"?>
<svg width="32px" height="32px" viewBox="0 0 32 32" version="1.1" xmlns="http://www.w3.org/2000/svg" xmlns:xlink="http://www.w3.org/1999/xlink">
    <!-- Generator: Sketch 51.2 (57519) - http://www.bohemiancoding.com/sketch -->
    <title>currency/xmy</title>
    <desc>Created with Sketch.</desc>
    <defs></defs>
    <g id="currency/xmy" stroke="none" stroke-width="1" fill="none" fill-rule="evenodd">
        <g id="xmy" fill-rule="nonzero">
            <circle id="Oval" fill="#EC1076" cx="16" cy="16" r="16"></circle>
            <path d="M21.05,21 C20.448,21 19.787,20.697 19.787,19.788 C19.787,19.34 20.137,17.963 20.835,15.656 C20.978,15.3 21.049,14.98 21.049,14.697 C21.049,14.152 20.629,13.607 19.847,13.607 C19.393,13.607 18.404,13.787 18.104,14.757 C17.904,15.404 17.443,17.121 16.721,19.909 C16.441,20.636 15.94,21 15.219,21 C14.137,21 13.956,20.212 13.956,19.727 C13.956,19.535 14.244,18.374 14.821,16.247 C15.046,15.537 15.158,15.02 15.158,14.697 C15.158,14.212 14.798,13.607 13.956,13.607 C13.115,13.607 12.333,14.212 11.973,15.545 C11.733,16.435 11.392,17.768 10.951,19.545 C10.711,20.515 10.169,21 9.328,21 C8.566,21 8.166,20.576 8.126,19.727 L9.508,13.97 L6.443,13.97 C5.92595082,13.9880208 5.43975215,13.7243863 5.17276759,13.2812341 C4.90578302,12.8380819 4.89995945,12.2850373 5.15755306,11.8363613 C5.41514667,11.3876853 5.89568599,11.1138711 6.413,11.121 L11.552,11.121 C12.273,11.121 12.714,11.465 12.874,12.151 C13.596,11.243 14.557,11 15.4,11 C16.243,11 17.323,11.485 17.804,12.576 C18.464,11.848 19.607,11 21.23,11 C22.732,11 23.995,12.03 23.995,13.848 C23.995,14.535 23.654,15.97 22.973,18.152 L25.61,18.134 C26.381,18.134 27,18.776 27,19.567 C27,20.358 26.381,21 25.617,21 L21.05,21 Z" id="Shape" fill="#FFFFFF"></path>
        </g>
    </g>
</svg>