<?xml version="1.0" encoding="UTF-8"?>
<svg width="32px" height="32px" viewBox="0 0 32 32" version="1.1" xmlns="http://www.w3.org/2000/svg" xmlns:xlink="http://www.w3.org/1999/xlink">
    <!-- Generator: Sketch 51.2 (57519) - http://www.bohemiancoding.com/sketch -->
    <title>currency/xp</title>
    <desc>Created with Sketch.</desc>
    <defs></defs>
    <g id="currency/xp" stroke="none" stroke-width="1" fill="none" fill-rule="evenodd">
        <g id="xp" fill-rule="nonzero">
            <circle id="Oval" fill="#008200" cx="16" cy="16" r="16"></circle>
            <path d="M14.79,23 L12.992,23 L11.91,18.75 L14.555,17.368 L15.416,19.828 L16.057,16.583 L19.572,14.746 L19.378,15.722 L21.408,15.741 C22.192,15.729 22.799,15.464 23.231,14.948 C23.663,14.431 23.868,13.738 23.846,12.865 C23.8425008,12.7526304 23.8308031,12.6406662 23.811,12.53 L26.541,11.103 C26.919,11.798 27.063,12.617 26.975,13.558 C26.829,14.93 26.235,16.028 25.196,16.851 C24.157,17.675 22.832,18.087 21.223,18.087 L18.917,18.077 L17.94,23 L14.79,23 Z M15.211,12.01 L16.961,12.01 L14.264,15.835 L7.604,19.316 L10.072,15.826 L7.7,9 L11.18,9 L12.41,13.789 L13.462,12.009 L15.212,12.009 L13.462,12.009 L15.34,9 L17.555,9 L22.681,9.01 C23.846,9.042 24.801,9.351 25.547,9.937 L22.747,11.401 C22.6782401,11.3882388 22.6087854,11.3795569 22.539,11.375 L20.245,11.355 L19.945,12.865 L16.428,14.703 L16.96,12.009 L15.211,12.01 Z M5.786,21.952 L11.113,19.167 L8.765,23 L5,23 L5.767,21.915 L5.786,21.952 Z" id="Shape" fill="#FFFFFF"></path>
        </g>
    </g>
</svg>