<?xml version="1.0" encoding="UTF-8"?>
<svg width="32px" height="32px" viewBox="0 0 32 32" version="1.1" xmlns="http://www.w3.org/2000/svg" xmlns:xlink="http://www.w3.org/1999/xlink">
    <!-- Generator: Sketch 51.2 (57519) - http://www.bohemiancoding.com/sketch -->
    <title>currency/xrp</title>
    <desc>Created with Sketch.</desc>
    <defs></defs>
    <g id="currency/xrp" stroke="none" stroke-width="1" fill="none" fill-rule="evenodd">
        <g id="xrp" fill-rule="nonzero">
            <circle id="Oval" fill="#00AAE4" cx="16" cy="16" r="16"></circle>
            <path d="M21.96,18.205 C21.27,17.797 20.493,17.679 19.723,17.651 C19.077,17.628 18.113,17.204 18.113,16.001 C18.113,15.103 18.823,14.381 19.723,14.349 C20.493,14.322 21.271,14.203 21.961,13.795 C23.674,12.781 24.431,10.654 23.754,8.749 C23.077,6.844 21.163,5.712 19.214,6.064 C17.265,6.416 15.844,8.15 15.844,10.178 C15.844,10.987 16.126,11.732 16.484,12.422 C16.786,13.003 16.938,14.082 15.904,14.693 C15.134,15.148 14.174,14.86 13.694,14.074 C13.29,13.41 12.801,12.788 12.116,12.383 C10.403,11.369 8.226,11.763 6.954,13.315 C5.68183823,14.8789671 5.68183823,17.1210329 6.954,18.685 C8.226,20.238 10.403,20.631 12.116,19.617 C12.801,19.213 13.29,18.591 13.695,17.927 C14.027,17.382 14.857,16.687 15.904,17.307 C16.672,17.762 16.91,18.757 16.484,19.578 C16.125,20.268 15.844,21.013 15.844,21.823 C15.844,23.85 17.265,25.584 19.214,25.936 C21.163,26.288 23.077,25.156 23.754,23.251 C24.43,21.346 23.674,19.219 21.961,18.205 L21.96,18.205 Z" id="Shape" fill="#FFFFFF"></path>
        </g>
    </g>
</svg>