<?xml version="1.0" encoding="UTF-8"?>
<svg width="32px" height="32px" viewBox="0 0 32 32" version="1.1" xmlns="http://www.w3.org/2000/svg" xmlns:xlink="http://www.w3.org/1999/xlink">
    <!-- Generator: Sketch 51.2 (57519) - http://www.bohemiancoding.com/sketch -->
    <title>currency/xtz</title>
    <desc>Created with Sketch.</desc>
    <defs></defs>
    <g id="currency/xtz" stroke="none" stroke-width="1" fill="none" fill-rule="evenodd">
        <g id="xtz" fill-rule="nonzero">
            <circle id="Oval" fill="#A6E000" cx="16" cy="16" r="16"></circle>
            <path d="M18.19,26 C16.73,26 15.666,25.656 14.998,24.97 C14.331,24.282 13.997,23.541 13.997,22.747 C13.997,22.457 14.055,22.212 14.172,22.014 C14.2860891,21.8174808 14.4508157,21.6551716 14.649,21.544 C14.851,21.43 15.099,21.372 15.394,21.372 C15.689,21.372 15.938,21.43 16.14,21.544 C16.342,21.659 16.5,21.815 16.617,22.014 C16.734,22.212 16.792,22.457 16.792,22.747 C16.792,23.098 16.707,23.384 16.536,23.606 C16.365,23.828 16.163,23.972 15.93,24.041 C16.132,24.316 16.45,24.511 16.885,24.625 C17.32,24.748 17.755,24.809 18.189,24.809 C18.772339,24.815807 19.3444307,24.6483231 19.832,24.328 C20.321,24.007 20.682,23.533 20.914,22.908 C21.147,22.281 21.264,21.571 21.264,20.777 C21.264,19.914 21.136,19.177 20.88,18.566 C20.631,17.947 20.262,17.489 19.773,17.191 C19.2971089,16.8971033 18.7483226,16.7425839 18.189,16.745 C17.817,16.745 17.351,16.897 16.792,17.203 L15.767,17.707 L15.767,17.203 L20.379,11.155 L13.997,11.155 L13.997,17.432 C13.997,17.952 14.113,18.379 14.347,18.715 C14.579,19.051 14.937,19.219 15.417,19.219 C15.79,19.219 16.147,19.097 16.489,18.852 C16.832028,18.6061128 17.1312096,18.3042268 17.374,17.959 C17.3980293,17.8989412 17.438599,17.8469289 17.491,17.809 C17.5332101,17.7732054 17.5866575,17.7533839 17.642,17.753 C17.728,17.753 17.828,17.795 17.945,17.878 C18.0511025,17.9935697 18.1093625,18.1451171 18.108,18.302 C18.094663,18.4099971 18.0752995,18.5171643 18.05,18.623 C17.786,19.203 17.42,19.646 16.955,19.952 C16.4996047,20.2541002 15.9644767,20.4135593 15.418,20.41 C14.036,20.41 13.081,20.143 12.553,19.608 C12.025,19.074 11.761,18.348 11.761,17.432 L11.761,11.155 L8.5,11.155 L8.5,9.986 L11.76,9.986 L11.76,7.33 L11.016,6.596 L11.016,6 L13.182,6 L13.997,6.412 L13.997,9.986 L22.428,9.963 L23.268,10.788 L18.096,15.874 C18.4092843,15.7508325 18.7386576,15.6733725 19.074,15.644 C19.634,15.644 20.262,15.82 20.961,16.172 C21.668,16.515 22.211,16.989 22.591,17.592 C22.972,18.188 23.217,18.761 23.325,19.311 C23.4336942,19.7923308 23.4923392,20.2836086 23.5,20.777 C23.5073108,21.7224532 23.2918258,22.6563355 22.871,23.503 C22.4666208,24.3281314 21.7928454,24.9906185 20.961,25.381 C20.0965721,25.7957985 19.1487684,26.0075237 18.19,26 Z" id="Shape" fill="#FFFFFF"></path>
        </g>
    </g>
</svg>