<?xml version="1.0" encoding="UTF-8"?>
<svg width="32px" height="32px" viewBox="0 0 32 32" version="1.1" xmlns="http://www.w3.org/2000/svg" xmlns:xlink="http://www.w3.org/1999/xlink">
    <!-- Generator: Sketch 51.2 (57519) - http://www.bohemiancoding.com/sketch -->
    <title>currency/xuc</title>
    <desc>Created with Sketch.</desc>
    <defs></defs>
    <g id="currency/xuc" stroke="none" stroke-width="1" fill="none" fill-rule="evenodd">
        <g id="xuc" fill-rule="nonzero">
            <circle id="Oval" fill="#25AAE3" cx="16" cy="16" r="16"></circle>
            <path d="M27,16 C27,22.075 22.075,27 16,27 C9.925,27 5,22.075 5,16 C5,9.924 9.925,5 16,5 C22.075,5 27,9.925 27,16 Z M23.23,16.346 C23.237,16.221 23.23,16.346 23.23,16.219 C23.23,12.612 20.565,9.408 17.108,8.869 L17.108,6.769 L14.868,7.467 L14.868,8.87 C11.413,9.408 8.766,12.39 8.766,15.995 C8.766,19.685 11.536,22.725 15.11,23.16 L15.11,25.228 L17.35,24.53 L17.35,23.084 C19.8645645,22.5978144 21.9342655,20.81759 22.791,18.404 L20.47,18.404 C19.5863436,20.0569345 17.8643108,21.089001 15.99,21.089 C13.3208665,21.0870664 11.1058225,19.0251602 10.913,16.363 L23.231,16.346 L23.23,16.346 Z M11.25,14.13 C12.0161961,12.1817753 13.8965254,10.9008505 15.99,10.901 C18.0824555,10.9028041 19.9610673,12.183766 20.727,14.131 L11.251,14.131 L11.25,14.13 Z" id="Shape" fill="#FFFFFF"></path>
        </g>
    </g>
</svg>