<?xml version="1.0" encoding="UTF-8"?>
<svg width="32px" height="32px" viewBox="0 0 32 32" version="1.1" xmlns="http://www.w3.org/2000/svg" xmlns:xlink="http://www.w3.org/1999/xlink">
    <!-- Generator: Sketch 51.2 (57519) - http://www.bohemiancoding.com/sketch -->
    <title>currency/zcl</title>
    <desc>Created with Sketch.</desc>
    <defs></defs>
    <g id="currency/zcl" stroke="none" stroke-width="1" fill="none" fill-rule="evenodd">
        <g id="zcl" fill-rule="nonzero">
            <circle id="Oval" fill="#C87035" cx="16" cy="16" r="16"></circle>
            <path d="M15.992,27 C9.917,26.996 5,22.07 5,15.986 C5,9.915 9.932,4.996 16.015,5 C22.08,5.004 27.008,9.934 27,16.002 C26.988,22.004 22.164,26.992 15.992,27 Z M11.509,21.03 C11.54,20.971 11.564,20.924 11.587,20.886 C12.571,19.15 13.557,17.416 14.543,15.684 C15.407,14.166 16.269,12.646 17.128,11.126 C17.1525046,11.0660516 17.2135728,11.0294107 17.278,11.036 C18.282,11.041 19.29,11.041 20.293,11.041 L20.436,11.041 C19.042,13.501 17.658,15.944 16.263,18.401 C16.313,18.405 16.341,18.405 16.368,18.405 C18.887,18.405 21.404,18.406 23.92,18.409 C24.005,18.409 24.032,18.378 24.051,18.304 C24.4322489,16.9590142 24.4683611,15.5396328 24.156,14.177 C23.78,12.527 22.955,11.134 21.738,9.969 C21.1919171,9.44837459 20.5718843,9.01131886 19.898,8.672 C18.224,7.818 16.461,7.547 14.613,7.872 C12.773,8.199 11.223,9.068 9.952,10.442 C9.785,10.622 9.634,10.815 9.475,11.002 C9.479,11.013 9.487,11.022 9.491,11.032 L16.671,11.032 C16.631,11.107 16.604,11.161 16.573,11.212 C16.136,11.988 15.693,12.76 15.26,13.537 C15.2249389,13.6153734 15.143362,13.6622195 15.058,13.653 C12.796,13.649 10.534,13.648 8.274,13.649 L8.138,13.649 C6.992,17.252 8.611,21.771 12.672,23.579 C16.604,25.335 20.727,23.719 22.66,21.022 C18.945,21.029 15.228,21.032 11.51,21.029 L11.509,21.03 Z M24.152,22.928 C25.547,21.378 26.787,18.828 26.709,15.765 C26.647,13.242 25.783,11.025 24.168,9.065 C23.664,9.573 23.172,10.066 22.684,10.559 C25.244,13.638 25.354,18.191 22.711,21.46 L24.152,22.928 Z" id="Shape" fill="#FFFFFF"></path>
        </g>
    </g>
</svg>