<?xml version="1.0" encoding="UTF-8"?>
<svg width="32px" height="32px" viewBox="0 0 32 32" version="1.1" xmlns="http://www.w3.org/2000/svg" xmlns:xlink="http://www.w3.org/1999/xlink">
    <!-- Generator: Sketch 51.2 (57519) - http://www.bohemiancoding.com/sketch -->
    <title>currency/zen</title>
    <desc>Created with Sketch.</desc>
    <defs></defs>
    <g id="currency/zen" stroke="none" stroke-width="1" fill="none" fill-rule="evenodd">
        <g id="zen" fill-rule="nonzero">
            <circle id="Oval" fill="#234871" cx="16" cy="16" r="16"></circle>
            <path d="M18.665794,17.298457 L17.3211159,16.49375 L17.3211159,12.8669118 L14.160794,11.0213235 L14.160794,9.34893296 L18.665794,11.9695435 L18.665794,17.298457 Z M16.8311803,13.629134 L16.8311803,15.1632353 L13.6157725,17.0514706 L13.6157725,20.7919118 L12.3159657,21.5689344 L12.3159657,16.28163 L16.8311803,13.629134 Z M14.5346786,17.1137553 L15.9793562,16.2790441 L19.0670815,18.1180147 L22.1759657,16.2790441 L23.5760941,17.1159105 L19.0523428,19.7803539 L14.5346786,17.1137553 Z M19.0521245,20.2488971 L23.9708155,17.3518382 L23.9708155,23.1246324 L19.0521245,26 L14.1334335,23.1095588 L14.1334335,17.3455882 L19.0521245,20.2488971 Z M11.9146781,16.0492647 L11.9146781,21.8088235 L7,18.9463235 L7,13.1632353 L11.8975322,10.2768382 L16.8311803,13.1610294 L11.9146781,16.0492647 Z M23.9708155,8.86066176 L23.9708155,14.6544118 L19.0670815,17.5386029 L19.0670815,11.7360294 L14.160794,8.88198529 L19.0732833,6 L23.9708155,8.86066176 Z" id="Shape" fill="#FFFFFF"></path>
        </g>
    </g>
</svg>