<?xml version="1.0" encoding="UTF-8"?>
<svg width="50px" height="50px" viewBox="0 0 50 50" version="1.1" xmlns="http://www.w3.org/2000/svg" xmlns:xlink="http://www.w3.org/1999/xlink">
    <!-- Generator: Sketch 51.2 (57519) - http://www.bohemiancoding.com/sketch -->
    <title>Shape</title>
    <desc>Created with Sketch.</desc>
    <defs></defs>
    <g id="Symbols" stroke="none" stroke-width="1" fill="none" fill-rule="evenodd">
        <g id="Navigation_top" transform="translate(-31.000000, -15.000000)" fill="#76DDFB" fill-rule="nonzero">
            <g id="LogoMakr-8khjpw" transform="translate(31.000000, 14.000000)">
                <g id="Group" transform="translate(0.207758, 0.470164)">
                    <path d="M46.4810468,33.4884369 C46.1541759,33.4884369 45.8273049,33.5539378 45.500434,33.6194387 L39.2245121,24.2528127 C39.7475056,23.532303 40.0743765,22.6152907 40.0743765,21.6982784 C40.0743765,20.7157652 39.7475056,19.7987528 39.2245121,19.0782431 L45.3696856,7.8775925 C45.6311824,7.94309338 45.9580533,8.00859426 46.21955,8.00859426 C48.1154015,8.00859426 49.6190078,6.502074 49.6190078,4.60254845 C49.6190078,2.7030229 48.1154015,1.19650264 46.21955,1.19650264 C44.3236986,1.19650264 42.8200923,2.7030229 42.8200923,4.60254845 C42.8200923,5.71606343 43.3430858,6.69857664 44.1929503,7.35358545 L38.2438993,18.1612308 C37.5247832,17.6372238 36.6095446,17.3097194 35.6289318,17.3097194 C34.2560739,17.3097194 33.0139643,17.9647282 32.2294741,18.9472414 L32.1640999,18.8817405 L17.3241595,13.117663 C17.5856562,12.528155 17.7817788,11.8731462 17.7817788,11.1526365 C17.7817788,8.72890232 15.8207544,6.76407752 13.4017083,6.76407752 C10.9826621,6.76407752 9.02163777,8.72890232 9.02163777,11.1526365 C9.02163777,13.5763708 10.9826621,15.5411956 13.4017083,15.5411956 C14.6438178,15.5411956 15.8205532,15.0171885 16.6050434,14.1656771 L31.6411064,19.9952555 C31.4449838,20.5192625 31.3142355,21.0432696 31.3142355,21.6327775 C31.3142355,22.1567845 31.3796096,22.6807916 31.5757322,23.1392978 L15.9513016,26.28334 C15.2975597,24.645818 13.663205,23.4668022 11.7673536,23.4668022 C9.28313452,23.4668022 7.25653473,25.4973295 7.25653473,27.9863629 C7.25653473,29.4928832 7.97565079,30.8684017 9.15238615,31.6544123 L4.57619307,40.8245356 C4.31469633,40.7590347 4.11857377,40.7590347 3.85707702,40.7590347 C1.9612256,40.7590347 0.457619307,42.265555 0.457619307,44.1650805 C0.457619307,46.0646061 1.9612256,47.5711263 3.85707702,47.5711263 C5.75292844,47.5711263 7.25653473,46.0646061 7.25653473,44.1650805 C7.25653473,42.9860647 6.66816705,41.9380506 5.75292844,41.3485426 L10.2637473,32.3094211 C10.7213666,32.4404228 11.1789859,32.5714246 11.7019794,32.5714246 C14.1861985,32.5714246 16.2127983,30.5408973 16.2127983,28.0518638 L16.2127983,27.6588585 L32.1640999,24.4493154 C32.9485901,25.4973295 34.2560739,26.1523383 35.6289318,26.1523383 C36.6095446,26.1523383 37.5247832,25.8248339 38.2438993,25.2353259 L44.3236986,34.2089466 C43.5392084,34.8639554 43.0162149,35.7809678 43.0162149,36.8944827 C43.0162149,37.4184898 43.1469633,37.876996 43.3430858,38.3355021 L34.0599513,43.0515656 C33.2754611,41.8725497 31.9026031,41.0865391 30.3989968,41.0865391 C27.9799507,41.0865391 26.0189263,43.0513639 26.0189263,45.4750981 C26.0189263,47.8988324 27.9799507,49.8636572 30.3989968,49.8636572 C32.818043,49.8636572 34.7790674,47.8988324 34.7790674,45.4750981 C34.7790674,45.016592 34.7136932,44.6235867 34.5829448,44.2305814 L44.0622019,39.3835162 C44.6505696,39.9730242 45.500434,40.3005286 46.3502984,40.3005286 C48.2461498,40.3005286 49.7497561,38.7940083 49.7497561,36.8944827 C49.7497561,34.9949572 48.3768982,33.4884369 46.4810468,33.4884369 Z M46.2849242,2.50652026 C47.4616596,2.50652026 48.3768982,3.42353259 48.3768982,4.60254845 C48.3768982,5.78156431 47.4616596,6.69857664 46.2849242,6.69857664 C45.1081889,6.69857664 44.1929503,5.78156431 44.1929503,4.60254845 C44.1929503,3.42353259 45.1081889,2.50652026 46.2849242,2.50652026 Z M13.4017083,14.2966788 C11.7019794,14.2966788 10.3291215,12.9211603 10.3291215,11.2181374 C10.3291215,9.51511452 11.7019794,8.13959602 13.4017083,8.13959602 C15.1014371,8.13959602 16.4742951,9.51511452 16.4742951,11.2181374 C16.5396693,12.9211603 15.1014371,14.2966788 13.4017083,14.2966788 Z M3.85707702,46.2611087 C2.68034166,46.2611087 1.76510304,45.3440964 1.76510304,44.1650805 C1.76510304,42.9860647 2.68034166,42.0690523 3.85707702,42.0690523 C5.03381238,42.0690523 5.949051,42.9860647 5.949051,44.1650805 C5.949051,45.3440964 5.03381238,46.2611087 3.85707702,46.2611087 Z M11.7673536,31.1959061 C10.0022506,31.1959061 8.56401847,29.7548867 8.56401847,27.9863629 C8.56401847,26.2178392 10.0022506,24.7768198 11.7673536,24.7768198 C13.5324567,24.7768198 14.9706888,26.2178392 14.9706888,27.9863629 C14.9706888,29.7548867 13.5324567,31.1959061 11.7673536,31.1959061 Z M32.6217192,21.6982784 C32.6217192,19.9952555 33.9945771,18.619737 35.694306,18.619737 C37.3940348,18.619737 38.7668928,19.9952555 38.7668928,21.6982784 C38.7668928,23.4013013 37.3940348,24.7768198 35.694306,24.7768198 C33.9945771,24.8423207 32.6217192,23.4013013 32.6217192,21.6982784 Z M30.464371,48.6191404 C28.7646422,48.6191404 27.3917843,47.2436219 27.3917843,45.540599 C27.3917843,43.8375761 28.7646422,42.4620576 30.464371,42.4620576 C32.1640999,42.4620576 33.5369578,43.8375761 33.5369578,45.540599 C33.602332,47.2436219 32.1640999,48.6191404 30.464371,48.6191404 Z M46.4810468,38.9905109 C45.3043114,38.9905109 44.3890728,38.0734986 44.3890728,36.8944827 C44.3890728,35.7154669 45.3043114,34.7984546 46.4810468,34.7984546 C47.6577822,34.7984546 48.5730208,35.7154669 48.5730208,36.8944827 C48.5730208,38.0734986 47.6577822,38.9905109 46.4810468,38.9905109 Z" id="Shape"></path>
                </g>
            </g>
        </g>
    </g>
</svg>