<?xml version="1.0" encoding="UTF-8"?>
<svg width="317px" height="50px" viewBox="0 0 317 50" version="1.1" xmlns="http://www.w3.org/2000/svg" xmlns:xlink="http://www.w3.org/1999/xlink">
    <!-- Generator: Sketch 51.2 (57519) - http://www.bohemiancoding.com/sketch -->
    <title>logo</title>
    <desc>Created with Sketch.</desc>
    <defs></defs>
    <g id="Symbols" stroke="none" stroke-width="1" fill="none" fill-rule="evenodd">
        <g id="Navigation_top" transform="translate(-31.000000, -15.000000)" fill="#76DDFB">
            <g id="logo" transform="translate(31.207758, 14.470164)">
                <path d="M76.6051757,39.1157735 C68.9489257,39.1157735 64.1833007,33.4907735 64.1833007,24.4478047 C64.1833007,15.404836 68.9489257,9.76030473 76.5856444,9.76030473 C82.3864257,9.76030473 87.0739257,13.607961 87.8356444,18.9595235 L85.1208007,18.9595235 C84.3004882,14.9751485 80.8239257,12.2407735 76.5856444,12.2407735 C70.6872069,12.2407735 66.9176757,16.9868672 66.9176757,24.4478047 C66.9176757,31.9087422 70.6676757,36.6353047 76.6051757,36.6353047 C80.9606444,36.6353047 84.3395507,34.2134297 85.1208007,30.5024922 L87.8356444,30.5024922 C87.0348632,35.6782735 82.5817382,39.1157735 76.6051757,39.1157735 Z M92.5882486,38.529836 L92.5882486,17.4946797 L95.0296549,17.4946797 L95.0296549,20.951711 L95.2835611,20.951711 C95.9866861,18.6665547 98.3499674,17.1431172 101.142936,17.1431172 C101.846061,17.1431172 102.549186,17.1821797 103.115592,17.3188985 L103.115592,19.8774922 C102.646842,19.7407735 101.592155,19.623586 100.830436,19.623586 C97.5687174,19.623586 95.1468424,22.0845235 95.1468424,25.404836 L95.1468424,38.529836 L92.5882486,38.529836 Z M108.161165,45.9712422 C107.848665,45.9712422 107.30179,45.9321797 106.969759,45.8931172 L106.969759,43.6665547 C107.262728,43.7251485 107.809603,43.7446797 108.122103,43.7446797 C110.055697,43.7446797 111.110384,42.7681172 112.14554,39.9751485 L112.575228,38.6665547 L104.684603,17.4946797 L107.45804,17.4946797 L113.825228,35.7368672 L114.059603,35.7368672 L120.407259,17.4946797 L123.141634,17.4946797 L114.95804,39.545461 C113.08304,44.6040547 111.598665,45.9712422 108.161165,45.9712422 Z M136.800488,17.1431172 C142.13252,17.1431172 145.648145,21.4595235 145.648145,28.0024922 C145.648145,34.545461 142.112988,38.8813985 136.800488,38.8813985 C133.53877,38.8813985 130.88252,37.2407735 129.710645,34.5259297 L129.47627,34.5259297 L129.47627,45.5024922 L126.917676,45.5024922 L126.917676,17.4946797 L129.359082,17.4946797 L129.359082,21.7915547 L129.593457,21.7915547 C130.88252,18.920461 133.597363,17.1431172 136.800488,17.1431172 Z M136.234082,36.5571797 C140.394238,36.5571797 143.011426,33.2563985 143.011426,28.0220235 C143.011426,22.7681172 140.394238,19.4478047 136.253613,19.4478047 C132.13252,19.4478047 129.398145,22.8462422 129.398145,28.0024922 C129.398145,33.1587422 132.13252,36.5571797 136.234082,36.5571797 Z M151.67028,12.0259297 L154.228874,12.0259297 L154.228874,17.4946797 L159.092155,17.4946797 L159.092155,19.6626485 L154.228874,19.6626485 L154.228874,32.7095235 C154.228874,35.2876485 155.205436,36.3813985 157.568717,36.3813985 C157.978874,36.3813985 158.662467,36.3618672 159.092155,36.3228047 L159.092155,38.5103047 C158.642936,38.5884297 157.744499,38.6470235 157.29528,38.6470235 C153.271842,38.6470235 151.67028,37.123586 151.67028,33.295461 L151.67028,19.6626485 L148.23278,19.6626485 L148.23278,17.4946797 L151.67028,17.4946797 L151.67028,12.0259297 Z M171.754915,38.8813985 C165.876009,38.8813985 162.204134,34.7212422 162.204134,28.0024922 C162.204134,21.2837422 165.876009,17.1431172 171.754915,17.1431172 C177.633822,17.1431172 181.325228,21.2837422 181.325228,28.0024922 C181.325228,34.7212422 177.633822,38.8813985 171.754915,38.8813985 Z M171.754915,36.5571797 C176.090853,36.5571797 178.668978,33.3345235 178.668978,28.0024922 C178.668978,22.670461 176.090853,19.4478047 171.754915,19.4478047 C167.418978,19.4478047 164.840853,22.670461 164.840853,28.0024922 C164.840853,33.3345235 167.418978,36.5571797 171.754915,36.5571797 Z M215.068718,38.529836 L211.943718,29.8970235 L200.10778,29.8970235 L196.98278,38.529836 L194.150749,38.529836 L204.697624,10.3462422 L207.353874,10.3462422 L217.881218,38.529836 L215.068718,38.529836 Z M205.88903,13.842336 L200.908561,27.592336 L211.142936,27.592336 L206.142936,13.842336 L205.88903,13.842336 Z M221.989291,38.529836 L221.989291,9.11577348 L224.547884,9.11577348 L224.547884,38.529836 L221.989291,38.529836 Z M230.706738,38.529836 L230.706738,9.11577348 L233.265332,9.11577348 L233.265332,38.529836 L230.706738,38.529836 Z M247.549186,19.4087422 C243.721061,19.4087422 241.064811,22.2407735 240.830436,26.576711 L253.935905,26.576711 C253.877311,22.2407735 251.35778,19.4087422 247.549186,19.4087422 Z M253.681999,33.3345235 L256.279655,33.3345235 C255.244499,36.7524922 252.002311,38.8813985 247.588249,38.8813985 C241.806999,38.8813985 238.174186,34.6626485 238.174186,28.0220235 C238.174186,21.420461 241.846061,17.1431172 247.568718,17.1431172 C253.174186,17.1431172 256.611686,21.1274922 256.611686,27.5532735 L256.611686,28.686086 L240.810905,28.686086 L240.810905,28.8032735 C240.947624,33.5493672 243.584343,36.5962422 247.646843,36.5962422 C250.635124,36.5962422 252.783561,35.404836 253.681999,33.3345235 Z M269.645541,36.029836 C273.864291,36.029836 276.481478,32.7681172 276.481478,27.7876485 C276.481478,22.7876485 273.805697,19.4478047 269.645541,19.4478047 C265.446322,19.4478047 262.907259,22.748586 262.907259,27.748586 C262.907259,32.7290547 265.446322,36.029836 269.645541,36.029836 Z M269.860384,46.420461 C265.036166,46.420461 261.833041,44.2720235 261.286166,40.9907735 L264.001009,40.9907735 C264.469759,42.9243672 266.657259,44.1743672 269.860384,44.1743672 C273.922884,44.1743672 276.442416,42.045461 276.442416,38.6470235 L276.442416,33.920461 L276.188509,33.920461 C274.938509,36.6938985 272.360384,38.3149922 269.137728,38.3149922 C263.727572,38.3149922 260.270541,34.0571797 260.270541,27.748586 C260.270541,21.4399922 263.747103,17.1431172 269.137728,17.1431172 C272.360384,17.1431172 275.153353,18.920461 276.305697,21.654836 L276.540072,21.654836 L276.540072,17.4946797 L279.001009,17.4946797 L279.001009,38.842336 C279.001009,43.4126485 275.387728,46.420461 269.860384,46.420461 Z M284.749707,38.529836 L284.749707,17.4946797 L287.191114,17.4946797 L287.191114,20.951711 L287.44502,20.951711 C288.148145,18.6665547 290.511426,17.1431172 293.304395,17.1431172 C294.00752,17.1431172 294.710645,17.1821797 295.277051,17.3188985 L295.277051,19.8774922 C294.808301,19.7407735 293.753614,19.623586 292.991895,19.623586 C289.730176,19.623586 287.308301,22.0845235 287.308301,25.404836 L287.308301,38.529836 L284.749707,38.529836 Z M306.689812,38.8813985 C300.810905,38.8813985 297.13903,34.7212422 297.13903,28.0024922 C297.13903,21.2837422 300.810905,17.1431172 306.689812,17.1431172 C312.568718,17.1431172 316.260124,21.2837422 316.260124,28.0024922 C316.260124,34.7212422 312.568718,38.8813985 306.689812,38.8813985 Z M306.689812,36.5571797 C311.025749,36.5571797 313.603874,33.3345235 313.603874,28.0024922 C313.603874,22.670461 311.025749,19.4478047 306.689812,19.4478047 C302.353874,19.4478047 299.775749,22.670461 299.775749,28.0024922 C299.775749,33.3345235 302.353874,36.5571797 306.689812,36.5571797 Z" id="Crypto-Allegro"></path>
                <path d="M46.4810468,33.4884369 C46.1541759,33.4884369 45.8273049,33.5539378 45.500434,33.6194387 L39.2245121,24.2528127 C39.7475056,23.532303 40.0743765,22.6152907 40.0743765,21.6982784 C40.0743765,20.7157652 39.7475056,19.7987528 39.2245121,19.0782431 L45.3696856,7.8775925 C45.6311824,7.94309338 45.9580533,8.00859426 46.21955,8.00859426 C48.1154015,8.00859426 49.6190078,6.502074 49.6190078,4.60254845 C49.6190078,2.7030229 48.1154015,1.19650264 46.21955,1.19650264 C44.3236986,1.19650264 42.8200923,2.7030229 42.8200923,4.60254845 C42.8200923,5.71606343 43.3430858,6.69857664 44.1929503,7.35358545 L38.2438993,18.1612308 C37.5247832,17.6372238 36.6095446,17.3097194 35.6289318,17.3097194 C34.2560739,17.3097194 33.0139643,17.9647282 32.2294741,18.9472414 L32.1640999,18.8817405 L17.3241595,13.117663 C17.5856562,12.528155 17.7817788,11.8731462 17.7817788,11.1526365 C17.7817788,8.72890232 15.8207544,6.76407752 13.4017083,6.76407752 C10.9826621,6.76407752 9.02163777,8.72890232 9.02163777,11.1526365 C9.02163777,13.5763708 10.9826621,15.5411956 13.4017083,15.5411956 C14.6438178,15.5411956 15.8205532,15.0171885 16.6050434,14.1656771 L31.6411064,19.9952555 C31.4449838,20.5192625 31.3142355,21.0432696 31.3142355,21.6327775 C31.3142355,22.1567845 31.3796096,22.6807916 31.5757322,23.1392978 L15.9513016,26.28334 C15.2975597,24.645818 13.663205,23.4668022 11.7673536,23.4668022 C9.28313452,23.4668022 7.25653473,25.4973295 7.25653473,27.9863629 C7.25653473,29.4928832 7.97565079,30.8684017 9.15238615,31.6544123 L4.57619307,40.8245356 C4.31469633,40.7590347 4.11857377,40.7590347 3.85707702,40.7590347 C1.9612256,40.7590347 0.457619307,42.265555 0.457619307,44.1650805 C0.457619307,46.0646061 1.9612256,47.5711263 3.85707702,47.5711263 C5.75292844,47.5711263 7.25653473,46.0646061 7.25653473,44.1650805 C7.25653473,42.9860647 6.66816705,41.9380506 5.75292844,41.3485426 L10.2637473,32.3094211 C10.7213666,32.4404228 11.1789859,32.5714246 11.7019794,32.5714246 C14.1861985,32.5714246 16.2127983,30.5408973 16.2127983,28.0518638 L16.2127983,27.6588585 L32.1640999,24.4493154 C32.9485901,25.4973295 34.2560739,26.1523383 35.6289318,26.1523383 C36.6095446,26.1523383 37.5247832,25.8248339 38.2438993,25.2353259 L44.3236986,34.2089466 C43.5392084,34.8639554 43.0162149,35.7809678 43.0162149,36.8944827 C43.0162149,37.4184898 43.1469633,37.876996 43.3430858,38.3355021 L34.0599513,43.0515656 C33.2754611,41.8725497 31.9026031,41.0865391 30.3989968,41.0865391 C27.9799507,41.0865391 26.0189263,43.0513639 26.0189263,45.4750981 C26.0189263,47.8988324 27.9799507,49.8636572 30.3989968,49.8636572 C32.818043,49.8636572 34.7790674,47.8988324 34.7790674,45.4750981 C34.7790674,45.016592 34.7136932,44.6235867 34.5829448,44.2305814 L44.0622019,39.3835162 C44.6505696,39.9730242 45.500434,40.3005286 46.3502984,40.3005286 C48.2461498,40.3005286 49.7497561,38.7940083 49.7497561,36.8944827 C49.7497561,34.9949572 48.3768982,33.4884369 46.4810468,33.4884369 Z M46.2849242,2.50652026 C47.4616596,2.50652026 48.3768982,3.42353259 48.3768982,4.60254845 C48.3768982,5.78156431 47.4616596,6.69857664 46.2849242,6.69857664 C45.1081889,6.69857664 44.1929503,5.78156431 44.1929503,4.60254845 C44.1929503,3.42353259 45.1081889,2.50652026 46.2849242,2.50652026 Z M13.4017083,14.2966788 C11.7019794,14.2966788 10.3291215,12.9211603 10.3291215,11.2181374 C10.3291215,9.51511452 11.7019794,8.13959602 13.4017083,8.13959602 C15.1014371,8.13959602 16.4742951,9.51511452 16.4742951,11.2181374 C16.5396693,12.9211603 15.1014371,14.2966788 13.4017083,14.2966788 Z M3.85707702,46.2611087 C2.68034166,46.2611087 1.76510304,45.3440964 1.76510304,44.1650805 C1.76510304,42.9860647 2.68034166,42.0690523 3.85707702,42.0690523 C5.03381238,42.0690523 5.949051,42.9860647 5.949051,44.1650805 C5.949051,45.3440964 5.03381238,46.2611087 3.85707702,46.2611087 Z M11.7673536,31.1959061 C10.0022506,31.1959061 8.56401847,29.7548867 8.56401847,27.9863629 C8.56401847,26.2178392 10.0022506,24.7768198 11.7673536,24.7768198 C13.5324567,24.7768198 14.9706888,26.2178392 14.9706888,27.9863629 C14.9706888,29.7548867 13.5324567,31.1959061 11.7673536,31.1959061 Z M32.6217192,21.6982784 C32.6217192,19.9952555 33.9945771,18.619737 35.694306,18.619737 C37.3940348,18.619737 38.7668928,19.9952555 38.7668928,21.6982784 C38.7668928,23.4013013 37.3940348,24.7768198 35.694306,24.7768198 C33.9945771,24.8423207 32.6217192,23.4013013 32.6217192,21.6982784 Z M30.464371,48.6191404 C28.7646422,48.6191404 27.3917843,47.2436219 27.3917843,45.540599 C27.3917843,43.8375761 28.7646422,42.4620576 30.464371,42.4620576 C32.1640999,42.4620576 33.5369578,43.8375761 33.5369578,45.540599 C33.602332,47.2436219 32.1640999,48.6191404 30.464371,48.6191404 Z M46.4810468,38.9905109 C45.3043114,38.9905109 44.3890728,38.0734986 44.3890728,36.8944827 C44.3890728,35.7154669 45.3043114,34.7984546 46.4810468,34.7984546 C47.6577822,34.7984546 48.5730208,35.7154669 48.5730208,36.8944827 C48.5730208,38.0734986 47.6577822,38.9905109 46.4810468,38.9905109 Z" id="Shape" fill-rule="nonzero"></path>
            </g>
        </g>
    </g>
</svg>